<?xml version="1.0" encoding="UTF-8"?>
<svg id="_레이어_2" data-name="레이어 2" xmlns="http://www.w3.org/2000/svg" viewBox="0 0 1920 1080.5">
  <defs>
    <style>
      .cls-1 {
        fill: #f4f5f6;
      }

      .cls-2 {
        fill: #f4f4f4;
      }

      .cls-3, .cls-4 {
        fill: #fff;
      }

      .cls-5 {
        fill: #ecedef;
      }

      .cls-6 {
        fill: #444;
      }

      .cls-7 {
        stroke-width: 5px;
      }

      .cls-7, .cls-8 {
        fill: none;
        stroke-linecap: round;
        stroke-linejoin: round;
      }

      .cls-7, .cls-8, .cls-9, .cls-10, .cls-11, .cls-4, .cls-12, .cls-13, .cls-14, .cls-15 {
        stroke: #444;
      }

      .cls-8 {
        stroke-width: 2px;
      }

      .cls-9 {
        fill: #e1dcd5;
      }

      .cls-9, .cls-10, .cls-11, .cls-4, .cls-12, .cls-13, .cls-14, .cls-15 {
        stroke-miterlimit: 10;
        stroke-width: 3px;
      }

      .cls-10 {
        fill: #0575b5;
      }

      .cls-11 {
        fill: #e3dfd6;
      }

      .cls-12 {
        fill: #f3bf44;
      }

      .cls-13 {
        fill: #028f52;
      }

      .cls-14 {
        fill: #f4a6a3;
      }

      .cls-15 {
        fill: #f45f22;
      }
    </style>
  </defs>
  <g id="_레이어_1-2" data-name="레이어 1">
    <g>
      <path class="cls-2" d="M0,0V194.9c39.56,.34,79.57,4.73,118,7.1,22,1,43,5,66,9,57,8,111,22,162,50,52,28,95,64,138,106,4,3,10,4,14,7,39,33,78,62,128,72,63,13,124,16,185-4,57-20,103-57,158-78,96-37,199-33,300-30,72,3,139,24,202,65,93,61,170,128,270,169,57.05,23.54,118.2,16.75,179,16V0H0Z"/>
      <path class="cls-5" d="M1741,568c-100-41-177-108-270-169-63-41-130-62-202-65-101-3-204-7-300,30-55,21-101,58-158,78-61,20-122,17-185,4-50-10-89-39-128-72-4-3-10-4-14-7-43-42-86-78-138-106-51-28-105-42-162-50-23-4-44-8-66-9-38.43-2.37-78.44-6.77-118-7.1v885.1H1920v-496c-60.8,.75-121.95,7.55-179-16Z"/>
      <g>
        <path class="cls-14" d="M1699.34,829.78l-13.31,13.31s-.06,.07-.09,.1c-.37-.5-.78-.98-1.24-1.43l-13.31-13.31c-5.15-5.15-13.49-5.15-18.63,0s-5.15,13.49,0,18.63l13.31,13.31c.45,.45,.93,.86,1.43,1.24-.03,.03-.07,.06-.1,.09l-13.31,13.31c-5.15,5.15-5.15,13.49,0,18.63,5.15,5.15,13.49,5.15,18.63,0l13.31-13.31,11.98,11.98c5.15,5.15,13.49,5.15,18.63,0,5.15-5.15,5.15-13.49,0-18.63l-11.98-11.98,13.31-13.31c5.15-5.15,5.15-13.49,0-18.63s-13.49-5.15-18.63,0Z"/>
        <circle class="cls-6" cx="1685.37" cy="861.06" r="7.2"/>
        <line class="cls-7" x1="1685.37" y1="883.31" x2="1685.37" y2="932.25"/>
        <g>
          <path class="cls-13" d="M1671.94,917.59c11.84,6.52,14.86,12.03,12.86,15.67-2.01,3.64-8.28,4.03-20.12-2.48-11.84-6.52-22.75-21.12-22.75-21.12,0,0,18.17,1.41,30.01,7.93Z"/>
          <path class="cls-13" d="M1698.8,917.59c-11.84,6.52-14.86,12.03-12.86,15.67,2.01,3.64,8.28,4.03,20.12-2.48,11.84-6.52,22.75-21.12,22.75-21.12,0,0-18.17,1.41-30.01,7.93Z"/>
        </g>
      </g>
      <g>
        <path class="cls-12" d="M1597.76,931.37l-13.31,13.31s-.06,.07-.09,.1c-.37-.5-.78-.98-1.24-1.43l-13.31-13.31c-5.15-5.15-13.49-5.15-18.63,0s-5.15,13.49,0,18.63l13.31,13.31c.45,.45,.93,.86,1.43,1.24-.03,.03-.07,.06-.1,.09l-13.31,13.31c-5.15,5.15-5.15,13.49,0,18.63s13.49,5.15,18.63,0l13.31-13.31,11.98,11.98c5.15,5.15,13.49,5.15,18.63,0,5.15-5.15,5.15-13.49,0-18.63l-11.98-11.98,13.31-13.31c5.15-5.15,5.15-13.49,0-18.63-5.15-5.15-13.49-5.15-18.63,0Z"/>
        <circle class="cls-6" cx="1583.78" cy="962.64" r="7.2"/>
        <line class="cls-7" x1="1583.78" y1="984.9" x2="1583.78" y2="1033.83"/>
        <g>
          <path class="cls-13" d="M1570.35,1019.18c11.84,6.52,14.86,12.03,12.86,15.67-2.01,3.64-8.28,4.03-20.12-2.48-11.84-6.52-22.75-21.12-22.75-21.12,0,0,18.17,1.41,30.01,7.93Z"/>
          <path class="cls-13" d="M1597.21,1019.18c-11.84,6.52-14.86,12.03-12.86,15.67,2.01,3.64,8.28,4.03,20.12-2.48,11.84-6.52,22.75-21.12,22.75-21.12,0,0-18.17,1.41-30.01,7.93Z"/>
        </g>
      </g>
      <polygon class="cls-13" points="1152.44 982.29 1152.44 1055 1198.21 1055 1198.21 1004.08 1175.32 1027.66 1152.44 982.29"/>
      <polygon class="cls-13" points="1390.45 925.9 1390.45 974.72 1448.47 974.72 1448.47 926.13 1439.48 950.31 1423.78 910.69 1411.24 955.18 1390.45 925.9"/>
      <path class="cls-11" d="M1531,392.41c23.07,3.1,45.7,8.16,67.2,18.45,4.65,2.22,9.37,4.84,12.24,9.13,2.86,4.28,3.2,10.68-.57,14.19-3.35,3.12-8.5,3-13.06,2.61-72.73-6.11-143.6-28.63-216.54-31.35-20.81-.78-42.45,.18-62.37,6.77-16.27,5.38-38.75,18.06-40.52,37.35-2.02,21.95,26.1,35.93,42.32,44.55,86.23,45.81,192.6,45.92,274.5,99.1,12.21,7.93,34.88,27.11,24.29,44.34-2.48,4.04-6.93,6.42-11.29,8.29-18.94,8.15-38.53,8.35-58.77,8.5-43.61,.33-87.27-3.79-130.7-7.23-93.87-7.45-194.8-21.13-287.95-1.13-27.06,5.81-57.71,15.87-74.21,39.76l-313.97,393.26h542.7c1.45-57.64,6.91-115.8,17.01-172.55,7.3-40.99,15.97-96.01,46.87-126.87,5.81-5.8,13.41-10.23,21.61-10.59,4.82-.21,9.58,.97,14.26,2.15,47.77,12,95.52,22.53,144.61,27.54,43.8,4.47,91.1,6.56,133.59-7.05,42.48-13.61,67.63-51.03,77.03-93.09,9.3-41.61,11.01-102.82-17.22-137.63-19.2-23.67-47.89-29.1-75.21-38.2-27.49-9.16-55.79-16.28-83.86-23.42-63.97-16.27-128.7-27.43-193.96-36.94-4.3-.63-8.7-1.29-12.54-3.33-3.83-2.05-7.06-5.79-7.25-10.14-.16-3.72,1.94-7.28,4.82-9.65,10.45-8.59,26.37-6.07,38.88-5.76,37.57,.93,74.83,6.3,111.81,12.61,34.71,5.92,76.58,20.47,111.86,15.68,10.54-1.43,21.06-6.26,27.1-15.02,8.97-13,5.65-31.67-4.19-44.02-9.85-12.35-24.81-19.47-39.77-24.53-53.87-18.21-112.58-14.61-168.22-26.3-6.18-1.3-12.52-2.88-17.56-6.69s-8.47-10.43-6.74-16.51c2.5-8.79,13.32-11.65,22.38-12.89,100.78-13.77,204.19-9.92,302.81-34.82-1.32-7.39-2.63-14.78-3.95-22.17-103.64,10.25-207.28,20.5-310.92,30.75-11.96,1.18-24.15,2.42-35.19,7.17-11.05,4.75-20.97,13.65-23.87,25.32-3.1,12.52,2.55,26.02,11.76,35.05,9.21,9.03,21.49,14.24,33.82,18.02,40.96,12.56,84.69,11.64,126.95,17.31Z"/>
      <g>
        <g>
          <path class="cls-3" d="M1344.68,625.36c14.21-3.69,29.86-3.33,42.97,3.28,13.11,6.62,23.11,20.11,23.38,34.79,.06,2.94-.26,5.89,.1,8.8,1.14,9.2,8.66,16.25,11.94,24.92,3.74,9.88,1.34,21.82-5.93,29.48-7.28,7.67-19.07,10.69-29.13,7.46"/>
          <path class="cls-6" d="M1345.08,626.81c12.65-3.25,26.43-3.35,38.65,1.68,10.48,4.31,19.47,12.85,23.53,23.53,.99,2.61,1.72,5.34,2.05,8.11,.4,3.3,.06,6.6,.17,9.92,.19,6.16,2.97,11.47,6.14,16.61,3.05,4.94,6.26,9.81,7.31,15.62,1.02,5.63,.12,11.69-2.39,16.83-5.73,11.71-19.75,17.43-32.13,13.56-1.85-.58-2.64,2.32-.8,2.89,11.63,3.63,25.11-.45,32.55-10.16,3.68-4.81,5.77-10.74,6.12-16.78s-1.38-12.07-4.41-17.46-7.02-10.33-8.68-16.33c-.99-3.59-.62-7.23-.64-10.91-.02-2.99-.42-5.98-1.17-8.87-3.01-11.6-11.5-21.55-21.98-27.19-13.74-7.39-30.25-7.76-45.11-3.95-1.87,.48-1.08,3.37,.8,2.89h0Z"/>
        </g>
        <g>
          <path class="cls-3" d="M1191.39,819.91c1.65,6.61,4.27,14.29,10.82,16.17,6.58,1.89,13.06-3.29,19.89-3.81,4.4-.33,8.68,1.31,12.99,2.26,13.56,2.98,28.49-1.26,38.45-10.93"/>
          <path class="cls-6" d="M1189.94,820.31c1.33,5.29,3.12,11.33,7.52,14.91,2.31,1.88,5.16,2.87,8.15,2.78,3.31-.1,6.43-1.31,9.51-2.41,3.32-1.18,6.57-2.12,10.14-1.74,3.79,.4,7.4,1.82,11.14,2.47,6.4,1.12,13.01,.77,19.28-.95,7.07-1.94,13.62-5.62,18.91-10.7,1.39-1.34-.73-3.46-2.12-2.12-8.81,8.47-21.43,12.63-33.56,11.14-6.76-.83-13.04-4.01-19.96-2.42-5.5,1.27-11.82,5.55-17.53,2.95s-7.28-9.44-8.59-14.7c-.47-1.87-3.36-1.08-2.89,.8h0Z"/>
        </g>
        <ellipse class="cls-1" cx="1380.63" cy="677.81" rx="18" ry="45" transform="translate(-157.29 696.99) rotate(-26.86)"/>
        <g>
          <polygon class="cls-3" points="1283.61 628.8 1182.86 609.35 1013.56 757.56 990.03 804.47 1064.55 834.93 1191.55 843.37 1199.84 833.71 1262.66 828.96 1279.93 818.62 1322.91 670.96 1283.61 628.8"/>
          <g>
            <path class="cls-3" d="M1018.69,753.06c-23.18,12.29-41.6,31.8-58.83,51.59-5.95,6.83-12.11,14.47-12.49,23.52-.24,5.67,1.87,11.25,1.52,16.91-.23,3.76-1.53,7.4-1.72,11.16-.39,7.75,4.5,15.5,11.67,18.48,3.19,1.33,6.68,1.76,10.12,2.12,15.19,1.61,31.75,1.84,44.29-6.89,10.55-7.35,16.43-19.86,26.45-27.9,6.76-5.43,15.09-8.56,23.49-10.69"/>
            <path class="cls-6" d="M1017.93,751.77c-16.85,8.97-31.29,21.74-44.38,35.5-6.52,6.85-13.05,13.86-18.91,21.28-2.85,3.61-5.43,7.44-7.11,11.75s-1.93,9.05-1.28,13.77c.35,2.53,.87,5.04,1.07,7.59s-.07,5.12-.58,7.69c-.92,4.59-1.64,8.99-.23,13.56,1.17,3.82,3.44,7.35,6.49,9.95,3.56,3.03,7.83,4.42,12.4,5.07,17.32,2.46,37.5,2.85,51.66-9.03,6.6-5.54,11.33-12.87,17-19.28,2.97-3.36,6.22-6.44,10.01-8.87s8.28-4.46,12.74-5.96c2.23-.75,4.49-1.39,6.77-1.98,1.87-.48,1.08-3.37-.8-2.89-8.82,2.26-17.52,5.59-24.61,11.44-6.51,5.38-11.2,12.49-16.68,18.82-2.7,3.12-5.62,6.11-9.02,8.48s-7.42,4.21-11.52,5.39c-8.39,2.41-17.26,2.46-25.9,1.84-4.62-.33-9.47-.57-13.92-1.94-3.84-1.18-7.14-3.65-9.38-6.99s-3.35-7.22-3.06-11.2c.18-2.53,.88-4.99,1.3-7.49s.52-4.85,.28-7.32c-.47-4.79-1.9-9.57-1.28-14.42,.56-4.34,2.54-8.35,4.93-11.96,2.52-3.8,5.55-7.23,8.55-10.66s6.1-6.9,9.22-10.29c12.46-13.52,25.97-26.36,41.78-35.9,1.96-1.18,3.95-2.31,5.97-3.38,1.7-.91,.19-3.5-1.51-2.59h0Z"/>
          </g>
          <g>
            <path class="cls-3" d="M1111.51,771.96c-15.86,13.61-32.04,27.58-42.42,45.72-6.69,11.7-10.72,24.69-14.6,37.6-1.41,4.67-2.81,9.39-3.06,14.26-.45,8.67,3.54,17.91,10.63,23.06,5,3.63,10.38,4.39,16.35,2.97,4.57-1.09,9.13-2.82,13.8-2.37,3.36,.32,6.59,1.76,9.96,1.64,3.6-.13,6.9-2.03,10.43-2.73,8.34-1.67,16.47,3.01,24.85,1.53,9.22-1.63,17.3-7.18,25.27-11.75,9.67-5.54,18.79-12.64,24.22-22.59,4.28-7.84,6.09-17.05,11.67-24.02"/>
            <path class="cls-6" d="M1110.45,770.9c-15.55,13.34-31.46,27.07-42,44.91-5.59,9.46-9.39,19.84-12.7,30.27-1.68,5.31-3.46,10.65-4.72,16.08-1.14,4.92-1.53,9.9-.46,14.87,1.91,8.87,8.27,17.65,17.36,20.06,5.12,1.36,10.01,.17,14.99-1.15,2.73-.73,5.51-1.41,8.36-1.3s5.46,1.13,8.21,1.52,5.16,0,7.7-.82,4.93-1.82,7.56-2.03c5.2-.42,10.27,1.22,15.38,1.86,10.6,1.32,20.12-4.18,28.91-9.39s16.71-9.87,23.21-17.26c3.21-3.66,5.81-7.73,7.8-12.16s3.58-9.27,5.76-13.72c1.08-2.21,2.32-4.36,3.85-6.29,1.18-1.5-.92-3.64-2.12-2.12-6.05,7.65-7.78,17.46-12.71,25.72-4.77,8-12.11,14.08-19.96,18.92-4.13,2.55-8.35,5.01-12.6,7.37s-9,4.63-13.96,5.71c-5.09,1.1-10.03-.1-15.05-.97-2.46-.43-4.95-.78-7.45-.71s-4.97,.67-7.38,1.5-4.69,1.69-7.2,1.59c-2.78-.12-5.44-1.16-8.19-1.53-5.42-.73-10.48,1.35-15.69,2.46-4.69,1-9.41,.37-13.48-2.22-3.77-2.4-6.64-6.04-8.52-10.06s-2.71-8.5-2.41-12.91c.37-5.49,2.19-10.8,3.78-16.03,3.09-10.2,6.36-20.41,11.16-29.95,9.12-18.13,23.99-32.17,39.13-45.29,1.84-1.6,3.69-3.19,5.54-4.77,1.47-1.26-.66-3.37-2.12-2.12h0Z"/>
          </g>
          <g>
            <path class="cls-3" d="M1273.01,758.78c-1.03,9.57-2.06,19.2-1.54,28.81,1.03,18.88,8.03,37.93,3.41,56.27-3.64,14.44-14.34,27.9-11.58,42.53,.46,2.44,1.36,4.91,3.18,6.59,1.29,1.19,2.93,1.9,4.58,2.5,20.87,7.65,44.53,.81,63.55-10.69,11.79-7.13,22.45-15.97,33.05-24.77,2.53-2.1,5.08-4.22,7.08-6.82,4.52-5.86,5.84-13.51,7.01-20.82,1.82-11.36,3.65-22.74,4.44-34.22,.45-6.54,.57-13.12,1.4-19.62,.82-6.44,2.34-12.77,3.29-19.19,3.91-26.64,1.4-61.09-7.35-86.55-2.38-6.94-5.19-13.44-9.18-19.66-9.3-14.5-22.83-25.88-38.53-32.92-26.27-11.76-56.38-11.32-84.19-6.3-8.58,1.55-17.05,3.62-25.66,5.03"/>
            <path class="cls-6" d="M1271.51,758.78c-1.25,11.59-2.32,23.15-1.03,34.79,1.21,10.93,3.79,21.69,4.36,32.69,.28,5.42,.06,10.89-1.15,16.19-1.13,4.93-3.07,9.63-5.07,14.27-3.72,8.62-8.07,17.77-7.13,27.42,.46,4.67,1.99,9.32,6.4,11.61s9.35,3.31,14.1,3.94c9.83,1.32,19.86,.06,29.32-2.77,20.51-6.14,37.53-19.4,53.79-32.83,3.99-3.3,8.3-6.45,11.36-10.68,2.83-3.91,4.38-8.61,5.41-13.28,1.16-5.23,1.87-10.58,2.69-15.87,.89-5.73,1.71-11.46,2.34-17.22,1.27-11.59,1.13-23.27,3.2-34.77,.96-5.29,2.01-10.55,2.69-15.89,.59-4.66,.97-9.35,1.18-14.04,.89-19.73-.87-39.87-5.75-59.02-2.45-9.63-5.75-19.23-10.71-27.87s-11.16-15.88-18.45-22.18c-15.24-13.17-34.31-20.46-54.15-23.03-21-2.72-42.16-.24-62.76,4.04-5.51,1.14-11.01,2.32-16.57,3.24-1.9,.31-1.09,3.21,.8,2.89,10.78-1.79,21.39-4.49,32.21-6.12,10.09-1.53,20.31-2.35,30.51-2.18,19.85,.33,39.92,4.65,56.92,15.25,7.85,4.9,14.91,11.02,20.85,18.12,6.42,7.67,11.15,16.41,14.53,25.8,6.46,17.95,9.18,37.28,9.68,56.3,.25,9.32-.08,18.68-1.2,27.95-.64,5.27-1.69,10.46-2.64,15.68s-1.62,10.83-1.95,16.32-.57,11.17-1.12,16.74-1.36,11.53-2.23,17.27c-.8,5.25-1.55,10.52-2.56,15.73-.89,4.62-2.12,9.27-4.64,13.29-2.74,4.37-7.07,7.5-10.98,10.74-4.12,3.41-8.26,6.8-12.49,10.07-8.23,6.37-16.86,12.34-26.22,16.92-8.78,4.3-18.3,7.48-28.06,8.54-4.7,.51-9.47,.55-14.17-.03s-9.81-1.57-13.87-3.87c-4.25-2.41-4.78-8.18-4.6-12.58s1.55-9.09,3.17-13.38c3.46-9.12,8.29-17.75,9.73-27.52,1.55-10.5-.02-21.06-1.69-31.45-.86-5.32-1.76-10.63-2.28-15.99s-.59-11.08-.29-16.62,.89-11.08,1.49-16.61c.21-1.92-2.8-1.9-3,0h0Z"/>
          </g>
        </g>
        <path class="cls-14" d="M1028.9,746.86s60.78,47.13,166.42-15.51c0,0,66.54-84.87,32.01-98.28l-97.72,46.06-100.71,67.73Z"/>
        <g>
          <g>
            <path class="cls-3" d="M1216.73,587.58l-34.96-50.83c-1.43-7.26-5.76-13.28-11.41-17.9-6.13-5-13.77-5.97-20.01-10.72-15.08-11.49-36.69-13.86-54.98-15.14-16.68-1.18-41.32-4.34-56.34,3.76-18.53,9.99-35.15,21.97-50.5,36.22-5.8,5.38-8.45,13.27-12.62,19.86-4.18,6.6-9.6,12.42-13.57,19.11-5.01,5.4-12.47,9.26-19.58,10.91-6.58,1.53-14.16,1.61-19.59,6.16-4.79,4.01-7.04,10.15-10.25,15.34-3.38,5.46-8.15,10.42-8.67,17.14-1.81,23.26,31.34,20.93,44.19,12.23l.37-1.62c-.81,4.85-1.61,9.69-2.42,14.54-1.89,11.35-3.77,23.05-1.13,34.25,2.26,9.59,8.08,18.2,15.81,24.25,7.77,6.09,18.66,6.67,25.17,14.09,3.21,3.66,5.54,7.99,8.42,11.92,12.78,17.44,43.18,33.38,65.12,27.81,7.26-1.84,13.15-6.35,20.1-8.78,6.84-2.39,14.23-2.52,21.39-2.47,14.04,.11,30.14,2.4,42.25-6.43,7.36-5.36,11.76-14.09,19.24-19.28,7.03-4.89,15.88-6.07,24.22-8.02,16.54-3.87,27.38-15.8,33.2-31.53,4.86-13.12,5.84-27.3,6.78-41.26,1.13-16.87-2.51-38.03-10.23-53.6Z"/>
            <path class="cls-6" d="M1218.03,586.83c-4.14-6.02-8.29-12.05-12.43-18.07-6.35-9.24-12.7-18.47-19.06-27.71l-2.6-3.79c-.67-.97-.77-1.27-1.06-2.41-2.42-9.4-9.68-17.23-18.37-21.27-4.65-2.16-9.46-3.8-13.61-6.89-3.8-2.83-7.94-5.1-12.31-6.94-9.15-3.85-18.98-5.74-28.79-6.94-9.06-1.1-18.22-1.67-27.32-2.31s-19.13-1.06-28.6,.25c-4.36,.6-8.68,1.61-12.74,3.34-4.66,1.98-9.06,4.76-13.38,7.37-9.37,5.67-18.35,11.97-26.88,18.84-4.31,3.47-8.5,7.08-12.57,10.83-3.65,3.36-6.29,7.35-8.62,11.7s-4.79,9.06-7.82,13.27c-3.23,4.49-6.8,8.74-9.79,13.4-2.77,4.32-7.56,7.24-12.15,9.34-4.6,2.11-9.43,2.97-14.37,3.85-4.63,.82-9.32,1.97-13.06,4.96s-6.15,7.39-8.42,11.61c-2.31,4.28-5.2,8.1-7.74,12.23-2.32,3.77-3.78,7.85-3.66,12.32,.15,5.87,2.92,11.07,8,14.09,5.02,2.98,11.22,3.72,16.96,3.46,6.04-.27,12.12-1.61,17.63-4.15,1.09-.5,2.16-1.07,3.18-1.7,1.29-.8,1.47-1.58,1.8-2.99l-2.89-.8c-1.61,9.64-3.54,19.3-4.48,29.04-.86,8.85-.57,18.02,2.78,26.36,2.88,7.17,7.58,13.57,13.55,18.47s13.12,6.43,19.67,9.92c3.51,1.87,6.17,4.36,8.49,7.57,2.39,3.32,4.44,6.87,6.95,10.1,4.15,5.34,9.28,9.87,14.79,13.78,11.66,8.27,26.04,14.44,40.51,14.64,3.27,.05,6.56-.26,9.75-.98,3.99-.91,7.71-2.66,11.34-4.52,3.84-1.96,7.64-4,11.81-5.15,4.4-1.22,8.96-1.59,13.5-1.69,15.33-.35,32.78,3.15,46.55-5.5,6.67-4.19,10.9-10.88,16.31-16.41,2.86-2.93,6.09-5.28,9.85-6.92,3.98-1.73,8.26-2.71,12.48-3.63,7.3-1.6,14.27-3.33,20.6-7.5,5.58-3.68,10.22-8.6,13.82-14.21,9.34-14.52,11.31-32.26,12.51-49.09,.58-8.16,.69-16.19-.29-24.33s-2.7-16.25-5.36-24.03c-1.26-3.68-2.74-7.29-4.46-10.79-.85-1.73-3.44-.21-2.59,1.51,6.99,14.21,10.19,30.62,10.23,46.4,.02,8.51-.8,17.17-1.88,25.6-1.11,8.6-2.94,17.27-6.47,25.23-5.43,12.25-14.93,22.31-28,26.23-7.69,2.3-15.75,2.98-23.08,6.47s-11.75,9.54-16.83,15.34c-2.48,2.83-5.14,5.52-8.35,7.54s-7,3.42-10.82,4.23c-7.53,1.61-15.34,1.21-22.98,.96-8.2-.26-16.67-.56-24.69,1.47-8.04,2.03-14.68,7.37-22.64,9.55-13.33,3.65-28.13-.96-39.93-7.24-6.23-3.31-12.09-7.37-17.24-12.2-2.27-2.13-4.42-4.42-6.32-6.9-2.55-3.34-4.6-7.03-7.14-10.38-2.16-2.86-4.6-5.24-7.69-7.07s-6.27-3.01-9.49-4.31-6.63-2.75-9.53-4.85-5.71-4.93-8.02-7.84c-5.1-6.42-8.12-14.18-8.87-22.34-.86-9.33,.72-18.65,2.25-27.83,.77-4.63,1.54-9.27,2.31-13.9,.31-1.87-2.45-2.71-2.89-.8l-.37,1.62,.69-.9c-4.48,3-9.85,4.6-15.13,5.43-5.59,.88-11.6,.86-16.99-1.01-4.92-1.71-8.67-5.32-9.63-10.54-.7-3.82,.01-7.73,1.79-11.16,2.14-4.14,5.21-7.7,7.51-11.75s4.17-8.38,7.36-11.77,7.7-4.9,12.3-5.79,9.29-1.51,13.75-3.23,8.7-4.12,12.33-7.27c.88-.76,1.84-1.57,2.55-2.49,.78-1.02,1.38-2.21,2.11-3.27,1.5-2.21,3.1-4.34,4.72-6.47,3.1-4.07,6.19-8.13,8.68-12.61,2.33-4.2,4.31-8.62,7.12-12.54s7.13-7.35,10.95-10.62c8.05-6.9,16.54-13.27,25.42-19.05,4.48-2.92,9.07-5.68,13.73-8.3,3.88-2.17,7.68-4.03,12.01-5.12,8.81-2.23,18.1-2.21,27.11-1.8,8.72,.4,17.44,1.14,26.14,1.89,9.49,.81,19,2.07,28.15,4.78,4.49,1.33,8.88,3.02,13.02,5.25s7.71,5.39,11.95,7.48,9.16,3.62,13.25,6.39c3.88,2.63,7.24,6.36,9.54,10.42,1.18,2.08,2.07,4.3,2.65,6.62,.16,.63,.25,1.25,.57,1.81,.44,.78,1.03,1.5,1.54,2.24,5.6,8.15,11.21,16.29,16.81,24.44,5.2,7.56,10.4,15.12,15.61,22.69,.29,.42,.58,.84,.87,1.26,1.09,1.58,3.69,.08,2.59-1.51Z"/>
          </g>
          <g>
            <path class="cls-3" d="M1146.91,531.07c7.81,5.3,17.47,7.24,26.91,7.49,9.44,.25,18.83-1.05,28.25-1.68,3.75-.25,7.53-.38,11.24,.23,9.56,1.58,18.07,8.47,21.61,17.5,1.31,3.35,1.97,6.92,2.43,10.49,1.76,13.59-7.72,21.93-21.28,21.85-8.63-.05-17.84,3.6-25.93-.26-4.54-2.17-8.33-5.62-11.96-9.11"/>
            <path class="cls-6" d="M1146.15,532.37c10.82,7.24,24.29,8.23,36.93,7.52,7.12-.4,14.21-1.31,21.33-1.63,6-.27,11.79,.36,17.1,3.33,4.71,2.64,8.61,6.62,11.05,11.44,1.47,2.89,2.28,6.05,2.84,9.23,.48,2.7,.82,5.43,.54,8.17-.42,4.14-2.39,7.96-5.6,10.61s-7.77,4.08-12.05,4.36c-3.39,.22-6.73,.27-10.12,.72-3.55,.47-7.13,1.01-10.73,.83-7.47-.38-13.09-5.48-18.22-10.4-1.39-1.34-3.52,.78-2.12,2.12,4.74,4.55,10.09,9.52,16.75,10.85,6.69,1.33,13.35-.62,20.03-.99,2.77-.15,5.5-.09,8.24-.61,2.33-.44,4.6-1.21,6.7-2.31,4.06-2.12,7.21-5.58,8.89-9.84,2.03-5.18,1.35-10.85,.21-16.15-1.28-5.99-4.05-11.46-8.45-15.76-4.07-3.98-9.29-6.88-14.88-8.01-7.13-1.43-14.63-.33-21.79,.3-15.18,1.34-31.85,2.54-45.15-6.36-1.61-1.08-3.11,1.52-1.51,2.59h0Z"/>
          </g>
          <path class="cls-6" d="M1018.92,619.53c5.79,0,5.8-9,0-9s-5.8,9,0,9h0Z"/>
          <path class="cls-6" d="M1085.08,616.29c5.79,0,5.8-9,0-9s-5.8,9,0,9h0Z"/>
          <path class="cls-6" d="M1048.9,637.7c1.16,.66,1.41,2.26,1.19,3.25-.29,1.33-1.37,2.54-2.52,3.6-.9,.82-3.11,1.46-4.47,1.56-2.72,.21-4.86-1.44-5.82-3.06-.76-1.29-1.04-2.78-1.02-4.2,0-.22,.02-.45,.18-.65,.23-.27,.67-.39,1.08-.5,1.78-.46,3.58-.92,5.44-1.07,2.13-.17,4.12,.15,5.84,.99,.04,.02,.07,.04,.11,.06Z"/>
          <path class="cls-6" d="M1044.39,647.05c1.77,3.03,4.27,5.69,7.67,6.83,3.77,1.27,7.91,.26,10.95-2.2,.63-.51,.53-1.59,0-2.12-.62-.62-1.49-.51-2.12,0-2.3,1.85-5.5,2.35-8.26,1.35-2.52-.92-4.34-3.13-5.65-5.38-.97-1.67-3.57-.16-2.59,1.51h0Z"/>
          <path class="cls-6" d="M1039.65,646.79c-.04,.35,.06-.35,0,0-.02,.1-.03,.2-.05,.3-.04,.18-.08,.36-.13,.54s-.1,.35-.16,.53c-.03,.09-.07,.19-.1,.28-.12,.33,.14-.31,0,.01-.16,.35-.34,.69-.54,1.02-.1,.16-.2,.31-.31,.46-.07,.1-.26,.26,0,.02-.07,.06-.13,.16-.19,.23-.24,.28-.5,.55-.77,.79-.15,.13-.31,.25-.46,.39,.29-.26,.06-.05-.02,0-.08,.06-.16,.11-.25,.17-.31,.2-.63,.38-.96,.54-.09,.04-.39,.13,0,.01-.09,.03-.19,.08-.28,.11-.19,.07-.38,.13-.57,.18-.75,.22-1.3,1.07-1.05,1.85s1.04,1.28,1.85,1.05c1.82-.52,3.5-1.6,4.71-3.05,1.31-1.57,2.09-3.39,2.31-5.42,.08-.78-.75-1.53-1.5-1.5-.88,.04-1.41,.66-1.5,1.5h0Z"/>
        </g>
        <path class="cls-14" d="M1197.15,726.51s-.06,0-.09,.01c-1.09,.16-2.05,.76-2.94,1.41-6.16,4.5-10.18,11.87-9.97,19.56,.4,14.89,22.14,23.44,22.18,23.46,1.46,.58,5.62-16.45,5.76-17.63,.59-5.21,.1-10.61-2.24-15.36-1.93-3.93-7.43-12.11-12.69-11.44Z"/>
        <path class="cls-14" d="M1197.17,723.22s-.04,.03-.05,.05c-.63,.63-.97,1.49-1.24,2.34-1.86,5.91-.94,12.67,2.9,17.6,7.44,9.55,25.78,4.67,25.81,4.67,1.23-.33-4.25-13.47-4.73-14.31-2.13-3.69-5.04-6.99-8.87-8.97-3.16-1.64-10.7-4.35-13.82-1.37Z"/>
      </g>
      <g>
        <path class="cls-13" d="M1781.73,440.9c0,44.44-23.69,66.51-52.92,66.51s-52.92-22.07-52.92-66.51,21.53-127.9,50.76-127.9,55.08,83.46,55.08,127.9Z"/>
        <line class="cls-7" x1="1728.81" y1="398.75" x2="1728.81" y2="504.59"/>
        <line class="cls-7" x1="1728.81" y1="436.84" x2="1748.06" y2="404.76"/>
        <line class="cls-7" x1="1702.35" y1="451.67" x2="1728.81" y2="469.31"/>
      </g>
      <g>
        <path class="cls-13" d="M1317.63,445.12c0,67.14-33.19,100.48-74.14,100.48s-74.14-33.34-74.14-100.48,30.17-193.22,71.12-193.22,77.17,126.09,77.17,193.22Z"/>
        <line class="cls-7" x1="1243.49" y1="381.45" x2="1243.49" y2="541.35"/>
        <line class="cls-7" x1="1243.49" y1="439" x2="1270.46" y2="390.52"/>
        <line class="cls-7" x1="1206.42" y1="461.4" x2="1243.49" y2="488.05"/>
      </g>
      <path class="cls-12" d="M1243.49,615.53l68.87,44.12s-13.02,4.76-14.82,8.97l-65.55-50,11.5-3.08Z"/>
      <polygon class="cls-12" points="1340.74 661.83 1358.8 635.03 1365.91 642.07 1352.4 670.96 1340.74 661.83"/>
      <g>
        <circle class="cls-12" cx="1319.28" cy="676.73" r="37.6"/>
        <g>
          <circle class="cls-6" cx="1303.4" cy="672.1" r="5.27"/>
          <circle class="cls-6" cx="1335.15" cy="672.1" r="5.27"/>
        </g>
        <ellipse class="cls-15" cx="1319.28" cy="693.35" rx="19.2" ry="8.35"/>
      </g>
      <circle class="cls-15" cx="1738.43" cy="156.79" r="44.86"/>
      <g>
        <g>
          <rect class="cls-12" x="1666.13" y="223.92" width="107.74" height="78.35"/>
          <polygon class="cls-14" points="1666.13 223.92 1773.87 223.92 1724.9 166.31 1617.16 166.31 1666.13 223.92"/>
        </g>
        <g>
          <polygon class="cls-14" points="1617.13 223.92 1568.16 223.92 1592.65 195.12 1617.13 166.31 1641.62 195.12 1666.1 223.92 1617.13 223.92"/>
          <rect class="cls-11" x="1568.16" y="223.92" width="97.94" height="78.35"/>
          <path class="cls-12" d="M1617.13,233.72c-13.18,0-23.87,9.36-23.87,20.9v47.66h47.74v-47.66c0-11.54-10.69-20.9-23.87-20.9Z"/>
        </g>
        <g>
          <path class="cls-13" d="M1779.46,294.53c0,7.05-3.76,10.55-8.39,10.55s-8.39-3.5-8.39-10.55,3.42-20.29,8.05-20.29,8.74,13.24,8.74,20.29Z"/>
          <line class="cls-8" x1="1771.07" y1="286.89" x2="1771.07" y2="303.68"/>
          <line class="cls-8" x1="1771.07" y1="292.93" x2="1774.12" y2="287.84"/>
          <line class="cls-8" x1="1766.87" y1="295.28" x2="1771.07" y2="298.08"/>
        </g>
        <rect class="cls-10" x="1696.34" y="237.59" width="12.57" height="42.02"/>
        <rect class="cls-4" x="1708.91" y="237.59" width="22" height="42.02"/>
        <path class="cls-9" d="M1693.72,236.75v42.87h39.81v-42.87h-39.81Zm33.76,38.51h-27.71v-9.88h27.71v9.88Zm.26-15.73h-28.23v-17.77h28.23v17.77Z"/>
      </g>
      <polygon class="cls-13" points="797.64 779.75 797.64 828.57 855.67 828.57 855.67 779.98 846.68 804.16 830.97 764.54 818.44 809.03 797.64 779.75"/>
      <g>
        <path class="cls-14" d="M913.35,841.47l-13.31,13.31s-.06,.07-.09,.1c-.37-.5-.78-.98-1.24-1.43l-13.31-13.31c-5.15-5.15-13.49-5.15-18.63,0-5.15,5.15-5.15,13.49,0,18.63l13.31,13.31c.45,.45,.93,.86,1.43,1.24-.03,.03-.07,.06-.1,.09l-13.31,13.31c-5.15,5.15-5.15,13.49,0,18.63,5.15,5.15,13.49,5.15,18.63,0l13.31-13.31,11.98,11.98c5.15,5.15,13.49,5.15,18.63,0s5.15-13.49,0-18.63l-11.98-11.98,13.31-13.31c5.15-5.15,5.15-13.49,0-18.63-5.15-5.15-13.49-5.15-18.63,0Z"/>
        <circle class="cls-6" cx="899.38" cy="872.74" r="7.2"/>
      </g>
      <g>
        <path class="cls-14" d="M848.51,920.8l-5.61,10.86s-.03,.05-.04,.08c-.33-.23-.68-.45-1.05-.64l-10.86-5.61c-4.2-2.17-9.36-.52-11.52,3.67-2.17,4.2-.52,9.36,3.67,11.52l10.86,5.61c.37,.19,.75,.35,1.13,.48-.01,.03-.03,.05-.04,.08l-5.61,10.86c-2.17,4.2-.52,9.36,3.67,11.52s9.36,.52,11.52-3.67l5.61-10.86,9.77,5.05c4.2,2.17,9.36,.52,11.52-3.67,2.17-4.2,.52-9.36-3.67-11.52l-9.77-5.05,5.61-10.86c2.17-4.2,.52-9.36-3.67-11.52-4.2-2.17-9.36-.52-11.52,3.67Z"/>
        <circle class="cls-6" cx="846.03" cy="942.9" r="4.67"/>
      </g>
      <g>
        <path class="cls-12" d="M1500.16,617.07l-13.31,13.31s-.06,.07-.09,.1c-.37-.5-.78-.98-1.24-1.43l-13.31-13.31c-5.15-5.15-13.49-5.15-18.63,0-5.15,5.15-5.15,13.49,0,18.63l13.31,13.31c.45,.45,.93,.86,1.43,1.24-.03,.03-.07,.06-.1,.09l-13.31,13.31c-5.15,5.15-5.15,13.49,0,18.63,5.15,5.15,13.49,5.15,18.63,0l13.31-13.31,11.98,11.98c5.15,5.15,13.49,5.15,18.63,0,5.15-5.15,5.15-13.49,0-18.63l-11.98-11.98,13.31-13.31c5.15-5.15,5.15-13.49,0-18.63-5.15-5.15-13.49-5.15-18.63,0Z"/>
        <circle class="cls-6" cx="1486.19" cy="648.35" r="7.2"/>
      </g>
    </g>
  </g>
</svg>