<?xml version="1.0" encoding="UTF-8"?>
<svg id="_레이어_2" data-name="레이어 2" xmlns="http://www.w3.org/2000/svg" viewBox="0 0 1920 1080">
  <defs>
    <style>
      .cls-1 {
        opacity: .1;
      }

      .cls-2 {
        fill: #7dcbc6;
      }

      .cls-3 {
        fill: none;
        stroke: #fff;
        stroke-miterlimit: 10;
        stroke-width: 2px;
      }
    </style>
  </defs>
  <g id="_레이어_1-2" data-name="레이어 1">
    <g>
      <rect class="cls-2" width="1920" height="1080"/>
      <g class="cls-1">
        <polygon class="cls-3" points="292.09 160.96 324.68 160.96 324.68 128.37 292.09 128.37 292.09 67.72 252.53 67.72 252.53 219.55 292.09 219.55 292.09 160.96"/>
        <path class="cls-3" d="M166.27,217.23c12.05,0,22.82-1.92,32.31-5.75,9.49-3.83,16.86-9.22,22.11-16.15,5.25-6.94,7.87-14.83,7.87-23.69s-2.63-16.47-7.87-23.41c-5.25-6.94-12.62-12.32-22.11-16.16-9.49-3.83-20.26-5.75-32.31-5.75s-23.12,1.92-32.65,5.75c-9.54,3.83-16.98,9.22-22.32,16.16-5.34,6.94-8.01,14.74-8.01,23.41s2.67,16.75,8.01,23.69c5.34,6.94,12.75,12.32,22.25,16.15,9.49,3.83,20.4,5.75,32.72,5.75Zm-21.43-54.35c1.96-2.37,4.77-4.13,8.42-5.27,3.65-1.14,7.98-1.71,13.01-1.71s9.36,.57,13.01,1.71c3.65,1.14,6.55,2.9,8.69,5.27,2.14,2.38,3.22,5.3,3.22,8.76,0,3.65-1.05,6.73-3.15,9.24-2.1,2.51-5.02,4.38-8.76,5.61-3.74,1.23-8.08,1.89-13.01,1.98-5.02-.09-9.36-.75-13.01-1.98-3.65-1.23-6.46-3.1-8.42-5.61-1.96-2.51-2.94-5.59-2.94-9.24s.98-6.39,2.94-8.76Z"/>
        <polygon class="cls-3" points="240.48 89.49 185.99 89.49 185.99 66.63 146.42 66.63 146.42 89.49 91.66 89.49 91.66 120.43 240.48 120.43 240.48 89.49"/>
        <path class="cls-3" d="M350,204.36c-4.84,14.97-11.82,29.89-20.95,44.77l30.39,15.74c9.76-15.97,17.27-32.84,22.52-50.59,5.25-17.75,8.83-36.19,10.75-55.31,1.92-19.12,2.92-40.82,3.01-65.1h-57.5v31.35h23.55c-.43,11.8-1.11,22.48-2.06,31.97-1.64,16.48-4.88,32.2-9.72,47.16Z"/>
        <polygon class="cls-3" points="722.25 101.95 669 101.95 669 69.5 629.57 69.5 629.57 101.95 575.35 101.95 575.35 133.44 722.25 133.44 722.25 101.95"/>
        <path class="cls-3" d="M682.41,152.95c-9.95-5.16-20.99-7.74-33.13-7.74s-23.57,2.58-33.47,7.74c-9.9,5.16-17.64,12.37-23.21,21.63-5.57,9.27-8.35,19.69-8.35,31.28s2.78,22.11,8.35,31.28c5.57,9.17,13.3,16.34,23.21,21.49,9.9,5.16,21.06,7.74,33.47,7.74s23.18-2.58,33.13-7.74c9.95-5.16,17.75-12.32,23.41-21.49,5.66-9.17,8.49-19.6,8.49-31.28s-2.83-22.02-8.49-31.28c-5.66-9.26-13.46-16.47-23.41-21.63Zm-9.45,68.39c-2.28,4.29-5.48,7.53-9.58,9.72-4.11,2.19-8.81,3.33-14.1,3.42-5.39-.09-10.13-1.23-14.24-3.42-4.11-2.19-7.32-5.43-9.65-9.72-2.33-4.29-3.49-9.45-3.49-15.47s1.16-11.07,3.49-15.4c2.33-4.33,5.54-7.62,9.65-9.86,4.11-2.24,8.85-3.4,14.24-3.49,5.2,.09,9.88,1.26,14.03,3.49,4.15,2.24,7.37,5.52,9.65,9.86,2.28,4.34,3.42,9.47,3.42,15.4s-1.14,11.18-3.42,15.47Z"/>
        <path class="cls-3" d="M859.43,202.37c-11.14,13.01-26.01,25.12-44.63,36.35l22.73,26.97c22.73-13.42,40.8-28.61,54.21-45.59,13.42-16.98,22.88-35.57,28.41-55.79,5.52-20.22,8.33-42.97,8.42-68.25h-100.08v31.21h61.32c-1.21,11.46-3.29,22.03-6.28,31.69-4.93,15.93-12.96,30.39-24.1,43.4Z"/>
        <path class="cls-3" d="M1036.18,285V65.26h-37.79v93.37h-19.17V71.83h-36.55v213.16h-166.75v-90.5h35.6v-32.17h-35.6V65.26h-38.88v219.74h-181.81V65.26h-37.65v219.74h-12.73V70.87h-36.97v87.35h-17.81c1.38-18.81,2.12-40.24,2.2-64.35h-49.29v31.35h15.75c-.37,13.79-.99,25.93-1.86,36.42-1.42,17.07-4.5,33.77-9.24,50.11-4.75,16.34-12,32.4-21.77,48.19l29.85,16.16c10.4-16.89,18.25-34.86,23.55-53.94,2.96-10.66,5.33-21.48,7.15-32.45h21.47v95.29h-175.79v-55.45H126.16v87.07H1328.34v-31.62h-292.16Zm-782.97,0h-88.03v-24.78h88.03v24.78Zm745.18,0h-19.17v-94.88h19.17v94.88Z"/>
      </g>
      <g class="cls-1">
        <polygon class="cls-3" points="442.09 510.02 474.68 510.02 474.68 477.43 442.09 477.43 442.09 416.78 402.53 416.78 402.53 568.61 442.09 568.61 442.09 510.02"/>
        <path class="cls-3" d="M316.27,566.29c12.05,0,22.82-1.92,32.31-5.75,9.49-3.83,16.86-9.22,22.11-16.15,5.25-6.94,7.87-14.83,7.87-23.69s-2.63-16.47-7.87-23.41c-5.25-6.94-12.62-12.32-22.11-16.16-9.49-3.83-20.26-5.75-32.31-5.75s-23.12,1.92-32.65,5.75c-9.54,3.83-16.98,9.22-22.32,16.16-5.34,6.94-8.01,14.74-8.01,23.41s2.67,16.75,8.01,23.69c5.34,6.94,12.75,12.32,22.25,16.15,9.49,3.83,20.4,5.75,32.72,5.75Zm-21.43-54.35c1.96-2.37,4.77-4.13,8.42-5.27,3.65-1.14,7.98-1.71,13.01-1.71s9.36,.57,13.01,1.71c3.65,1.14,6.55,2.9,8.69,5.27,2.14,2.38,3.22,5.3,3.22,8.76,0,3.65-1.05,6.73-3.15,9.24-2.1,2.51-5.02,4.38-8.76,5.61-3.74,1.23-8.08,1.89-13.01,1.98-5.02-.09-9.36-.75-13.01-1.98-3.65-1.23-6.46-3.1-8.42-5.61-1.96-2.51-2.94-5.59-2.94-9.24s.98-6.39,2.94-8.76Z"/>
        <polygon class="cls-3" points="390.48 438.55 335.99 438.55 335.99 415.69 296.42 415.69 296.42 438.55 241.66 438.55 241.66 469.49 390.48 469.49 390.48 438.55"/>
        <path class="cls-3" d="M500,553.42c-4.84,14.97-11.82,29.89-20.95,44.77l30.39,15.74c9.76-15.97,17.27-32.84,22.52-50.59,5.25-17.75,8.83-36.19,10.75-55.31,1.92-19.12,2.92-40.82,3.01-65.1h-57.5v31.35h23.55c-.43,11.8-1.11,22.48-2.06,31.97-1.64,16.48-4.88,32.2-9.72,47.16Z"/>
        <polygon class="cls-3" points="872.25 451.01 819 451.01 819 418.56 779.57 418.56 779.57 451.01 725.35 451.01 725.35 482.5 872.25 482.5 872.25 451.01"/>
        <path class="cls-3" d="M832.41,502.01c-9.95-5.16-20.99-7.74-33.13-7.74s-23.57,2.58-33.47,7.74c-9.9,5.16-17.64,12.37-23.21,21.63-5.57,9.27-8.35,19.69-8.35,31.28s2.78,22.11,8.35,31.28c5.57,9.17,13.3,16.34,23.21,21.49,9.9,5.16,21.06,7.74,33.47,7.74s23.18-2.58,33.13-7.74c9.95-5.16,17.75-12.32,23.41-21.49,5.66-9.17,8.49-19.6,8.49-31.28s-2.83-22.02-8.49-31.28c-5.66-9.26-13.46-16.47-23.41-21.63Zm-9.45,68.39c-2.28,4.29-5.48,7.53-9.58,9.72-4.11,2.19-8.81,3.33-14.1,3.42-5.39-.09-10.13-1.23-14.24-3.42-4.11-2.19-7.32-5.43-9.65-9.72-2.33-4.29-3.49-9.45-3.49-15.47s1.16-11.07,3.49-15.4c2.33-4.33,5.54-7.62,9.65-9.86,4.11-2.24,8.85-3.4,14.24-3.49,5.2,.09,9.88,1.26,14.03,3.49,4.15,2.24,7.37,5.52,9.65,9.86,2.28,4.34,3.42,9.47,3.42,15.4s-1.14,11.18-3.42,15.47Z"/>
        <path class="cls-3" d="M1009.43,551.43c-11.14,13.01-26.01,25.12-44.63,36.35l22.73,26.97c22.73-13.42,40.8-28.61,54.21-45.59,13.42-16.98,22.88-35.57,28.41-55.79,5.52-20.22,8.33-42.97,8.42-68.25h-100.08v31.21h61.32c-1.21,11.46-3.29,22.03-6.28,31.69-4.93,15.93-12.96,30.39-24.1,43.4Z"/>
        <path class="cls-3" d="M1186.18,634.06v-219.74h-37.79v93.37h-19.17v-86.8h-36.55v213.16h-166.75v-90.5h35.6v-32.17h-35.6v-97.07h-38.88v219.74h-181.81v-219.74h-37.65v219.74h-12.73v-214.12h-36.97v87.35h-17.81c1.38-18.81,2.12-40.24,2.2-64.35h-49.29v31.35h15.75c-.37,13.79-.99,25.93-1.86,36.42-1.42,17.07-4.5,33.77-9.24,50.11-4.75,16.34-12,32.4-21.77,48.19l29.85,16.16c10.4-16.89,18.25-34.86,23.55-53.94,2.96-10.66,5.33-21.48,7.15-32.45h21.47v95.29h-175.79v-55.45h-165.93v87.07H1478.34v-31.62h-292.16Zm-782.97,0h-88.03v-24.78h88.03v24.78Zm745.18,0h-19.17v-94.88h19.17v94.88Z"/>
      </g>
      <g class="cls-1">
        <polygon class="cls-3" points="592.09 859.08 624.68 859.08 624.68 826.49 592.09 826.49 592.09 765.84 552.53 765.84 552.53 917.67 592.09 917.67 592.09 859.08"/>
        <path class="cls-3" d="M466.27,915.35c12.05,0,22.82-1.92,32.31-5.75,9.49-3.83,16.86-9.22,22.11-16.15,5.25-6.94,7.87-14.83,7.87-23.69s-2.63-16.47-7.87-23.41c-5.25-6.94-12.62-12.32-22.11-16.16-9.49-3.83-20.26-5.75-32.31-5.75s-23.12,1.92-32.65,5.75c-9.54,3.83-16.98,9.22-22.32,16.16-5.34,6.94-8.01,14.74-8.01,23.41s2.67,16.75,8.01,23.69c5.34,6.94,12.75,12.32,22.25,16.15,9.49,3.83,20.4,5.75,32.72,5.75Zm-21.43-54.35c1.96-2.37,4.77-4.13,8.42-5.27,3.65-1.14,7.98-1.71,13.01-1.71s9.36,.57,13.01,1.71c3.65,1.14,6.55,2.9,8.69,5.27,2.14,2.38,3.22,5.3,3.22,8.76,0,3.65-1.05,6.73-3.15,9.24-2.1,2.51-5.02,4.38-8.76,5.61-3.74,1.23-8.08,1.89-13.01,1.98-5.02-.09-9.36-.75-13.01-1.98-3.65-1.23-6.46-3.1-8.42-5.61-1.96-2.51-2.94-5.59-2.94-9.24s.98-6.39,2.94-8.76Z"/>
        <polygon class="cls-3" points="540.48 787.61 485.99 787.61 485.99 764.75 446.42 764.75 446.42 787.61 391.66 787.61 391.66 818.55 540.48 818.55 540.48 787.61"/>
        <path class="cls-3" d="M650,902.48c-4.84,14.97-11.82,29.89-20.95,44.77l30.39,15.74c9.76-15.97,17.27-32.84,22.52-50.59,5.25-17.75,8.83-36.19,10.75-55.31,1.92-19.12,2.92-40.82,3.01-65.1h-57.5v31.35h23.55c-.43,11.8-1.11,22.48-2.06,31.97-1.64,16.48-4.88,32.2-9.72,47.16Z"/>
        <polygon class="cls-3" points="1022.25 800.07 969 800.07 969 767.62 929.57 767.62 929.57 800.07 875.35 800.07 875.35 831.56 1022.25 831.56 1022.25 800.07"/>
        <path class="cls-3" d="M982.41,851.07c-9.95-5.16-20.99-7.74-33.13-7.74s-23.57,2.58-33.47,7.74c-9.9,5.16-17.64,12.37-23.21,21.63-5.57,9.27-8.35,19.69-8.35,31.28s2.78,22.11,8.35,31.28c5.57,9.17,13.3,16.34,23.21,21.49,9.9,5.16,21.06,7.74,33.47,7.74s23.18-2.58,33.13-7.74c9.95-5.16,17.75-12.32,23.41-21.49,5.66-9.17,8.49-19.6,8.49-31.28s-2.83-22.02-8.49-31.28c-5.66-9.26-13.46-16.47-23.41-21.63Zm-9.45,68.39c-2.28,4.29-5.48,7.53-9.58,9.72-4.11,2.19-8.81,3.33-14.1,3.42-5.39-.09-10.13-1.23-14.24-3.42-4.11-2.19-7.32-5.43-9.65-9.72-2.33-4.29-3.49-9.45-3.49-15.47s1.16-11.07,3.49-15.4c2.33-4.33,5.54-7.62,9.65-9.86,4.11-2.24,8.85-3.4,14.24-3.49,5.2,.09,9.88,1.26,14.03,3.49,4.15,2.24,7.37,5.52,9.65,9.86,2.28,4.34,3.42,9.47,3.42,15.4s-1.14,11.18-3.42,15.47Z"/>
        <path class="cls-3" d="M1159.43,900.49c-11.14,13.01-26.01,25.12-44.63,36.35l22.73,26.97c22.73-13.42,40.8-28.61,54.21-45.59,13.42-16.98,22.88-35.57,28.41-55.79,5.52-20.22,8.33-42.97,8.42-68.25h-100.08v31.21h61.32c-1.21,11.46-3.29,22.03-6.28,31.69-4.93,15.93-12.96,30.39-24.1,43.4Z"/>
        <path class="cls-3" d="M1336.18,983.12v-219.74h-37.79v93.37h-19.17v-86.8h-36.55v213.16h-166.75v-90.5h35.6v-32.17h-35.6v-97.07h-38.88v219.74h-181.81v-219.74h-37.65v219.74h-12.73v-214.12h-36.97v87.35h-17.81c1.38-18.81,2.12-40.24,2.2-64.35h-49.29v31.35h15.75c-.37,13.79-.99,25.93-1.86,36.42-1.42,17.07-4.5,33.77-9.24,50.11-4.75,16.34-12,32.4-21.77,48.19l29.85,16.16c10.4-16.89,18.25-34.86,23.55-53.94,2.96-10.66,5.33-21.48,7.15-32.45h21.47v95.29h-175.79v-55.45h-165.93v87.07H1628.34v-31.62h-292.16Zm-782.97,0h-88.03v-24.78h88.03v24.78Zm745.18,0h-19.17v-94.88h19.17v94.88Z"/>
      </g>
    </g>
  </g>
</svg>