<?xml version="1.0" encoding="UTF-8"?>
<svg id="_레이어_2" data-name="레이어 2" xmlns="http://www.w3.org/2000/svg" viewBox="0 0 18.26 30.93">
  <defs>
    <style>
      .cls-1 {
        fill: #353a3f;
      }
    </style>
  </defs>
  <g id="_레이어_1-2" data-name="레이어 1">
    <path class="cls-1" d="M.86,17.75l12.44,12.34c1.14,1.13,2.99,1.12,4.12-.02,.55-.55,.85-1.29,.84-2.06,0-.78-.31-1.51-.86-2.06L7.01,15.64,17.44,4.94c.53-.55,.83-1.27,.83-2.03s-.31-1.53-.88-2.09c-.55-.53-1.27-.83-2.03-.83-.01,0-.03,0-.04,0-.78,0-1.51,.32-2.05,.88L.82,13.65c-1.11,1.14-1.1,2.98,.04,4.1Z"/>
  </g>
</svg>