<?xml version="1.0" encoding="UTF-8"?>
<svg id="_레이어_2" data-name="레이어 2" xmlns="http://www.w3.org/2000/svg" viewBox="0 0 205.73 205.73">
  <defs>
    <style>
      .cls-1 {
        fill: #fff;
      }
    </style>
  </defs>
  <g id="_레이어_1-2" data-name="레이어 1">
    <g>
      <path class="cls-1" d="M175.6,175.6c19.43-19.43,30.13-45.26,30.13-72.74s-10.7-53.31-30.13-72.74C156.17,10.7,130.34,0,102.87,0S49.56,10.7,30.13,30.13C10.7,49.56,0,75.39,0,102.87s10.7,53.31,30.13,72.74c19.43,19.43,45.26,30.13,72.74,30.13s53.31-10.7,72.74-30.13ZM17.48,102.87c0-47.08,38.3-85.38,85.38-85.38s85.38,38.3,85.38,85.38-38.3,85.38-85.38,85.38S17.48,149.95,17.48,102.87Z"/>
      <path class="cls-1" d="M110.22,132.95l39.76-40.09c3.64-3.67,3.62-9.63-.06-13.27-1.78-1.77-4.14-2.73-6.65-2.72-2.51,.01-4.86,1-6.62,2.78l-33.21,33.48-34.48-33.6c-1.76-1.72-4.09-2.66-6.55-2.66s-4.94,1.01-6.72,2.83c-1.72,1.77-2.66,4.09-2.66,6.55,0,.04,0,.08,0,.12,.03,2.51,1.04,4.85,2.83,6.6l41.14,40.09c3.67,3.58,9.6,3.53,13.21-.11Z"/>
    </g>
  </g>
</svg>