<?xml version="1.0" encoding="UTF-8"?>
<svg id="_레이어_2" data-name="레이어 2" xmlns="http://www.w3.org/2000/svg" viewBox="0 0 205.73 205.73">
  <defs>
    <style>
      .cls-1 {
        fill: #fff;
      }
    </style>
  </defs>
  <g id="_레이어_1-2" data-name="레이어 1">
    <g>
      <path class="cls-1" d="M175.6,30.13C156.17,10.7,130.34,0,102.87,0S49.56,10.7,30.13,30.13C10.7,49.56,0,75.39,0,102.87s10.7,53.31,30.13,72.74c19.43,19.43,45.26,30.13,72.74,30.13s53.31-10.7,72.74-30.13c19.43-19.43,30.13-45.26,30.13-72.74s-10.7-53.31-30.13-72.74ZM102.87,188.25c-47.08,0-85.38-38.3-85.38-85.38S55.78,17.48,102.87,17.48s85.38,38.3,85.38,85.38-38.3,85.38-85.38,85.38Z"/>
      <path class="cls-1" d="M132.95,95.51l-40.09-39.76c-3.67-3.64-9.63-3.62-13.27,.06-1.77,1.78-2.73,4.14-2.72,6.65,.01,2.51,1,4.86,2.78,6.62l33.48,33.21-33.6,34.48c-1.72,1.76-2.66,4.09-2.66,6.55s1.01,4.94,2.83,6.72c1.77,1.72,4.09,2.66,6.55,2.66,.04,0,.08,0,.12,0,2.51-.03,4.85-1.04,6.6-2.83l40.09-41.14c3.58-3.67,3.53-9.6-.11-13.21Z"/>
    </g>
  </g>
</svg>