<?xml version="1.0" encoding="UTF-8"?>
<svg id="_레이어_2" data-name="레이어 2" xmlns="http://www.w3.org/2000/svg" viewBox="0 0 110.99 104.87">
  <defs>
    <style>
      .cls-1 {
        fill: #444;
      }
    </style>
  </defs>
  <g id="_레이어_1-2" data-name="레이어 1">
    <g>
      <path class="cls-1" d="M56.93,48.39c5.78-1.18,11.26-.47,16.33,2.52,7.74,4.56,15.46,9.16,23.12,13.86,5.58,3.42,7.92,8.63,7.32,15.05-.6,6.44-3.86,11.17-9.94,13.66-2.98,1.22-6.18,1.07-9.34,1.04-3.96-.03-7.92-.16-11.87,0-4.96,.2-9.59,1.74-14.01,3.99-3.38,1.72-6.73,3.54-10.24,4.95-11.57,4.65-20.15-2.96-22.3-11.11-1.11-4.22-.6-8.33,1.84-11.99,5.13-7.72,10.3-15.41,15.58-23.03,3.29-4.75,7.95-7.62,13.51-8.93Z"/>
      <path class="cls-1" d="M54.73,21.3c-.51-2.32-.72-4.7-.64-7.02,.11-3.25,.95-6.54,2.81-9.22C58.75,2.38,61.69,.37,64.93,.05c2.94-.3,5.92,.8,8.26,2.62,2.33,1.82,4.06,4.32,5.36,6.98,2.52,5.15,3.5,11.15,2.13,16.72-.58,2.34-1.58,4.61-3.12,6.46-1.55,1.85-3.66,3.27-6.02,3.76-3.64,.75-7.49-.79-10.22-3.31-3.42-3.14-5.58-7.44-6.58-11.98Z"/>
      <path class="cls-1" d="M47.44,22.62c.59,2.62,.78,5.34,.54,8.02-.26,2.94-1.06,5.87-2.68,8.33-1.62,2.46-4.14,4.41-7.03,4.96-3.6,.69-7.36-.83-10.07-3.3-5.14-4.69-7.33-11.84-7.23-18.64,.05-3.19,.77-6.43,2.47-9.14s4.46-4.82,7.61-5.35c2.9-.49,5.94,.39,8.37,2.06s4.29,4.07,5.66,6.67c1.06,2.01,1.85,4.16,2.35,6.38Z"/>
      <path class="cls-1" d="M89.19,40.45c-.87-4.04-.59-8.44,.51-12.13,.35-1.17,.78-2.31,1.31-3.41,.98-2.05,2.3-4,4.2-5.24,2.39-1.56,5.6-1.79,8.19-.57,2.13,1,3.76,2.87,4.93,4.91,2.52,4.41,3.09,9.75,2.36,14.78-.46,3.17-1.46,6.34-3.49,8.82-2.03,2.48-5.21,4.16-8.39,3.79-2.18-.25-4.2-1.44-5.7-3.04-2.02-2.16-3.29-4.93-3.93-7.9Z"/>
      <path class="cls-1" d="M.7,54.52c-.79-3.52-1.15-6.98,.2-10.41,1.83-4.63,6.36-6.72,11.08-5.04,4.03,1.44,6.86,4.35,9.05,7.9,2.66,4.33,4.13,9.04,3.61,14.18-.41,4.05-2.14,7.3-6.28,8.67-2.85,.94-5.52,.24-7.99-1.28-4.12-2.55-6.69-6.36-8.52-10.73-.45-1.08-.78-2.21-1.16-3.28Z"/>
    </g>
  </g>
</svg>