<?xml version="1.0" encoding="UTF-8"?>
<svg id="_레이어_2" data-name="레이어 2" xmlns="http://www.w3.org/2000/svg" viewBox="0 0 204.87 204.87">
  <defs>
    <style>
      .cls-1 {
        fill: #fff;
      }
    </style>
  </defs>
  <g id="_레이어_1-2" data-name="레이어 1">
    <g>
      <path class="cls-1" d="M174.87,30C155.52,10.66,129.8,0,102.44,0S49.35,10.66,30,30C10.66,49.35,0,75.08,0,102.44s10.66,53.09,30,72.43c19.35,19.35,45.07,30,72.43,30s53.09-10.66,72.43-30c19.35-19.35,30-45.07,30-72.43s-10.66-53.09-30-72.43ZM102.44,187.47c-46.88,0-85.03-38.14-85.03-85.03S55.55,17.41,102.44,17.41s85.03,38.14,85.03,85.03-38.14,85.03-85.03,85.03Z"/>
      <path class="cls-1" d="M140.95,66.49c-3.4-3.4-8.91-3.4-12.31,0l-25.4,25.4-25.4-25.4c-3.4-3.4-8.91-3.4-12.31,0-3.4,3.4-3.4,8.91,0,12.31l25.4,25.4-25.4,25.4c-3.4,3.4-3.4,8.91,0,12.31,1.7,1.7,3.93,2.55,6.16,2.55s4.46-.85,6.16-2.55l25.4-25.4,25.4,25.4c1.7,1.7,3.93,2.55,6.16,2.55s4.46-.85,6.16-2.55c3.4-3.4,3.4-8.91,0-12.31l-25.4-25.4,25.4-25.4c3.4-3.4,3.4-8.91,0-12.31Z"/>
    </g>
  </g>
</svg>