<?xml version="1.0" encoding="UTF-8"?>
<svg id="_레이어_2" data-name="레이어 2" xmlns="http://www.w3.org/2000/svg" viewBox="0 0 106.98 101.08">
  <defs>
    <style>
      .cls-1 {
        fill: #fff;
      }
    </style>
  </defs>
  <g id="_레이어_1-2" data-name="레이어 1">
    <g>
      <path class="cls-1" d="M54.87,46.64c5.57-1.14,10.86-.45,15.74,2.43,7.46,4.4,14.9,8.83,22.28,13.36,5.38,3.3,7.64,8.32,7.06,14.5-.58,6.2-3.72,10.76-9.58,13.17-2.87,1.18-5.96,1.03-9,1-3.81-.03-7.63-.16-11.44,0-4.78,.19-9.24,1.68-13.5,3.85-3.26,1.66-6.49,3.41-9.87,4.77-11.15,4.48-19.42-2.85-21.5-10.7-1.07-4.07-.58-8.03,1.77-11.56,4.95-7.44,9.93-14.86,15.02-22.2,3.17-4.58,7.66-7.34,13.02-8.61Z"/>
      <path class="cls-1" d="M52.75,20.53c-.49-2.24-.7-4.53-.62-6.77,.11-3.14,.92-6.31,2.71-8.89S59.47,.36,62.59,.05c2.84-.29,5.71,.77,7.96,2.53,2.25,1.76,3.92,4.17,5.17,6.73,2.43,4.96,3.38,10.75,2.05,16.11-.56,2.26-1.52,4.44-3.01,6.22-1.49,1.78-3.53,3.15-5.8,3.62-3.51,.73-7.22-.76-9.85-3.19-3.29-3.03-5.38-7.18-6.34-11.55Z"/>
      <path class="cls-1" d="M45.72,21.8c.57,2.53,.75,5.15,.52,7.73-.25,2.83-1.02,5.66-2.58,8.03-1.57,2.37-3.99,4.25-6.78,4.78-3.47,.67-7.1-.8-9.71-3.18-4.95-4.52-7.07-11.41-6.96-17.97,.05-3.08,.74-6.2,2.38-8.81,1.64-2.6,4.3-4.64,7.34-5.16,2.8-.47,5.73,.38,8.07,1.98,2.34,1.61,4.13,3.92,5.46,6.43,1.02,1.94,1.78,4.01,2.26,6.15Z"/>
      <path class="cls-1" d="M85.97,38.99c-.84-3.89-.57-8.13,.49-11.7,.33-1.13,.76-2.23,1.26-3.29,.94-1.97,2.22-3.86,4.05-5.05,2.31-1.51,5.4-1.72,7.89-.55,2.06,.97,3.63,2.76,4.75,4.74,2.43,4.25,2.98,9.4,2.27,14.24-.44,3.05-1.41,6.11-3.36,8.5-1.95,2.39-5.02,4.01-8.09,3.65-2.11-.24-4.05-1.39-5.49-2.93-1.95-2.08-3.17-4.75-3.79-7.61Z"/>
      <path class="cls-1" d="M.68,52.55c-.76-3.39-1.11-6.73,.2-10.03,1.77-4.46,6.13-6.48,10.68-4.86,3.89,1.38,6.62,4.19,8.72,7.61,2.57,4.18,3.98,8.72,3.48,13.67-.39,3.91-2.06,7.03-6.05,8.35-2.75,.91-5.32,.23-7.7-1.24-3.97-2.45-6.44-6.13-8.21-10.34-.43-1.04-.75-2.13-1.11-3.16Z"/>
    </g>
  </g>
</svg>