<?xml version="1.0" encoding="UTF-8"?>
<svg id="_레이어_2" data-name="레이어 2" xmlns="http://www.w3.org/2000/svg" viewBox="0 0 179.48 155.82">
  <defs>
    <style>
      .cls-1 {
        fill: #b0b0b0;
      }
    </style>
  </defs>
  <g id="_레이어_1-2" data-name="레이어 1">
    <g>
      <path class="cls-1" d="M89.66,72.6c9.41,.16,17.7,3.16,24.55,9.55,10.48,9.77,20.91,19.61,31.21,29.57,7.51,7.26,9.35,16.18,6.21,25.96-3.16,9.81-9.86,16.05-20.18,17.84-5.06,.87-9.99-.47-14.9-1.6-6.15-1.41-12.27-2.98-18.47-4.1-7.79-1.4-15.53-.59-23.19,1.37-5.86,1.51-11.71,3.19-17.66,4.17-19.62,3.24-30.35-11.56-30.89-24.99-.28-6.96,1.94-13.17,7-18.04,10.65-10.25,21.36-20.44,32.21-30.48,6.77-6.26,15.01-9.11,24.12-9.25Z"/>
      <path class="cls-1" d="M95.59,29.67c0-3.79,.5-7.57,1.43-11.15,1.3-5.03,3.74-9.86,7.56-13.38,3.81-3.53,9.08-5.63,14.24-5.02,4.69,.56,8.95,3.29,11.95,6.94,3,3.64,4.83,8.13,5.94,12.72,2.14,8.89,1.6,18.57-2.46,26.76-1.71,3.45-4.05,6.63-7.09,8.98-3.05,2.35-6.83,3.83-10.68,3.78-5.93-.08-11.38-3.81-14.78-8.68-4.23-6.07-6.11-13.52-6.11-20.93Z"/>
      <path class="cls-1" d="M83.78,29.2c.02,4.29-.63,8.59-1.93,12.68-1.43,4.48-3.67,8.78-7.05,12.05-3.38,3.27-7.97,5.43-12.67,5.3-5.84-.16-11.18-3.84-14.54-8.62-6.38-9.07-7.33-20.97-4.82-31.52,1.18-4.96,3.42-9.75,7.01-13.37C53.37,2.11,58.4-.23,63.48,.02c4.69,.24,9.12,2.66,12.33,6.09,3.21,3.43,5.27,7.81,6.52,12.35,.96,3.5,1.44,7.12,1.46,10.74Z"/>
      <path class="cls-1" d="M142.63,71.39c.04-6.59,1.99-13.34,4.98-18.72,.94-1.7,2.02-3.33,3.22-4.86,2.23-2.85,4.97-5.44,8.35-6.71,4.27-1.61,9.34-.85,12.95,1.94,2.98,2.3,4.87,5.76,5.98,9.35,2.4,7.74,1.45,16.25-1.43,23.82-1.81,4.77-4.46,9.37-8.47,12.53-4.01,3.16-9.55,4.68-14.37,3.01-3.31-1.15-6.04-3.69-7.83-6.71-2.4-4.06-3.41-8.82-3.39-13.66Z"/>
      <path class="cls-1" d="M0,62.74c0-5.75,.62-11.27,3.91-16.14,4.45-6.58,12.23-8.27,18.99-4.03,5.78,3.63,9.19,9.14,11.36,15.42,2.65,7.67,3.3,15.5,.72,23.32-2.04,6.17-5.85,10.62-12.77,11.33-4.76,.49-8.68-1.53-11.99-4.75-5.53-5.38-8.22-12.21-9.55-19.65C.34,66.41,.21,64.54,0,62.74Z"/>
    </g>
  </g>
</svg>