<?xml version="1.0" encoding="UTF-8"?>
<svg id="_레이어_2" data-name="레이어 2" xmlns="http://www.w3.org/2000/svg" viewBox="0 0 464.16 532.29">
  <defs>
    <style>
      .cls-1, .cls-2, .cls-3 {
        fill: #fff;
      }

      .cls-4 {
        fill: #444;
      }

      .cls-5 {
        fill: #2fbaeb;
      }

      .cls-5, .cls-6, .cls-2, .cls-7, .cls-3, .cls-8 {
        stroke: #444;
        stroke-width: 3px;
      }

      .cls-5, .cls-2, .cls-7 {
        stroke-miterlimit: 10;
      }

      .cls-6 {
        fill: #e33b25;
      }

      .cls-6, .cls-3, .cls-8 {
        stroke-linecap: round;
        stroke-linejoin: round;
      }

      .cls-7 {
        fill: #fc0;
      }

      .cls-8 {
        fill: none;
      }
    </style>
  </defs>
  <g id="_레이어_1-2" data-name="레이어 1">
    <g>
      <path class="cls-2" d="M4.61,331.64c-2.23,2.82-3.9,6.57-2.72,9.96,.48,1.37,1.38,2.57,1.71,3.98,.33,1.42,.03,2.89-.1,4.35-.91,10.04,7.53,19.98,17.59,20.71,1.79,.13,3.59,0,5.38,.17,1.87,.17,3.69,.66,5.55,.93,11.38,1.66,23.39-6.03,26.63-17.06,8.57-3.71,17.55-10.19,17.96-19.52,.27-6.1-3.3-11.67-7.08-16.48-1.75-2.22-3.6-4.43-4.62-7.06-.69-1.77-.98-3.67-1.56-5.48-1.94-6.11-7.34-10.98-13.62-12.28-6.27-1.3-13.17,1.03-17.37,5.86-.81,.93-1.54,1.96-2.56,2.66-1.16,.8-2.58,1.09-3.93,1.5-6.1,1.84-11.35,6.62-13.88,12.46-1.07,2.47-.66,5.35-1.57,7.61-1.24,3.08-3.76,5.1-5.81,7.69Z"/>
      <g>
        <g>
          <circle class="cls-5" cx="449.25" cy="238.69" r="12.72"/>
          <circle class="cls-5" cx="432.3" cy="209.06" r="12.72"/>
          <circle class="cls-5" cx="403.52" cy="197.33" r="12.72"/>
          <circle class="cls-5" cx="449.94" cy="271.76" r="12.72"/>
          <circle class="cls-5" cx="431.5" cy="296.77" r="12.72"/>
          <path class="cls-7" d="M443.94,294.11c9.5-10.39,14.04-24.8,13.59-38.87-.45-14.07-5.65-27.74-13.51-39.42-3.96-5.88-8.72-11.39-14.34-15.67-3.02-2.3-6.3-4.24-9.83-5.7-11.37-4.68-24.32-3.82-36.25-.86-4.32,1.07-8.72,2.49-12.04,5.45-8.4,7.48-2.7,18.67,4.2,24.79,4.34,3.85,9.38,6.87,13.55,10.9,7.53,7.27,12.33,18.77,11.62,29.32-.64,9.34-6.5,17.64-6.12,27.16,1.19,29.57,36.87,16.3,49.12,2.9Zm-34.95,4.61c-1.72-.41-2.86-1.16-3.6-3.81h0c-.32-1.15-.52-2.53-.58-4.1-.13-3.32,1.11-6.96,2.55-11.19,1.49-4.37,3.17-9.32,3.55-14.89,.34-4.94-.22-10.04-1.66-15.16-2.37-8.41-6.98-16.23-12.98-22.03-2.75-2.65-5.61-4.79-8.37-6.85-1.98-1.48-3.85-2.87-5.48-4.33-2.3-2.05-4.2-4.8-4.82-7.02-.51-1.8-.03-2.23,.63-2.82,1.75-1.56,4.93-2.5,7.81-3.22,12.01-2.99,22.12-2.85,30.03,.4,2.58,1.06,5.13,2.54,7.57,4.41,4.28,3.26,8.35,7.73,12.1,13.29,4.42,6.57,7.67,13.47,9.65,20.52,1.29,4.58,2.01,9.17,2.16,13.64,.39,12.15-3.61,23.74-10.97,31.8-5.93,6.49-20.1,13.14-27.57,11.36Z"/>
        </g>
        <polygon class="cls-1" points="123.63 280.28 110.08 292.54 79.92 305.76 54 322 43.62 336.17 36.87 356.3 36.87 380.97 45.57 398.09 56.79 411.43 80.25 430.67 84.94 437.09 56.72 451.45 48.97 458.58 47.11 468.81 47.29 481.79 48.94 491.99 51.36 497.13 54.57 499.09 61.25 499.09 75.43 497.23 95.03 494.21 122 488.06 140.14 480.43 155.92 473.89 168.39 464.03 176.6 451.89 177.99 448.41 180.71 457.14 191.34 483.7 198.93 499.09 205.3 514.29 208.65 522.66 210.68 526.25 214.73 529.54 219.53 530.79 225.52 530.39 233.38 528.41 248.07 522.95 262.12 515.32 271.43 506.59 273.28 502.5 273.28 493.92 271.3 486.15 262.44 461.09 242.28 421.09 237.49 411.62 248.82 406.2 259.53 400.39 272 392.02 279.16 385.26 285.88 376.23 292.99 363.96 300.64 348.54 312.27 323.57 315.13 317.17 321.15 317 330.65 315.72 341.06 313.15 357.66 307.02 379.41 299.94 390.41 295.85 402.62 289.26 409.91 283.02 416.51 273.56 419.44 263.68 419.44 253.76 415.13 240.5 409.88 228.67 401.44 214.41 396.03 210.7 384.51 211.88 342.81 232.51 328.64 239.73 190.47 269.75 123.63 280.28"/>
        <g>
          <path class="cls-1" d="M56.96,168.02l24.02-57.07c-.07-7.42,2.95-14.22,7.58-19.91,5.01-6.17,12.32-8.67,17.49-14.62,12.48-14.37,33.24-21.09,50.96-26.08,16.16-4.55,39.74-12.67,56.15-7.77,20.24,6.05,39.02,14.44,57.01,25.32,6.8,4.11,11.01,11.33,16.45,16.95,5.45,5.64,11.97,10.26,17.23,16.02,6.03,4.29,14.15,6.56,21.47,6.74,6.78,.17,14.24-1.3,20.51,2.06,5.53,2.97,8.99,8.55,13.2,12.99,4.43,4.67,10.13,8.58,12.01,15.08,6.52,22.5-26.54,26.96-40.94,21.01l-.69-1.51c1.78,4.6,3.56,9.2,5.34,13.8,4.17,10.77,8.4,21.89,8.08,33.43-.27,9.89-4.23,19.53-10.6,27.06-6.4,7.56-16.98,10.36-21.87,18.97-2.41,4.25-3.82,8.98-5.85,13.43-9.02,19.74-35.65,41.6-58.35,40.6-7.51-.33-14.22-3.57-21.54-4.54-7.21-.95-14.51,.42-21.53,1.93-13.78,2.96-29.13,8.5-42.84,2.28-8.32-3.77-14.43-11.45-22.84-15.04-7.91-3.37-16.85-2.74-25.44-2.96-17.05-.44-30.13-9.95-39.05-24.23-7.45-11.91-11.3-25.65-15.06-39.18-4.55-16.35-5.27-37.9-.85-54.77Z"/>
          <path class="cls-4" d="M58.4,168.42c2.63-6.25,5.26-12.49,7.89-18.74,4.28-10.16,8.55-20.32,12.83-30.48,1.05-2.5,2.3-4.99,3.18-7.56,.15-.44,.16-.68,.18-1.23,.08-2.48,.41-4.88,1.13-7.26,1.42-4.71,4.09-9.26,7.54-12.78,3.27-3.33,7.37-5.63,11.05-8.44s6.45-6.44,9.91-9.46c6.95-6.09,15.38-10.38,23.94-13.74,8.27-3.25,16.81-5.61,25.33-8.09s17.84-5.26,27-6.85c4.6-.8,9.28-1.31,13.96-1.24,4.58,.07,8.82,.94,13.18,2.3,10.28,3.2,20.34,7.07,30.1,11.62,4.88,2.27,9.68,4.71,14.4,7.3s9.39,4.84,13.22,8.27c3.45,3.09,6.23,6.83,9.2,10.37,3.31,3.93,7.08,7.35,10.95,10.72,1.98,1.72,3.96,3.43,5.86,5.23s3.5,3.7,5.75,5.06c4.2,2.54,8.98,4.19,13.8,5.03s9.5,.61,14.32,.51c5.07-.11,10.01,.36,14.21,3.46,3.79,2.79,6.52,6.77,9.63,10.24,2.91,3.25,6.38,5.96,9.17,9.31,4.07,4.88,5.87,12.33,2.37,18.02-2.82,4.57-8.18,6.99-13.19,8.29-5.64,1.47-11.71,1.79-17.49,.96-2.51-.36-5-.96-7.35-1.92l.9,.69-.69-1.51c-.7-1.53-3.36-.43-2.74,1.16,3.34,8.62,6.94,17.19,9.79,25.99,2.66,8.22,4.49,16.96,3.15,25.61-1.2,7.76-4.64,15.25-9.74,21.22-4.43,5.18-10.73,8.09-15.97,12.31-2.58,2.08-4.82,4.53-6.42,7.45-2.08,3.8-3.4,7.94-5.12,11.91-2.62,6.06-6.42,11.56-10.79,16.5-9.29,10.51-21.6,19.56-35.33,23.1-3.05,.79-6.17,1.27-9.32,1.32-4.1,.06-8.05-.79-11.99-1.86s-7.86-2.24-11.93-2.74c-4.44-.54-8.92-.21-13.33,.45-8.39,1.25-16.52,3.73-24.84,5.34-8.29,1.6-17.24,2.23-25.14-1.34-6.88-3.11-12.11-8.77-18.45-12.72-7.07-4.4-15.08-5.27-23.24-5.39-4-.06-8.04,.08-12.01-.45-3.27-.43-6.49-1.27-9.56-2.46-6.32-2.44-11.91-6.54-16.52-11.47-11.09-11.88-16.22-27.83-20.55-43.14-2.18-7.7-3.93-15.36-4.64-23.35-.72-8.09-.67-16.29,.31-24.36,.46-3.76,1.16-7.48,2.11-11.14,.48-1.87-2.41-2.67-2.89-.8-4.08,15.78-3.93,32.91-.75,48.84,1.62,8.11,4.11,16.17,6.73,24s6.11,16.22,10.84,23.45c7.56,11.56,18.82,20.73,32.7,23.1,8.27,1.42,16.74,.1,25.01,1.58,4.09,.73,7.87,2.2,11.37,4.44,3.3,2.11,6.3,4.65,9.42,7.03s6.36,4.55,10.01,6.03c3.83,1.55,7.94,2.29,12.06,2.42,8.59,.27,17.03-1.96,25.31-3.94,8.75-2.09,18.03-4.42,27.06-2.97,8.17,1.31,15.75,4.84,24.18,4.42,14.14-.71,27.41-8.46,37.83-17.6,5.4-4.74,10.27-10.14,14.23-16.14,1.81-2.74,3.4-5.61,4.71-8.62,1.79-4.13,3.14-8.48,5.39-12.4,3.47-6.02,9.93-9.16,15.37-13.09,6.25-4.52,10.81-10.71,13.8-17.8,3.26-7.72,4.15-15.97,3.01-24.24-1.25-9.04-4.57-17.6-7.85-26.06-1.7-4.41-3.41-8.81-5.12-13.22l-2.74,1.16c.64,1.4,1.02,2.02,2.52,2.56,1.22,.44,2.47,.79,3.73,1.07,2.91,.64,5.91,.96,8.89,1.01,6.22,.11,12.6-.85,18.32-3.37,5.07-2.23,9.65-6.08,11.21-11.57,.85-2.98,.72-6.15,.02-9.14-1.02-4.39-3.6-7.95-6.72-11.11-3.3-3.34-6.66-6.48-9.69-10.09s-6.33-7.42-10.76-9.45c-4.66-2.14-9.85-2.06-14.87-1.89s-10.21,0-15.25-1.4c-2.57-.71-5.07-1.66-7.42-2.92-1.03-.54-2.16-1.11-3.06-1.85-1.09-.89-2.02-2.07-3.04-3.05-3.98-3.83-8.33-7.24-12.32-11.06-3.61-3.46-6.61-7.42-9.86-11.21s-6.96-6.84-11.33-9.42c-9.56-5.64-19.49-10.64-29.71-14.95-5.15-2.17-10.36-4.17-15.64-5.98-4.78-1.64-9.65-3.45-14.68-4.16-9.43-1.34-19.12,.27-28.32,2.4-9.11,2.11-18.08,4.87-27.05,7.48-9.1,2.64-18.15,5.64-26.68,9.81-4.26,2.08-8.38,4.47-12.2,7.29s-6.93,6.11-10.23,9.48-7.74,5.85-11.56,8.83-7.12,7.01-9.4,11.46c-1.15,2.24-2.08,4.62-2.68,7.07-.28,1.13-.48,2.28-.62,3.44-.13,1.05,0,2.27-.16,3.26-.1,.57-.51,1.21-.73,1.74-3.8,9.03-7.6,18.05-11.4,27.08s-7.49,17.81-11.24,26.71c-.22,.51-.43,1.02-.65,1.54-.75,1.78,2.15,2.55,2.89,.8Z"/>
        </g>
        <g>
          <path class="cls-1" d="M137.05,97.7c-9.42,1.04-18.9-1.76-27.4-5.96-8.5-4.2-16.23-9.76-24.3-14.72-3.21-1.97-6.51-3.87-10.08-5.06-9.23-3.08-20.01-.95-27.38,5.41-2.73,2.36-4.99,5.23-7.07,8.18-7.93,11.24-3.42,23.09,8.66,29.37,7.69,4,14.15,11.55,23.14,11.92,5.05,.21,10.03-1.09,14.88-2.48"/>
          <path class="cls-4" d="M137.05,96.2c-14.33,1.5-27.44-5.52-39.15-12.95-5.82-3.69-11.5-7.82-17.71-10.86-5.59-2.73-11.63-3.87-17.82-3.02-5.79,.79-11.3,3.23-15.71,7.09-2.44,2.14-4.48,4.67-6.39,7.28-1.73,2.38-3.21,4.9-4.08,7.72-1.51,4.89-.93,10.17,1.55,14.64,2.73,4.91,7.15,7.96,11.93,10.65,5.53,3.11,10.2,7.62,16.12,10.05,7.18,2.95,14.93,1.06,22.09-.99,1.85-.53,1.06-3.43-.8-2.89-6.05,1.74-12.76,3.63-18.96,1.57-5.07-1.68-9.26-5.31-13.62-8.26-2.26-1.52-4.71-2.68-6.98-4.17s-4.17-3.18-5.74-5.25c-2.79-3.68-4.08-8.33-3.12-12.89,1.15-5.49,5.05-10.47,9.01-14.3s9.21-6.38,14.74-7.23c5.77-.89,11.49,.21,16.67,2.81,5.91,2.96,11.34,6.87,16.91,10.41,12.23,7.78,26.06,15.17,41.05,13.61,1.9-.2,1.92-3.2,0-3h0Z"/>
        </g>
        <path class="cls-3" d="M192.35,143.9c-5.14,6.46-12.46,10.67-20.12,11.57-4.29,.51-8.62,.02-12.91-.48"/>
        <path class="cls-3" d="M251.17,139.19c5.38,3.99,12.14,5.56,18.49,4.29"/>
        <g>
          <path class="cls-4" d="M232.14,183.12c-1.01,.88-.92,2.51-.51,3.44,.55,1.25,1.86,2.22,3.21,3.03,1.05,.62,3.35,.8,4.72,.62,2.72-.35,4.49-2.41,5.1-4.19,.49-1.42,.46-2.94,.15-4.33-.05-.22-.11-.44-.31-.6-.28-.22-.74-.25-1.16-.27-1.84-.09-3.71-.17-5.56,.06-2.13,.26-4.02,.99-5.54,2.16-.03,.03-.06,.05-.09,.08Z"/>
          <path class="cls-4" d="M237.44,190.51c-1.08,3.2-3.52,7.12-7.18,7.36-1.7,.11-3.42-.12-5.08-.44-1.53-.3-3.25-.7-4.54-1.36-1.71-.88-3.23,1.71-1.51,2.59s3.63,1.36,5.5,1.71c2.01,.38,4.15,.69,6.2,.45,4.92-.59,8.03-5.17,9.49-9.5,.62-1.83-2.28-2.62-2.89-.8h0Z"/>
          <path class="cls-4" d="M239.02,190.67c1.07,3.16,4.68,5.26,7.59,6.4,4.52,1.77,9.55,1.33,13.64-1.32,1.62-1.05,.11-3.64-1.51-2.59-3.4,2.2-7.32,2.52-11.09,1.1-1.38-.52-2.73-1.28-3.86-2.22-.49-.41-.95-.85-1.36-1.34-.1-.12-.13-.16-.3-.42-.07-.11-.13-.23-.19-.34-.15-.28,.08,.24-.02-.07-.62-1.82-3.52-1.04-2.89,.8h0Z"/>
          <path class="cls-8" d="M225.52,199.54c.06,5.13,.25,10.36,1.99,15.18s5.31,9.26,10.2,10.78c1.98,.62,4.08,.74,6.15,.85,2.22,.12,4.62,.18,6.47-1.05,1.94-1.29,2.8-3.68,3.38-5.94,1.85-7.16,2.19-14.71,.98-22"/>
          <path class="cls-6" d="M238.37,210.63c2.09,1.48,4.07,3.12,5.92,4.89,2.12,2.02,4.13,4.33,4.92,7.15,.24,.85,.33,1.86-.23,2.54-.51,.63-1.39,.79-2.2,.84-3.39,.23-6.75-.61-9.99-1.63-1.12-.35-2.25-.74-3.2-1.43-1.01-.74-1.76-1.79-2.43-2.85-1.33-2.1-5.89-8.91-3.73-11.29,2.52-2.79,8.69,.16,10.95,1.76Z"/>
        </g>
        <path class="cls-8" d="M312.98,246.86c22.41-10.54,44.47-22.45,66.88-32.99,5.79-2.72,12.73-5.43,18.3-2.26,2.78,1.59,4.63,4.38,6.28,7.13,3.75,6.24,7.03,12.77,9.79,19.51,3.86,9.39,6.74,19.76,4.31,29.62-2.28,9.25-9.06,16.9-17.02,22.13s-17.1,8.35-26.17,11.27c-19.81,6.37-39.41,16.28-60.22,15.91"/>
        <path class="cls-8" d="M317.51,311.76c-6.35,14.57-13.03,29-20.02,43.28-5.26,10.74-10.79,21.52-18.62,30.57-16.96,19.61-72.18,38.89-96.66,47.43"/>
        <path class="cls-8" d="M238.35,413.96c12.24,21.77,22.76,44.51,31.44,67.93,2.27,6.11,4.44,12.67,3.04,19.04-1.98,9-10.43,14.96-18.65,19.12-7.69,3.9-15.78,7.02-24.09,9.31-6.16,1.7-13.58,2.65-18.21-1.75-2.15-2.04-3.28-4.9-4.35-7.66-7.35-19.03-22.42-51.73-29.77-70.76"/>
        <path class="cls-8" d="M118.09,286.27c-7.15,4.78-15.81,10.75-23.77,14.01-8.74,3.58-17.92,6.22-26.18,10.81-16.59,9.22-28.49,26.42-31.27,45.19-2.78,18.77,3.62,38.69,16.83,52.32l31.24,28.47"/>
        <path class="cls-8" d="M90.57,398.8c21.24-6.72,43.49-10.22,65.76-10.34,2.28-.01,4.63,.02,6.72,.94,2.87,1.27,4.79,4,6.43,6.68,6.38,10.42,10.83,22.25,11.2,34.46,.36,12.21-3.66,24.8-12.28,33.46-5.33,5.36-12.12,9.02-18.95,12.26-28.92,13.71-60.71,21.35-92.7,22.26-1.63,.05-3.38,.05-4.74-.85-1.38-.9-2.07-2.53-2.59-4.1-2.74-8.31-2.44-17.28-2.12-26.02,.11-3.07,.26-6.25,1.66-8.97,1.63-3.16,4.73-5.26,7.75-7.13,13.97-8.67,29.08-15.49,44.83-20.23"/>
        <g>
          <polyline class="cls-8" points="31.01 126.85 25.19 103.74 7.76 111.37 15.02 139.19"/>
          <line class="cls-8" x1="27.02" y1="111" x2="10.01" y2="119.99"/>
          <ellipse class="cls-4" cx="11.1" cy="142.35" rx="7.27" ry="4.52" transform="translate(-78.82 31.44) rotate(-34.57)"/>
          <ellipse class="cls-4" cx="27.02" cy="131.38" rx="7.27" ry="4.52" transform="translate(-69.78 38.54) rotate(-34.57)"/>
        </g>
        <g>
          <ellipse class="cls-4" cx="144.31" cy="4.57" rx="4.52" ry="7.27" transform="translate(122.72 147.34) rotate(-83.21)"/>
          <path class="cls-8" d="M138.89,4.57l4.36,31.6s-3.36,8.54-9.54,1.27-9.54,.73-9.54,.73"/>
        </g>
        <g>
          <circle class="cls-5" cx="328.58" cy="296.83" r="12.72"/>
          <circle class="cls-5" cx="319.79" cy="263.84" r="12.72"/>
          <circle class="cls-5" cx="294.98" cy="245.13" r="12.72"/>
          <circle class="cls-5" cx="320.76" cy="328.98" r="12.72"/>
          <circle class="cls-5" cx="296.51" cy="348.42" r="12.72"/>
          <path class="cls-7" d="M309.22,349.04c11.84-7.6,19.94-20.37,23.11-34.08,3.17-13.71,1.66-28.26-2.94-41.56-2.32-6.7-5.5-13.25-9.84-18.82-2.33-3-5-5.72-8.04-8.03-9.79-7.44-22.52-9.93-34.81-10.13-4.45-.07-9.07,.17-13.04,2.18-10.04,5.07-7.39,17.35-2.3,25.04,3.2,4.83,7.3,9.04,10.3,14.01,5.41,8.96,7.1,21.31,3.7,31.32-3.01,8.87-10.81,15.38-12.88,24.68-6.44,28.89,31.46,25.21,46.74,15.4Zm-34.96-4.51c-1.56-.83-2.46-1.86-2.51-4.61h0c-.02-1.19,.15-2.58,.49-4.11,.72-3.24,2.86-6.45,5.33-10.16,2.56-3.84,5.46-8.19,7.25-13.48,1.59-4.69,2.36-9.77,2.28-15.08-.13-8.73-2.58-17.48-6.9-24.62-1.98-3.27-4.19-6.07-6.33-8.77-1.53-1.94-2.98-3.77-4.19-5.59-1.7-2.57-2.82-5.72-2.86-8.02-.03-1.87,.54-2.16,1.34-2.56,2.09-1.06,5.41-1.15,8.37-1.11,12.38,.19,22.11,2.92,28.92,8.09,2.22,1.69,4.3,3.77,6.19,6.2,3.3,4.25,6.09,9.62,8.28,15.95,2.59,7.48,3.95,14.99,4.06,22.31,.07,4.75-.4,9.38-1.41,13.74-2.74,11.85-9.58,22.02-18.76,27.92-7.4,4.75-22.79,7.54-29.56,3.91Z"/>
        </g>
        <path class="cls-3" d="M138.89,296.26c24.83,1.14,29.34-2.36,53.48-8.3,28.23-6.95,54.95-23.47,83.96-21.41,2.51,.18,5.09,.52,7.24,1.82,2.06,1.25,3.54,3.26,4.7,5.37,4.84,8.79,4.83,19.34,4.7,29.37-.1,7.42-.44,15.52-5.27,21.15-5.16,6.01-13.8,7.34-21.67,8.26-35.07,4.13-69.74,12.64-105.06,12.22"/>
      </g>
    </g>
  </g>
</svg>