<?xml version="1.0" encoding="UTF-8"?>
<svg id="_레이어_2" data-name="레이어 2" xmlns="http://www.w3.org/2000/svg" viewBox="0 0 761.26 675.37">
  <defs>
    <style>
      .cls-1 {
        fill: #ede8d3;
      }

      .cls-2, .cls-3, .cls-4 {
        fill: #fff;
      }

      .cls-5 {
        fill: #e75441;
      }

      .cls-6 {
        fill: #444;
      }

      .cls-7, .cls-8, .cls-4, .cls-9, .cls-10, .cls-11 {
        stroke-linecap: round;
        stroke-linejoin: round;
      }

      .cls-7, .cls-10 {
        stroke: #e33b25;
        stroke-width: 5px;
      }

      .cls-7, .cls-10, .cls-11 {
        fill: none;
      }

      .cls-8 {
        fill: #493228;
      }

      .cls-8, .cls-3, .cls-4, .cls-9, .cls-11 {
        stroke: #444;
        stroke-width: 3px;
      }

      .cls-3 {
        stroke-miterlimit: 10;
      }

      .cls-9 {
        fill: #f5f1e2;
      }

      .cls-10 {
        stroke-dasharray: 0 0 9.74 14.61;
      }
    </style>
  </defs>
  <g id="_레이어_1-2" data-name="레이어 1">
    <g>
      <path class="cls-3" d="M620.86,548c-1.19,3.39-1.54,7.48,.68,10.3,.89,1.13,2.15,1.98,2.91,3.2,.77,1.23,.97,2.73,1.32,4.14,2.42,9.79,13.65,16.43,23.39,13.83,1.73-.46,3.4-1.17,5.14-1.6,1.82-.45,3.7-.58,5.55-.93,11.3-2.14,20.14-13.34,19.6-24.82,6.89-6.31,13.26-15.37,10.6-24.32-1.74-5.86-6.94-9.95-12.07-13.26-2.38-1.53-4.85-3.01-6.67-5.17-1.23-1.45-2.12-3.15-3.26-4.67-3.83-5.14-10.53-7.98-16.88-7.16s-12.11,5.27-14.51,11.21c-.46,1.14-.82,2.35-1.55,3.35-.84,1.13-2.08,1.88-3.23,2.7-5.16,3.73-8.57,9.97-9.05,16.31-.2,2.69,1.12,5.27,1,7.7-.16,3.31-1.89,6.05-2.98,9.17Z"/>
      <g>
        <g>
          <rect class="cls-8" x="1.5" y="1.5" width="632.06" height="399.84" rx="31.99" ry="31.99"/>
          <path class="cls-1" d="M179.32-84.61H455.74c17.5,0,31.71,14.21,31.71,31.71V455.74c0,17.5-14.21,31.71-31.71,31.71H179.32c-17.5,0-31.71-14.21-31.71-31.71V-52.9c0-17.5,14.21-31.71,31.71-31.71Z" transform="translate(518.95 -116.11) rotate(90)"/>
        </g>
        <g>
          <path class="cls-7" d="M100.57,325.13s-.86-1.7-1.99-4.58"/>
          <path class="cls-10" d="M94.56,306.52c-3.64-19.68-.26-48.62,48.51-53.97,75.19-8.23,110.34-22.68,134.04-60,23.7-37.32,64.57-68.38,96.44-66.74,20.09,1.03,33.03-12.54,39.86-22.73"/>
          <path class="cls-7" d="M417.17,96.81c1.45-2.73,2.15-4.51,2.15-4.51"/>
        </g>
        <g>
          <path class="cls-5" d="M108.45,349.35c.16,.2,.57,.62,.53,.51l-.65-.75,.12,.25Z"/>
          <path class="cls-5" d="M109.95,350.47c-.28-.39-.81-1.06-1.45-1.71,.6,.74,.32,.46,1.05,1.33,.04,.12-.28-.18-.52-.45,.16,.2-.21-.11,.2,.37,.57,.52,.65,.49,.28-.03,.16,.15,.32,.35,.45,.49Z"/>
          <path class="cls-5" d="M114.55,348.5l-.1-.07s.08,.07,.1,.07Z"/>
          <path class="cls-5" d="M117.16,347.08s.05,.12,.11,.19c-.02-.06-.05-.12-.11-.19Z"/>
          <path class="cls-5" d="M118.22,347.64s-.04-.02-.06-.04c.07,.07,.1,.1,.06,.04Z"/>
          <path class="cls-5" d="M114.55,348.5l.26,.19c-.2-.25-.18-.16-.26-.19Z"/>
          <path class="cls-5" d="M108.83,348.26s.07,.12,.14,.22c-.02-.04-.03-.08-.04-.11-.04-.04-.07-.08-.1-.12Z"/>
          <path class="cls-5" d="M114.09,349.94l-.02,.02c.07,.09,.15,.2,.25,.32l-.23-.34Z"/>
          <path class="cls-5" d="M113.45,350.7s-.51-.63-.74-.91c.22,.27,.32,.4,.34,.47,.11,.12,.24,.26,.4,.44Z"/>
          <path class="cls-5" d="M111.29,350.64l.06,.11s-.04-.07-.06-.11Z"/>
          <path class="cls-5" d="M114.74,349.63c.08,.09,.16,.17,.2,.22-.07-.08-.14-.15-.2-.22Z"/>
          <path class="cls-5" d="M135.26,329.27c.02,.05,.04,.09,.06,.14-.03-.08-.05-.14-.06-.14Z"/>
          <path class="cls-5" d="M138.03,332.6v.05c.07,.15,.13,.29,.19,.43l-.19-.48Z"/>
          <path class="cls-5" d="M119.59,347.95s0,0-.01-.01c.04,.09,.04,.07,.01,.01Z"/>
          <path class="cls-5" d="M125.95,342.75c-.48-.58-.39-.9-.96-1.53,.19,.27,.6,1.18,.96,1.53Z"/>
          <path class="cls-5" d="M108.92,348.32s0-.03,.03-.03c-.03,0-.04,0-.03,.03Z"/>
          <path class="cls-5" d="M124.98,341.22h0s-.05-.06-.05-.06c.02,.03,.04,.04,.06,.06Z"/>
          <path class="cls-5" d="M120.93,346.31c-.09-.11-.17-.2-.23-.29,.05,.07,.12,.15,.23,.29Z"/>
          <path class="cls-5" d="M118.98,346.27l.1,.07c-.06-.05-.08-.07-.1-.07Z"/>
          <path class="cls-5" d="M120.88,344.88c.05,.04,.13,.13,.09,.02-.03-.03-.05-.06-.07-.08,.06,.1,.08,.15-.02,.06Z"/>
          <path class="cls-5" d="M121.56,344.39s-.07-.09-.11-.13v.05s.11,.08,.11,.08Z"/>
          <path class="cls-5" d="M132.97,330.78c.12,.21,.24,.44,.37,.66-.27-.53-.25-.78-.37-.66Z"/>
          <path class="cls-5" d="M109.15,348.61c-.14-.16-.2-.24-.22-.29,0,.01,0,.03,0,.05,.08,.09,.16,.18,.22,.23Z"/>
          <path class="cls-5" d="M117.03,339.45l.19,.02c-.08-.04-.15-.05-.19-.02Z"/>
          <path class="cls-5" d="M127.36,333.83l-.02-.1s-.02,.02,.02,.1Z"/>
          <path class="cls-5" d="M117.49,339.13c.19,.23,.31,.35,.4,.43-.03-.06-.06-.1-.11-.19l-.29-.24Z"/>
          <path class="cls-5" d="M133.34,331.45h0s0,0,0,0Z"/>
          <path class="cls-5" d="M133.32,329.24c-.13,.04,.4,1.01,.65,1.6-.01,.35-.42-.71-.71-1.19,.03,.31,.4,1.26,.31,1.25-.08-.16-.13-.22-.21-.43,.28,.84-.27,.17,.1,1.22-.05-.09-.09-.17-.13-.24,.26,.49,.51,1,.68,1.36-.05,.04,.21,.68-.13,.03,.04,0-.08-.26-.17-.47l.08,.31c-.5-.91-.08-.36-.41-1.05,.04,.36,.28,1.19,.07,.97-.46-.91,.05-.4-.46-1.16l.3,.29c-.8-1.4,.13,.06-.71-1.44-.3-.18,.03,.56-.27,.38,.21,.53,.38,.75,.59,1.27,.21,1.03-1.32-2.2-.9-.9,.25,.63,.81,1.8,.38,1.25l-.47-1.05c-.22-.02,.64,1.53,.12,.92-.17-.42-.04-.41-.13-.52-.52-.76,.21,.62,.13,.67l-.47-.9c-.11,.23,.03,.99-.08,1.25-.13-.28-.24-.58-.42-.83-.02,.58-.58,.15-1.1-.26l.32,.83s-.22-.33-.28-.5c-.25-.25,.25,.5,.37,.83-.02,.08-.3-.41-.39-.66,.18,.75,.29,1.67-.33,.92l-.09-.25c-.3-.24,.7,1.67,.19,1.01l-.05-.15c-.47-.18-.4,.69-1.25-.35,.57,1.14-.55-.34,.28,1.22-.58-.68-.69-.98-1.21-1.37-.1-.04,.44,1.02,.46,1.22l-.45-.81,.37,.9-.59-.94,.04,.25c.05,.03,.26,.33,.39,.56,.09,.43-.59-.41-.82-.82l.12,.83c-.18-.33-.2-.46-.28-.69,.32,.9-.51-.83-.21,0,.12,.17,.26,.48,.35,.65-.34-.45-.49-.37-.48-.1l-.3-.57c-.28-.03-.26,.5-.48,.62,.23,.21,.76,1.18,.75,1.31l-.52-.83c.26,.54,.25,.28,.54,.97-.14-.05-.61-.93-.73-1.23l.07,.35c-.15-.25-.21-.39-.39-.72,.27,.55-.67-.75-.19,.2l-.15-.25c-.22,.12-.15,.47-.3,.61,.43,.73,.26,.61,.56,1.22-.27-.15-.75-.64-.87-.48,.11,.43,.34,.63,.55,1.09-.4-.65-.52-.5-.73-1.02-.12,.22-.16,.28-.07,.95,.19,.25,.29,.35,.41,.59,.02,.13-.26-.22-.45-.53l-.03-.07c.35,1.14-1.79-1.53-1.15-.04l-.03-.07,.23,.84c-.17-.05-.25-.53-.57-.88,.45,1.23-.47,.08-.2,.92-1.37-1.81-.44,.47-1.42-.62l.3,.44c.23,.47-.23-.22-.33-.29,.23,.34,.32,.37,.44,.63-.08,.82-1.32-.06-2.04-.16-.24,0,1.45,2.35,.54,1.43l-.5-.86c.34,1.2-.69,.42-.43,1.47-.11-.2-.28-.45-.25-.46-.48-.55-.27,.14,.07,.63-.09-.02-.31-.43-.52-.65-.31-.3,.36,.87-.09,.31-.07-.09-.12-.2-.13-.26,.16,.32-.25,.07,.27,.72-.35-.24-.01,.46-.39,.12,.48,.8-.46-.22,.28,.86-.78-1.11-.84-.75-.54-.17-.21-.35-.31-.3-.61-.78-.07,.08,0,.34,.42,.89-1.11-1.2,.46,1.28-.85-.34,.18,.77,.24,1.34,.21,1.75-.8-1.09,.17-.29-.69-1.42,.12,.61,.69,1.63,.28,1.52-.17-.11-.32-.49-.44-.69,.12,.6-.48,.21-.22,.94-.08-.1-.14-.23-.18-.32-.01,.06-.2-.09,.17,.39l-.07-.16c.6,.67,.98,1.6,1.26,1.98-1.01-1.45-.45-.21-1.7-2.06,.05,.11,.19,.37,.45,.69-.11-.07-.27-.25-.51-.65,.07,.37,.52,.85,.39,.93-.18-.24-.23-.35-.43-.63,.29,.51,.59,1.01,.33,.89-.1-.15-.26-.32-.23-.34-.12,.2,.66,1.44,.13,1.14-.74-1.06-.33-.29-1.02-1.16l.11,.34,.37,.4c-.1,.05,.33,.76,.03,.53l-.22-.41-.03,.3,.35,.26c.27,.52,.89,1.11,.58,.95-.05-.11-.09,.06-.55-.42h0c.18,.31,.37,.64,.13,.47-.24-.27-.76-.98-.92-1.16,.54,.77-.04,.37,.53,1.19-.13-.2-.49-.66-.58-.75l.44,.62c-.19-.16-.27-.25-.56-.62-.21-.01,.93,1.08,.4,.71-.03-.06-.1-.14-.15-.25-.34-.13,.03,.6-.34,.41-.75-.84-.06-.31-.7-1.01-.06,.31,.46,1.36,.11,1.31l.11,.07c.99,1.25-.63-.5-.25,.16-.05-.11-.53-.71-.43-.56-.29-.09,0,.51,.13,1.05l-.24-.33c-.31-.22-.33,0-.53-.08,.24,.33,.15,.32,.56,.75-1.74-1.57,.35,1.33-1.12,.04,.02-.03-.17-.32-.19-.31l.06,.44c.47,.51,.3,.3,.69,.67,.24,.33,.4,.62,.36,.66-.22-.42-.73-.84-1.01-1.11,.14,.16,.29,.34,.43,.5-.9-.85,.9,1.07,.23,.55l-.23-.28c.07,.18,.35,.58,.23,.55-.55-.59-.19-.33-.62-.83-.04,.1,.85,1.27,.26,.72-.12-.2-.07-.24-.19-.43-.69-.65-.54-.46-.69-.53h.02s-.4-.2-.4-.2l.2,.16c1.29,1.65,.07,.45,.85,1.58-.74-1.08-.48-.58-1.07-1.27-.2-.16-.43-.33-.59-.54,.43,.6-.48-.35,.15,.53-.2-.22-.08,.03-.56-.53,.08,.24,.36,.37,.59,.65,.55,.85-1.08-.66-.33,.51,.24,.55,.87,1.31,1.07,1.79-.36-.31-.68-.82-.68-.82-.36-.26-.36-.15-.2,.16-.16-.2-.32-.35-.56-.57,0,.11,.68,.82,.32,.57-.21-.25-.54-.65-.74-.92,.12,.26,.42,.72,.53,.97-.36-.36-.48-.61-.68-.87,.08,.24,.12,.52,.64,1.13l.24,.17c0,.05-.48-.5-.56-.62-.36-.52,.28,.12,.48,.34l.08,.18c1.21,1.22,0-.37,.16-.38l.8,.96-.6-.85c.24,.22,.72,.73,.8,.91,.48,.4-.24-.38,.28,.08,.08,.07,.12,.12,.14,.16l-.18-.33c.16,.21,.6,.64,.44,.55,.6,.43-.44-.86,.24-.2l.04,.07c-.12-.46-.6-.7-1.19-1.61l1.59,1.61-.59-.7s.12,.03,.35,.31c-.36-.52-.28-.29-.63-.76,.63,.55-.03-.49,.95,.59-.43-.55-.43-.33-.67-.77,1.06,1.15-.08-.29,.47,.19,.51,.63,.16,.37,.71,.84-.86-1.07,.34,.1,.23-.15-.72-.82-.16-.46-.3-.83,.23,.28,.59,.28,.94,.49l.12,.14c-.7-.85-.46-.78-.54-1.02,.43,.5,.58,.71,.74,.97l.06-.06c-.21-.28-.31-.44-.35-.58l.52,.64c.06-.11-.45-.9,.03-.58-.49-.59-1.48-1.55-1.69-2.05,.27,.31,.74,.85,.82,1.01-.02-.05-.18-.3-.05-.18l.4,.57c.25,.19-.35-.47-.26-.46,.38,.45,.31,.3,.6,.66,.03,.05-.2-.16-.06,.04,.12,.04,.4,.26,.71,.58-.22-.25-.52-.61-.53-.7,.07-.11,.49,.52,.74,.71-.24-.33,.09-.06-.48-.73,.03-.02,.3,.29,.47,.47-.2-.34,.15-.27-.51-.95l-.05-.04s0-.02-.02-.04h0s0,0,0,0c-.41-.81,.65,.11,.56-.31l.19,.23c-.12-.34,.08-.33-.26-.88,.03-.02,.41,.36,.62,.65-.07-.23-.27-.5,.14-.2,.25,.46,.31,.33,.17,.35,.25,.12,.58,.47,.17-.24,.44,.62,.67,.69,.57,.47l-.41-.37c-.02-.13,.07-.11,.15-.09l.6,.8c.95,.8-.95-1.89,.47-.42-.38-.59-.41-.3-.87-.98,.17,.03,1.16,1.08,1.19,1.06,.46,.34-.79-1.23-.43-1.04-.24-.27-.84-1-.95-1.34,.17,.03,1.03,1.09,1.15,1.35,0,.04-.08-.04-.16-.14,.05,.12,.11,.27,.38,.55l-.21-.29c.27,.25,.37,.12,.7,.61-.14-.32-.33-.48-.5-.59,.43,.32,.18-.13,.52,.05-.14-.14-.41-.46-.39-.47,.44,.22-.34-.59-.32-.81,.4,.38,.77,1.04,.61,.59,.3,.24,.59,.74,.74,.99-.31-.62,.47,.2,.61,.26l.12,.27c-.07-.16-.04-.18-.01-.2l-.47-.54c.11,.07,.14,.05,.32,.29-.25-.4-.75-.92-1.07-1.48,.26,.25-.1-.41,.49,.33-.33-.15,.59,.74,.57,.95-.05-.11-.02-.12,.09-.05,.07,.08,.11,.16,.14,.21,.64,.57-.59-.9-.44-.98,.3,.44,.64,.78,.6,.67-.06,.03-.56-.69-.76-1.05,.34,.26-.09-.32-.01-.32l-.17-.12c-.3-.44-.22-.42-.25-.6,.26,.33,.12,.27,.25,.4-.49-.8,.74,.65,.46,.08,.26,.25,.6,.8,.79,.96-.31-.63,.55,.5,.32-.04-.46-.55-.36-.41-.7-1.02l.11,.54-.5-.92c-.06,.03,.15,.45,.04,.38-.29-.51-.19-.36-.57-.82,.72,.8-.22-.62,.31-.1l1.05,1.42c.6,.54-.3-.91,.14-.68l-.24-.21c-.39-.58,.05-.16-.06-.43,.34,.48,.51,.63,.75,.91-.26-.35,.15-.06-.53-1.03l.54,.57c.33,.16-.83-1.48-.57-1.42,.34,.55,.64,.85,.82,1.29,.05-.03,.15,.03-.09-.3,.24,.28-.34-.74,.03-.31-.13-.23-.49-.73-.41-.73,.08,.09,.17,.24,.17,.24-.17-.24-.15-.38-.58-.88,1.22,1.4,.33-.39,1.37,.81-.01-.23,0-.47,.07-.57,.1,.15,.17,.24,.12,.2,.44,.36-.9-1.45-.4-1.05,.62,.73,.22,.48,.47,.74,1.13,1.59,.02-.34,.77,.53l.04,.11c.45,.49-.24-.73-.04-.7,0,0,.09,.15,.17,.24-.48-.88-.51-1.26-.54-1.57,.39,.66,.17,.37,.63,1,0-.13-.72-1.02-.73-1.27,.27,.32,.55,.57,1.03,1.25l-.07,.1c.65,.85,.11-.12,.27,0l.26,.39c.07-.23-.59-1.21-.38-1.25l-.21-.28c-.56-1.03,.44,.5,.05-.29l.68,.97c-.1-.28-.43-1.09-.44-1.35,.42,.77,.55,1.23,.76,1.72,.06-.03,.15-.21-.14-.71,.04,.11,.17,.37,.05,.24-.44-.82-.6-1.27-.47-1.33,1.24,1.93,.63,.28,1.69,1.72-.25-.84,.61,.04,.78-.23-1.05-1.45,.04-.09-.96-1.62,0-.14,.03-.12,.1-.03l.76,.81c.33,.42,.16,.38,.39,.72,.2,.04,.47,.62,.81,.98-.37-.54-.46-.82-.26-.65l-.55-.65c-.35-.94,.97,1.21,.63,.28l.25,.52c-.09-.35,.33-.2-.36-1.5,.13,.17,.41,.58,.44,.72,.33,.06-.34-1.63,.3-.96l.22,.39c-.03-.13-.37-.76-.08-.41,.09,.16,.22,.39,.25,.4-.06-.14-.3-.74-.11-.55l.22,.46c.51,.37-.31-1.25-.29-1.62,.68,1.13,1.06,1.4,1.26,1.54l.09,.16c.33,0-.14-1.18-.17-1.77,.87,1.15,.79,.24,1.42,.8-.15-.19-.51-.9-.53-1.03,.19,.2-.3-.88,.29,.17h-.03c.63,1,.58,.66,.68,.64l-.77-1.39c1.36,1.88,.19-1.07,1.32,.66-.14-.38-.07-.41-.2-.79l.41,.74c.26,.11,.38,.16,.47-.12l.25,.55c.13,0-1.04-2.22-.96-2.32l.64,1.1c.18-.12,.89,.76,.54-.35,.08,.17,.25,.49,.25,.55,.1-.02,.74,.58-.1-.94,.53,1,.25,0,.12-.5l.37,.75c-.41-.99-.54-1.25-.56-1.58,.08,.08,.34,.58,.2,.41,.3,.34-.29-.74,.03-.41l.2,.5c.13,0-.01-.24-.24-.83-.09-.33,.29,.09,.65,.75-.2-.42-.43-.99-.27-.83,.14,.25,.2,.42,.23,.5,.42,.42-.2-.99,.29-.32,.13,.25,.2,.37,.25,.43-.14,.05-.27,.06-.29,0,.35,.69,.52,.75,.92,1.74-.18-.56-.61-1.76-.34-1.48,.04,.07,.08,.13,.13,.23l.03,.08c.06,.06,.05-.02,0-.14,.09,.1,.15,.17,.19,.16,.3,.56,.28,.25,.34,.25-.38-.75-.25-.67-.63-1.26,.04,.05,.04,.1,.02,.14,0,.03,0,.04,.02,.09l-.03-.07s-.06,.08-.11,.12c-.15-.4-.27-.75,0-.36-.21-.5-.43-1.01-.54-1.25,.6,1.01,1.03,1.51,1.37,2.15-.05-.5,.24-.47-.36-1.94-.04-.21,.25,.38,.38,.6,.04,.16,0,.15,.09,.36-.09-.41,.2-.28-.26-1.28,.34,.39,.38,.95,.46,.71l.13,.31c1.08,1.44-.71-2.79,.63-.91-.08-.11-.12-.17-.21-.33,.83,.72,.44-1.25,1.5,0,.25,.24-.04-.41-.19-.93l.4,.81-.31-1c-.14-.77,1.21,1.89,.83,.48l-.28-.54c.12,.07,.1-.44,.37,.21-.04-.11-.23-.59-.07-.31l.19,.43-.14-.83c.29,.25,.74,1.73,.99,1.72,0-.2-.33-1.37-.48-1.64-.04,0-.2-.23-.39-.67l-.03-.26c-.55-1.29-1.06-2.62-1.64-3.43l.21,.84-.31-.6,.09-.09c-.32-.56-.13-.02-.02,.35-.16-.33-.28-.55-.36-.66l.41,1.28c-.24-.49-.38-1.02-.59-1.25,.19,.59,.55,1.09,.62,1.51-.32-.55-.51-1.03-.36-.5-.16-.32-.23-.54-.27-.7,.11,.42-.1,.24,.17,.94-.39-.69-.14,.28-.67-.92,.11,.3,.31,1,.27,1.07-.54-1.49-.26,.02-.94-1.54,.51,1.33-.03,.71,.15,1.49-.04-.11-.12-.32-.08-.26-.13-.07-.33-.45-.5-.67,.48,1.07,.47,1.37,.71,2.06-.58-.98-.52-1.28-1.01-2.25,.41,.86,.23,.94,.6,1.65-.37-.6-.21-.28-.66-1.14,.61,1.34,.04,.26,.36,1.11-.42-.6-.61-1.23-.54-.77-.25-.38-.36-.9-.36-.9Zm-1.71,3.67s0-.02,0-.02c.01-.03,.03-.06,.04-.07,0,.02-.01,.04-.03,.09Zm-.23,.13s.08,0,.12-.02c.14,.25,.27,.53,.24,.52-.08-.18-.21-.3-.35-.5Zm3.13,4.97c.02,.12-.07-.02-.15-.17,0-.02,.02-.06,.02-.12-.01-.03-.03-.06-.04-.09,.07,.15,.13,.28,.18,.38Z"/>
          <path class="cls-5" d="M134.07,336.99s-.02-.05-.01-.06c-.04-.06-.08-.11-.11-.16,.04,.08,.07,.16,.11,.24v-.02Z"/>
          <path class="cls-5" d="M114.43,348.42h.02s-.05-.04-.09-.07c.03,.03,.05,.05,.07,.07Z"/>
          <polygon class="cls-5" points="127.42 333.33 127.52 333.51 127.45 333.34 127.42 333.33"/>
          <path class="cls-5" d="M111.48,347.12c-.05-.05-.1-.11-.16-.15,.04,.04,.09,.09,.16,.15Z"/>
          <path class="cls-5" d="M110.89,347.39l-.26-.17c.14,.1,.22,.15,.26,.17Z"/>
          <path class="cls-5" d="M110.26,347.38c.1,.11,.17,.2,.23,.28h0s-.24-.28-.24-.28Z"/>
          <path class="cls-5" d="M115.55,341.79s0-.02,0-.04c-.06-.16-.05-.09,0,.04Z"/>
          <path class="cls-5" d="M114.97,344.73c-.08-.13-.15-.27-.19-.36-.07-.03-.11-.02,.19,.36Z"/>
          <path class="cls-5" d="M117.01,339.45h0s0,0,.01,0h-.02Z"/>
          <path class="cls-5" d="M114.87,344.32c-.14-.11-.14-.06-.09,.05,.06,.02,.14,.07,.09-.05Z"/>
          <path class="cls-5" d="M108.46,348.49h-.04s.07,.07,.09,.09l-.05-.09Z"/>
          <path class="cls-5" d="M108.51,348.58l.05,.09s.01-.02-.05-.09Z"/>
          <path class="cls-5" d="M108.66,348.86l-.1-.19s-.05,0,.1,.19Z"/>
          <path class="cls-5" d="M109.19,348.35l-.2-.23s.11,.12,.2,.23Z"/>
          <path class="cls-5" d="M109.27,348.15c-.08-.02-.52-.41-.44-.22l.16,.18c-.28-.36,.6,.45,.28,.04Z"/>
          <path class="cls-5" d="M112.38,350.44l-.28-.08c.24,.22,.55,.53,.55,.63,.79,.6-.52-.52-.28-.56Z"/>
          <path class="cls-5" d="M113.05,350.48c.04,.17,.31,.35,.43,.5-.16-.26-.2-.32-.43-.5Z"/>
          <path class="cls-5" d="M115.7,348.24l.48,.6c-.02-.13-.19-.23-.48-.6Z"/>
          <polygon class="cls-5" points="113.72 344.74 113.37 344.41 113.79 344.97 113.72 344.74"/>
          <polygon class="cls-5" points="117.45 348.75 117.5 348.85 117.41 348.57 117.45 348.75"/>
          <path class="cls-5" d="M121.87,345.08l-.56-.76c.06,.16,.67,1.03,.56,.76Z"/>
          <path class="cls-5" d="M123.38,342.87c.29,.38,.51,.59,.29,.18-.08-.02-.33-.3-.29-.18Z"/>
          <polygon class="cls-5" points="130.53 340.27 130.64 340.57 130.59 340.29 130.53 340.27"/>
        </g>
        <g>
          <path class="cls-5" d="M134.65,352.78c.2-.17,.6-.59,.49-.54l-.73,.68,.24-.13Z"/>
          <path class="cls-5" d="M135.72,351.26c-.38,.3-1.03,.85-1.64,1.52,.71-.64,.44-.34,1.29-1.11,.12-.05-.17,.28-.43,.54,.19-.17-.1,.21,.36-.22,.5-.59,.47-.66-.04-.27,.14-.17,.34-.34,.47-.46Z"/>
          <path class="cls-5" d="M133.37,346.85l-.06,.11c.04-.05,.05-.09,.06-.11Z"/>
          <path class="cls-5" d="M131.54,344.45s.11-.07,.17-.14c-.06,.03-.11,.07-.17,.14Z"/>
          <path class="cls-5" d="M131.89,343.29s-.01,.05-.02,.07c.05-.08,.08-.12,.02-.07Z"/>
          <path class="cls-5" d="M133.37,346.85l.15-.28c-.22,.23-.13,.2-.15,.28Z"/>
          <path class="cls-5" d="M133.57,352.5s.12-.08,.21-.16c-.04,.02-.07,.04-.1,.05-.04,.04-.07,.07-.11,.11Z"/>
          <path class="cls-5" d="M134.88,347.15l.02,.02c.08-.08,.18-.17,.29-.28l-.31,.26Z"/>
          <path class="cls-5" d="M135.71,347.74s-.58,.56-.84,.82c.25-.24,.38-.35,.44-.38,.11-.12,.24-.26,.41-.44Z"/>
          <path class="cls-5" d="M135.82,349.92l.1-.06s-.06,.04-.1,.06Z"/>
          <path class="cls-5" d="M134.48,346.53c.08-.09,.16-.18,.2-.23-.07,.08-.14,.15-.2,.23Z"/>
          <path class="cls-5" d="M108.74,334.94c.03-.05,.05-.08,.08-.13-.05,.07-.08,.12-.08,.13Z"/>
          <path class="cls-5" d="M109.92,330.77l.04-.03c.08-.14,.16-.27,.25-.4l-.28,.43Z"/>
          <path class="cls-5" d="M131.89,341.86s0,0,0,.02c.08-.06,.06-.05,0-.02Z"/>
          <path class="cls-5" d="M124.79,336.88c-.38,.66-.71,.67-1.1,1.43,.19-.27,.9-.97,1.1-1.43Z"/>
          <path class="cls-5" d="M133.63,352.4s-.03,0-.03-.02c0,.03,0,.04,.03,.02Z"/>
          <path class="cls-5" d="M123.69,338.31h0s-.04,.08-.04,.08c.02-.03,.03-.05,.04-.08Z"/>
          <path class="cls-5" d="M129.91,340.83c-.09,.12-.16,.21-.22,.3,.06-.07,.12-.15,.22-.3Z"/>
          <path class="cls-5" d="M130.36,342.79l.04-.11c-.04,.07-.05,.1-.04,.11Z"/>
          <path class="cls-5" d="M128.51,341.21c.02-.06,.09-.16,0-.09-.02,.04-.04,.06-.06,.09,.08-.08,.13-.11,.06,0Z"/>
          <path class="cls-5" d="M127.84,340.66c-.04,.05-.06,.09-.1,.14l.05-.02,.05-.12Z"/>
          <path class="cls-5" d="M111.09,335.91c.12-.21,.25-.44,.37-.66-.31,.51-.53,.63-.37,.66Z"/>
          <path class="cls-5" d="M133.9,352.16c-.15,.15-.23,.22-.27,.24,.01,0,.03,0,.05-.01,.09-.09,.17-.17,.22-.23Z"/>
          <path class="cls-5" d="M124.23,346.31l-.02-.18c-.02,.09-.01,.15,.02,.18Z"/>
          <path class="cls-5" d="M116.09,339.1l-.08,.07s.02,0,.08-.07Z"/>
          <path class="cls-5" d="M123.83,345.98c.17-.24,.26-.39,.31-.5-.05,.05-.08,.09-.15,.16l-.16,.34Z"/>
          <path class="cls-5" d="M111.46,335.25h0s0,0,0,0Z"/>
          <path class="cls-5" d="M109.66,336.48c.09,.09,.62-.89,.98-1.41,.29-.19-.37,.73-.63,1.24,.23-.2,.84-1.02,.87-.95-.09,.16-.12,.22-.25,.41,.55-.69,.27,.12,.96-.75-.05,.09-.09,.17-.13,.24,.28-.48,.58-.96,.8-1.29,.06,.01,.46-.53,.09,.09-.02-.04-.18,.21-.31,.39l.22-.23c-.51,.91-.26,.26-.67,.91,.28-.23,.86-.88,.77-.58-.53,.87-.36,.18-.75,1.01l.09-.4c-.77,1.41-.01-.14-.85,1.36,0,.34,.45-.33,.44,.01,.34-.46,.44-.71,.78-1.17,.76-.72-1.21,2.27-.33,1.23,.41-.54,1.12-1.62,.86-.97l-.66,.94c.08,.19,.98-1.34,.71-.59-.27,.36-.32,.25-.37,.38-.4,.83,.42-.5,.5-.45l-.54,.87c.24-.03,.81-.54,1.09-.58-.18,.25-.38,.5-.51,.78,.5-.29,.4,.4,.26,1.05l.57-.68s-.19,.35-.3,.48c-.1,.33,.31-.46,.54-.72,.08-.02-.22,.46-.4,.66,.55-.53,1.3-1.06,.92-.18l-.18,.2c-.08,.37,1.14-1.41,.79-.65l-.11,.12c.04,.49,.78,0,.22,1.24,.75-1.02-.07,.64,.95-.81-.35,.82-.57,1.05-.71,1.68,0,.1,.71-.85,.88-.96l-.53,.76,.64-.73-.58,.94,.2-.15c0-.06,.18-.38,.34-.59,.34-.28-.13,.69-.4,1.08l.68-.48c-.22,.3-.33,.38-.5,.55,.67-.69-.54,.81,.07,.18,.11-.18,.33-.44,.44-.6-.27,.5-.14,.59,.09,.46l-.39,.51c.07,.25,.53,0,.71,.15,.1-.29,.76-1.18,.88-1.22l-.55,.81c.39-.46,.16-.34,.66-.89,0,.14-.6,.94-.83,1.17l.28-.21c-.16,.24-.27,.35-.5,.65,.39-.47-.42,.9,.24,.08l-.17,.24c.18,.14,.47-.07,.65,0,.5-.68,.45-.49,.9-1-.04,.3-.31,.93-.13,.97,.34-.27,.45-.56,.79-.93-.45,.62-.27,.67-.67,1.06,.24,.02,.3,.03,.87-.32,.17-.27,.22-.4,.39-.6,.11-.07-.11,.32-.33,.61l-.06,.06c.92-.75-.81,2.19,.33,1.04l-.06,.06,.69-.52c0,.17-.4,.42-.62,.85,.98-.87,.21,.39,.89-.16-1.25,1.9,.56,.22-.15,1.5l.32-.43c.36-.38-.13,.28-.17,.41,.25-.33,.24-.42,.45-.62,.78-.22,.3,1.23,.38,1.9,.05,.22,1.8-2.1,1.18-.96l-.67,.74c1.03-.71,.55,.49,1.46-.07-.16,.16-.35,.4-.37,.37-.39,.61,.19,.2,.56-.25,0,.09-.32,.42-.49,.67-.21,.38,.73-.59,.3-.01-.07,.09-.16,.17-.21,.2,.26-.24,.12,.21,.61-.46-.15,.39,.43-.12,.2,.32,.64-.67-.11,.49,.75-.51-.87,1.04-.52,.99-.04,.55-.28,.3-.22,.37-.6,.79,.09,.05,.31-.09,.75-.64-.9,1.36,1.11-.77-.15,.89,.69-.38,1.21-.58,1.61-.66-.88,1.03-.31-.08-1.21,1.01,.55-.27,1.41-1.06,1.38-.66-.07,.18-.41,.42-.57,.59,.55-.27,.28,.4,.92-.02-.08,.1-.19,.18-.27,.25,.06,0-.05,.21,.34-.25l-.14,.1c.53-.72,1.35-1.3,1.66-1.65-1.21,1.29-.13,.48-1.67,2.09,.1-.07,.32-.27,.58-.58-.05,.12-.19,.31-.53,.63,.34-.15,.72-.68,.82-.58-.2,.22-.29,.29-.53,.55,.43-.39,.87-.78,.79-.52-.12,.13-.27,.32-.29,.29,.21,.06,1.28-.93,1.08-.37-.9,.93-.22,.37-.96,1.22l.31-.17,.32-.44c.07,.08,.68-.46,.5-.13l-.36,.29,.29-.03,.2-.39c.46-.36,.93-1.07,.83-.74-.1,.06,.07,.08-.33,.61h0c.28-.23,.57-.47,.44-.21-.22,.28-.84,.91-.99,1.1,.66-.66,.36-.03,1.07-.73-.17,.16-.57,.6-.64,.69l.54-.54c-.13,.21-.2,.31-.52,.65,.02,.2,.92-1.09,.64-.52-.05,.04-.12,.13-.22,.19-.08,.35,.58-.13,.45,.25-.72,.87-.29,.11-.89,.85,.31,0,1.27-.68,1.25-.33l.05-.12c1.1-1.15-.41,.69,.18,.22-.1,.07-.62,.62-.5,.5-.06,.29,.49-.07,1.01-.28l-.3,.28c-.18,.33,.03,.32-.02,.52,.3-.28,.3-.19,.68-.65-1.37,1.91,1.28-.52,.15,1.08-.03-.02-.3,.21-.28,.22l.42-.11c.46-.52,.27-.33,.6-.75,.3-.28,.57-.46,.61-.42-.39,.26-.77,.81-1,1.12,.15-.15,.31-.32,.46-.48-.76,.98,.98-1,.52-.28l-.26,.26c.17-.09,.55-.4,.52-.28-.53,.6-.31,.23-.76,.7,.1,.03,1.18-.97,.69-.34-.18,.13-.23,.1-.41,.23-.59,.74-.41,.58-.47,.73v-.02s-.17,.42-.17,.42l.15-.21c1.53-1.43,.43-.11,1.5-.99-1.01,.83-.54,.52-1.18,1.17-.15,.21-.3,.45-.49,.63,.56-.48-.31,.5,.51-.2-.2,.21,.04,.07-.49,.59,.23-.1,.34-.38,.6-.64,.8-.61-.6,1.11,.51,.28,.53-.27,1.24-.95,1.71-1.18-.29,.37-.78,.73-.78,.73-.24,.37-.13,.36,.17,.19-.19,.17-.33,.34-.54,.59,.1,0,.78-.72,.55-.35-.24,.22-.62,.58-.88,.79,.25-.13,.69-.46,.94-.59-.34,.38-.58,.51-.84,.73,.23-.1,.5-.15,1.09-.7l.16-.25c.05,0-.48,.5-.6,.59-.51,.39,.11-.28,.32-.49l.18-.09c1.17-1.26-.37,.02-.39-.13l.92-.85-.82,.65c.21-.25,.69-.76,.86-.85,.37-.5-.37,.26,.06-.28,.07-.08,.11-.12,.15-.15l-.32,.2c.2-.17,.61-.64,.52-.47,.39-.62-.84,.49-.22-.23l.06-.05c-.45,.15-.66,.64-1.52,1.29l1.5-1.69-.66,.64s.02-.12,.29-.38c-.5,.39-.27,.3-.72,.68,.51-.67-.49,.07,.51-.99-.51,.47-.3,.46-.72,.72,1.07-1.15-.28,.1,.15-.48,.58-.56,.35-.19,.79-.78-.99,.94,.07-.35-.17-.22-.76,.78-.45,.2-.8,.37,.26-.26,.22-.61,.4-.99l.13-.13c-.78,.78-.73,.54-.96,.63,.46-.48,.65-.65,.89-.83l-.07-.06c-.26,.24-.41,.36-.54,.41l.58-.58c-.12-.05-.84,.53-.58,.02-.53,.55-1.38,1.64-1.85,1.9,.28-.31,.76-.83,.91-.92-.05,.03-.27,.22-.17,.07l.53-.46c.16-.27-.43,.4-.42,.31,.41-.43,.26-.34,.59-.67,.05-.03-.13,.21,.04,.06,.03-.12,.21-.43,.5-.78-.23,.25-.55,.58-.63,.61-.12-.05,.46-.55,.61-.82-.3,.28-.07-.09-.68,.56-.02-.03,.25-.33,.41-.52-.31,.24-.29-.12-.88,.62l-.03,.06s-.02,.01-.03,.02h0s0,0,0,0c-.75,.5,.02-.66-.38-.52l.2-.22c-.32,.17-.34-.04-.83,.37-.03-.03,.3-.46,.55-.71-.22,.1-.45,.34-.22-.11,.42-.32,.28-.36,.33-.21,.08-.27,.38-.64-.26-.13,.54-.53,.57-.77,.38-.64l-.3,.46c-.12,.04-.12-.05-.12-.14l.69-.72c.62-1.07-1.72,1.23-.51-.41-.52,.48-.23,.46-.82,1.03,0-.18,.87-1.33,.84-1.35,.25-.52-1.08,.99-.95,.6-.22,.28-.84,1-1.15,1.17,0-.17,.89-1.21,1.13-1.38,.04,0-.02,.09-.11,.18,.11-.07,.25-.15,.47-.47l-.25,.26c.2-.31,.05-.39,.47-.8-.29,.19-.42,.41-.49,.59,.23-.49-.16-.17-.05-.53-.11,.16-.37,.49-.39,.47,.12-.48-.52,.44-.74,.46,.29-.46,.88-.95,.46-.71,.17-.34,.61-.72,.83-.92-.56,.42,.1-.51,.12-.66l.25-.17c-.15,.1-.17,.07-.2,.05l-.44,.56c.05-.12,.02-.15,.22-.37-.34,.32-.75,.92-1.24,1.34,.19-.31-.39,.18,.22-.55-.07,.36,.61-.73,.82-.74-.1,.07-.12,.04-.07-.09,.06-.08,.13-.14,.18-.18,.42-.75-.76,.75-.88,.62,.37-.39,.63-.79,.53-.72,.05,.06-.55,.69-.87,.96,.18-.39-.3,.15-.31,.08l-.08,.19c-.36,.39-.36,.3-.53,.37,.27-.32,.24-.17,.34-.33-.68,.65,.48-.87-.03-.47,.19-.31,.65-.76,.77-.98-.56,.43,.36-.65-.13-.31-.43,.57-.31,.44-.84,.91l.51-.23-.79,.69c.05,.05,.41-.24,.36-.12-.44,.4-.31,.27-.67,.74,.62-.88-.56,.35-.17-.28l1.15-1.35c.38-.71-.82,.49-.71,0l-.14,.28c-.48,.52-.17-.01-.41,.16,.39-.45,.49-.64,.7-.95-.28,.34-.1-.14-.88,.76l.42-.66c.07-.36-1.24,1.16-1.24,.9,.45-.46,.66-.83,1.04-1.11-.04-.04-.01-.16-.28,.16,.21-.31-.63,.51-.31,.04-.19,.18-.59,.66-.61,.58,.07-.1,.19-.22,.19-.22-.19,.22-.33,.24-.71,.78,1.04-1.54-.47-.21,.42-1.53-.22,.07-.46,.12-.58,.09,.12-.13,.19-.23,.16-.17,.22-.53-1.15,1.26-.9,.67,.53-.8,.4-.34,.58-.66,1.21-1.53-.34,.07,.29-.89l.1-.07c.34-.57-.64,.43-.67,.23,0,0,.11-.13,.18-.23-.7,.71-1.06,.85-1.35,.97,.51-.57,.3-.27,.77-.9-.12,.05-.76,.98-1,1.07,.23-.35,.38-.7,.89-1.35l.12,.04c.62-.88-.15-.07-.08-.26l.3-.36c-.24,0-.98,.92-1.08,.73l-.2,.29c-.81,.85,.33-.57-.29,.04l.71-.95c-.23,.18-.91,.74-1.15,.84,.6-.65,1-.9,1.39-1.26-.05-.05-.25-.08-.64,.35,.09-.07,.3-.28,.21-.12-.64,.68-1.02,.97-1.12,.86,1.43-1.8,.06-.69,1.07-2.16-.72,.52-.18-.6-.51-.67-1,1.48-.1-.01-1.2,1.46-.13,.05-.13,.01-.06-.09l.5-1c.28-.46,.3-.28,.54-.61-.04-.21,.42-.66,.63-1.11-.38,.54-.61,.72-.53,.46l-.41,.75c-.76,.65,.78-1.34,.03-.7l.4-.42c-.29,.2-.32-.26-1.29,.86,.11-.18,.39-.6,.51-.68-.08-.34-1.41,.91-1.03,.06l.28-.35c-.12,.07-.57,.63-.35,.23,.11-.15,.28-.35,.28-.38-.11,.11-.57,.55-.47,.3l.34-.37c.14-.63-1.05,.75-1.4,.88,.78-1.07,.87-1.53,.91-1.77l.11-.15c-.15-.31-1.06,.59-1.59,.85,.7-1.27-.13-.83,.11-1.65-.1,.22-.6,.84-.72,.92,.1-.26-.67,.64,.03-.34v.03c.65-1,.36-.82,.29-.9l-.93,1.29c1.1-2.04-1.07,.29-.01-1.49-.28,.29-.34,.24-.62,.53l.49-.7c-.03-.28-.04-.42-.34-.39l.38-.47c-.07-.12-1.52,1.93-1.64,1.9l.69-1.07c-.19-.11,.24-1.16-.58-.33,.11-.15,.32-.45,.38-.47-.07-.09,.14-.94-.8,.53,.63-.94-.13-.22-.51,.13l.48-.68c-.68,.83-.84,1.07-1.12,1.24,.03-.11,.35-.57,.27-.37,.15-.43-.51,.61-.38,.17l.34-.42c-.06-.12-.21,.13-.61,.61-.24,.24-.06-.3,.34-.94-.27,.38-.66,.85-.59,.64,.15-.24,.27-.38,.33-.44,.15-.58-.77,.66-.43-.1,.15-.23,.22-.35,.26-.43,.12,.1,.19,.2,.15,.25,.42-.64,.39-.82,1.06-1.66-.4,.43-1.24,1.39-1.14,1.03,.04-.07,.07-.13,.13-.23l.06-.07c.02-.08-.04-.03-.13,.06,.04-.13,.07-.22,.04-.25,.34-.54,.07-.37,.03-.43-.46,.71-.45,.55-.77,1.18,.02-.06,.06-.08,.12-.09,.02-.02,.04-.02,.07-.06l-.04,.06s.1,.01,.16,.04c-.27,.33-.51,.61-.31,.18-.32,.43-.66,.88-.81,1.09,.57-1.03,.78-1.65,1.16-2.27-.41,.29-.54,.02-1.5,1.29-.15,.14,.19-.42,.31-.64,.11-.12,.13-.08,.27-.26-.31,.28-.35-.04-.97,.88,.16-.49,.61-.82,.36-.76l.2-.27c.64-1.69-2.01,2.08-1.13-.06-.05,.13-.07,.19-.17,.35,.14-1.09-1.28,.3-.83-1.28,.06-.34-.32,.26-.67,.67l.45-.79-.66,.82c-.56,.56,.88-2.07-.08-.96l-.29,.54c-.01-.14-.42,.17-.04-.43-.07,.09-.35,.53-.22,.24l.24-.41-.6,.59c.04-.38,.99-1.6,.83-1.8-.17,.11-.92,1.05-1.06,1.34,.02,.04-.07,.3-.32,.71l-.2,.17c-.73,1.19-1.51,2.39-1.85,3.33l.55-.66-.31,.6-.12-.02c-.27,.58,.05,.12,.29-.19-.18,.31-.29,.54-.34,.67l.8-1.07c-.27,.48-.61,.9-.69,1.2,.37-.5,.58-1.08,.88-1.38-.27,.58-.56,1.01-.21,.58-.18,.31-.31,.5-.42,.62,.28-.33,.25-.06,.66-.68-.35,.7,.3-.06-.39,1.07,.18-.26,.64-.83,.72-.84-.92,1.29,.15,.2-.76,1.63,.81-1.17,.58-.38,1.12-.98-.07,.09-.2,.28-.17,.21,0,.14-.2,.52-.29,.78,.63-.99,.88-1.15,1.32-1.73-.51,1.02-.78,1.14-1.33,2.08,.5-.81,.65-.72,1.04-1.41-.3,.64-.12,.32-.6,1.17,.79-1.24,.19-.17,.72-.91-.29,.67-.7,1.18-.36,.87-.19,.41-.56,.8-.56,.8Zm3.83-.57s0,.01,0,.01c-.03,0-.06,0-.08,0,.02,0,.04-.01,.09-.02Zm.22,.12s-.04-.07-.07-.09c.15-.25,.32-.49,.34-.47-.12,.16-.16,.33-.27,.55Zm2.75-5.18c.1-.08,.02,.07-.07,.22-.02,0-.06,.01-.12,.05-.02,.03-.04,.05-.06,.08,.09-.13,.18-.25,.24-.35Z"/>
          <path class="cls-5" d="M115.8,331.75s-.04,.04-.05,.04c-.03,.07-.06,.12-.08,.17l.16-.21h-.03Z"/>
          <path class="cls-5" d="M133.31,346.97v-.02s-.03,.05-.06,.1c.03-.03,.04-.05,.06-.08Z"/>
          <polygon class="cls-5" points="115.63 339.29 115.75 339.11 115.63 339.25 115.63 339.29"/>
          <path class="cls-5" d="M132.34,350.03c-.05,.06-.1,.11-.14,.17,.04-.04,.08-.1,.14-.17Z"/>
          <path class="cls-5" d="M132.63,350.58l-.15,.27c.09-.15,.13-.23,.15-.27Z"/>
          <path class="cls-5" d="M132.67,351.19c.11-.1,.18-.18,.26-.25h0s-.26,.25-.26,.25Z"/>
          <path class="cls-5" d="M126.7,347.08s-.02,0-.04,.02c-.14,.1-.07,.07,.04-.02Z"/>
          <path class="cls-5" d="M129.61,347.02c-.12,.1-.24,.2-.32,.25-.01,.07,0,.11,.32-.25Z"/>
          <path class="cls-5" d="M124.24,346.33h0s0-.02-.01-.02v.02Z"/>
          <path class="cls-5" d="M129.23,347.19c-.08,.15-.04,.15,.06,.08,.01-.06,.04-.15-.06-.08Z"/>
          <path class="cls-5" d="M133.8,352.84v.04s.06-.07,.09-.09l-.09,.05Z"/>
          <path class="cls-5" d="M133.89,352.79l.09-.05s-.02,0-.09,.05Z"/>
          <path class="cls-5" d="M134.17,352.62l-.19,.11s0,.05,.19-.11Z"/>
          <path class="cls-5" d="M133.65,352.14l-.22,.21s.12-.11,.22-.21Z"/>
          <path class="cls-5" d="M133.46,352.08c-.02,.08-.38,.54-.2,.45l.17-.17c-.34,.3,.42-.62,.03-.28Z"/>
          <path class="cls-5" d="M135.55,348.83l-.06,.28c.21-.25,.49-.59,.59-.6,.54-.84-.48,.55-.54,.31Z"/>
          <path class="cls-5" d="M135.53,348.15c.17-.05,.33-.34,.46-.47-.25,.18-.31,.22-.46,.47Z"/>
          <path class="cls-5" d="M132.95,345.73l.52-.56c-.12,.04-.2,.22-.52,.56Z"/>
          <polygon class="cls-5" points="129.79 348.22 129.52 348.61 130.01 348.11 129.79 348.22"/>
          <polygon class="cls-5" points="133.16 343.89 133.25 343.83 132.98 343.96 133.16 343.89"/>
          <path class="cls-5" d="M128.43,340.19l-.58,.74c.14-.1,.82-.92,.58-.74Z"/>
          <path class="cls-5" d="M125.82,339.32c.27-.39,.4-.67,.08-.33,0,.09-.18,.41-.08,.33Z"/>
          <polygon class="cls-5" points="120.52 333.46 120.75 333.23 120.51 333.39 120.52 333.46"/>
        </g>
        <path class="cls-9" d="M460.89,79.14c-1.43,.09-2.51,1.56-2.52,2.99s.8,2.77,1.85,3.75c1.49,1.4,3.78,2.25,5.61,1.33,1.68-.85,2.42-2.89,2.51-4.77,.06-1.39-.32-3.05-1.62-3.57,2.1,.9,4.66,1.66,6.52,.35,1.76-1.23,2.02-3.75,1.65-5.86-.08-.48-.2-.97-.54-1.32-.21-.23-.5-.37-.79-.49-2.4-1.01-5.34-.58-7.34,1.08l-29.72-19.17c1.43-.09,2.51-1.56,2.52-2.99s-.8-2.77-1.85-3.75c-1.49-1.4-3.78-2.25-5.61-1.33-1.68,.85-2.42,2.89-2.51,4.77-.06,1.39,.32,3.05,1.62,3.57-2.1-.9-4.66-1.66-6.52-.35-1.76,1.23-2.02,3.75-1.65,5.86,.08,.48,.2,.97,.54,1.32,.21,.23,.5,.37,.79,.49,2.4,1.01,5.34,.58,7.34-1.08l29.72,19.17Z"/>
        <path class="cls-9" d="M465.25,60.04c-.47,1.36,.46,2.91,1.78,3.49s2.86,.33,4.17-.25c1.87-.83,3.54-2.61,3.4-4.65-.13-1.88-1.73-3.35-3.43-4.16-1.26-.6-2.93-.88-3.92,.11,1.64-1.58,3.34-3.65,2.85-5.87-.45-2.1-2.67-3.32-4.76-3.79-.47-.11-.98-.19-1.43-.02-.29,.11-.53,.32-.76,.54-1.86,1.82-2.6,4.7-1.85,7.18l-29.2,19.96c.47-1.36-.46-2.91-1.78-3.49s-2.86-.33-4.17,.25c-1.87,.83-3.54,2.61-3.4,4.65,.13,1.88,1.73,3.35,3.43,4.16,1.26,.6,2.93,.88,3.92-.11-1.64,1.58-3.34,3.65-2.85,5.87,.45,2.1,2.67,3.32,4.76,3.79,.47,.11,.98,.19,1.43,.02,.29-.11,.53-.32,.76-.54,1.86-1.82,2.6-4.7,1.85-7.18l29.2-19.96Z"/>
        <rect class="cls-6" x="327.16" y="169.95" width="7.07" height="150.34" rx="3.53" ry="3.53" transform="translate(-75.52 178.55) rotate(-27.24)"/>
        <g>
          <g>
            <g>
              <polygon class="cls-2" points="451.82 307.15 611.15 346.06 642.45 354.22 710.23 364.55 745.95 370.48 753.03 372.71 757.76 379.1 759.56 386.75 758.63 399.73 755.7 408.58 749 420.04 745.07 423.94 736.41 428.86 723.89 429.52 703.36 428.81 659.42 425.68 638.88 422.88 639.82 433.99 641.48 465.31 641.57 490.38 641.23 518.51 640.37 544.35 638.76 576.77 636.98 606.02 635.49 627.07 632.45 641.97 629.79 647.99 625.48 654.02 617.88 660.26 608.48 665.44 592.54 668.44 578.06 669.21 566.8 668.29 562.71 665.94 559.06 659.85 555.92 639.54 552.92 609.42 551.6 587.4 551.45 580.18 540.65 580.57 523.61 579.73 507.67 577.73 495.87 575.79 495.53 581.39 493.66 600.44 490.48 619.27 485.26 639.6 480.7 652.8 476.28 663.05 473.71 666.81 469.41 671.14 462.68 673.08 456.1 673.53 446.85 673.87 436.04 673.06 430.75 671.75 423.67 668.29 419.05 664.31 412.65 654.04 409.63 645.41 408.81 628.03 408.07 593.61 407.78 563.9 408.27 516.45 409.81 477.33 412.99 434.89 419.55 383.49 424.29 357.42 425.56 349.2 419.36 335.5 443.36 295.59 451.82 307.15"/>
              <g>
                <g>
                  <path class="cls-2" d="M708.94,225.42l-27.01-55.72c-.32-7.42-3.71-14.05-8.62-19.48-5.33-5.89-12.76-8-18.24-13.67-13.23-13.68-34.32-19.29-52.27-23.34-16.38-3.69-40.35-10.55-56.48-4.78-19.89,7.12-38.2,16.49-55.58,28.31-6.57,4.47-10.39,11.89-15.52,17.8-5.14,5.92-11.4,10.88-16.36,16.92-5.79,4.6-13.78,7.3-21.08,7.87-6.76,.53-14.29-.54-20.37,3.15-5.36,3.26-8.52,9.01-12.49,13.67-4.18,4.9-9.66,9.11-11.19,15.7-5.31,22.81,27.94,25.51,42,18.81l.61-1.55c-1.53,4.69-3.07,9.37-4.6,14.06-3.59,10.97-7.22,22.31-6.29,33.81,.8,9.86,5.26,19.28,12.02,26.46,6.79,7.21,17.51,9.44,22.85,17.78,2.64,4.12,4.29,8.77,6.56,13.1,10.05,19.24,37.8,39.65,60.42,37.44,7.48-.73,14.01-4.32,21.27-5.67,7.14-1.33,14.51-.35,21.6,.78,13.92,2.23,29.54,6.94,42.9,0,8.11-4.21,13.8-12.2,22.01-16.23,7.72-3.79,16.68-3.63,25.25-4.3,17-1.34,29.55-11.54,37.71-26.27,6.8-12.28,9.92-26.21,12.96-39.92,3.67-16.57,3.25-38.12-2.05-54.74Z"/>
                  <path class="cls-6" d="M710.23,224.66c-3.18-6.57-6.37-13.13-9.55-19.7l-14.66-30.25-2.06-4.25c-.18-.38-.39-.75-.55-1.13s-.05-.49-.01-.16c-.98-9.93-6.17-18.87-14.38-24.6-4.03-2.81-8.56-4.95-12.15-8.36s-6.89-6.38-10.93-8.98c-8.07-5.19-17.19-8.64-26.37-11.34s-17.94-4.52-26.94-6.6c-9.62-2.21-19.41-4.26-29.3-4.56-4.62-.14-9.3,.13-13.81,1.19-5.08,1.19-10.02,3.39-14.83,5.38-10.16,4.2-20.03,9.06-29.54,14.58-4.84,2.81-9.59,5.79-14.23,8.91-4.1,2.76-7.28,6.22-10.25,10.15-3.14,4.15-6.12,8.3-9.77,12.02s-7.87,7.47-11.48,11.52c-.95,1.07-1.78,2.06-2.96,2.88-1.06,.73-2.17,1.4-3.31,2.01-2.29,1.22-4.69,2.17-7.18,2.91-5.02,1.48-10.03,1.65-15.23,1.78-4.93,.12-10.03,.58-14.31,3.25-4.08,2.55-6.95,6.45-9.8,10.24-5.37,7.12-13.5,12.79-14.78,22.18-.79,5.79,1.06,11.45,5.63,15.22s10.71,5.49,16.61,6.13,12.22,.23,17.99-1.47c1.23-.36,2.43-.8,3.6-1.31,1.34-.58,1.58-1.52,2.1-2.8l-2.89-.8c-2.96,9.04-6.22,18.05-8.6,27.27-2.19,8.48-3.36,17.36-1.64,26.03,1.57,7.9,5.41,15.3,10.71,21.34,4.72,5.36,11.12,8.18,16.93,12.12,2.95,2,5.49,4.39,7.33,7.47,2.22,3.72,3.74,7.79,5.71,11.64,3.13,6.14,7.52,11.65,12.38,16.5,10.16,10.16,23.37,18.68,37.63,21.47,7.36,1.44,14.38,.85,21.51-1.43,4.01-1.28,7.97-2.81,12.12-3.58,4.62-.86,9.39-.68,14.04-.17,16.28,1.78,34.01,8.78,49.83,1.3,7.12-3.36,12.21-9.55,18.54-14.03,7.3-5.17,15.78-5.95,24.45-6.49,7.32-.45,14.25-1.47,20.91-4.7,6.17-3,11.57-7.5,15.93-12.78,10.57-12.82,15.06-29.2,18.67-45.1,1.83-8.06,3.19-16.07,3.5-24.35,.3-8.25-.21-16.54-1.64-24.67-.68-3.9-1.6-7.75-2.79-11.52-.58-1.83-3.48-1.05-2.89,.8,4.78,15.14,5.58,31.91,3.23,47.58-1.23,8.21-3.29,16.41-5.53,24.4s-5.19,16.1-9.51,23.36c-6.95,11.69-17.71,20.76-31.34,23.18-8.11,1.44-16.47,.65-24.48,2.91-7.58,2.13-13.14,7.19-18.97,12.2-2.81,2.42-5.74,4.73-9.08,6.39-3.78,1.87-7.98,2.82-12.18,3.09-8.21,.52-16.34-1.21-24.37-2.68-8.48-1.55-17.29-3.12-25.91-1.8-8.11,1.24-15.47,5.54-23.74,5.94-13.9,.68-27.65-6.37-38.29-14.76-5.49-4.33-10.57-9.32-14.71-14.97-1.88-2.56-3.55-5.26-4.97-8.09-1.93-3.86-3.47-7.94-5.75-11.62-3.64-5.88-9.68-9.05-15.41-12.52-2.87-1.73-5.65-3.6-7.97-6.04-2.78-2.92-5.11-6.25-6.98-9.82-3.88-7.4-5.27-15.59-4.54-23.88,.79-9.03,3.76-17.72,6.56-26.29,1.4-4.3,2.81-8.59,4.21-12.89,.61-1.87-2.2-2.55-2.89-.8l-.61,1.55,.69-.9c-4.89,2.29-10.56,3.01-15.91,3-5.65-.02-11.61-.92-16.62-3.66-4.63-2.54-7.77-6.75-7.78-12.16,0-3.94,1.33-7.59,3.65-10.75,2.66-3.61,6.12-6.57,8.9-10.09s5.42-7.67,9.06-10.61c4.01-3.23,8.97-3.88,13.96-4.02s9.55-.18,14.27-1.3,9.28-2.97,13.27-5.68c2.17-1.48,3.69-3.45,5.49-5.34s3.69-3.71,5.58-5.53c3.62-3.5,7.14-7.05,10.2-11.06,2.89-3.78,5.51-7.8,8.9-11.16,3.63-3.59,8.33-6.2,12.65-8.88,9.07-5.62,18.5-10.65,28.22-15.04,4.91-2.21,9.89-4.26,14.94-6.13,4.35-1.62,8.61-2.8,13.26-3.12,9.47-.65,18.99,.95,28.23,2.89,8.76,1.84,17.52,3.86,26.2,6.06,8.97,2.27,17.91,5.02,26.2,9.17,4.15,2.08,8.16,4.5,11.77,7.43s6.58,6.35,10.46,8.91,8.28,4.78,11.66,8.19,6.06,7.61,7.57,12.13c.79,2.35,.95,4.64,1.34,7.06,.06,.4,.18,.68,.34,1.03,.41,.88,.85,1.75,1.27,2.63,4.33,8.94,8.67,17.88,13,26.81,3.98,8.21,7.96,16.42,11.94,24.63l.67,1.38c.84,1.74,3.43,.22,2.59-1.51Z"/>
                </g>
                <g>
                  <path class="cls-2" d="M648.19,158.79c6.95,6.44,16.25,9.82,25.57,11.5,9.33,1.68,18.85,1.8,28.29,2.61,3.76,.32,7.53,.76,11.12,1.92,9.25,3.01,16.66,11.14,18.8,20.63,.8,3.52,.91,7.17,.83,10.78-.3,13.76-10.98,20.6-24.42,18.47-8.56-1.35-18.24,.87-25.69-4.17-4.18-2.83-7.42-6.83-10.49-10.84"/>
                  <path class="cls-6" d="M647.13,159.85c9.73,8.91,22.92,11.92,35.69,13.15,7.02,.68,14.09,.86,21.11,1.57,6.21,.62,12.14,2.2,17.07,6.19,4.24,3.43,7.49,8.09,9.06,13.32,.95,3.18,1.23,6.48,1.26,9.79,.02,2.66-.09,5.28-.83,7.86-1.19,4.11-3.86,7.55-7.64,9.59-4.02,2.18-8.79,2.6-13.26,2.05-3.28-.4-6.5-.66-9.82-.73s-6.7-.09-9.97-.79c-7.23-1.56-12-7.31-16.31-12.92-.5-.65-1.29-.97-2.05-.54-.64,.36-1.03,1.41-.54,2.05,4.05,5.27,8.51,10.91,14.91,13.36,5.91,2.26,12.42,1.62,18.6,1.99,2.8,.17,5.55,.76,8.36,.79,2.51,.03,5.07-.27,7.48-.98,4.4-1.3,8.27-4,10.78-7.86,3.05-4.7,3.45-10.3,3.23-15.75-.26-6.37-1.97-12.46-5.78-17.64-3.45-4.7-8.11-8.37-13.55-10.48-6.75-2.62-14.42-2.63-21.55-3.08-15.29-.97-32.25-2.17-44.14-13.05-1.42-1.3-3.55,.81-2.12,2.12h0Z"/>
                </g>
                <path class="cls-6" d="M508.48,227.27c5.79,0,5.8-9,0-9s-5.8,9,0,9h0Z"/>
                <path class="cls-6" d="M574.63,234.05c5.79,0,5.8-9,0-9s-5.8,9,0,9h0Z"/>
                <path class="cls-6" d="M534.81,249.8c1.05,.83,1.05,2.46,.69,3.41-.49,1.28-1.74,2.32-3.05,3.19-1.01,.68-3.31,.98-4.68,.87-2.73-.2-4.61-2.16-5.32-3.91-.56-1.39-.61-2.91-.38-4.32,.04-.22,.09-.45,.28-.61,.26-.23,.72-.29,1.14-.33,1.84-.18,3.69-.37,5.56-.24,2.14,.15,4.07,.77,5.64,1.87,.03,.02,.07,.05,.1,.07Z"/>
                <path class="cls-6" d="M528.88,258.24c1.27,3.19,3.21,6.25,6.31,7.93,3.54,1.92,7.92,1.74,11.38-.27,1.67-.97,.16-3.56-1.51-2.59-2.6,1.51-5.9,1.67-8.54,.17-2.29-1.3-3.79-3.63-4.74-6.03-.3-.75-1-1.28-1.85-1.05-.72,.2-1.35,1.09-1.05,1.85h0Z"/>
                <path class="cls-6" d="M524.31,257.25c-.03,.12-.25,.67-.09,.33-.11,.25-.24,.49-.37,.72s-.3,.48-.46,.72c-.22,.31-.19,.27-.44,.56-.94,1.1-2.02,2.01-3.27,2.73-3.24,1.85-6.86,1.59-10.04-.25-1.68-.97-3.19,1.63-1.51,2.59,4.05,2.34,8.76,2.62,12.9,.34,2.6-1.43,5.39-3.98,6.2-6.95,.51-1.87-2.39-2.66-2.89-.8h0Z"/>
              </g>
              <path class="cls-11" d="M595.79,210.75c-9.74-6.19-22.18-6.37-33.55-4.39"/>
              <path class="cls-11" d="M517.31,207.15c-3.31-3.75-7.23-7.81-12.23-7.9"/>
              <path class="cls-11" d="M631.6,352.68c39.66,5.57,74.86,11.1,114.35,17.81,2.46,.42,4.99,.87,7.08,2.22,2.69,1.75,4.28,4.77,5.25,7.83,3.24,10.14,.8,21.36-3.89,30.92-2.83,5.77-6.66,11.34-12.27,14.48-6.15,3.44-13.56,3.52-20.6,3.4-33.13-.54-66.22-3.34-98.97-8.36"/>
              <path class="cls-11" d="M638.88,422.88c5.5,64.97,1.52,130.34-2.7,195.41-.75,11.54-1.75,23.76-8.56,33.1-10.73,14.69-31.4,16.9-49.56,17.82-5.37,.27-11.36,.34-15.35-3.27-3.48-3.15-4.38-8.2-5.02-12.85-3.43-24.85-5.62-47.82-6.24-72.9"/>
              <path class="cls-11" d="M570.54,576.76c-26.73,7.42-55.14,2.55-82.44-2.35"/>
              <path class="cls-11" d="M425.55,351.38c-18.84,88.38-19.1,186.32-16.74,276.66,.38,14.53,1.49,28.83,12.43,38.39,10.39,9.07,25.67,7.69,39.43,6.81,3.02-.19,6.2-.44,8.74-2.09,2.76-1.8,6.58-7.05,7.9-10.07,11.87-27.15,17.04-55.69,18.56-85.28"/>
            </g>
            <ellipse class="cls-11" cx="574.09" cy="231.31" rx="10.9" ry="21.25" transform="translate(285.36 778.77) rotate(-84.14)"/>
            <ellipse class="cls-11" cx="507.27" cy="222.77" rx="9.83" ry="18.62" transform="translate(213.52 692.52) rotate(-81.69)"/>
            <path class="cls-11" d="M552.95,229.14s-18.3-13.63-27.25-3.67"/>
          </g>
          <path class="cls-4" d="M423.14,374c-23.95-16.48-80.83-62.01-98.57-85.05-1.53-1.99-2.99-4.15-3.44-6.62-.44-2.37,.09-4.81,.89-7.08,3.35-9.46,11.24-16.46,18.83-23.02,5.61-4.86,11.89-9.98,19.31-10.11,7.92-.14,14.65,5.44,20.57,10.71,26.39,23.47,35.05,36.49,65.56,57.24"/>
        </g>
      </g>
    </g>
  </g>
</svg>