<?xml version="1.0" encoding="UTF-8"?>
<svg id="_레이어_2" data-name="레이어 2" xmlns="http://www.w3.org/2000/svg" viewBox="0 0 628.91 520.87">
  <defs>
    <style>
      .cls-1, .cls-2 {
        fill: #fff;
      }

      .cls-3 {
        fill: #444;
      }

      .cls-4 {
        fill: #493228;
      }

      .cls-4, .cls-2, .cls-5, .cls-6, .cls-7, .cls-8 {
        stroke: #444;
        stroke-width: 3px;
      }

      .cls-4, .cls-5, .cls-6, .cls-7, .cls-8 {
        stroke-linecap: round;
        stroke-linejoin: round;
      }

      .cls-2 {
        stroke-miterlimit: 10;
      }

      .cls-5 {
        fill: #3f992c;
      }

      .cls-6 {
        fill: #63a366;
      }

      .cls-7 {
        fill: #2a661f;
      }

      .cls-8 {
        fill: none;
      }
    </style>
  </defs>
  <g id="_레이어_1-2" data-name="레이어 1">
    <g>
      <g>
        <path class="cls-2" d="M83.9,393.4c-3.34,1.33-6.66,3.73-7.34,7.26-.27,1.42-.09,2.92-.51,4.3-.43,1.39-1.42,2.52-2.26,3.71-5.81,8.24-3.48,21.07,4.87,26.73,1.48,1.01,3.11,1.8,4.57,2.84,1.53,1.08,2.87,2.42,4.34,3.58,9.02,7.13,23.27,6.48,31.6-1.45,9.27,1.07,20.29-.05,25.32-7.92,3.29-5.15,2.98-11.76,2.11-17.81-.4-2.8-.9-5.64-.47-8.43,.29-1.88,.99-3.67,1.39-5.52,1.37-6.26-.87-13.18-5.65-17.44-4.78-4.26-11.91-5.7-17.97-3.62-1.17,.4-2.31,.92-3.54,1.02-1.41,.11-2.78-.34-4.16-.67-6.2-1.45-13.14,.05-18.25,3.84-2.16,1.6-3.25,4.3-5.16,5.8-2.61,2.05-5.81,2.53-8.88,3.75Z"/>
        <polygon class="cls-1" points="94.24 240.91 82.17 258.14 65 280.74 50.8 306.21 47.26 317.71 46.74 325.45 48.24 331.78 52.41 339.07 56.83 343.67 65.75 349.45 76.95 353.53 88.72 356.23 98.62 358.49 99.25 369.67 101.09 386.71 103.22 400.08 106.31 412.76 111.01 424.04 117.35 433.02 126.32 440.28 132.57 443.81 143.64 446.71 152.3 447.32 160.88 446.09 161.21 449.95 159.91 459.28 157.59 477.76 156.31 494.1 157.48 503.96 160.64 510.54 166.41 515.6 171.42 517.65 178.14 518.91 186.69 519.37 201.21 518.34 214.49 514.82 220.16 511.23 230.18 499.21 236.55 486.79 242.32 470.44 249.27 443.81 260.81 442.14 260.81 449.41 259.27 470.87 258.83 486.28 259.24 495.35 262.45 501.52 267.47 504.62 279.5 506.25 290.94 506.25 303 504.61 311.26 500.34 316.1 494.4 318.37 489.72 321.42 478.17 322.9 465.78 325.61 441.61 329.21 423.28 332.24 402.37 332.26 381.85 326.03 357.36 317.4 342.15 307.65 333.13 304.93 331.72 306.25 322.28 306.25 306.21 317.46 313.01 333.16 321.77 343.16 326.42 355.02 329.78 360.14 330.18 366.86 330.16 377.59 324.62 382.9 318.34 387.21 308.11 387.21 296.49 384.18 276.97 377.78 265.38 366.25 258.14 336.46 246.11 310.91 234.2 281.38 221.5 264.06 215.84 94.24 240.91"/>
        <g>
          <g>
            <g>
              <path class="cls-1" d="M26.63,128.48l24.02-57.07c-.07-7.42,2.95-14.22,7.58-19.91,5.01-6.17,12.32-8.67,17.49-14.62,12.48-14.37,33.24-21.09,50.96-26.08,16.16-4.55,39.74-12.67,56.15-7.77,20.24,6.05,39.02,14.44,57.01,25.32,6.8,4.11,11.01,11.33,16.45,16.95,5.45,5.64,11.97,10.26,17.23,16.02,6.03,4.29,14.15,6.56,21.47,6.74,6.78,.17,14.24-1.3,20.51,2.06,5.53,2.97,8.99,8.55,13.2,12.99,4.43,4.67,10.13,8.58,12.01,15.08,6.52,22.5-26.54,26.96-40.94,21.01l-.69-1.51c1.78,4.6,3.56,9.2,5.34,13.8,4.17,10.77,8.4,21.89,8.08,33.43-.27,9.89-4.23,19.53-10.6,27.06-6.4,7.56-16.98,10.36-21.87,18.97-2.41,4.25-3.82,8.98-5.85,13.43-9.02,19.74-35.65,41.6-58.35,40.6-7.51-.33-14.22-3.57-21.54-4.54-7.21-.95-14.51,.42-21.53,1.93-13.78,2.96-29.13,8.5-42.84,2.28-8.32-3.77-14.43-11.45-22.84-15.04-7.91-3.37-16.85-2.74-25.44-2.96-17.05-.44-30.13-9.95-39.05-24.23-7.45-11.91-11.3-25.65-15.06-39.18-4.55-16.35-5.27-37.9-.85-54.77Z"/>
              <path class="cls-3" d="M28.08,128.88c2.63-6.25,5.26-12.49,7.89-18.74,4.28-10.16,8.55-20.32,12.83-30.48,1.05-2.5,2.3-4.99,3.18-7.56,.15-.44,.16-.68,.18-1.23,.08-2.48,.41-4.88,1.13-7.26,1.42-4.71,4.09-9.26,7.54-12.78,3.27-3.33,7.37-5.63,11.05-8.44s6.45-6.44,9.91-9.46c6.95-6.09,15.38-10.38,23.94-13.74s16.81-5.61,25.33-8.09,17.84-5.26,27-6.85c4.6-.8,9.28-1.31,13.96-1.24s8.82,.94,13.18,2.3c10.28,3.2,20.34,7.07,30.1,11.62,4.88,2.27,9.68,4.71,14.4,7.3s9.39,4.84,13.22,8.27c3.45,3.09,6.23,6.83,9.2,10.37,3.31,3.93,7.08,7.35,10.95,10.72,1.98,1.72,3.96,3.43,5.86,5.23s3.5,3.7,5.75,5.06c4.2,2.54,8.98,4.19,13.8,5.03s9.5,.61,14.32,.51c5.07-.11,10.01,.36,14.21,3.46,3.79,2.79,6.52,6.77,9.63,10.24,2.91,3.25,6.38,5.96,9.17,9.31,4.07,4.88,5.87,12.33,2.37,18.02-2.82,4.57-8.18,6.99-13.19,8.29-5.64,1.47-11.71,1.79-17.49,.96-2.51-.36-5-.96-7.35-1.92l.9,.69-.69-1.51c-.7-1.53-3.36-.43-2.74,1.16,3.34,8.62,6.94,17.19,9.79,25.99,2.66,8.22,4.49,16.96,3.15,25.61-1.2,7.76-4.64,15.25-9.74,21.22-4.43,5.18-10.73,8.09-15.97,12.31-2.58,2.08-4.82,4.53-6.42,7.45-2.08,3.8-3.4,7.94-5.12,11.91-2.62,6.06-6.42,11.56-10.79,16.5-9.29,10.51-21.6,19.56-35.33,23.1-3.05,.79-6.17,1.27-9.32,1.32-4.1,.06-8.05-.79-11.99-1.86s-7.86-2.24-11.93-2.74c-4.44-.54-8.92-.21-13.33,.45-8.39,1.25-16.52,3.73-24.84,5.34s-17.24,2.23-25.14-1.34c-6.88-3.11-12.11-8.77-18.45-12.72-7.07-4.4-15.08-5.27-23.24-5.39-4-.06-8.04,.08-12.01-.45-3.27-.43-6.49-1.27-9.56-2.46-6.32-2.44-11.91-6.54-16.52-11.47-11.09-11.88-16.22-27.83-20.55-43.14-2.18-7.7-3.93-15.36-4.64-23.35s-.67-16.29,.31-24.36c.46-3.76,1.16-7.48,2.11-11.14,.48-1.87-2.41-2.67-2.89-.8-4.08,15.78-3.93,32.91-.75,48.84,1.62,8.11,4.11,16.17,6.73,24s6.11,16.22,10.84,23.45c7.56,11.56,18.82,20.73,32.7,23.1,8.27,1.42,16.74,.1,25.01,1.58,4.09,.73,7.87,2.2,11.37,4.44,3.3,2.11,6.3,4.65,9.42,7.03s6.36,4.55,10.01,6.03c3.83,1.55,7.94,2.29,12.06,2.42,8.59,.27,17.03-1.96,25.31-3.94,8.75-2.09,18.03-4.42,27.06-2.97,8.17,1.31,15.75,4.84,24.18,4.42,14.14-.71,27.41-8.46,37.83-17.6,5.4-4.74,10.27-10.14,14.23-16.14,1.81-2.74,3.4-5.61,4.71-8.62,1.79-4.13,3.14-8.48,5.39-12.4,3.47-6.02,9.93-9.16,15.37-13.09,6.25-4.52,10.81-10.71,13.8-17.8,3.26-7.72,4.15-15.97,3.01-24.24-1.25-9.04-4.57-17.6-7.85-26.06-1.7-4.41-3.41-8.81-5.12-13.22l-2.74,1.16c.64,1.4,1.02,2.02,2.52,2.56,1.22,.44,2.47,.79,3.73,1.07,2.91,.64,5.91,.96,8.89,1.01,6.22,.11,12.6-.85,18.32-3.37,5.07-2.23,9.65-6.08,11.21-11.57,.85-2.98,.72-6.15,.02-9.14-1.02-4.39-3.6-7.95-6.72-11.11-3.3-3.34-6.66-6.48-9.69-10.09s-6.33-7.42-10.76-9.45c-4.66-2.14-9.85-2.06-14.87-1.89s-10.21,0-15.25-1.4c-2.57-.71-5.07-1.66-7.42-2.92-1.03-.54-2.16-1.11-3.06-1.85-1.09-.89-2.02-2.07-3.04-3.05-3.98-3.83-8.33-7.24-12.32-11.06-3.61-3.46-6.61-7.42-9.86-11.21s-6.96-6.84-11.33-9.42c-9.56-5.64-19.49-10.64-29.71-14.95-5.15-2.17-10.36-4.17-15.64-5.98-4.78-1.64-9.65-3.45-14.68-4.16-9.43-1.34-19.12,.27-28.32,2.4s-18.08,4.87-27.05,7.48-18.15,5.64-26.68,9.81c-4.26,2.08-8.38,4.47-12.2,7.29s-6.93,6.11-10.23,9.48-7.74,5.85-11.56,8.83-7.12,7.01-9.4,11.46c-1.15,2.24-2.08,4.62-2.68,7.07-.28,1.13-.48,2.28-.62,3.44-.13,1.05,0,2.27-.16,3.26-.1,.57-.51,1.21-.73,1.74-3.8,9.03-7.6,18.05-11.4,27.08s-7.49,17.81-11.24,26.71c-.22,.51-.43,1.02-.65,1.54-.75,1.78,2.15,2.55,2.89,.8Z"/>
            </g>
            <g>
              <path class="cls-1" d="M83.76,58.72c-6.6,6.8-15.7,10.67-24.93,12.84-9.22,2.17-18.73,2.8-28.11,4.1-3.73,.52-7.48,1.16-11,2.51-9.08,3.5-16.04,12-17.68,21.6-.61,3.56-.52,7.21-.25,10.81,1.03,13.72,12.06,19.99,25.36,17.15,8.47-1.81,18.27-.09,25.43-5.53,4.02-3.05,7.04-7.22,9.9-11.38"/>
              <path class="cls-3" d="M82.7,57.66c-9.85,10.03-24.19,13.04-37.62,14.74-7.51,.95-15.3,1.31-22.62,3.31-5.8,1.58-11.02,4.79-14.95,9.36S1.17,94.9,.4,100.7s-.58,12.94,2.11,18.51c2.02,4.19,5.58,7.37,9.87,9.11,4.69,1.9,9.93,1.91,14.83,.93,6.7-1.33,13.79-.68,20.34-2.81,7.34-2.39,12.04-8.75,16.24-14.86,1.1-1.6-1.5-3.1-2.59-1.51-3.47,5.06-7.43,10.78-13.37,13.1-5.47,2.14-11.5,1.81-17.24,2.51-2.68,.33-5.3,1.03-8,1.18-2.32,.13-4.65-.02-6.9-.61-4.12-1.06-7.7-3.55-9.88-7.24-2.84-4.83-3.02-11-2.6-16.44s2.61-10.85,6.18-15.11c3.76-4.47,8.68-7.52,14.32-8.98,6.95-1.8,14.27-2.18,21.37-3.08,14.24-1.8,29.3-4.99,39.74-15.62,1.35-1.38-.77-3.5-2.12-2.12h0Z"/>
            </g>
            <path class="cls-3" d="M226.66,119.7c5.79,0,5.8-9,0-9s-5.8,9,0,9h0Z"/>
            <path class="cls-3" d="M160.97,129.98c5.79,0,5.8-9,0-9s-5.8,9,0,9h0Z"/>
            <path class="cls-3" d="M201.81,143.59c-1.01,.88-.92,2.51-.51,3.44,.55,1.25,1.86,2.22,3.21,3.03,1.05,.62,3.35,.8,4.72,.62,2.72-.35,4.49-2.41,5.1-4.19,.49-1.42,.46-2.94,.15-4.33-.05-.22-.11-.44-.31-.6-.28-.22-.74-.25-1.16-.27-1.84-.09-3.71-.17-5.56,.06-2.13,.26-4.02,.99-5.54,2.16-.03,.03-.06,.05-.09,.08Z"/>
            <path class="cls-3" d="M205.27,150.98c-.82,2.45-2.17,4.91-4.4,6.33-2.54,1.62-5.83,1.71-8.5,.34-1.71-.88-3.23,1.71-1.51,2.59,3.54,1.82,7.9,1.85,11.34-.23,3.03-1.83,4.86-4.96,5.96-8.24,.62-1.83-2.28-2.62-2.89-.8h0Z"/>
            <path class="cls-3" d="M209.82,151.34c.97,2.93,3.82,5.35,6.52,6.65,4.25,2.05,8.92,1.61,12.86-.95,1.61-1.05,.11-3.65-1.51-2.59-3.07,1.99-6.68,2.53-10.02,.86-1.28-.64-2.43-1.49-3.42-2.53-.45-.48-.65-.71-.97-1.19-.15-.22-.29-.45-.41-.69-.05-.11-.11-.21-.15-.32,.09,.21,.06,.13,0-.04-.6-1.82-3.5-1.04-2.89,.8h0Z"/>
          </g>
          <path class="cls-8" d="M165.73,95.3c-4.28,4.78-10.37,7.9-16.75,8.57-3.57,.38-7.18,.01-10.75-.35"/>
          <path class="cls-8" d="M214.7,91.81c4.48,2.96,10.11,4.12,15.4,3.17"/>
        </g>
        <path class="cls-8" d="M92.08,246.83c-15.05,16.41-34.21,40.69-42.12,61.51-2.38,6.27-4.05,13.07-2.8,19.65,1.7,8.89,8.58,16.1,16.55,20.42,7.96,4.32,16.98,6.18,25.85,8,8.33,1.7,17.14,3.38,25.17,.6,4.89-1.7,9.09-4.92,13.06-8.25,13.57-11.34,26.35-25.73,28.28-43.31,.51-4.69,.2-9.55-1.65-13.89-5.46-12.84-22.84-16.82-35.97-12.11-13.13,4.71-22.93,15.59-32.15,26.06"/>
        <path class="cls-8" d="M98.62,358.49c.48,12.68,1.68,23.84,3.69,36.36,2.13,13.21,5.38,26.85,14.04,37.04,10.42,12.25,30.05,18.54,45.46,13.94"/>
        <path class="cls-8" d="M152.3,361.68c14.8-10.05,30-19.99,47.05-25.41,6.99-2.22,14.35-3.66,21.65-2.95,8.96,.87,17.27,4.91,25.26,9.07,7.58,3.95,15.44,8.41,19.73,15.81,3.69,6.36,4.21,14.17,2.94,21.41-1.28,7.24-4.22,14.07-7.14,20.82-11.9,27.53-15.92,77.53-33.62,101.75-2.96,4.05-6.16,8.07-10.35,10.82-4.3,2.82-9.4,4.15-14.47,5.02-7.49,1.29-15.13,1.67-22.71,1.13-6.34-.45-13.03-1.72-17.72-6.01-4.84-4.44-6.66-11.38-6.63-17.95,.06-15.62,6.7-56.44,8.79-71.91,2.91-21.52,2.08-25.46,9.44-39.23"/>
        <path class="cls-8" d="M265.28,393.37c-.95,18.11-4.07,34.28-4.58,52.41-.46,16.47-2.83,33.1-1.46,49.57,0,0,.62,11.78,20.69,10.85,7.71-.36,15.54,.33,23.08-1.59,14.22-3.62,17.76-19.34,19.23-32.28,1.17-10.27,1.65-20.52,3.38-30.71,1.66-9.74,4.14-19.32,5.36-29.16,2.44-19.68,1.86-40.27-6.43-58.61-2.33-5.15-5.27-10.09-9.33-14.02-9.4-9.08-23.24-11.44-36.2-13.04-16.81-2.08-35.61-3.09-48.84,7.5"/>
        <path class="cls-8" d="M277.31,220.02c27.69,9.74,57.09,26.86,84.78,36.6,4.49,1.58,9.06,3.2,12.82,6.12,8.51,6.6,11.07,18.25,11.97,28.98,.96,11.35,.15,24.17-8.18,31.93-5.85,5.46-14.43,7.22-22.38,6.3s-15.4-4.23-22.54-7.85c-20.56-10.43-39.64-23.77-56.48-39.51"/>
        <path class="cls-8" d="M306.25,306.21c-.43,8.96-.56,17.95-.4,26.92"/>
        <line class="cls-8" x1="249.27" y1="443.81" x2="260.81" y2="442.14"/>
      </g>
      <path class="cls-8" d="M29.81,302.55c-2.08,1.94-4.36,4.59-3.4,7.26,.78,2.19,3.39,3.18,4.52,5.22,1.16,2.09,.46,4.67,.01,7.02-.44,2.35-.37,5.25,1.63,6.55,.87,.57,1.98,.72,2.8,1.38,1.21,.98,1.39,2.72,1.48,4.27"/>
      <path class="cls-8" d="M24.37,320.37c-1.82,1.88-2.74,4.6-2.43,7.2,.31,2.6,1.84,5.02,4.06,6.42,.6,.38,1.27,.71,1.69,1.29,.31,.43,.45,.96,.54,1.48,.48,2.77-.12,5.72,.85,8.36,1.03,2.82,3.62,4.72,6.08,6.45,.66,.46,1.34,.93,2.13,1.06s1.72-.21,2-.96"/>
      <path class="cls-8" d="M330.42,349.46c1.24,1.46,2.44,2.96,3.57,4.5,1.23,1.67,2.45,3.56,2.35,5.63-.04,.78-.26,1.54-.35,2.32-.34,2.93,1.16,5.71,2.32,8.42,1.5,3.54,2.45,7.53,1.37,11.22"/>
      <path class="cls-8" d="M346.26,369.63c2.04,1.05,2.43,3.8,2.2,6.09s-.77,4.74,.32,6.77c.72,1.35,2.12,2.36,2.41,3.87,.56,2.91-3.32,5.42-2.5,8.26"/>
      <polygon class="cls-4" points="364.14 284.5 542.13 386.57 536.32 393.46 487.64 369.63 487.64 405.82 481.47 402.92 479.29 369.63 361.96 295.4 364.14 284.5"/>
      <g>
        <path class="cls-6" d="M483.08,396.72c7.8,3.61,13.81,13.51,12.44,21.73-1.78,10.63-14.27,20.35-21.89,27.11-3.68,3.27-7.47,6.42-11.34,9.46-.58,.46-4.83,2.98-4.87,3.73,.65-12.22,.9-24.29,1.13-36.51,.12-6.43,1.07-13.08,4.52-18.51,3.45-5.43,9.9-9.34,16.23-8.22,1.28,.23,2.55,.64,3.77,1.2Z"/>
        <path class="cls-8" d="M467.31,440.33c5.63-6.73,10.58-14.04,14.74-21.77,3.22-6,6.04-12.85,4.41-19.46"/>
      </g>
      <g>
        <path class="cls-5" d="M617.64,464.4c-2.32,1.62-4.81,4.22-7.77,3.7-13.78-2.45-27.39-5.88-41.94,1.69-3.48,2.43-9.32-4.7-14.77-2.62-15.88,9.37-31.05-2.47-46.23,2.96-3.05,.9-6.46,3.81-9.19,7.05,.03,.02,.05,.04,.08,.06,7.34,4.69,16.91-2.41,25.51-1,7.39,1.21,13.05,8.61,20.53,8.42,6.28-.16,11.07-5.61,16.99-7.69,13.04-4.58,28.44,7.78,40.59,1.19,2.36-1.28,4.42-3.24,7.04-3.88,4.38-1.08,9.04,1.83,13.39,.63,3.98-1.1,5.84-5.39,5.51-9.57-3.14-.91-6.32-1.59-9.74-.95Z"/>
        <path class="cls-7" d="M625.15,459.48c-3.93-4.85-10.69-6.3-16.93-6.52-6.24-.22-12.64,.45-18.59-1.44-5.15-1.64-9.8-5.15-15.2-5.42-7.57-.38-14.28,5.73-21.85,5.51-5.35-.15-10.22-3.46-15.56-3.67-2.62-.1-5.21,.56-7.76,1.21-5.24,1.35-10.59,2.19-15.83,3.54-5.08,1.31-13.02,2.75-16.63,6.98-2.15,2.52-3.47,6.31-3.27,9.61,.09,1.59,.49,3.17,1.24,4.58,.18,.33,2.65,3.7,2.97,3.31,2.74-3.25,6.14-6.15,9.19-7.05,15.18-5.43,30.35,6.4,46.23-2.96,5.45-2.08,11.29,5.05,14.77,2.62,14.55-7.57,28.16-4.14,41.94-1.69,2.95,.52,5.45-2.08,7.77-3.7,3.41-.63,6.6,.04,9.74,.95-.17-2.13-.9-4.23-2.22-5.87Z"/>
        <circle class="cls-3" cx="501.17" cy="464.73" r="1.7"/>
        <path class="cls-8" d="M505.69,454.85c.55-4.02,3.24-7.68,6.91-9.41"/>
        <path class="cls-8" d="M496.75,458.83c-.41-2.85-2.42-5.41-5.09-6.47"/>
      </g>
    </g>
  </g>
</svg>