<?xml version="1.0" encoding="UTF-8"?>
<svg id="_레이어_2" data-name="레이어 2" xmlns="http://www.w3.org/2000/svg" viewBox="0 0 372.52 570.7">
  <defs>
    <style>
      .cls-1, .cls-2, .cls-3 {
        fill: #fff;
      }

      .cls-4 {
        fill: #444;
      }

      .cls-5 {
        stroke-width: 2px;
      }

      .cls-5, .cls-2, .cls-3, .cls-6, .cls-7 {
        stroke: #444;
      }

      .cls-5, .cls-3, .cls-6, .cls-7 {
        stroke-linecap: round;
        stroke-linejoin: round;
      }

      .cls-5, .cls-6 {
        fill: #e6cd1c;
      }

      .cls-2 {
        stroke-miterlimit: 10;
      }

      .cls-2, .cls-3, .cls-6, .cls-7 {
        stroke-width: 3px;
      }

      .cls-7 {
        fill: none;
      }
    </style>
  </defs>
  <g id="_레이어_1-2" data-name="레이어 1">
    <g>
      <g>
        <path class="cls-2" d="M84.45,444.4c-1.19,3.39-1.54,7.48,.68,10.3,.89,1.13,2.15,1.98,2.91,3.2,.77,1.23,.97,2.73,1.32,4.14,2.42,9.79,13.65,16.43,23.39,13.83,1.73-.46,3.4-1.17,5.14-1.6,1.82-.45,3.7-.58,5.55-.93,11.3-2.14,20.14-13.34,19.6-24.82,6.89-6.31,13.26-15.37,10.6-24.32-1.74-5.86-6.94-9.95-12.07-13.26-2.38-1.53-4.85-3.01-6.67-5.17-1.23-1.45-2.12-3.15-3.26-4.67-3.83-5.14-10.53-7.98-16.88-7.16s-12.11,5.27-14.51,11.21c-.46,1.14-.82,2.35-1.55,3.35-.84,1.13-2.08,1.88-3.23,2.7-5.16,3.73-8.57,9.97-9.05,16.31-.2,2.69,1.12,5.27,1,7.7-.16,3.31-1.89,6.05-2.98,9.17Z"/>
        <g>
          <polygon class="cls-1" points="150.11 241.38 118.81 249.54 51.03 259.87 15.31 265.8 8.23 268.03 3.49 274.42 1.69 282.07 2.63 295.05 5.56 303.9 12.26 315.36 16.19 319.26 24.85 324.18 37.36 324.84 57.89 324.13 101.83 321 122.37 318.2 121.44 329.31 119.77 360.63 119.68 385.7 120.02 413.83 120.88 439.67 122.5 472.09 124.28 501.34 125.77 522.39 128.8 537.29 131.47 543.31 135.77 549.34 143.38 555.58 152.78 560.76 168.71 563.76 183.2 564.53 194.46 563.61 198.55 561.26 202.19 555.17 205.33 534.86 208.34 504.75 209.66 482.72 209.81 475.5 220.61 475.89 237.64 475.05 253.58 473.05 265.39 471.11 265.72 476.71 267.6 495.76 270.77 514.6 275.99 534.92 280.55 548.12 284.98 558.37 287.55 562.13 291.84 566.46 298.58 568.4 305.16 568.85 314.41 569.19 325.22 568.38 330.5 567.07 337.59 563.61 342.2 559.63 348.61 549.36 351.62 540.74 352.45 523.36 353.18 488.93 353.47 459.22 352.99 411.77 351.45 372.65 348.26 330.21 341.7 278.81 336.96 252.74 335.69 244.52 341.9 230.82 349.29 209.81 356.79 178.52 360.04 153.23 355.49 135.94 348.73 123.19 336.35 109.68 319.27 118.05 150.11 241.38"/>
          <g>
            <g>
              <path class="cls-1" d="M52.32,120.74l27.01-55.72c.32-7.42,3.71-14.05,8.62-19.48,5.33-5.89,12.76-8,18.24-13.67,13.23-13.68,34.32-19.29,52.27-23.34,16.38-3.69,40.35-10.55,56.48-4.78,19.89,7.12,38.2,16.49,55.58,28.31,6.57,4.47,10.39,11.89,15.52,17.8,5.14,5.92,11.4,10.88,16.36,16.92,5.79,4.6,13.78,7.3,21.08,7.87,6.76,.53,14.29-.54,20.37,3.15,5.36,3.26,8.52,9.01,12.49,13.67,4.18,4.9,9.66,9.11,11.19,15.7,5.31,22.81-27.94,25.51-42,18.81l-.61-1.55c1.53,4.69,3.07,9.37,4.6,14.06,3.59,10.97,7.22,22.31,6.29,33.81-.8,9.86-5.26,19.28-12.02,26.46-6.79,7.21-17.51,9.44-22.85,17.78-2.64,4.12-4.29,8.77-6.56,13.1-10.05,19.24-37.8,39.65-60.42,37.44-7.48-.73-14.01-4.32-21.27-5.67-7.14-1.33-14.51-.35-21.6,.78-13.92,2.23-29.54,6.94-42.9,0-8.11-4.21-13.8-12.2-22.01-16.23-7.72-3.79-16.68-3.63-25.25-4.3-17-1.34-29.55-11.54-37.71-26.27-6.8-12.28-9.92-26.21-12.96-39.92-3.67-16.57-3.25-38.12,2.05-54.74Z"/>
              <path class="cls-4" d="M53.61,121.5c2.96-6.11,5.93-12.22,8.89-18.34,4.81-9.92,9.62-19.85,14.43-29.77,1.19-2.45,2.42-4.89,3.57-7.36,.19-.41,.3-.79,.34-1.27,.21-2.42,.61-4.74,1.4-7.04,1.54-4.5,4.3-8.73,7.67-12.07s7.88-5.59,11.89-8.29,6.81-6.07,10.42-8.94c7.24-5.74,15.86-9.59,24.57-12.52s17.37-4.81,26.16-6.87c9.23-2.16,18.48-4.43,27.92-5.46,4.59-.5,9.24-.73,13.85-.37s8.77,1.58,13.05,3.18c10.08,3.76,19.9,8.21,29.39,13.28,4.66,2.5,9.25,5.14,13.74,7.93s8.98,5.29,12.59,8.91,6.08,7.55,9.03,11.38,6.67,7.54,10.3,11.05c1.88,1.82,3.76,3.64,5.56,5.55,.83,.88,1.64,1.78,2.42,2.7s1.84,1.67,2.89,2.37c4.01,2.67,8.63,4.51,13.31,5.59s9.46,1.09,14.28,1.25c5.09,.17,10.07,.92,14.07,4.33,3.5,2.99,6,6.91,8.84,10.48s6.26,6.45,8.89,10.09c3.71,5.15,5.05,12.54,1.24,18.02-3.03,4.36-8.49,6.46-13.49,7.5-5.71,1.19-11.8,1.17-17.52,.04-2.4-.48-4.8-1.14-7.03-2.18l.69,.9-.61-1.55c-.69-1.75-3.51-1.08-2.89,.8,2.83,8.67,5.92,17.3,8.29,26.11s3.68,17.42,1.84,26.1c-1.64,7.77-5.54,15.1-11.04,20.82-4.76,4.94-11.32,7.42-16.74,11.49-2.73,2.05-5.03,4.44-6.78,7.39-2.17,3.64-3.68,7.61-5.58,11.39-3.01,5.96-7.18,11.26-11.88,15.98-9.95,10-22.88,18.34-36.91,20.95-3.12,.58-6.3,.81-9.47,.62-4.17-.25-8.16-1.51-12.09-2.82-3.88-1.3-7.75-2.62-11.82-3.18-4.53-.63-9.11-.45-13.65,.08-8.3,.96-16.42,2.98-24.7,4.01-8.07,1-16.62,.98-24.01-2.86-6.69-3.48-11.62-9.41-17.75-13.68-6.83-4.77-14.79-6.02-22.94-6.57-7.41-.5-14.57-.94-21.43-4.1-6.03-2.78-11.24-6.96-15.53-12-10.62-12.45-14.93-28.85-18.47-44.47-1.77-7.8-3.09-15.54-3.39-23.55s.17-16.37,1.62-24.4c.67-3.72,1.56-7.4,2.7-11,.58-1.85-2.31-2.63-2.89-.8-4.9,15.53-5.63,32.61-3.3,48.67,1.23,8.47,3.35,16.95,5.68,25.18s5.28,16.26,9.61,23.61c7.03,11.91,17.92,21.49,31.68,24.45,8.05,1.73,16.41,.92,24.44,2.8,4.05,.95,7.72,2.63,11.11,5.05s6.21,5.17,9.3,7.77,6.03,4.77,9.54,6.35c3.69,1.66,7.61,2.59,11.63,2.95,8.27,.74,16.56-.92,24.65-2.41,8.98-1.66,18.53-3.62,27.64-1.78,8.02,1.62,15.33,5.56,23.65,5.77,14.29,.36,28.2-6.78,39.19-15.37,5.63-4.4,10.73-9.47,15.03-15.17,2.03-2.69,3.85-5.54,5.37-8.55,1.99-3.94,3.54-8.11,5.87-11.87,3.76-6.07,10.48-8.92,16.26-12.64,6.35-4.09,11.23-9.91,14.57-16.67,3.78-7.63,5.22-16,4.48-24.46-.8-9.11-3.65-17.85-6.48-26.5-1.47-4.49-2.94-8.98-4.41-13.47l-2.89,.8c.54,1.36,.8,2.24,2.21,2.85,1.22,.53,2.48,.97,3.75,1.34,2.81,.8,5.72,1.26,8.63,1.5,6.14,.5,12.63-.04,18.44-2.19,5.23-1.94,10-5.33,12.07-10.69,2.76-7.15-.17-14.85-4.9-20.38-3.11-3.63-6.47-6.95-9.36-10.78s-5.67-7.53-9.71-9.97c-4.4-2.66-9.62-3.02-14.63-3.13s-10.2-.38-15.2-1.92c-2.47-.76-4.86-1.75-7.13-3-1.05-.58-2.08-1.21-3.06-1.9-1.17-.82-1.99-1.88-2.94-2.94-3.69-4.1-7.85-7.75-11.69-11.71-3.55-3.67-6.45-7.77-9.53-11.82s-6.36-7.44-10.57-10.26c-9.19-6.16-18.78-11.72-28.72-16.6-4.96-2.43-10-4.69-15.11-6.79-4.71-1.93-9.54-4.08-14.52-5.21-9.39-2.15-19.31-1.08-28.7,.51s-18.52,3.91-27.73,6.05c-9.3,2.16-18.56,4.65-27.37,8.37-4.45,1.88-8.77,4.05-12.81,6.69s-7.27,5.69-10.71,8.89c-3.68,3.43-8.3,5.57-12.37,8.48s-7.34,6.62-9.82,10.91c-1.19,2.06-2.18,4.26-2.89,6.54-.35,1.12-.63,2.27-.84,3.42-.18,.99-.27,2.78-.33,3.32,.03-.25-.04,.12-.12,.3-.18,.41-.39,.81-.59,1.21-4.26,8.79-8.52,17.58-12.78,26.37s-8.48,17.49-12.72,26.24c-.24,.49-.48,.99-.72,1.48-.84,1.73,1.75,3.25,2.59,1.51Z"/>
            </g>
            <g>
              <path class="cls-1" d="M113.07,54.11c-6.95,6.44-16.25,9.82-25.57,11.5-9.33,1.68-18.85,1.8-28.29,2.61-3.76,.32-7.53,.76-11.12,1.92-9.25,3.01-16.66,11.14-18.8,20.63-.8,3.52-.91,7.17-.83,10.78,.3,13.76,10.98,20.6,24.42,18.47,8.56-1.35,18.24,.87,25.69-4.17,4.18-2.83,7.42-6.83,10.49-10.84"/>
              <path class="cls-4" d="M112.01,53.05c-10.49,9.6-25.22,11.73-38.85,12.7-7.39,.53-15.01,.52-22.28,2.09-5.88,1.27-11.25,4.24-15.41,8.59s-6.88,9.57-7.89,15.32-1.24,12.67,1.09,18.28c1.77,4.27,5.05,7.76,9.26,9.71,4.59,2.13,9.71,2.52,14.67,1.83,6.94-.97,14.19,.06,21-1.83,7.35-2.04,12.31-8.17,16.77-13.97,1.17-1.53-1.43-3.03-2.59-1.51-3.77,4.92-8.09,10.42-14.23,12.37-5.77,1.83-11.95,1.09-17.9,1.58-2.62,.22-5.18,.74-7.82,.7-2.24-.03-4.46-.35-6.59-1.05-4.01-1.31-7.35-4.05-9.29-7.81-2.54-4.93-2.39-11.22-1.63-16.56s3.23-10.61,7.02-14.66c3.99-4.27,9.09-7.01,14.8-8.18,6.95-1.41,14.21-1.39,21.27-1.9,14.41-1.04,29.67-3.44,40.73-13.57,1.43-1.31-.7-3.42-2.12-2.12h0Z"/>
            </g>
            <path class="cls-4" d="M252.77,122.59c5.79,0,5.8-9,0-9s-5.8,9,0,9h0Z"/>
            <path class="cls-4" d="M186.62,129.38c5.79,0,5.8-9,0-9s-5.8,9,0,9h0Z"/>
            <path class="cls-4" d="M226.45,145.12c-1.05,.83-1.05,2.46-.69,3.41,.49,1.28,1.74,2.32,3.05,3.19,1.01,.68,3.31,.98,4.68,.87,2.73-.2,4.61-2.16,5.32-3.91,.56-1.39,.61-2.91,.38-4.32-.04-.22-.09-.45-.28-.61-.26-.23-.72-.29-1.14-.33-1.84-.18-3.69-.37-5.56-.24-2.14,.15-4.07,.77-5.64,1.87-.03,.02-.07,.05-.1,.07Z"/>
            <path class="cls-4" d="M229.49,152.76c-.95,2.4-2.46,4.73-4.74,6.03-2.64,1.51-5.94,1.34-8.54-.17-1.67-.97-3.18,1.62-1.51,2.59,3.46,2.02,7.83,2.19,11.38,.27,3.1-1.67,5.05-4.74,6.31-7.93,.3-.75-.33-1.65-1.05-1.85-.85-.23-1.55,.29-1.85,1.05h0Z"/>
            <path class="cls-4" d="M234.06,153.37c.81,2.97,3.6,5.52,6.2,6.95,4.14,2.28,8.85,2,12.9-.34,1.67-.96,.16-3.56-1.51-2.59-3.19,1.84-6.8,2.09-10.04,.25-1.23-.7-2.29-1.59-3.22-2.66-.35-.4-.59-.72-.93-1.28-.14-.24-.27-.48-.38-.73-.06-.12,.08,.27-.02-.05-.03-.11-.07-.22-.1-.33-.51-1.86-3.4-1.07-2.89,.8h0Z"/>
          </g>
          <path class="cls-7" d="M167.87,94.96c11.46,1.38,21.2,9.11,28.75,17.84"/>
          <path class="cls-7" d="M243.66,109.23c.52-4.98,1.37-10.55,5.39-13.52"/>
          <path class="cls-7" d="M129.65,248c-39.66,5.57-74.86,11.1-114.35,17.81-2.46,.42-4.99,.87-7.08,2.22-2.69,1.75-4.28,4.77-5.25,7.83-3.24,10.14-.8,21.36,3.89,30.92,2.83,5.77,6.66,11.34,12.27,14.48,6.15,3.44,13.56,3.52,20.6,3.4,33.13-.54,66.22-3.34,98.97-8.36"/>
          <path class="cls-7" d="M122.37,318.2c-5.5,64.97-1.52,130.34,2.7,195.41,.75,11.54,1.75,23.76,8.56,33.1,10.73,14.69,31.4,16.9,49.56,17.82,5.37,.27,11.36,.34,15.35-3.27,3.48-3.15,4.38-8.2,5.02-12.85,3.43-24.85,5.62-47.82,6.24-72.9"/>
          <path class="cls-7" d="M190.72,472.08c26.73,7.42,55.14,2.55,82.44-2.35"/>
          <path class="cls-7" d="M335.71,246.7c18.84,88.38,19.1,186.32,16.74,276.66-.38,14.53-1.49,28.83-12.43,38.39-10.39,9.07-25.67,7.69-39.43,6.81-3.02-.19-6.2-.44-8.74-2.09-2.76-1.8-6.58-7.05-7.9-10.07-11.87-27.15-17.04-55.69-18.56-85.28"/>
          <path class="cls-3" d="M341.35,308.29c16.53-36.53,20.02-76.32,27.99-114.93,2.47-11.98,2.34-24.6-1.19-36.36-3.68-12.27-10.87-23.22-19.17-32.97-6.81-8-14.39-15.28-21.84-22.66-6.22-6.16-14.39-13.17-23.62-13.47-11.45-.38-20.72,11-21.53,22.42-.81,11.43,4.77,22.36,11.49,31.64,6.73,9.27,14.79,17.66,20.19,27.76l-19.27,59.94"/>
        </g>
      </g>
      <path class="cls-6" d="M148.43,104.17s1.25,19.88-11.57,28.51c0,0,18.12,.73,19.04,16.65,0,0,1.82-17.48,8.5-25.16,0,0-10.38,2.97-15.97-20Z"/>
      <path class="cls-6" d="M321,8.94s1.25,19.88-11.57,28.51c0,0,18.12,.73,19.04,16.65,0,0,1.82-17.48,8.5-25.16,0,0-10.38,2.97-15.97-20Z"/>
      <path class="cls-5" d="M119.88,101s.05,10.93-7.39,11.11c0,0,11.69,.31,11.63,9.17,0,0-.21-12.79,5.34-14.74,0,0-6.61,3.32-9.59-5.53Z"/>
    </g>
  </g>
</svg>