<?xml version="1.0" encoding="UTF-8"?>
<svg id="_레이어_2" data-name="레이어 2" xmlns="http://www.w3.org/2000/svg" viewBox="0 0 569.02 541.56">
  <defs>
    <style>
      .cls-1, .cls-2 {
        fill: #fff;
      }

      .cls-3 {
        fill: #444;
      }

      .cls-4 {
        opacity: .31;
      }

      .cls-5 {
        fill: #2fbaeb;
      }

      .cls-5, .cls-2 {
        stroke: #444;
        stroke-miterlimit: 10;
        stroke-width: 3px;
      }
    </style>
  </defs>
  <g id="_레이어_1-2" data-name="레이어 1">
    <g>
      <polygon class="cls-1" points="306.59 105.57 299.97 88.54 267.55 66.56 244.73 48.89 217.01 30.26 190.66 19.66 175.12 17.19 149.05 19.05 130.23 23.97 80.29 36.32 59.12 42.53 52.11 45.54 40.17 52.62 23.64 66.79 13.25 80.51 5.57 97.77 1.63 122.55 2.5 148.69 8.19 195.36 11.79 214.42 19.7 242.06 27.57 260.18 32.9 268.32 41.1 275.8 51.54 280.08 64.67 281.34 80.94 278.64 89.91 264.45 111.89 234.48 306.59 105.57"/>
      <g>
        <g>
          <path class="cls-5" d="M412.93,310.6c-34.3-2.16-68.13-9.68-102.47-11.14-34.34-1.46-70.57,3.88-98.03,24.55-11.87,8.93-21.97,20.62-35.59,26.56-15.98,6.98-34.8,5.13-50.61,12.49-25.61,11.91-35.25,45.96-26.47,72.81,8.78,26.85,31.65,46.88,56.32,60.64,15.11,8.42,31.4,15.06,48.5,17.61,21.49,3.2,43.54-.14,65.07,2.79,23.26,3.16,44.92,13.49,67.78,18.8,48.52,11.27,99.78-.69,145.37-20.76,15.88-6.99,31.63-15.18,43.8-27.55,12.57-12.78,20.62-29.34,26.7-46.21,11.1-30.77,16.37-63.86,13.38-96.44-.92-10.09-2.91-20.71-9.66-28.26-14.82-16.57-40.16-8.8-59.19-8.05-28.4,1.12-56.45,3.95-84.92,2.15Z"/>
          <g class="cls-4">
            <g>
              <path class="cls-1" d="M235.17,437.07c1.83,7.2,6.49,13,12.41,17.32,6.42,4.68,14.13,5.23,20.64,9.66,15.74,10.7,37.53,11.89,55.93,12.18,16.79,.27,41.66,2.09,56.27-6.84,18.02-11.03,34.03-23.94,48.64-39.05,5.52-5.71,7.75-13.76,11.57-20.59,3.83-6.85,8.95-12.98,12.56-19.9,4.73-5.69,12-9.96,19.03-12.01,6.51-1.9,14.1-2.39,19.3-7.24,4.59-4.28,6.51-10.56,9.44-15.93,3.09-5.65,7.6-10.89,7.76-17.65,.55-23.41-32.55-19.27-44.95-9.85l-.28,1.64c.54-4.9,1.09-9.8,1.63-14.7,.14-1.28,.28-2.56,.42-3.85-16.63,.86-33.25,1.4-50.01,.35-34.3-2.16-68.13-9.68-102.47-11.14-34.34-1.46-70.57,3.88-98.03,24.55-10.22,7.7-19.15,17.42-30.12,23.78,1.63,13.9,5.96,28.74,12.46,40.24l37.81,49.04Z"/>
              <path class="cls-3" d="M233.73,437.47c1.86,7.05,6.29,12.95,12,17.38,6.39,4.95,14.58,5.87,21.28,10.18,6.2,3.99,12.76,6.9,19.9,8.76s14.99,2.87,22.58,3.39c7.04,.48,14.1,.52,21.15,.7s13.84,.32,20.75-.02c6.97-.34,14.04-1.12,20.73-3.19,7.09-2.2,13.19-6.43,19.28-10.57,13.68-9.32,26.39-20.03,37.94-31.87,5.45-5.58,7.98-12.62,11.41-19.46,3.73-7.44,9.11-13.9,13.21-21.13,1.92-3.4,5.62-6.01,8.9-8s6.95-3.59,10.73-4.61c6.91-1.86,14.51-2.63,19.75-8.07s7.05-12.55,10.77-18.62c1.94-3.16,3.98-6.31,5.17-9.86,1.01-3.02,1.19-6.22,.73-9.36-2.98-20.37-32.08-16.38-44.71-8.77-.77,.46-1.58,.94-2.26,1.53-.81,.7-.8,1.53-.97,2.54l2.95,.4c.69-6.18,1.4-12.36,2.05-18.55,.08-.78-.75-1.54-1.5-1.5-21.13,1.08-42.17,1.34-63.25-.73-20.58-2.02-40.98-5.43-61.52-7.78-35.79-4.09-73.69-4.58-107.07,10.9-8.89,4.12-17.08,9.43-24.61,15.69-8.15,6.77-15.75,14.29-24.95,19.67-.41,.24-.8,.79-.74,1.3,1.57,13.11,5.04,26.17,11.04,37.97,1.76,3.45,4.13,6.28,6.49,9.34,8.59,11.14,17.18,22.28,25.76,33.41,2.39,3.1,4.78,6.2,7.18,9.31,1.16,1.51,3.77,.02,2.59-1.51-6.14-7.96-12.27-15.92-18.41-23.88-4.28-5.55-8.57-11.11-12.85-16.66-2.16-2.8-4.52-5.53-6.52-8.45-1.44-2.1-2.48-4.64-3.51-6.96-1.51-3.36-2.79-6.82-3.92-10.32-2.32-7.23-3.95-14.7-4.86-22.24l-.74,1.3c7.93-4.64,14.74-10.85,21.66-16.83s13.88-11.2,21.79-15.47c15.33-8.27,32.49-12.76,49.73-14.74,39.06-4.49,77.87,3.92,116.54,8.25,11.61,1.3,23.26,2.2,34.95,2.35,11.75,.16,23.49-.3,35.21-.9l-1.5-1.5c-.65,6.19-1.36,12.37-2.05,18.55-.19,1.67,2.66,2.06,2.95,.4l.28-1.64-.69,.9c6.6-4.96,15.58-7.24,23.74-7.28,7.66-.03,16.35,2.53,18.46,10.84,1.69,6.67-1.27,12.38-4.69,17.92-1.79,2.9-3.35,5.85-4.8,8.92s-3.02,6.52-5.36,9.22c-4.75,5.47-12.02,6.2-18.63,7.92-6.95,1.81-13.6,5.3-18.79,10.3-1.21,1.17-2.29,2.34-3.1,3.81-1.04,1.89-2.18,3.72-3.35,5.52-2.26,3.45-4.67,6.81-6.86,10.31-3.82,6.13-6.02,13.1-9.9,19.18-2.09,3.28-4.94,5.94-7.7,8.66s-5.51,5.3-8.35,7.86c-5.92,5.32-12.1,10.36-18.53,15.07-3.17,2.32-6.39,4.56-9.66,6.72-3.1,2.05-6.22,4.21-9.54,5.89-5.62,2.86-12,4.17-18.22,4.9-13.08,1.53-26.41,.76-39.54,.42-14.08-.37-28.74-1.43-41.84-7.05-3.3-1.42-6.33-3.21-9.34-5.14s-6.56-3.25-10-4.49-7.09-2.63-10.18-4.86c-2.84-2.05-5.45-4.58-7.49-7.44s-3.38-5.74-4.23-8.98c-.49-1.86-3.39-1.07-2.89,.8Z"/>
            </g>
            <g>
              <path class="cls-1" d="M270.43,440.87c-8.12-4.88-17.91-6.3-27.38-6.04-9.47,.26-18.82,2.08-28.23,3.22-3.74,.45-7.53,.8-11.28,.38-9.67-1.06-18.58-7.5-22.61-16.36-1.5-3.29-2.35-6.83-3.01-10.39-2.51-13.53,6.54-22.41,20.14-23.06,8.66-.42,17.68-4.58,26-1.16,4.67,1.92,8.66,5.18,12.48,8.48"/>
              <path class="cls-3" d="M271.18,439.58c-11.4-6.77-25.09-6.97-37.9-5.51-6.99,.8-13.91,2.06-20.91,2.76-6.21,.62-12.27,.23-17.89-2.71-4.8-2.51-8.85-6.38-11.44-11.15-1.49-2.75-2.41-5.76-3.09-8.8-.58-2.58-1.05-5.15-.93-7.8,.19-4.18,1.9-8.11,4.98-10.97,3.24-3.01,7.65-4.6,11.99-5.1,3.32-.39,6.6-.61,9.89-1.22,3.62-.67,7.26-1.46,10.96-1.44,7.42,.03,13.27,4.76,18.64,9.38,1.46,1.25,3.59-.86,2.12-2.12-5-4.31-10.6-9-17.36-9.99-6.78-.99-13.34,1.32-20.01,2.06-2.77,.31-5.51,.37-8.23,1.04-2.3,.57-4.56,1.45-6.6,2.66-3.86,2.29-6.84,5.79-8.33,10.04-1.81,5.17-.97,10.65,.36,15.82,1.56,6.06,4.51,11.55,9.19,15.76,4.2,3.78,9.46,6.48,15.06,7.41,7.2,1.2,14.66-.28,21.8-1.3,15.29-2.19,32.21-4.5,46.19,3.79,1.66,.99,3.18-1.61,1.51-2.59h0Z"/>
            </g>
            <path class="cls-3" d="M394.14,354.24c5.79,0,5.8-9,0-9s-5.8,9,0,9h0Z"/>
            <path class="cls-3" d="M328,361.09c5.79,0,5.8-9,0-9s-5.8,9,0,9h0Z"/>
            <path class="cls-3" d="M362.86,328.64c-1.2-.6-1.53-2.19-1.37-3.2,.22-1.35,1.23-2.62,2.33-3.75,.85-.87,3.04-1.63,4.4-1.81,2.72-.36,4.95,1.18,6,2.75,.83,1.25,1.19,2.73,1.25,4.15,0,.22,0,.45-.15,.66-.21,.28-.65,.43-1.05,.56-1.76,.55-3.54,1.11-5.39,1.37-2.12,.29-4.14,.08-5.91-.68-.04-.02-.08-.03-.11-.05Z"/>
            <path class="cls-3" d="M366.9,319.1c-1.94-2.95-4.6-5.56-8.1-6.5-3.81-1.02-7.89,.13-10.79,2.74-1.44,1.29,.69,3.41,2.12,2.12,2.17-1.96,5.29-2.73,8.11-1.9,2.62,.77,4.61,2.84,6.07,5.06,1.06,1.6,3.66,.1,2.59-1.51h0Z"/>
            <path class="cls-3" d="M371.62,319.12c0-.13,.09-.47-.01,0,.03-.12,.04-.23,.07-.35,.06-.26,.13-.52,.22-.78,.05-.14,.1-.28,.15-.42,.08-.22-.1,.19,.08-.19,.13-.27,.26-.53,.4-.79,.17-.32,.36-.63,.56-.93,.1-.16,.21-.31,.32-.47,.06-.08,.11-.16,.17-.23-.09,.11-.07,.09,.04-.05,.48-.6,1.01-1.16,1.59-1.66,2.68-2.36,6.28-2.91,9.89-1.72,1.84,.61,2.62-2.29,.8-2.89-3.5-1.16-7.3-1.01-10.54,.85-2.42,1.39-4.46,3.61-5.69,6.11-.54,1.11-.98,2.28-1.05,3.53-.11,1.93,2.89,1.92,3,0h0Z"/>
            <g>
              <path class="cls-3" d="M338.88,371.27c-7.28,5.31-15.27,9.27-23.75,12.28-1.81,.64-1.03,3.54,.8,2.89,8.72-3.1,16.97-7.12,24.47-12.58,1.54-1.13,.05-3.73-1.51-2.59h0Z"/>
              <path class="cls-3" d="M388.45,364.98c6.15,3.68,13.03,5.89,20.15,6.56,.81,.08,1.5-.74,1.5-1.5,0-.87-.69-1.42-1.5-1.5-6.59-.62-12.96-2.75-18.64-6.15-1.66-.99-3.17,1.6-1.51,2.59h0Z"/>
            </g>
          </g>
        </g>
        <path class="cls-5" d="M389.51,346.19c8.35-6.06,20.78-3.46,29.13-9.52,6.1-4.43,8.41-12.27,11.06-19.33,2.41-6.44,5.7-12.31,8.61-18.51,2.85-6.07,5.63-12.6,11.24-16.67,3.83-2.78,19.48-8.02,22.14-1.21,.33,.83,.27,1.76,.2,2.65-.27,3.87-.54,7.74-.82,11.62-.12,1.77-.18,3.75,1.02,5.05,1.73,1.89,4.86,1.14,7.12-.06,6.38-3.4,11.2-9.16,17.33-13,6.13-3.83,15.02-5.21,20.02,.02,4.68,4.89,3.43,13.23-.65,18.63-6.08,8.05-16.35,11.18-23.08,18.54-5.03,5.49-8.47,12.93-7.45,20.31,.84,6.06,1.02,8.2-4.55,11.07-5.06,2.6-10.31,4.81-15.88,6.07-6.98,1.58-14.25,1.11-21.28,2.38-11.77,2.12-21.81,11.59-33.67,11.73-7.42,.09-12.99-3.77-18.97-7.59-2.77-1.78-5.45-3.91-6.98-6.83-2.94-5.64,.76-11.95,5.43-15.33Z"/>
        <path class="cls-5" d="M505.37,255.29c3.63-3.81,7.47-7.76,12.47-9.37,3.86-1.24,8.08-.96,11.99,.11,3.85,1.06,7.75,3.13,9.45,6.75,.84,1.8,1.06,3.83,1.01,5.82-.15,5.6-2.96,11.59-8.23,13.49-4.3,1.56-9.03,.09-13.44-1.16-3.12-.88-6.27-1.65-9.45-2.3-2.54-.52-7.46-.33-9.62-1.6-4.23-2.49,3.25-9.05,5.82-11.74Z"/>
        <path class="cls-5" d="M115.87,336.05c-1.09-1.17-2.21-2.35-3.62-3.1-2.3-1.22-5.26-1.08-7.44,.35-2.18,1.43-3.48,4.09-3.27,6.69,.1,1.27,.57,2.56,1.51,3.43,1.87,1.72,4.77,1.25,7.31,1.08,4.09-.28,9.03,2.49,12.69,1.59-.84-3.73-4.6-7.28-7.17-10.04Z"/>
        <g>
          <g>
            <path class="cls-3" d="M304.78,92.25c-1.31-2.55-3.49-4.65-5.63-6.51-2.88-2.5-6.01-4.73-9.17-6.86-6.69-4.52-13.69-8.55-20.51-12.87s-12.65-9.53-18.87-14.44c-7.28-5.74-14.69-11.34-22.48-16.39-15.02-9.75-31.58-17.22-49.53-19.18-9.67-1.05-19.45-.45-28.99,1.41-5.46,1.07-10.84,2.55-16.1,4.35-4.58,1.57-9.03,3.45-13.68,4.81-18.27,5.36-37.4,7.12-55.62,12.67S29.24,56.6,17.54,71.67c-6.44,8.29-11.24,17.67-14.02,27.8C.43,110.71-.27,122.5,.08,134.11s1.76,23.67,3.12,35.45,2.96,23.87,5.18,35.69,5.03,23.32,8.93,34.58c3.54,10.22,7.63,20.92,14.45,29.46,3.14,3.93,7.04,7.28,11.59,9.48s9.52,3.36,14.55,3.83c5.12,.48,10.28,.19,15.36-.56,5.04-.75,10.38-1.76,13.25-6.44s3.33-10.2,5.27-15.11c.71-1.8-2.19-2.58-2.89-.8-1.07,2.72-1.73,5.56-2.58,8.35-.7,2.3-1.4,4.82-2.87,6.77-1.67,2.22-4.3,3.07-6.91,3.61-2.37,.49-4.75,.87-7.16,1.1-9.85,.96-20.61-.03-28.88-5.95s-13.01-16.04-16.79-25.29c-4.4-10.77-7.69-21.97-10.25-33.31-2.56-11.37-4.4-22.89-5.9-34.44s-2.84-22.92-3.77-34.42c-1.79-22.1-1.08-45.12,10.64-64.65,5.03-8.38,11.62-15.74,19.12-21.99,7.1-5.91,15.21-11.23,23.8-14.68,8.32-3.35,17.16-5.34,25.91-7.18,9.26-1.94,18.58-3.58,27.8-5.7,4.15-.96,8.29-2.01,12.35-3.32,4.71-1.52,9.25-3.48,13.97-4.97,9.66-3.05,19.69-4.97,29.84-5.16,17.7-.32,34.62,5,49.97,13.58,15.89,8.88,29.91,20.55,44.06,31.88,5.13,4.11,11,7.31,16.59,10.75,6.58,4.05,13.34,8.09,19.19,13.17,1.96,1.7,3.97,3.56,5.16,5.9,.88,1.72,3.47,.2,2.59-1.51h0Z"/>
            <g>
              <path class="cls-1" d="M256.47,355.88c1.03,10.23,1.8,21.51-4.25,29.82-3.81,5.23-9.8,8.44-15.86,10.7-16.11,6-35.06,6.14-49.75-2.79-11.95-7.26-19.46-19.13-27.11-30.61-8.44-12.66-15.14-27.16-24.65-38.9-9.96-12.28-19.18-25.59-28.22-38.57-13.93-20.01-26.04-41.5-36.34-63.59-8.23-17.64-16.44-36.28-20.93-55.27-4.73-19.98-5.65-40.83-2.26-61.1"/>
              <path class="cls-3" d="M254.97,355.88c.63,6.24,1.24,12.7,.1,18.92s-4.27,11.63-9.54,15.31-11.25,5.75-17.29,7.22-12.58,2.12-18.94,1.69-12.54-1.92-18.21-4.67-10.7-6.78-15.03-11.43-8.02-9.85-11.56-15.12c-3.72-5.53-7.32-11.12-10.69-16.87-3.47-5.92-6.83-11.92-10.57-17.68-3.83-5.91-8.3-11.27-12.58-16.84-9.01-11.71-17.53-23.85-25.8-36.09-16.29-24.11-29.74-50.01-41.21-76.73-5.84-13.62-10.95-27.63-13.92-42.18-2.97-14.53-3.88-29.49-2.6-44.27,.33-3.74,.8-7.46,1.41-11.16,.31-1.89-2.58-2.7-2.89-.8-2.5,15.11-2.73,30.51-.71,45.68s6.23,29.5,11.73,43.57c5.51,14.1,11.89,27.93,18.72,41.44s14.14,26.36,22.24,38.92,17.03,25.17,26.07,37.34c4.4,5.92,9.22,11.55,13.51,17.55s7.71,11.92,11.27,18.06c6.74,11.62,13.75,23.37,22.34,33.74,4.09,4.95,8.77,9.45,14.2,12.9s11.81,5.81,18.26,6.9c12.65,2.14,26.05,.12,37.69-5.2,5.75-2.63,11.07-6.52,14.12-12.18s3.7-12.23,3.54-18.56c-.08-3.17-.37-6.33-.68-9.48-.19-1.9-3.19-1.92-3,0h0Z"/>
            </g>
            <g>
              <path class="cls-1" d="M374,334.07c2.48,6.47,6.15,12.48,10.77,17.65,3.99,4.46,8.94,8.41,14.8,9.62,6.06,1.26,12.28-.53,18.21-2.3,1.98-.59,4-1.2,5.67-2.42,2.02-1.46,3.34-3.67,5-5.53,3.75-4.2,9.32-6.74,12.24-11.55,1.59-2.62,2.25-5.7,2.58-8.75,1.06-10-1.25-20.15-5.31-29.35s-9.81-17.55-15.89-25.56"/>
              <path class="cls-3" d="M372.56,334.47c3.67,9.46,9.8,18.91,18.33,24.69,4.33,2.93,9.32,4.38,14.55,4.06,2.91-.18,5.79-.78,8.6-1.53,2.57-.69,5.22-1.37,7.67-2.4s4.21-2.66,5.84-4.7c1.53-1.92,3.09-3.69,4.99-5.27,3.57-2.97,7.67-5.55,9.89-9.78,2.48-4.72,2.79-10.57,2.56-15.8-.24-5.54-1.35-11.03-3.1-16.29-3.95-11.9-11.01-22.4-18.52-32.33-1.15-1.52-3.76-.03-2.59,1.51,6.19,8.18,12.1,16.72,16.16,26.19s6.51,20.43,4.43,30.61c-.48,2.36-1.31,4.65-2.8,6.57-1.3,1.67-2.95,3.05-4.59,4.36-1.73,1.37-3.51,2.68-5.13,4.19s-2.96,3.46-4.49,5.18c-1.66,1.86-3.63,2.83-5.98,3.56-2.62,.81-5.26,1.59-7.94,2.18-5.04,1.1-10.23,1.2-14.96-1.11s-8.4-6.03-11.61-10.02c-3.54-4.41-6.39-9.41-8.43-14.67-.69-1.78-3.59-1.01-2.89,.8h0Z"/>
            </g>
            <path class="cls-2" d="M75.89,16.2c-3.34,1.33-6.66,3.73-7.34,7.26-.27,1.42-.09,2.92-.51,4.3-.43,1.39-1.42,2.52-2.26,3.71-5.81,8.24-3.48,21.07,4.87,26.73,1.48,1.01,3.11,1.8,4.57,2.84,1.53,1.08,2.87,2.42,4.34,3.58,9.02,7.13,23.27,6.48,31.6-1.45,9.27,1.07,20.29-.05,25.32-7.92,3.29-5.15,2.98-11.76,2.11-17.81-.4-2.8-.9-5.64-.47-8.43,.29-1.88,.99-3.67,1.39-5.52,1.37-6.26-.87-13.18-5.65-17.44s-11.91-5.7-17.97-3.62c-1.17,.4-2.31,.92-3.54,1.02-1.41,.11-2.78-.34-4.16-.67-6.2-1.45-13.14,.05-18.25,3.84-2.16,1.6-3.25,4.3-5.16,5.8-2.61,2.05-5.81,2.53-8.88,3.75Z"/>
          </g>
          <g>
            <g>
              <g>
                <path class="cls-1" d="M147.29,218.46l24.02-57.07c-.07-7.42,2.95-14.22,7.58-19.91,5.01-6.17,12.32-8.67,17.49-14.62,12.48-14.37,33.24-21.09,50.96-26.08,16.16-4.55,39.74-12.67,56.15-7.77,20.24,6.05,39.02,14.44,57.01,25.32,6.8,4.11,11.01,11.33,16.45,16.95,5.45,5.64,11.97,10.26,17.23,16.02,6.03,4.29,14.15,6.56,21.47,6.74,6.78,.17,14.24-1.3,20.51,2.06,5.53,2.97,8.99,8.55,13.2,12.99,4.43,4.67,10.13,8.58,12.01,15.08,6.52,22.5-26.54,26.96-40.94,21.01l-.69-1.51c1.78,4.6,3.56,9.2,5.34,13.8,4.17,10.77,8.4,21.89,8.08,33.43-.27,9.89-4.23,19.53-10.6,27.06-6.4,7.56-16.98,10.36-21.87,18.97-2.41,4.25-3.82,8.98-5.85,13.43-9.02,19.74-35.65,41.6-58.35,40.6-7.51-.33-14.22-3.57-21.54-4.54-7.21-.95-14.51,.42-21.53,1.93-13.78,2.96-29.13,8.5-42.84,2.28-8.32-3.77-14.43-11.45-22.84-15.04-7.91-3.37-16.85-2.74-25.44-2.96-17.05-.44-30.13-9.95-39.05-24.23-7.45-11.91-11.3-25.65-15.06-39.18-4.55-16.35-5.27-37.9-.85-54.77Z"/>
                <path class="cls-3" d="M148.74,218.86c2.63-6.25,5.26-12.49,7.89-18.74,4.28-10.16,8.55-20.32,12.83-30.48,1.05-2.5,2.3-4.99,3.18-7.56,.15-.44,.16-.68,.18-1.23,.08-2.48,.41-4.88,1.13-7.26,1.42-4.71,4.09-9.26,7.54-12.78,3.27-3.33,7.37-5.63,11.05-8.44s6.45-6.44,9.91-9.46c6.95-6.09,15.38-10.38,23.94-13.74s16.81-5.61,25.33-8.09,17.84-5.26,27-6.85c4.6-.8,9.28-1.31,13.96-1.24s8.82,.94,13.18,2.3c10.28,3.2,20.34,7.07,30.1,11.62,4.88,2.27,9.68,4.71,14.4,7.3s9.39,4.84,13.22,8.27c3.45,3.09,6.23,6.83,9.2,10.37,3.31,3.93,7.08,7.35,10.95,10.72,1.98,1.72,3.96,3.43,5.86,5.23s3.5,3.7,5.75,5.06c4.2,2.54,8.98,4.19,13.8,5.03s9.5,.61,14.32,.51c5.07-.11,10.01,.36,14.21,3.46,3.79,2.79,6.52,6.77,9.63,10.24,2.91,3.25,6.38,5.96,9.17,9.31,4.07,4.88,5.87,12.33,2.37,18.02-2.82,4.57-8.18,6.99-13.19,8.29-5.64,1.47-11.71,1.79-17.49,.96-2.51-.36-5-.96-7.35-1.92l.9,.69-.69-1.51c-.7-1.53-3.36-.43-2.74,1.16,3.34,8.62,6.94,17.19,9.79,25.99,2.66,8.22,4.49,16.96,3.15,25.61-1.2,7.76-4.64,15.25-9.74,21.22-4.43,5.18-10.73,8.09-15.97,12.31-2.58,2.08-4.82,4.53-6.42,7.45-2.08,3.8-3.4,7.94-5.12,11.91-2.62,6.06-6.42,11.56-10.79,16.5-9.29,10.51-21.6,19.56-35.33,23.1-3.05,.79-6.17,1.27-9.32,1.32-4.1,.06-8.05-.79-11.99-1.86s-7.86-2.24-11.93-2.74c-4.44-.54-8.92-.21-13.33,.45-8.39,1.25-16.52,3.73-24.84,5.34-8.29,1.6-17.24,2.23-25.14-1.34-6.88-3.11-12.11-8.77-18.45-12.72-7.07-4.4-15.08-5.27-23.24-5.39-4-.06-8.04,.08-12.01-.45-3.27-.43-6.49-1.27-9.56-2.46-6.32-2.44-11.91-6.54-16.52-11.47-11.09-11.88-16.22-27.83-20.55-43.14-2.18-7.7-3.93-15.36-4.64-23.35s-.67-16.29,.31-24.36c.46-3.76,1.16-7.48,2.11-11.14,.48-1.87-2.41-2.67-2.89-.8-4.08,15.78-3.93,32.91-.75,48.84,1.62,8.11,4.11,16.17,6.73,24s6.11,16.22,10.84,23.45c7.56,11.56,18.82,20.73,32.7,23.1,8.27,1.42,16.74,.1,25.01,1.58,4.09,.73,7.87,2.2,11.37,4.44,3.3,2.11,6.3,4.65,9.42,7.03s6.36,4.55,10.01,6.03c3.83,1.55,7.94,2.29,12.06,2.42,8.59,.27,17.03-1.96,25.31-3.94,8.75-2.09,18.03-4.42,27.06-2.97,8.17,1.31,15.75,4.84,24.18,4.42,14.14-.71,27.41-8.46,37.83-17.6,5.4-4.74,10.27-10.14,14.23-16.14,1.81-2.74,3.4-5.61,4.71-8.62,1.79-4.13,3.14-8.48,5.39-12.4,3.47-6.02,9.93-9.16,15.37-13.09,6.25-4.52,10.81-10.71,13.8-17.8,3.26-7.72,4.15-15.97,3.01-24.24-1.25-9.04-4.57-17.6-7.85-26.06-1.7-4.41-3.41-8.81-5.12-13.22l-2.74,1.16c.64,1.4,1.02,2.02,2.52,2.56,1.22,.44,2.47,.79,3.73,1.07,2.91,.64,5.91,.96,8.89,1.01,6.22,.11,12.6-.85,18.32-3.37,5.07-2.23,9.65-6.08,11.21-11.57,.85-2.98,.72-6.15,.02-9.14-1.02-4.39-3.6-7.95-6.72-11.11-3.3-3.34-6.66-6.48-9.69-10.09s-6.33-7.42-10.76-9.45c-4.66-2.14-9.85-2.06-14.87-1.89s-10.21,0-15.25-1.4c-2.57-.71-5.07-1.66-7.42-2.92-1.03-.54-2.16-1.11-3.06-1.85-1.09-.89-2.02-2.07-3.04-3.05-3.98-3.83-8.33-7.24-12.32-11.06-3.61-3.46-6.61-7.42-9.86-11.21s-6.96-6.84-11.33-9.42c-9.56-5.64-19.49-10.64-29.71-14.95-5.15-2.17-10.36-4.17-15.64-5.98-4.78-1.64-9.65-3.45-14.68-4.16-9.43-1.34-19.12,.27-28.32,2.4s-18.08,4.87-27.05,7.48-18.15,5.64-26.68,9.81c-4.26,2.08-8.38,4.47-12.2,7.29s-6.93,6.11-10.23,9.48c-3.42,3.48-7.74,5.85-11.56,8.83s-7.12,7.01-9.4,11.46c-1.15,2.24-2.08,4.62-2.68,7.07-.28,1.13-.48,2.28-.62,3.44-.13,1.05,0,2.27-.16,3.26-.1,.57-.51,1.21-.73,1.74-3.8,9.03-7.6,18.05-11.4,27.08s-7.49,17.81-11.24,26.71c-.22,.51-.43,1.02-.65,1.54-.75,1.78,2.15,2.55,2.89,.8Z"/>
              </g>
              <g>
                <path class="cls-1" d="M204.42,148.69c-6.6,6.8-15.7,10.67-24.93,12.84-9.22,2.17-18.73,2.8-28.11,4.1-3.73,.52-7.48,1.16-11,2.51-9.08,3.5-16.04,12-17.68,21.6-.61,3.56-.52,7.21-.25,10.81,1.03,13.72,12.06,19.99,25.36,17.15,8.47-1.81,18.27-.09,25.43-5.53,4.02-3.05,7.04-7.22,9.9-11.38"/>
                <path class="cls-3" d="M203.36,147.63c-9.85,10.03-24.19,13.04-37.62,14.74-7.51,.95-15.3,1.31-22.62,3.31-5.8,1.58-11.02,4.79-14.95,9.36s-6.34,9.83-7.1,15.63-.58,12.94,2.11,18.51c2.02,4.19,5.58,7.37,9.87,9.11,4.69,1.9,9.93,1.91,14.83,.93,6.7-1.33,13.79-.68,20.34-2.81,7.34-2.39,12.04-8.75,16.24-14.86,1.1-1.6-1.5-3.1-2.59-1.51-3.47,5.06-7.43,10.78-13.37,13.1-5.47,2.14-11.5,1.81-17.24,2.51-2.68,.33-5.3,1.03-8,1.18-2.32,.13-4.65-.02-6.9-.61-4.12-1.06-7.7-3.55-9.88-7.24-2.84-4.83-3.02-11-2.6-16.44s2.61-10.85,6.18-15.11c3.76-4.47,8.68-7.52,14.32-8.98,6.95-1.8,14.27-2.18,21.37-3.08,14.24-1.8,29.3-4.99,39.74-15.62,1.35-1.38-.77-3.5-2.12-2.12h0Z"/>
              </g>
              <path class="cls-3" d="M347.32,209.67c5.79,0,5.8-9,0-9s-5.8,9,0,9h0Z"/>
              <path class="cls-3" d="M281.62,219.96c5.79,0,5.8-9,0-9s-5.8,9,0,9h0Z"/>
              <path class="cls-3" d="M322.47,233.56c-1.01,.88-.92,2.51-.51,3.44,.55,1.25,1.86,2.22,3.21,3.03,1.05,.62,3.35,.8,4.72,.62,2.72-.35,4.49-2.41,5.1-4.19,.49-1.42,.46-2.94,.15-4.33-.05-.22-.11-.44-.31-.6-.28-.22-.74-.25-1.16-.27-1.84-.09-3.71-.17-5.56,.06-2.13,.26-4.02,.99-5.54,2.16-.03,.03-.06,.05-.09,.08Z"/>
              <path class="cls-3" d="M325.93,240.95c-.82,2.45-2.17,4.91-4.4,6.33-2.54,1.62-5.83,1.71-8.5,.34-1.71-.88-3.23,1.71-1.51,2.59,3.54,1.82,7.9,1.85,11.34-.23,3.03-1.83,4.86-4.96,5.96-8.24,.62-1.83-2.28-2.62-2.89-.8h0Z"/>
              <path class="cls-3" d="M330.48,241.31c.97,2.93,3.82,5.35,6.52,6.65,4.25,2.05,8.92,1.61,12.86-.95,1.61-1.05,.11-3.65-1.51-2.59-3.07,1.99-6.68,2.53-10.02,.86-1.28-.64-2.43-1.49-3.42-2.53-.45-.48-.65-.71-.97-1.19-.15-.22-.29-.45-.41-.69-.05-.11-.11-.21-.15-.32,.09,.21,.06,.13,0-.04-.6-1.82-3.5-1.04-2.89,.8h0Z"/>
            </g>
            <g>
              <path class="cls-3" d="M289.19,195.59c-8.65-3.37-17.66-5.14-26.89-5.91-1.92-.16-1.91,2.84,0,3,8.96,.75,17.69,2.53,26.09,5.8,1.8,.7,2.58-2.2,.8-2.89h0Z"/>
              <path class="cls-3" d="M340.05,194.01c4.62-4.74,10.25-8.43,16.47-10.71,.76-.28,1.28-1.02,1.05-1.85-.2-.73-1.08-1.33-1.85-1.05-6.71,2.46-12.8,6.36-17.79,11.48-1.35,1.38,.77,3.51,2.12,2.12h0Z"/>
            </g>
          </g>
        </g>
        <path class="cls-5" d="M144.76,392.07c-5.08-4.21-10.35-8.32-15.23-12.64-3.35-2.98-6.62-6.25-7.21-10.01-.59-3.76,2.46-8.05,7.8-8.79,9.32-1.3,18.77,10.27,27.88,5.35,2.61-1.41,4.2-4.12,5.81-6.62,2.87-4.46,6.21-8.62,9.93-12.4,1.19-1.2,2.49-2.41,4.12-2.85,1.44-.38,2.96-.12,4.4,.25,11.38,2.88,20.38,11.67,27.13,21.27,2.86,4.06,5.47,8.38,9.19,11.66,17.81,15.73,24.48-13.53,40.73-11.87,3.01,.31,5.56,1.65,7.87,3.03,4.13,2.47,8.09,5.36,9.59,9,3.27,7.92-6,15.99-4.81,24.18,.95,6.54,8.45,12.15,8.26,18.72-.13,4.28-3.58,8.21-7.81,11.33-22.89,16.87-56.27,14.68-82.38,8.1-3.12-.79-6.3-1.72-8.81-3.73-6.57-5.28-6.65-15.14-11.7-21.58-6.74-8.6-16.42-15.48-24.77-22.41Z"/>
      </g>
    </g>
  </g>
</svg>