<?xml version="1.0" encoding="UTF-8"?>
<svg id="_레이어_2" data-name="레이어 2" xmlns="http://www.w3.org/2000/svg" viewBox="0 0 431.37 555.64">
  <defs>
    <style>
      .cls-1, .cls-2, .cls-3, .cls-4 {
        fill: #fff;
      }

      .cls-5 {
        fill: #444;
      }

      .cls-2 {
        stroke-width: 2px;
      }

      .cls-2, .cls-6, .cls-7, .cls-3, .cls-4, .cls-8, .cls-9 {
        stroke: #444;
      }

      .cls-2, .cls-7, .cls-4, .cls-8, .cls-9 {
        stroke-linecap: round;
        stroke-linejoin: round;
      }

      .cls-6 {
        fill: #2fbaeb;
      }

      .cls-6, .cls-7, .cls-3, .cls-4, .cls-8, .cls-9 {
        stroke-width: 3px;
      }

      .cls-6, .cls-3 {
        stroke-miterlimit: 10;
      }

      .cls-7 {
        fill: #e33b25;
      }

      .cls-8 {
        fill: #ffca00;
      }

      .cls-9 {
        fill: none;
      }
    </style>
  </defs>
  <g id="_레이어_1-2" data-name="레이어 1">
    <g>
      <path class="cls-3" d="M62.81,456.77c-.39,2.27-.18,4.89,1.53,6.43,.69,.62,1.56,1.02,2.18,1.71,.62,.7,.91,1.62,1.28,2.47,2.57,5.92,10.37,8.91,16.24,6.23,1.04-.48,2.02-1.1,3.07-1.56,1.1-.48,2.28-.76,3.4-1.18,6.9-2.56,11.29-10.57,9.72-17.76,3.67-4.71,6.73-11.11,4.09-16.48-1.72-3.51-5.44-5.54-9.04-7.08-1.66-.71-3.38-1.38-4.76-2.55-.93-.78-1.68-1.76-2.55-2.6-2.96-2.83-7.49-3.91-11.42-2.72s-7.08,4.62-7.96,8.62c-.17,.77-.26,1.57-.62,2.28-.41,.81-1.12,1.41-1.75,2.05-2.86,2.91-4.34,7.2-3.97,11.26,.16,1.72,1.27,3.21,1.46,4.75,.25,2.11-.55,4.02-.9,6.11Z"/>
      <g>
        <polygon class="cls-1" points="96.04 226.04 62.29 255.15 47.45 287.16 54.69 320.12 71.35 321.11 87.9 315.08 87.73 337.56 87.23 402.68 90.67 462.27 94.36 496.69 98.28 521.78 101.25 533.71 111.25 545.04 120.28 549.44 131.09 551.16 148.78 550.49 156.54 547.95 162.15 541.36 166.62 524.91 168.08 497.48 168.69 474.82 180.68 475.42 196.52 474.17 222.5 471.8 223.56 479.72 226.72 503.27 228.95 519.85 230.89 534.12 232.63 540.88 236.53 546.48 246.63 551.74 255.32 554.14 266.22 554.14 280.79 552.25 287.02 549.96 291.62 544.92 293.75 537.76 296.94 513.85 299.61 487.69 302.3 447.07 303.45 407.85 303.28 351.18 301.64 274.08 284.75 226.04 279.57 222.67 230.53 223.95 96.04 226.04"/>
        <g>
          <path class="cls-1" d="M26.63,128.48l24.02-57.07c-.07-7.42,2.95-14.22,7.58-19.91,5.01-6.17,12.32-8.67,17.49-14.62,12.48-14.37,33.24-21.09,50.96-26.08,16.16-4.55,39.74-12.67,56.15-7.77,20.24,6.05,39.02,14.44,57.01,25.32,6.8,4.11,11.01,11.33,16.45,16.95,5.45,5.64,11.97,10.26,17.23,16.02,6.03,4.29,14.15,6.56,21.47,6.74,6.78,.17,14.24-1.3,20.51,2.06,5.53,2.97,8.99,8.55,13.2,12.99,4.43,4.67,10.13,8.58,12.01,15.08,6.52,22.5-26.54,26.96-40.94,21.01l-.69-1.51c1.78,4.6,3.56,9.2,5.34,13.8,4.17,10.77,8.4,21.89,8.08,33.43-.27,9.89-4.23,19.53-10.6,27.06-6.4,7.56-16.98,10.36-21.87,18.97-2.41,4.25-3.82,8.98-5.85,13.43-9.02,19.74-35.65,41.6-58.35,40.6-7.51-.33-14.22-3.57-21.54-4.54-7.21-.95-14.51,.42-21.53,1.93-13.78,2.96-29.13,8.5-42.84,2.28-8.32-3.77-14.43-11.45-22.84-15.04-7.91-3.37-16.85-2.74-25.44-2.96-17.05-.44-30.13-9.95-39.05-24.23-7.45-11.91-11.3-25.65-15.06-39.18-4.55-16.35-5.27-37.9-.85-54.77Z"/>
          <path class="cls-5" d="M28.08,128.88c2.63-6.25,5.26-12.49,7.89-18.74,4.28-10.16,8.55-20.32,12.83-30.48,1.05-2.5,2.3-4.99,3.18-7.56,.15-.44,.16-.68,.18-1.23,.08-2.48,.41-4.88,1.13-7.26,1.42-4.71,4.09-9.26,7.54-12.78,3.27-3.33,7.37-5.63,11.05-8.44s6.45-6.44,9.91-9.46c6.95-6.09,15.38-10.38,23.94-13.74,8.27-3.25,16.81-5.61,25.33-8.09s17.84-5.26,27-6.85c4.6-.8,9.28-1.31,13.96-1.24s8.82,.94,13.18,2.3c10.28,3.2,20.34,7.07,30.1,11.62,4.88,2.27,9.68,4.71,14.4,7.3s9.39,4.84,13.22,8.27c3.45,3.09,6.23,6.83,9.2,10.37,3.31,3.93,7.08,7.35,10.95,10.72,1.98,1.72,3.96,3.43,5.86,5.23s3.5,3.7,5.75,5.06c4.2,2.54,8.98,4.19,13.8,5.03s9.5,.61,14.32,.51c5.07-.11,10.01,.36,14.21,3.46,3.79,2.79,6.52,6.77,9.63,10.24,2.91,3.25,6.38,5.96,9.17,9.31,4.07,4.88,5.87,12.33,2.37,18.02-2.82,4.57-8.18,6.99-13.19,8.29-5.64,1.47-11.71,1.79-17.49,.96-2.51-.36-5-.96-7.35-1.92l.9,.69-.69-1.51c-.7-1.53-3.36-.43-2.74,1.16,3.34,8.62,6.94,17.19,9.79,25.99,2.66,8.22,4.49,16.96,3.15,25.61-1.2,7.76-4.64,15.25-9.74,21.22-4.43,5.18-10.73,8.09-15.97,12.31-2.58,2.08-4.82,4.53-6.42,7.45-2.08,3.8-3.4,7.94-5.12,11.91-2.62,6.06-6.42,11.56-10.79,16.5-9.29,10.51-21.6,19.56-35.33,23.1-3.05,.79-6.17,1.27-9.32,1.32-4.1,.06-8.05-.79-11.99-1.86s-7.86-2.24-11.93-2.74c-4.44-.54-8.92-.21-13.33,.45-8.39,1.25-16.52,3.73-24.84,5.34s-17.24,2.23-25.14-1.34c-6.88-3.11-12.11-8.77-18.45-12.72-7.07-4.4-15.08-5.27-23.24-5.39-4-.06-8.04,.08-12.01-.45-3.27-.43-6.49-1.27-9.56-2.46-6.32-2.44-11.91-6.54-16.52-11.47-11.09-11.88-16.22-27.83-20.55-43.14-2.18-7.7-3.93-15.36-4.64-23.35s-.67-16.29,.31-24.36c.46-3.76,1.16-7.48,2.11-11.14,.48-1.87-2.41-2.67-2.89-.8-4.08,15.78-3.93,32.91-.75,48.84,1.62,8.11,4.11,16.17,6.73,24s6.11,16.22,10.84,23.45c7.56,11.56,18.82,20.73,32.7,23.1,8.27,1.42,16.74,.1,25.01,1.58,4.09,.73,7.87,2.2,11.37,4.44,3.3,2.11,6.3,4.65,9.42,7.03s6.36,4.55,10.01,6.03c3.83,1.55,7.94,2.29,12.06,2.42,8.59,.27,17.03-1.96,25.31-3.94,8.75-2.09,18.03-4.42,27.06-2.97,8.17,1.31,15.75,4.84,24.18,4.42,14.14-.71,27.41-8.46,37.83-17.6,5.4-4.74,10.27-10.14,14.23-16.14,1.81-2.74,3.4-5.61,4.71-8.62,1.79-4.13,3.14-8.48,5.39-12.4,3.47-6.02,9.93-9.16,15.37-13.09,6.25-4.52,10.81-10.71,13.8-17.8,3.26-7.72,4.15-15.97,3.01-24.24-1.25-9.04-4.57-17.6-7.85-26.06-1.7-4.41-3.41-8.81-5.12-13.22l-2.74,1.16c.64,1.4,1.02,2.02,2.52,2.56,1.22,.44,2.47,.79,3.73,1.07,2.91,.64,5.91,.96,8.89,1.01,6.22,.11,12.6-.85,18.32-3.37,5.07-2.23,9.65-6.08,11.21-11.57,.85-2.98,.72-6.15,.02-9.14-1.02-4.39-3.6-7.95-6.72-11.11-3.3-3.34-6.66-6.48-9.69-10.09s-6.33-7.42-10.76-9.45c-4.66-2.14-9.85-2.06-14.87-1.89s-10.21,0-15.25-1.4c-2.57-.71-5.07-1.66-7.42-2.92-1.03-.54-2.16-1.11-3.06-1.85-1.09-.89-2.02-2.07-3.04-3.05-3.98-3.83-8.33-7.24-12.32-11.06-3.61-3.46-6.61-7.42-9.86-11.21s-6.96-6.84-11.33-9.42c-9.56-5.64-19.49-10.64-29.71-14.95-5.15-2.17-10.36-4.17-15.64-5.98-4.78-1.64-9.65-3.45-14.68-4.16-9.43-1.34-19.12,.27-28.32,2.4s-18.08,4.87-27.05,7.48-18.15,5.64-26.68,9.81c-4.26,2.08-8.38,4.47-12.2,7.29-3.82,2.82-6.93,6.11-10.23,9.48s-7.74,5.85-11.56,8.83c-3.95,3.08-7.12,7.01-9.4,11.46-1.15,2.24-2.08,4.62-2.68,7.07-.28,1.13-.48,2.28-.62,3.44-.13,1.05,0,2.27-.16,3.26-.1,.57-.51,1.21-.73,1.74-3.8,9.03-7.6,18.05-11.4,27.08s-7.49,17.81-11.24,26.71c-.22,.51-.43,1.02-.65,1.54-.75,1.78,2.15,2.55,2.89,.8Z"/>
        </g>
        <g>
          <path class="cls-1" d="M83.76,58.72c-6.6,6.8-15.7,10.67-24.93,12.84-9.22,2.17-18.73,2.8-28.11,4.1-3.73,.52-7.48,1.16-11,2.51-9.08,3.5-16.04,12-17.68,21.6-.61,3.56-.52,7.21-.25,10.81,1.03,13.72,12.06,19.99,25.36,17.15,8.47-1.81,18.27-.09,25.43-5.53,4.02-3.05,7.04-7.22,9.9-11.38"/>
          <path class="cls-5" d="M82.7,57.66c-9.85,10.03-24.19,13.04-37.62,14.74-7.51,.95-15.3,1.31-22.62,3.31-5.8,1.58-11.02,4.79-14.95,9.36S1.17,94.9,.4,100.7s-.58,12.94,2.11,18.51c2.02,4.19,5.58,7.37,9.87,9.11,4.69,1.9,9.93,1.91,14.83,.93,6.7-1.33,13.79-.68,20.34-2.81,7.34-2.39,12.04-8.75,16.24-14.86,1.1-1.6-1.5-3.1-2.59-1.51-3.47,5.06-7.43,10.78-13.37,13.1-5.47,2.14-11.5,1.81-17.24,2.51-2.68,.33-5.3,1.03-8,1.18-2.32,.13-4.65-.02-6.9-.61-4.12-1.06-7.7-3.55-9.88-7.24-2.84-4.83-3.02-11-2.6-16.44s2.61-10.85,6.18-15.11c3.76-4.47,8.68-7.52,14.32-8.98,6.95-1.8,14.27-2.18,21.37-3.08,14.24-1.8,29.3-4.99,39.74-15.62,1.35-1.38-.77-3.5-2.12-2.12h0Z"/>
        </g>
        <path class="cls-5" d="M226.97,116.84c5.79,0,5.8-9,0-9s-5.8,9,0,9h0Z"/>
        <path class="cls-5" d="M157.38,122.52c5.79,0,5.8-9,0-9s-5.8,9,0,9h0Z"/>
        <path class="cls-5" d="M200.91,144.79c-.88,1.01-.57,2.61-.03,3.48,.72,1.16,2.15,1.94,3.6,2.55,1.13,.47,3.43,.33,4.76-.03,2.65-.72,4.11-3,4.47-4.85,.29-1.47,.05-2.98-.45-4.31-.08-.21-.17-.42-.39-.55-.3-.18-.76-.15-1.19-.11-1.84,.17-3.69,.34-5.5,.82-2.07,.55-3.85,1.53-5.19,2.91-.03,.03-.06,.06-.08,.09Z"/>
        <path class="cls-5" d="M205.4,151.43c-.5,2.66-1.47,5.28-3.55,7.1-2.32,2.04-5.67,2.43-8.52,1.43-.76-.27-1.64,.3-1.85,1.05-.23,.83,.28,1.58,1.05,1.85,3.77,1.32,8.04,.57,11.13-1.95,2.63-2.13,4.02-5.44,4.63-8.68,.15-.8-.22-1.62-1.05-1.85-.73-.2-1.69,.25-1.85,1.05h0Z"/>
        <path class="cls-5" d="M210,151.52c1.36,2.76,4.66,4.69,7.47,5.59,4.51,1.44,9.04,.15,12.56-2.89,1.46-1.27-.67-3.38-2.12-2.12-2.8,2.42-6.33,3.25-9.85,2.05-1.24-.42-2.47-1.1-3.47-1.89-.93-.73-1.55-1.34-2-2.25-.86-1.73-3.44-.21-2.59,1.51h0Z"/>
        <path class="cls-9" d="M140.75,119.13c9.39-3.46,19.08-6.09,28.93-7.87"/>
        <path class="cls-9" d="M215.97,104c7.42,.44,14.8,1.6,22.01,3.44"/>
        <path class="cls-4" d="M275.3,224.95c17.01-9.8,29.94-20.78,47.01-30.43,17.07-9.65,35.2-17.4,54.03-18.83,4.46-.34,9.58,.01,12.44,4.14,1.88,2.71,2.32,6.45,2.51,9.98,.56,10.07-.22,20.25-2.3,30.04-.94,4.4-2.17,8.8-4.4,12.46-2.62,4.3-6.45,7.31-10.43,9.64-5.73,3.36-11.9,5.48-17.95,7.87-22.33,8.81-43.62,21.43-63.03,37.36"/>
        <path class="cls-9" d="M89.53,306.46c-4.97,66.79-2.9,134.23,6.17,200.49,1.07,7.83,2.26,15.73,5.09,23,2.83,7.27,7.48,13.94,13.91,17.37,4.06,2.17,8.61,2.94,13.1,3.38,6.26,.61,12.57,.62,18.84,.04,3.42-.32,6.94-.85,9.9-2.78,5.61-3.66,7.88-11.29,9.36-18.33,2.33-11.08,2.14-42.17,2.79-53.53"/>
        <path class="cls-9" d="M158.72,472.48c13.13,4.55,27.49,2.94,41.29,1.28,8.43-1.02,16.87-2.03,25.3-3.05"/>
        <path class="cls-9" d="M301.77,280.44c2.34,86.18,4.6,169.33-7.58,254.48-.68,4.74-1.56,9.82-4.71,13.11-2.34,2.44-5.56,3.48-8.7,4.23-10.43,2.48-21.32,2.51-31.77,.11-6.01-1.39-12.36-3.98-15.58-9.79-1.87-3.38-2.44-7.42-2.96-11.34-2.1-15.63-5.87-43.79-7.97-59.42"/>
        <line class="cls-9" x1="71.35" y1="321.11" x2="88.96" y2="314.7"/>
        <path class="cls-4" d="M71.22,245.65c-20.82,21.73-40.25,44.8-58.12,69.02-1.96,2.65-3.94,5.41-4.66,8.63-.91,4.07,.34,8.3,1.91,12.17,9.26,22.85,29.29,39.41,49.52,53.5,1.64,1.14,3.33,2.3,5.26,2.8,3.48,.91,7.12-.41,10.48-1.71,5.9-2.28,11.91-4.63,16.86-8.56,4.96-3.94,8.8-9.78,8.77-16.11-.04-7.09-4.72-13.19-9.18-18.7-10.09-12.45-20.17-24.9-30.26-37.35"/>
        <g>
          <path class="cls-8" d="M206.15,166.52c-3.78-2.13-8.24-3.76-11.78-1.55-5,3.12-7.21,12.41-8.84,17.58-1.61,5.1-3.23,10.26-3.65,15.6-1.01,12.74,5.12,25.41,14.47,34.12,2.47,2.3,5.21,4.39,8.37,5.55,2.67,.97,5.54,1.23,8.37,1.34,3.75,.14,7.51,0,11.25-.37-15.3-20.44-17.25-47.22-18.2-72.26Z"/>
          <path class="cls-7" d="M244.23,226.26c-2.76-3.85-6.69-6.84-11.13-8.47-.72-.26-1.49-.52-1.97-1.12-1.33-1.67,.72-3.93,2.59-4.96,1.88-1.02,4.19-2.74,3.4-4.73-.31-.77-1.02-1.28-1.7-1.75-6.4-4.46-12.57-9.25-18.48-14.34-3.29-2.83-6.81-6.64-5.89-10.89,.61-2.82,3.15-5.53,2.01-8.18-.5-1.15-1.59-1.92-2.63-2.62-1.23-.83-2.69-1.81-4.27-2.7,.95,25.04,2.9,51.83,18.2,72.26,5.46-.56,10.87-1.65,16.11-3.3,2.21-.69,4.69-1.78,5.3-4.02,.5-1.8-.45-3.68-1.54-5.2Z"/>
        </g>
        <g>
          <path class="cls-7" d="M387.94,199.69c-3.18-.36-6.38-.55-9.58-.54-2.32,.01-5,.32-6.25,2.27-1.01,1.58-.66,3.65-.07,5.42,1.5,4.49,4.37,8.51,8.13,11.37,.61,.46,1.27,.94,1.55,1.65,.77,1.99-1.85,3.55-3.94,3.97-2.09,.42-4.81,1.39-4.64,3.51,.06,.82,.6,1.52,1.1,2.17,4.8,6.15,9.28,12.55,13.42,19.16,2.31,3.68,4.55,8.36,2.41,12.14-1.42,2.51-4.64,4.35-4.33,7.22,.13,1.25,.95,2.3,1.74,3.28,2.15,2.67,5.27,6.51,8.85,8.19,2.61-27.05,4.07-56.11-8.4-79.83Z"/>
          <path class="cls-6" d="M419.55,215.25c-1.68-2.92-3.68-5.74-6.36-7.77-2.26-1.71-4.93-2.81-7.6-3.75-5.71-2-11.64-3.35-17.65-4.04,12.47,23.72,11.01,52.78,8.4,79.83,1.66,.78,3.42,1.09,5.23,.62,5.7-1.5,10.56-9.72,13.64-14.18,3.04-4.4,6.11-8.85,8.09-13.82,4.73-11.88,2.61-25.78-3.75-36.87Z"/>
        </g>
        <path class="cls-2" d="M201.2,170.27c-.39-2.92-.53-5.87-.42-8.81-.07,1.73-4.98-.82-4.2,2.82,.51,2.37,2.86,4.5,4.62,5.98Z"/>
        <g>
          <g>
            <path class="cls-6" d="M429.87,485.12c0-25-16.25-46.19-38.76-53.62,12.87,35.9,6.32,76.35-10.66,109.64,27.86-3.47,49.42-27.22,49.42-56.02Z"/>
            <path class="cls-7" d="M391.12,431.5c-5.57-1.84-11.52-2.85-17.71-2.85-3.18,0-6.3,.28-9.33,.78-18.13,33.03-17.25,73.79-6.58,109.87,5.05,1.48,10.39,2.29,15.92,2.29,2.39,0,4.74-.17,7.05-.45,16.98-33.29,23.53-73.74,10.66-109.64Z"/>
            <path class="cls-8" d="M364.07,429.43c-26.75,4.45-47.14,27.68-47.14,55.69,0,25.66,17.12,47.31,40.56,54.18-10.66-36.08-11.54-76.84,6.58-109.87Z"/>
          </g>
          <ellipse class="cls-5" cx="376.59" cy="431.5" rx="3.46" ry="7.27" transform="translate(-95.59 755.62) rotate(-83.35)"/>
        </g>
      </g>
    </g>
  </g>
</svg>