<?xml version="1.0" encoding="UTF-8"?>
<svg id="_레이어_2" data-name="레이어 2" xmlns="http://www.w3.org/2000/svg" viewBox="0 0 397.21 579.15">
  <defs>
    <style>
      .cls-1, .cls-2 {
        fill: #f4dd76;
      }

      .cls-3, .cls-4 {
        fill: #fff;
      }

      .cls-5 {
        fill: #ebc48c;
      }

      .cls-6 {
        fill: #444;
      }

      .cls-7 {
        fill: #513c08;
      }

      .cls-7, .cls-8, .cls-4, .cls-2, .cls-9 {
        stroke: #444;
        stroke-width: 3px;
      }

      .cls-7, .cls-8, .cls-9 {
        stroke-linecap: round;
        stroke-linejoin: round;
      }

      .cls-8 {
        fill: #e33b25;
      }

      .cls-4, .cls-2 {
        stroke-miterlimit: 10;
      }

      .cls-9 {
        fill: none;
      }
    </style>
  </defs>
  <g id="_레이어_1-2" data-name="레이어 1">
    <g>
      <path class="cls-8" d="M9.3,372.63c-2.33,.72-4.82,1.54-6.3,3.48-1.77,2.32-1.61,5.53-1.32,8.43,2.06,20.81,8.02,44.2,26.53,53.94,3.88,2.04,8.11,3.34,11.95,5.45,8.44,4.63,14.29,12.71,20.89,19.71,6.6,7.01,15.12,13.45,24.74,13.04,5.19-.22,10.11-2.45,15.28-2.93,10.13-.95,19.68,4.81,29.81,5.83,7.65,.77,15.29-1.2,22.72-3.16,9.89-2.6,19.78-5.19,29.67-7.79,33.59-8.82,67.18-17.64,100.77-26.46,3.07-.81,6.23-1.66,8.76-3.58,4.77-3.64,6.12-10.13,7.14-16.04,3.56-20.65,7.13-41.36,8.16-62.29,.67-13.55,.23-27.37-3.89-40.29s-12.29-24.98-24.17-31.53c-16.84-9.28-37.5-6.18-56.43-2.81-19.6,3.48-39.83,3.33-55.39,15.8-15.4,12.34-31.98,22.75-49.66,31.51-34.63,17.15-72.2,28.99-109.25,39.7Z"/>
      <path class="cls-4" d="M101.89,431.57c-3.34,1.33-6.66,3.73-7.34,7.26-.27,1.42-.09,2.92-.51,4.3-.43,1.39-1.42,2.52-2.26,3.71-5.81,8.24-3.48,21.07,4.87,26.73,1.48,1.01,3.11,1.8,4.57,2.84,1.53,1.08,2.87,2.42,4.34,3.58,9.02,7.13,23.27,6.48,31.6-1.45,9.27,1.07,20.29-.05,25.32-7.92,3.29-5.15,2.98-11.76,2.11-17.81-.4-2.8-.9-5.64-.47-8.43,.29-1.88,.99-3.67,1.39-5.52,1.37-6.26-.87-13.18-5.65-17.44-4.78-4.26-11.91-5.7-17.97-3.62-1.17,.4-2.31,.92-3.54,1.02-1.41,.11-2.78-.34-4.16-.67-6.2-1.45-13.14,.05-18.25,3.84-2.16,1.6-3.25,4.3-5.16,5.8-2.61,2.05-5.81,2.53-8.88,3.75Z"/>
      <polygon class="cls-3" points="286.52 243.18 79.25 186.44 60.25 192.72 45.67 195.93 28.75 206.63 20.8 220.34 20.8 235.39 26.52 250.05 35.95 264.54 58.58 291.3 87.53 318.51 103.83 330.89 133.68 347.76 132.53 358.36 128.64 406.9 127.44 437.96 127.24 490.28 130.49 530 131.83 543.86 134.07 556.8 137.99 564.96 146.6 573.37 153.66 577.62 164.47 577.62 181.36 576.66 191.31 574.69 197.26 572.68 204.93 568.69 211.4 563.35 223.32 546.56 231.36 530.78 237.64 514.57 245.75 484.04 255.37 483.01 281.71 477.81 310.86 467.08 317.72 463.99 316.08 473.14 313.75 485.77 310.86 504.45 311.19 512.62 317.72 520.34 323.98 525.25 331.75 528.87 338.83 528.87 347.47 527.72 356.38 525.87 365.42 523.24 374.23 519.67 380.64 516.2 388.02 510.4 392.88 501.39 394.41 494.82 395.71 484.56 395.71 470.39 395.71 450.23 394.05 425.15 390.35 392.43 389.5 378.31 382.11 347.76 372.24 313.33 360.26 285.91 346.47 264.54 351.78 244.93 355.6 224.86 359.45 182.44 360.26 124.67 360.26 100.96 358.23 75.52 353.12 61.46 343.33 50.19 336.58 46.11 322.37 43.6 315.24 45.66 302.72 57.44 299.72 67.71 299.47 91.43 286.52 243.18"/>
      <path class="cls-6" d="M301.78,81.52c-1.24-7.47-1.46-15.72,1.92-22.7s10.09-12.19,17.54-13.56c7.83-1.44,16.04,1.86,22.04,6.77,7.15,5.86,11.2,14.05,13.29,22.93,2.31,9.84,2.27,20.04,2.15,30.09s-.1,20.69-.09,31.04c.02,21.08-.05,42.2-1.67,63.23s-4.75,41.5-11.04,61.39c-.76,2.39-1.56,4.77-2.4,7.13-.65,1.82,2.25,2.6,2.89,.8,7.29-20.36,11.06-41.77,13.04-63.25s2.18-43.79,2.18-65.7c0-10.82-.05-21.64,.07-32.46s.27-20.79-1.78-30.98c-1.88-9.35-5.79-18.4-12.9-24.94-6.14-5.64-14.39-9.65-22.87-9.35s-15.99,5.01-20.75,11.55c-4.65,6.39-5.83,14.55-5.3,22.27,.15,2.19,.44,4.38,.8,6.55,.32,1.9,3.21,1.09,2.89-.8h0Z"/>
      <path class="cls-6" d="M351.54,431.23c-6.57,9.76-15.09,18.08-24.73,24.8-9.17,6.4-19.26,11.42-29.73,15.32-9.36,3.49-19.04,6.11-28.84,8.04-7.34,1.44-14.76,2.5-22.21,3.12-3.38,.28-6.77,.35-10.15,.54-.05,0-.09,0-.14,0-1.93,0-1.93,3,0,3,2.85,0,5.7-.19,8.54-.4,7.29-.55,14.56-1.5,21.75-2.8,9.76-1.77,19.41-4.22,28.78-7.5,10.66-3.73,21.01-8.52,30.49-14.69,10.04-6.54,19.03-14.61,26.21-24.22,.9-1.21,1.77-2.44,2.61-3.69,1.08-1.61-1.52-3.11-2.59-1.51h0Z"/>
      <path class="cls-6" d="M345.41,265.6c15.71,20.22,25.25,44.52,31.89,69.05,7.15,26.47,11.68,53.81,14.4,81.07,1.49,14.89,2.35,29.84,2.49,44.8,.06,6.78-.06,13.56-.24,20.34-.14,5.26-.32,10.56-1.37,15.73-.99,4.87-2.76,9.74-6.22,13.41-2.05,2.18-4.61,3.8-7.16,5.32-2.78,1.66-5.68,3.12-8.66,4.38-6.04,2.56-12.41,4.34-18.82,5.68-5.8,1.21-11.94,2.59-17.88,1.7-9.68-1.45-18.26-8.42-20.78-18.02-1.41-5.4-.09-10.62,.88-15.98,1.13-6.25,2.31-12.5,3.45-18.75,.6-3.31,1.2-6.63,1.78-9.94,.33-1.89-2.56-2.7-2.89-.8-1.18,6.69-2.41,13.38-3.65,20.06-.62,3.34-1.23,6.68-1.83,10.02-.54,3.02-1.29,6.09-1.41,9.17-.41,10.04,5.81,19.47,14.54,24.1,4.9,2.6,10.5,3.73,16.02,3.36,3.25-.22,6.5-.85,9.69-1.45s6.65-1.36,9.92-2.24c6.5-1.76,12.88-4.12,18.81-7.35,5.19-2.82,10.17-6.12,13.25-11.3,5.53-9.32,5.19-21.02,5.45-31.49,.39-15.37-.01-30.75-1.11-46.08-2.07-28.99-6.4-57.98-13.16-86.25-6.1-25.55-14.82-51.07-29.66-72.96-1.78-2.63-3.66-5.19-5.61-7.69-1.18-1.52-3.29,.61-2.12,2.12h0Z"/>
      <path class="cls-6" d="M132.18,347.76c-3.21,28.39-5.37,56.9-6.14,85.46-.76,28.34-.13,56.71,1.97,84.99,.53,7.07,1.14,14.14,1.85,21.2,.65,6.44,1.05,13.13,3.23,19.27,3.7,10.43,13.41,19.1,24.6,20.29,2.55,.27,5.16,.17,7.72,.15s5.18-.08,7.76-.22c5.21-.28,10.44-.87,15.53-2.02,9.96-2.25,19.48-6.95,25.99-15.01,7.77-9.63,13.82-20.71,18.69-32.04,4.95-11.52,8.73-23.52,11.65-35.71,.77-3.22,1.48-6.45,2.14-9.69,.39-1.88-2.51-2.69-2.89-.8-4.93,24.15-12.7,48.29-26.51,68.92-3.04,4.55-6.26,9.04-10.5,12.55-3.81,3.15-8.3,5.47-12.96,7.07-9.48,3.27-19.64,3.91-29.6,3.93-2.44,0-4.96,.12-7.39-.2-2.71-.35-5.35-1.26-7.76-2.54-4.71-2.49-8.7-6.34-11.42-10.91-3.19-5.36-4.07-11.65-4.73-17.75-.74-6.87-1.38-13.74-1.94-20.62-2.26-27.65-3.1-55.41-2.61-83.14,.5-27.66,2.32-55.29,5.18-82.8,.36-3.47,.74-6.93,1.13-10.39,.22-1.92-2.79-1.9-3,0h0Z"/>
      <g>
        <path class="cls-3" d="M63.21,158.55l24.02-57.07c-.07-7.42,2.95-14.22,7.58-19.91,5.01-6.17,12.32-8.67,17.49-14.62,12.48-14.37,33.24-21.09,50.96-26.08,16.16-4.55,39.74-12.67,56.15-7.77,20.24,6.05,39.02,14.44,57.01,25.32,6.8,4.11,11.01,11.33,16.45,16.95,5.45,5.64,11.97,10.26,17.23,16.02,6.03,4.29,14.15,6.56,21.47,6.74,6.78,.17,14.24-1.3,20.51,2.06,5.53,2.97,8.99,8.55,13.2,12.99,4.43,4.67,10.13,8.58,12.01,15.08,6.52,22.5-26.54,26.96-40.94,21.01l-.69-1.51c1.78,4.6,3.56,9.2,5.34,13.8,4.17,10.77,8.4,21.89,8.08,33.43-.27,9.89-4.23,19.53-10.6,27.06-6.4,7.56-16.98,10.36-21.87,18.97-2.41,4.25-3.82,8.98-5.85,13.43-9.02,19.74-35.65,41.6-58.35,40.6-7.51-.33-14.22-3.57-21.54-4.54-7.21-.95-14.51,.42-21.53,1.93-13.78,2.96-29.13,8.5-42.84,2.28-8.32-3.77-14.43-11.45-22.84-15.04-7.91-3.37-16.85-2.74-25.44-2.96-17.05-.44-30.13-9.95-39.05-24.23-7.45-11.91-11.3-25.65-15.06-39.18-4.55-16.35-5.27-37.9-.85-54.77Z"/>
        <path class="cls-6" d="M64.66,158.95c2.63-6.25,5.26-12.49,7.89-18.74,4.28-10.16,8.55-20.32,12.83-30.48,1.05-2.5,2.3-4.99,3.18-7.56,.15-.44,.16-.68,.18-1.23,.08-2.48,.41-4.88,1.13-7.26,1.42-4.71,4.09-9.26,7.54-12.78,3.27-3.33,7.37-5.63,11.05-8.44s6.45-6.44,9.91-9.46c6.95-6.09,15.38-10.38,23.94-13.74s16.81-5.61,25.33-8.09,17.84-5.26,27-6.85c4.6-.8,9.28-1.31,13.96-1.24s8.82,.94,13.18,2.3c10.28,3.2,20.34,7.07,30.1,11.62,4.88,2.27,9.68,4.71,14.4,7.3s9.39,4.84,13.22,8.27c3.45,3.09,6.23,6.83,9.2,10.37,3.31,3.93,7.08,7.35,10.95,10.72,1.98,1.72,3.96,3.43,5.86,5.23s3.5,3.7,5.75,5.06c4.2,2.54,8.98,4.19,13.8,5.03s9.5,.61,14.32,.51c5.07-.11,10.01,.36,14.21,3.46,3.79,2.79,6.52,6.77,9.63,10.24,2.91,3.25,6.38,5.96,9.17,9.31,4.07,4.88,5.87,12.33,2.37,18.02-2.82,4.57-8.18,6.99-13.19,8.29-5.64,1.47-11.71,1.79-17.49,.96-2.51-.36-5-.96-7.35-1.92l.9,.69-.69-1.51c-.7-1.53-3.36-.43-2.74,1.16,3.34,8.62,6.94,17.19,9.79,25.99,2.66,8.22,4.49,16.96,3.15,25.61-1.2,7.76-4.64,15.25-9.74,21.22-4.43,5.18-10.73,8.09-15.97,12.31-2.58,2.08-4.82,4.53-6.42,7.45-2.08,3.8-3.4,7.94-5.12,11.91-2.62,6.06-6.42,11.56-10.79,16.5-9.29,10.51-21.6,19.56-35.33,23.1-3.05,.79-6.17,1.27-9.32,1.32-4.1,.06-8.05-.79-11.99-1.86s-7.86-2.24-11.93-2.74c-4.44-.54-8.92-.21-13.33,.45-8.39,1.25-16.52,3.73-24.84,5.34s-17.24,2.23-25.14-1.34c-6.88-3.11-12.11-8.77-18.45-12.72-7.07-4.4-15.08-5.27-23.24-5.39-4-.06-8.04,.08-12.01-.45-3.27-.43-6.49-1.27-9.56-2.46-6.32-2.44-11.91-6.54-16.52-11.47-11.09-11.88-16.22-27.83-20.55-43.14-2.18-7.7-3.93-15.36-4.64-23.35s-.67-16.29,.31-24.36c.46-3.76,1.16-7.48,2.11-11.14,.48-1.87-2.41-2.67-2.89-.8-4.08,15.78-3.93,32.91-.75,48.84,1.62,8.11,4.11,16.17,6.73,24s6.11,16.22,10.84,23.45c7.56,11.56,18.82,20.73,32.7,23.1,8.27,1.42,16.74,.1,25.01,1.58,4.09,.73,7.87,2.2,11.37,4.44,3.3,2.11,6.3,4.65,9.42,7.03s6.36,4.55,10.01,6.03c3.83,1.55,7.94,2.29,12.06,2.42,8.59,.27,17.03-1.96,25.31-3.94,8.75-2.09,18.03-4.42,27.06-2.97,8.17,1.31,15.75,4.84,24.18,4.42,14.14-.71,27.41-8.46,37.83-17.6,5.4-4.74,10.27-10.14,14.23-16.14,1.81-2.74,3.4-5.61,4.71-8.62,1.79-4.13,3.14-8.48,5.39-12.4,3.47-6.02,9.93-9.16,15.37-13.09,6.25-4.52,10.81-10.71,13.8-17.8,3.26-7.72,4.15-15.97,3.01-24.24-1.25-9.04-4.57-17.6-7.85-26.06-1.7-4.41-3.41-8.81-5.12-13.22l-2.74,1.16c.64,1.4,1.02,2.02,2.52,2.56,1.22,.44,2.47,.79,3.73,1.07,2.91,.64,5.91,.96,8.89,1.01,6.22,.11,12.6-.85,18.32-3.37,5.07-2.23,9.65-6.08,11.21-11.57,.85-2.98,.72-6.15,.02-9.14-1.02-4.39-3.6-7.95-6.72-11.11-3.3-3.34-6.66-6.48-9.69-10.09s-6.33-7.42-10.76-9.45c-4.66-2.14-9.85-2.06-14.87-1.89s-10.21,0-15.25-1.4c-2.57-.71-5.07-1.66-7.42-2.92-1.03-.54-2.16-1.11-3.06-1.85-1.09-.89-2.02-2.07-3.04-3.05-3.98-3.83-8.33-7.24-12.32-11.06-3.61-3.46-6.61-7.42-9.86-11.21s-6.96-6.84-11.33-9.42c-9.56-5.64-19.49-10.64-29.71-14.95-5.15-2.17-10.36-4.17-15.64-5.98-4.78-1.64-9.65-3.45-14.68-4.16-9.43-1.34-19.12,.27-28.32,2.4s-18.08,4.87-27.05,7.48-18.15,5.64-26.68,9.81c-4.26,2.08-8.38,4.47-12.2,7.29s-6.93,6.11-10.23,9.48-7.74,5.85-11.56,8.83-7.12,7.01-9.4,11.46c-1.15,2.24-2.08,4.62-2.68,7.07-.28,1.13-.48,2.28-.62,3.44-.13,1.05,0,2.27-.16,3.26-.1,.57-.51,1.21-.73,1.74-3.8,9.03-7.6,18.05-11.4,27.08s-7.49,17.81-11.24,26.71c-.22,.51-.43,1.02-.65,1.54-.75,1.78,2.15,2.55,2.89,.8Z"/>
      </g>
      <path class="cls-6" d="M263.24,149.76c5.79,0,5.8-9,0-9s-5.8,9,0,9h0Z"/>
      <path class="cls-6" d="M197.54,160.05c5.79,0,5.8-9,0-9s-5.8,9,0,9h0Z"/>
      <path class="cls-6" d="M238.39,173.65c-1.01,.88-.92,2.51-.51,3.44,.55,1.25,1.86,2.22,3.21,3.03,1.05,.62,3.35,.8,4.72,.62,2.72-.35,4.49-2.41,5.1-4.19,.49-1.42,.46-2.94,.15-4.33-.05-.22-.11-.44-.31-.6-.28-.22-.74-.25-1.16-.27-1.84-.09-3.71-.17-5.56,.06-2.13,.26-4.02,.99-5.54,2.16-.03,.03-.06,.05-.09,.08Z"/>
      <path class="cls-6" d="M241.85,181.04c-.82,2.45-2.17,4.91-4.4,6.33-2.54,1.62-5.83,1.71-8.5,.34-1.71-.88-3.23,1.71-1.51,2.59,3.54,1.82,7.9,1.85,11.34-.23,3.03-1.83,4.86-4.96,5.96-8.24,.62-1.83-2.28-2.62-2.89-.8h0Z"/>
      <path class="cls-6" d="M246.4,181.4c.97,2.93,3.82,5.35,6.52,6.65,4.25,2.05,8.92,1.61,12.86-.95,1.61-1.05,.11-3.65-1.51-2.59-3.07,1.99-6.68,2.53-10.02,.86-1.28-.64-2.43-1.49-3.42-2.53-.45-.48-.65-.71-.97-1.19-.15-.22-.29-.45-.41-.69-.05-.11-.11-.21-.15-.32,.09,.21,.06,.13,0-.04-.6-1.82-3.5-1.04-2.89,.8h0Z"/>
      <g>
        <path class="cls-6" d="M205.11,135.68c-8.65-3.37-17.66-5.14-26.89-5.91-1.92-.16-1.91,2.84,0,3,8.96,.75,17.69,2.53,26.09,5.8,1.8,.7,2.58-2.2,.8-2.89h0Z"/>
        <path class="cls-6" d="M255.97,134.1c4.62-4.74,10.25-8.43,16.47-10.71,.76-.28,1.28-1.02,1.05-1.85-.2-.73-1.08-1.33-1.85-1.05-6.71,2.46-12.8,6.36-17.79,11.48-1.35,1.38,.77,3.51,2.12,2.12h0Z"/>
      </g>
      <g>
        <path class="cls-3" d="M189.71,303.84c-26.6-19.84-66.43-56.93-87.44-82.62-9.82-12.01-20.45-25.52-35.75-28.09-8.12-1.36-16.5,.68-23.98,4.13-8.56,3.95-16.56,10.12-20.29,18.77-7.72,17.9,4.99,37.53,17.02,52.87,26.35,33.59,69.16,81.33,110.77,90.87"/>
        <path class="cls-6" d="M190.47,302.54c-10.32-7.7-20.17-16.03-29.81-24.55-10.85-9.6-21.42-19.54-31.64-29.82-9.06-9.12-17.9-18.5-26.04-28.46s-17.63-22.08-30.83-26.69c-7.41-2.59-15.4-2.19-22.84,.05-7.01,2.11-13.78,5.6-19.34,10.37s-9.39,10.63-10.87,17.57-.31,14.65,2.28,21.46c5.2,13.66,14.83,25.2,23.96,36.4,8.84,10.85,18.07,21.39,27.86,31.4,10.17,10.4,20.95,20.25,32.63,28.92,10.79,8,22.48,15.08,35.21,19.52,2.82,.98,5.69,1.82,8.6,2.5,1.88,.44,2.68-2.46,.8-2.89-12.37-2.86-23.83-8.72-34.4-15.64-11.77-7.71-22.56-16.86-32.7-26.58s-19.72-20.13-28.83-30.87c-4.12-4.85-8.14-9.77-12.1-14.75-4.57-5.76-9.02-11.62-12.78-17.96-3.72-6.28-6.89-13.12-7.93-20.4s.42-14.1,4.39-19.98,9.59-9.83,15.65-12.84c7-3.48,14.91-5.73,22.78-4.94,13.82,1.39,23.95,12.55,32.31,22.59,3.92,4.71,7.77,9.48,11.84,14.06,4.29,4.84,8.72,9.56,13.22,14.2,9.78,10.08,19.92,19.81,30.32,29.25,9.76,8.85,19.74,17.47,30.11,25.6,2.19,1.72,4.39,3.41,6.62,5.07,1.55,1.16,3.04-1.45,1.51-2.59h0Z"/>
      </g>
      <path class="cls-8" d="M266.61,294.91c-9.14-11.83-22.36,8.04-25.09,14.76,0,0-7.76,16.47-7.76,16.47,.39-.83,17.38-3,19.32-3.76,8.57-3.35,15.61-10.07,15.74-19.85,.03-2.62-.49-5.35-2.06-7.44-.05-.06-.09-.12-.14-.18Z"/>
      <path class="cls-8" d="M263.55,297.18c-4.64-14.22,19.23-13.97,26.31-12.45,0,0,17.99,2.85,17.99,2.85-.91-.14-12.25,12.68-13.97,13.86-7.59,5.2-17.1,7.24-25.26,1.85-2.19-1.45-4.14-3.41-5-5.89-.03-.07-.05-.15-.07-.22Z"/>
      <g>
        <path class="cls-5" d="M185.95,188.56l-40.19,13.93c-5.1,1.77-7.8,7.34-6.03,12.44,1.77,5.1,7.34,7.8,12.44,6.03l40.19-13.93c5.1-1.77,7.8-7.34,6.03-12.44-1.77-5.1-7.34-7.8-12.44-6.03Z"/>
        <rect class="cls-1" x="155.85" y="197.69" width="26.42" height="14.14" rx="2.36" ry="2.36" transform="translate(-57.74 66.66) rotate(-19.12)"/>
      </g>
      <g>
        <path class="cls-5" d="M371.7,369.38l-39.93-14.64c-5.07-1.86-10.68,.74-12.54,5.81s.74,10.68,5.81,12.54l39.93,14.64c5.07,1.86,10.68-.74,12.54-5.81s-.74-10.68-5.81-12.54Z"/>
        <rect class="cls-1" x="335.16" y="364.17" width="26.42" height="14.14" rx="2.36" ry="2.36" transform="translate(149.05 -97.22) rotate(20.13)"/>
      </g>
      <g>
        <path class="cls-2" d="M282.73,26.94l1.61,5.3c17.15-4.19,36.24-3.2,38.53,4.35s-13,19.01-29.58,25.08l1.61,5.3c24.43-7.44,38.97-21.65,35.61-32.71-3.36-11.05-23.36-14.75-47.79-7.32Z"/>
        <path class="cls-7" d="M307.76,31.26c-.31-.63,.89-1.48,1.21-1.88,.8-.99,1.6-1.99,2.4-2.98,.45-.57,3.24-4.85,3.58-4.73,5.03,1.82,11.33,2.95,15.2,6.74,3.85,3.77,6.47,9.78,4.4,15.08-.85,2.18-2.28,4.07-3.81,5.84-2.19,2.54-4.62,4.87-7.24,6.95-1.29,1.02-2.68,2.27-4.16,3-.94,.47-.92,.13-1.42-.68-1.95-3.18-3.85-6.38-5.77-9.58-.22-.36-.43-.72-.65-1.09,2.09-1.4,4.03-3.15,5.9-4.81,1.53-1.36,3.49-3.16,3.25-5.42-.14-1.35-1.12-2.5-2.28-3.2s-2.51-1.02-3.84-1.34c-1.95-.46-3.89-.92-5.84-1.38-.32-.08-.66-.17-.86-.42-.02-.03-.05-.06-.06-.1Z"/>
      </g>
      <path class="cls-2" d="M69.16,41.38c-8.18,2.56-16.52,5.49-22.51,10.51-5.99,5.02-9.03,12.69-5.02,18.5,2.79,4.05,8.45,6.57,11.12,10.67,7.34,11.22-11.29,25.81-4.14,37.11,2.09,3.3,6.05,5.59,9.18,8.34,3.13,2.75,5.53,6.62,3.67,10.1-.67,1.27-1.86,2.36-2.52,3.62-1.89,3.6,1.07,7.75,5.44,9.5,4.37,1.75,9.69,1.61,14.67,1,16-1.96,30.65-8.25,46.04-12.37,45.77-12.23,99.18-5.57,139.67-26.36,1.67-.86,3.34-1.78,4.5-3.04,1.34-1.45,1.89-3.22,2.64-4.89,5.49-12.27,22.03-20.24,28.4-32.28,1.01-1.91,1.75-3.98,1.32-5.97-.59-2.71-3.22-4.79-5.31-6.98-5.05-5.27-7.43-12.04-6.58-18.68,.58-4.57,1.59-10.68-3.98-12.21-1.8-.49-3.81-.27-5.73-.08-10.67,1.07-23.05,.39-29.28-6.09-2.9-3.01-3.99-6.85-6.48-10.07-4.78-6.19-14.34-9.44-23.83-10.08-25.64-1.72-50.05,12.18-73.78,18.78-25.75,7.16-52.07,13-77.48,20.95Z"/>
      <g>
        <path class="cls-2" d="M68.66,135.16l-1.37-4.49c-21.01,5.52-43.77,6.69-45.72,.29-1.95-6.4,17.61-18.11,38.13-25.23l-1.37-4.49c-30.07,9.16-49.02,23.22-46.17,32.59,2.85,9.37,26.42,10.49,56.5,1.33Z"/>
        <path class="cls-7" d="M39.11,134.03c.31,.52-1.22,1.4-1.65,1.78-1.07,.96-2.13,1.92-3.2,2.88-.61,.55-4.4,4.61-4.79,4.54-5.84-1.06-13.27-1.39-17.5-4.3-4.21-2.9-6.71-7.92-3.66-12.8,1.25-2.01,3.17-3.83,5.19-5.55,2.9-2.47,6.06-4.78,9.43-6.89,1.65-1.04,3.46-2.28,5.31-3.08,1.18-.51,1.12-.22,1.63,.45,1.99,2.59,3.94,5.21,5.89,7.81,.22,.3,.44,.59,.66,.89-2.65,1.46-5.16,3.2-7.59,4.87-1.98,1.36-4.52,3.15-4.47,5.11,.02,1.18,1.07,2.08,2.39,2.58s2.9,.63,4.45,.77c2.28,.2,4.57,.4,6.85,.59,.37,.03,.77,.08,.99,.28,.03,.03,.05,.05,.06,.08Z"/>
      </g>
      <g>
        <path class="cls-3" d="M79.21,119.56c-4.07,2.99-8.3,5.92-13.11,7.47-8.56,2.76-17.23-2.09-25.83-3.18-13.5-1.72-21.83-11.28-18.27-24.57,.93-3.49,2.06-6.96,3.81-10.12,4.71-8.51,14.09-14.24,23.82-14.54,3.77-.12,7.52,.52,11.21,1.26,9.29,1.87,18.47,4.42,27.89,5.42,9.42,1,19.29,.35,27.77-3.88l-37.29,42.14Z"/>
        <path class="cls-6" d="M78.45,118.27c-5.12,3.75-10.89,7.97-17.5,8.1s-12.38-2.59-18.56-3.7c-2.61-.47-5.18-.77-7.7-1.65-2.08-.73-4.09-1.76-5.84-3.12-3.25-2.52-5.45-6.17-6.02-10.26-.32-2.3-.15-4.67,.36-6.92,.7-3.13,1.71-6.3,3.09-9.2,2.38-4.97,6.19-9.05,10.96-11.8,5.09-2.94,10.79-4.01,16.62-3.45,6.83,.65,13.56,2.6,20.24,4.04,14.22,3.06,29.6,5.07,43.15-1.6l-1.82-2.36c-4.21,4.75-8.41,9.51-12.62,14.26-6.7,7.57-13.39,15.14-20.09,22.7-1.53,1.73-3.05,3.45-4.58,5.18-1.28,1.44,.84,3.57,2.12,2.12,4.21-4.75,8.41-9.51,12.62-14.26,6.7-7.57,13.39-15.14,20.09-22.7,1.53-1.73,3.05-3.45,4.58-5.18,1.14-1.29-.27-3.11-1.82-2.36-12.75,6.27-27.49,4.17-40.84,1.3-7.1-1.53-14.25-3.58-21.51-4.19-6.04-.5-12.05,.75-17.34,3.72-4.98,2.79-9.21,6.99-11.86,12.05-1.56,2.98-2.64,6.2-3.52,9.44-.69,2.53-1.1,5.15-.97,7.77,.23,4.6,2.06,8.96,5.3,12.25,3.41,3.47,8.06,5.56,12.79,6.49,1.69,.33,3.41,.5,5.1,.85,1.81,.38,3.6,.87,5.39,1.35,3.59,.97,7.23,1.96,10.96,2.17,7.91,.45,14.62-4,20.73-8.48,1.54-1.13,.05-3.73-1.51-2.59Z"/>
      </g>
      <path class="cls-9" d="M85.59,59.57c16,8.09,36.17,7.23,51.42-2.18,6.28-3.88,12.87-9.34,20.08-7.75"/>
      <path class="cls-9" d="M238.17,63.55c11.39,.47,22.87-1.03,33.75-4.42,6.52-2.03,14.88-5.13,21.57-3.77"/>
    </g>
  </g>
</svg>