<?xml version="1.0" encoding="UTF-8"?>
<svg id="_레이어_2" data-name="레이어 2" xmlns="http://www.w3.org/2000/svg" viewBox="0 0 391.66 469.81">
  <defs>
    <style>
      .cls-1, .cls-2, .cls-3, .cls-4, .cls-5, .cls-6, .cls-7, .cls-8, .cls-9 {
        stroke: #444;
      }

      .cls-1, .cls-3, .cls-4, .cls-6 {
        stroke-miterlimit: 10;
      }

      .cls-1, .cls-4, .cls-5, .cls-6, .cls-7, .cls-8, .cls-9 {
        stroke-width: 3px;
      }

      .cls-1, .cls-9 {
        fill: none;
      }

      .cls-10, .cls-6, .cls-8 {
        fill: #fff;
      }

      .cls-11 {
        fill: #444;
      }

      .cls-2, .cls-3 {
        stroke-width: 2px;
      }

      .cls-2, .cls-5 {
        fill: #e33b25;
      }

      .cls-2, .cls-5, .cls-7, .cls-8, .cls-9 {
        stroke-linecap: round;
        stroke-linejoin: round;
      }

      .cls-3 {
        fill: #fc0;
      }

      .cls-4 {
        fill: #24a6fd;
      }

      .cls-7 {
        fill: #45ca8d;
      }
    </style>
  </defs>
  <g id="_레이어_1-2" data-name="레이어 1">
    <g>
      <path class="cls-6" d="M52.29,415.95c-.37,2.8,.02,6.01,2.21,7.86,.88,.74,1.99,1.21,2.78,2.04,.8,.84,1.2,1.96,1.7,3,3.47,7.21,13.28,10.67,20.44,7.22,1.27-.61,2.45-1.41,3.74-1.99,1.34-.61,2.79-1,4.16-1.54,8.44-3.33,13.49-13.29,11.21-22.08,4.33-5.89,7.81-13.84,4.29-20.36-2.31-4.27-7.01-6.66-11.55-8.46-2.1-.83-4.26-1.61-6.03-3-1.19-.94-2.16-2.12-3.29-3.12-3.81-3.4-9.48-4.6-14.29-3.03-4.81,1.58-8.56,5.87-9.46,10.81-.17,.95-.25,1.94-.66,2.82-.47,1-1.32,1.76-2.07,2.57-3.41,3.65-5.04,8.97-4.39,13.94,.28,2.11,1.73,3.9,2.03,5.8,.41,2.58-.49,4.95-.83,7.53Z"/>
      <polygon class="cls-10" points="122.61 234.75 104.95 253.51 92.46 300.78 83.59 347.88 81.03 382.68 81.03 400.66 87.69 426.87 96.56 443.55 107.45 455.4 123.22 464.54 135.41 468.31 146.3 468.21 165.11 468.24 189.66 467.63 220.46 465.98 248.26 463.64 288.8 458.77 309.77 454.32 316.43 450.09 319.99 445.54 322.95 437.13 324.11 424.74 324.35 419.77 338.44 418.1 347.01 415.48 352.42 412.87 355.15 409.29 355.61 396.64 351.79 382.43 343.01 370.49 331.43 364.56 273.35 363.8 248.47 336.09 198.05 281.26 226.32 227.12 122.61 234.75"/>
      <g>
        <g>
          <path class="cls-10" d="M30.55,128.48l24.02-57.07c-.07-7.42,2.95-14.22,7.58-19.91,5.01-6.17,12.32-8.67,17.49-14.62,12.48-14.37,33.24-21.09,50.96-26.08,16.16-4.55,39.74-12.67,56.15-7.77,20.24,6.05,39.02,14.44,57.01,25.32,6.8,4.11,11.01,11.33,16.45,16.95,5.45,5.64,11.97,10.26,17.23,16.02,6.03,4.29,14.15,6.56,21.47,6.74,6.78,.17,14.24-1.3,20.51,2.06,5.53,2.97,8.99,8.55,13.2,12.99,4.43,4.67,10.13,8.58,12.01,15.08,6.52,22.5-26.54,26.96-40.94,21.01l-.69-1.51c1.78,4.6,3.56,9.2,5.34,13.8,4.17,10.77,8.4,21.89,8.08,33.43-.27,9.89-4.23,19.53-10.6,27.06-6.4,7.56-16.98,10.36-21.87,18.97-2.41,4.25-3.82,8.98-5.85,13.43-9.02,19.74-35.65,41.6-58.35,40.6-7.51-.33-14.22-3.57-21.54-4.54-7.21-.95-14.51,.42-21.53,1.93-13.78,2.96-29.13,8.5-42.84,2.28-8.32-3.77-14.43-11.45-22.84-15.04-7.91-3.37-16.85-2.74-25.44-2.96-17.05-.44-30.13-9.95-39.05-24.23-7.45-11.91-11.3-25.65-15.06-39.18-4.55-16.35-5.27-37.9-.85-54.77Z"/>
          <path class="cls-11" d="M32,128.88c2.63-6.25,5.26-12.49,7.89-18.74,4.28-10.16,8.55-20.32,12.83-30.48,1.05-2.5,2.3-4.99,3.18-7.56,.15-.44,.16-.68,.18-1.23,.08-2.48,.41-4.88,1.13-7.26,1.42-4.71,4.09-9.26,7.54-12.78,3.27-3.33,7.37-5.63,11.05-8.44s6.45-6.44,9.91-9.46c6.95-6.09,15.38-10.38,23.94-13.74s16.81-5.61,25.33-8.09c8.91-2.59,17.84-5.26,27-6.85,4.6-.8,9.28-1.31,13.96-1.24s8.82,.94,13.18,2.3c10.28,3.2,20.34,7.07,30.1,11.62,4.88,2.27,9.68,4.71,14.4,7.3s9.39,4.84,13.22,8.27c3.45,3.09,6.23,6.83,9.2,10.37,3.31,3.93,7.08,7.35,10.95,10.72,1.98,1.72,3.96,3.43,5.86,5.23s3.5,3.7,5.75,5.06c4.2,2.54,8.98,4.19,13.8,5.03,4.78,.84,9.5,.61,14.32,.51,5.07-.11,10.01,.36,14.21,3.46,3.79,2.79,6.52,6.77,9.63,10.24,2.91,3.25,6.38,5.96,9.17,9.31,4.07,4.88,5.87,12.33,2.37,18.02-2.82,4.57-8.18,6.99-13.19,8.29-5.64,1.47-11.71,1.79-17.49,.96-2.51-.36-5-.96-7.35-1.92l.9,.69-.69-1.51c-.7-1.53-3.36-.43-2.74,1.16,3.34,8.62,6.94,17.19,9.79,25.99,2.66,8.22,4.49,16.96,3.15,25.61-1.2,7.76-4.64,15.25-9.74,21.22-4.43,5.18-10.73,8.09-15.97,12.31-2.58,2.08-4.82,4.53-6.42,7.45-2.08,3.8-3.4,7.94-5.12,11.91-2.62,6.06-6.42,11.56-10.79,16.5-9.29,10.51-21.6,19.56-35.33,23.1-3.05,.79-6.17,1.27-9.32,1.32-4.1,.06-8.05-.79-11.99-1.86s-7.86-2.24-11.93-2.74c-4.44-.54-8.92-.21-13.33,.45-8.39,1.25-16.52,3.73-24.84,5.34s-17.24,2.23-25.14-1.34c-6.88-3.11-12.11-8.77-18.45-12.72-7.07-4.4-15.08-5.27-23.24-5.39-4-.06-8.04,.08-12.01-.45-3.27-.43-6.49-1.27-9.56-2.46-6.32-2.44-11.91-6.54-16.52-11.47-11.09-11.88-16.22-27.83-20.55-43.14-2.18-7.7-3.93-15.36-4.64-23.35s-.67-16.29,.31-24.36c.46-3.76,1.16-7.48,2.11-11.14,.48-1.87-2.41-2.67-2.89-.8-4.08,15.78-3.93,32.91-.75,48.84,1.62,8.11,4.11,16.17,6.73,24,2.74,8.17,6.11,16.22,10.84,23.45,7.56,11.56,18.82,20.73,32.7,23.1,8.27,1.42,16.74,.1,25.01,1.58,4.09,.73,7.87,2.2,11.37,4.44,3.3,2.11,6.3,4.65,9.42,7.03s6.36,4.55,10.01,6.03c3.83,1.55,7.94,2.29,12.06,2.42,8.59,.27,17.03-1.96,25.31-3.94,8.75-2.09,18.03-4.42,27.06-2.97,8.17,1.31,15.75,4.84,24.18,4.42,14.14-.71,27.41-8.46,37.83-17.6,5.4-4.74,10.27-10.14,14.23-16.14,1.81-2.74,3.4-5.61,4.71-8.62,1.79-4.13,3.14-8.48,5.39-12.4,3.47-6.02,9.93-9.16,15.37-13.09,6.25-4.52,10.81-10.71,13.8-17.8,3.26-7.72,4.15-15.97,3.01-24.24-1.25-9.04-4.57-17.6-7.85-26.06-1.7-4.41-3.41-8.81-5.12-13.22l-2.74,1.16c.64,1.4,1.02,2.02,2.52,2.56,1.22,.44,2.47,.79,3.73,1.07,2.91,.64,5.91,.96,8.89,1.01,6.22,.11,12.6-.85,18.32-3.37,5.07-2.23,9.65-6.08,11.21-11.57,.85-2.98,.72-6.15,.02-9.14-1.02-4.39-3.6-7.95-6.72-11.11-3.3-3.34-6.66-6.48-9.69-10.09s-6.33-7.42-10.76-9.45c-4.66-2.14-9.85-2.06-14.87-1.89s-10.21,0-15.25-1.4c-2.57-.71-5.07-1.66-7.42-2.92-1.03-.54-2.16-1.11-3.06-1.85-1.09-.89-2.02-2.07-3.04-3.05-3.98-3.83-8.33-7.24-12.32-11.06-3.61-3.46-6.61-7.42-9.86-11.21s-6.96-6.84-11.33-9.42c-9.56-5.64-19.49-10.64-29.71-14.95-5.15-2.17-10.36-4.17-15.64-5.98-4.78-1.64-9.65-3.45-14.68-4.16-9.43-1.34-19.12,.27-28.32,2.4-9.11,2.11-18.08,4.87-27.05,7.48-9.1,2.64-18.15,5.64-26.68,9.81-4.26,2.08-8.38,4.47-12.2,7.29s-6.93,6.11-10.23,9.48-7.74,5.85-11.56,8.83-7.12,7.01-9.4,11.46c-1.15,2.24-2.08,4.62-2.68,7.07-.28,1.13-.48,2.28-.62,3.44-.13,1.05,0,2.27-.16,3.26-.1,.57-.51,1.21-.73,1.74-3.8,9.03-7.6,18.05-11.4,27.08s-7.49,17.81-11.24,26.71l-.65,1.54c-.75,1.78,2.15,2.55,2.89,.8Z"/>
        </g>
        <g>
          <path class="cls-10" d="M101.64,82.05c-9.44,.86-18.86-2.14-27.27-6.5-8.41-4.36-16.03-10.08-24-15.2-3.17-2.04-6.43-4-9.98-5.26-9.17-3.26-19.99-1.35-27.48,4.86-2.78,2.31-5.09,5.13-7.24,8.04-8.16,11.08-3.88,23.02,8.07,29.54,7.61,4.15,13.92,11.83,22.89,12.38,5.04,.31,10.05-.89,14.93-2.19"/>
          <path class="cls-11" d="M101.64,80.55c-14.27,1.2-27.19-6.01-38.68-13.61-5.69-3.77-11.23-7.94-17.28-11.13-5.55-2.92-11.66-4.32-17.93-3.6-5.9,.68-11.51,2.98-16.07,6.82-2.48,2.09-4.57,4.58-6.53,7.16-1.78,2.35-3.3,4.83-4.22,7.64-1.6,4.87-1.11,10.14,1.28,14.66,2.63,4.96,7,8.09,11.72,10.87,5.45,3.21,10.03,7.84,15.89,10.36,7.15,3.07,14.9,1.36,22.13-.56,1.86-.49,1.07-3.39-.8-2.89-6.09,1.62-12.82,3.36-18.99,1.17-5.03-1.78-9.15-5.51-13.45-8.53s-9.29-5.18-12.52-9.68c-2.7-3.77-3.89-8.39-2.84-12.96,1.26-5.47,5.28-10.37,9.3-14.11s9.48-6.28,15.08-6.94c5.92-.7,11.6,.59,16.81,3.4,5.76,3.1,11.06,7.05,16.5,10.66,12.02,7.97,25.64,15.54,40.58,14.28,1.91-.16,1.93-3.16,0-3h0Z"/>
        </g>
        <path class="cls-5" d="M226.13,168.81c.71-.97-.7-2.28-1.34-3.29-1.92-2.99-4.25-5.77-7.18-7.78s-6.5-3.21-10.04-2.88c0,0-8.98,6.86-17.9,5.51,0,0-2.02,4.36,14.66,11.89,0,0,15.64,4.98,21.81-3.45Z"/>
        <g>
          <path class="cls-11" d="M205.73,143.59c-1.01,.88-.92,2.51-.51,3.44,.55,1.25,1.86,2.22,3.21,3.03,1.05,.62,3.35,.8,4.72,.62,2.72-.35,4.49-2.41,5.1-4.19,.49-1.42,.46-2.94,.15-4.33-.05-.22-.11-.44-.31-.6-.28-.22-.74-.25-1.16-.27-1.84-.09-3.71-.17-5.56,.06-2.13,.26-4.02,.99-5.54,2.16-.03,.03-.06,.05-.09,.08Z"/>
          <path class="cls-11" d="M210.48,149.69c-5.37,8.09-16.71,10.7-25.76,8.48-1.87-.46-2.67,2.43-.8,2.89,10.43,2.56,23.01-.61,29.15-9.86,1.07-1.61-1.53-3.12-2.59-1.51h0Z"/>
          <path class="cls-11" d="M212.87,150.57c1.2,3.55,6.11,5.21,9.38,5.85,7.19,1.42,14.51-.45,20.96-3.67,1.73-.86,.21-3.45-1.51-2.59-5.59,2.79-12.1,4.57-18.37,3.42-1.91-.35-3.8-.93-5.48-1.93-.61-.36-.98-.61-1.47-1.09-.09-.09-.55-.65-.38-.4-.07-.11-.15-.22-.21-.34-.17-.35,.06,.22-.03-.05-.61-1.82-3.51-1.04-2.89,.8h0Z"/>
          <path class="cls-1" d="M186.52,160.37s31.29,34.94,53.81-7.92"/>
        </g>
      </g>
      <g>
        <circle class="cls-4" cx="297.15" cy="272.16" r="92.92"/>
        <path class="cls-7" d="M213.35,234.27c-.73,3.2,6.15,2.35,7.33,5.41s1.16,6.43,1.79,9.65c1.12,5.66,4.37,10.87,8.96,14.36,2.05,1.56,4.46,2.92,5.51,5.26,1.21,2.72,.21,5.85-.54,8.74-1.31,5.1-1.66,10.86,1.15,15.31,3.75,5.94,11.64,7.56,17,12.09,.78,.66,1.53,1.41,1.95,2.35,.39,.86,.47,1.82,.51,2.76,.22,5.52-1,11.29,.99,16.45,1.19,3.08,3.45,5.7,4.35,8.88,1.06,3.76,.09,7.82,.91,11.64,.16,.74,.4,1.49,.95,2.01,.61,.59,1.48,.78,2.31,.95,2.67,.55,5.72,1.03,7.9-.62,3.96-2.99,1.35-9.38,2.8-14.13,1.22-4,5.29-6.51,6.95-10.35,1.2-2.78,1-5.93,1.37-8.93s1.67-6.28,4.49-7.37c1.71-.67,3.8-.44,5.2-1.62,.75-.63,1.16-1.55,1.56-2.44,1.92-4.34,3.85-8.67,5.77-13.01,1.07-2.42,2.13-5.31,.77-7.58-1.55-2.6-5.22-2.72-8.22-2.35-3,.37-6.49,.77-8.63-1.38-1.01-1.02-1.51-2.44-2.44-3.53-2.01-2.34-5.46-2.61-8.52-3s-6.58-1.49-7.57-4.41c-.38-1.11-.31-2.35-.75-3.43-.77-1.91-2.85-2.91-4.81-3.55-5.25-1.73-10.93-2.23-15.85-4.74s-9.03-8.05-7.38-13.33c1.73-5.51,8.36-7.54,14.07-8.41,3.26-.5,6.55-.9,9.77-1.63,3.31-.75,6.54-1.86,9.66-3.2,3.29-1.41,6.59-3.19,8.66-6.12s2.51-7.27,.14-9.96c-1.65-1.88-4.21-2.58-6.52-3.55s-4.7-2.62-5.01-5.1c-.15-1.2,.22-2.39,.25-3.6,.06-2.61-1.53-5.04-3.59-6.64s-4.56-2.53-7.01-3.42c-2.95-1.08-3.58-1.81-6.71-2.09,0,0-10.11,4.71-17.56,12.16,0,0-18.34,15.57-21.96,31.47Z"/>
        <path class="cls-7" d="M305.39,180.73c3.83,.88-1.01,8.19-3.76,11-1.59,1.62-4.14,2.14-5.5,3.97-.34,.46-.59,.99-.91,1.48-1.62,2.5-4.94,3.6-7.84,2.97s-5.34-2.79-6.73-5.42c-.61-1.16-1.05-2.4-1.73-3.52-1.9-3.1-5.62-4.99-6.82-8.42,0,0,18.47-5.46,33.29-2.05Z"/>
        <path class="cls-7" d="M368.28,332.08c-1.77,1.75-2.2-4.7-4.41-5.82-.72-.36-1.51-.56-2.26-.85-5.18-1.99-7.82-7.8-8.78-13.26s-.79-11.19-2.79-16.37c-2.14-5.57-6.77-10.81-5.53-16.65,.37-1.75,1.26-3.35,2.31-4.79,4.07-5.62,10.43-9.09,16.75-11.95,1.48-.67,3.08-1.41,3.85-2.84,.55-1.03,.56-2.24,.57-3.41,.02-3.67,.04-7.33,.05-11,.01-2.73-.3-6.03-2.74-7.25-3.12-1.56-6.43,1.65-9.83,2.42-3.26,.74-6.54-.84-9.65-2.08-4.63-1.85-9.52-3.03-14.49-3.48-2.39-.22-5.24-.54-6.33-2.67-1.55-3.01,1.8-6.08,3.21-9.17,2.12-4.65-.35-10.29,1.24-15.15,.62-1.9,1.84-3.59,2.2-5.56,.48-2.6-.63-5.22-.7-7.86-.07-2.84,1.13-5.7,3.22-7.63,0,0,26.62,13.49,36,27.98,0,0,14.9,19.42,17.31,35.63,0,0,6.93,23.63-1.53,49.28,0,0-6.47,21.4-17.67,32.49Z"/>
      </g>
      <path class="cls-9" d="M167.44,115.05c-1.89,4.77-5.72,8.74-10.42,10.8-3.34,1.47-7.02,1.97-10.66,2.3-3.95,.36-8.4,.35-11.27-2.38"/>
      <path class="cls-9" d="M220.03,109.19c1.77,2.12,4.23,3.64,6.92,4.28,4.6,1.1,9.39-.37,13.89-1.83"/>
      <path class="cls-8" d="M137.32,274.89c34.7-4.38,93.37-32.64,128.07-37.02,2.62-.33,5.4-.64,7.8,.47,1.9,.88,3.31,2.56,4.47,4.3,9.48,14.27,4.69,34.55-6.9,47.15-11.6,12.6-28.36,19.02-44.86,23.64-27.35,7.66-55.75,11.55-84.15,11.51"/>
      <g>
        <path class="cls-9" d="M106.26,248.82c-11.73,41.85-23.54,84.18-25.08,127.62-.62,17.43,.51,35.26,6.91,51.49,6.4,16.22,18.71,30.76,35.13,36.62,10.03,3.58,20.91,3.78,31.56,3.77,47.11-.06,94.22-3.58,140.81-10.53,7.82-1.17,16.24-2.74,21.65-8.51,5.95-6.33,6.56-15.85,6.85-24.53,.52-15.71-.77-34.74-14.65-42.12-5.72-3.04-12.45-3.3-18.93-3.49-19.09-.56-38.19-1.12-57.28-1.68"/>
        <path class="cls-9" d="M268.6,361.16c.77,5.91,.56,10.38,.64,16.35"/>
        <path class="cls-9" d="M306.62,364.62c7.8-1.04,15.82-1.33,23.46,.53,12.48,3.04,21.55,11.78,23.98,24.5,.94,4.95,1.05,10.02,1.09,15.07,.02,1.73,.02,3.51-.55,5.14-2,5.72-11.47,6.36-16.41,7.6-4.52,1.14-9.2,1.81-13.83,2.31"/>
      </g>
      <g>
        <path class="cls-2" d="M377.41,193.31c0,6.85-12.91,29.16-12.91,29.16,0,0-12.91-22.31-12.91-29.16s6.06-12.97,12.91-12.97,12.91,6.12,12.91,12.97Z"/>
        <circle class="cls-3" cx="364.5" cy="192.26" r="7.31"/>
      </g>
      <g>
        <path class="cls-2" d="M302.92,216.69c0,6.85-12.91,29.16-12.91,29.16,0,0-12.91-22.31-12.91-29.16s6.06-12.97,12.91-12.97,12.91,6.12,12.91,12.97Z"/>
        <circle class="cls-3" cx="290.01" cy="215.64" r="7.31"/>
      </g>
      <g>
        <path class="cls-2" d="M295.61,309.23c0,6.85-12.91,29.16-12.91,29.16,0,0-12.91-22.31-12.91-29.16s6.06-12.97,12.91-12.97,12.91,6.12,12.91,12.97Z"/>
        <circle class="cls-3" cx="282.7" cy="308.18" r="7.31"/>
      </g>
    </g>
  </g>
</svg>