<?xml version="1.0" encoding="UTF-8"?>
<svg id="_레이어_2" data-name="레이어 2" xmlns="http://www.w3.org/2000/svg" viewBox="0 0 609.62 676.31">
  <defs>
    <style>
      .cls-1 {
        fill: #f3e8d7;
      }

      .cls-2, .cls-3, .cls-4 {
        fill: #fff;
      }

      .cls-5 {
        fill: #fcb038;
      }

      .cls-6 {
        fill: #33393a;
      }

      .cls-7, .cls-8 {
        fill: #444;
      }

      .cls-9 {
        fill: #1b81a5;
      }

      .cls-10 {
        fill: #464c50;
      }

      .cls-11 {
        fill: #2a2f33;
      }

      .cls-12 {
        fill: #875127;
      }

      .cls-12, .cls-3, .cls-8, .cls-13, .cls-4, .cls-14, .cls-15 {
        stroke: #444;
        stroke-width: 3px;
      }

      .cls-12, .cls-8, .cls-13, .cls-4, .cls-14, .cls-15 {
        stroke-linecap: round;
        stroke-linejoin: round;
      }

      .cls-3 {
        stroke-miterlimit: 10;
      }

      .cls-13 {
        fill: #63a366;
      }

      .cls-14 {
        fill: #ffca00;
      }

      .cls-15 {
        fill: none;
      }
    </style>
  </defs>
  <g id="_레이어_1-2" data-name="레이어 1">
    <g>
      <g>
        <path class="cls-4" d="M74.32,342.24c-1.51,3.57-3.06,7.38-2.44,11.21,.56,3.46,2.79,6.39,5.03,9.08,3.48,4.2,7.25,8.34,12.09,10.84s11,3.1,15.63,.22c3.16-1.97,5.23-5.25,7.18-8.42"/>
        <path class="cls-12" d="M426.89,531.76c-3.46-18.37-8.38-37.4-21.01-51.17-10.12-11.04-24.14-17.53-37.89-23.46-45.22-19.51-91.75-35.97-139.18-49.22-64.4-17.99-135.38-33-178.41-84.18-12.22-14.53-21.87-33.54-17.48-52.02,6.25-26.32,38.42-38.66,65.18-34.66,26.76,4,50.22,19.31,75.01,30.13,63.13,27.55,134.62,25.85,203.46,23.67,19.79-.63,43.09-3.26,52.85-20.48,6.84-12.07,4.27-26.98,4.92-40.84,1.34-28.21,19.21-56.11,45.95-65.2s60.37,4.62,69.64,31.3c4.73,13.59,3.2,28.43,2.54,42.8-6.4,139.61,74.41,275.75,51.56,413.63-.9,5.42-2.09,11.11-5.74,15.22-5.27,5.95-14.06,6.97-22,7.25-33.15,1.18-100.46-.53-126.94-24.89-26.18-24.1-16.02-83.7-22.47-117.89Z"/>
        <polygon class="cls-2" points="365.17 264.95 373.31 266.15 385.2 267.68 397.26 270.44 417.48 278.62 430.62 287.19 441.14 296.74 452.15 312.83 457.69 327.63 461.55 350.21 462.01 368.92 459.51 387.19 451.42 406.68 442.2 422.89 432.02 436.52 414.86 447.87 400.57 451.96 387.67 452.8 369.8 448.65 362.59 442.89 358.38 433.76 359.34 421.95 369.51 403.06 375.32 387.26 368.39 388.21 356.61 388.86 311.58 388.43 287.66 386.27 258.08 378.35 223.2 342.94 199.93 318.9 190.97 305.71 365.17 264.95"/>
        <g>
          <path class="cls-15" d="M365.79,265.7c28.81,1.02,54.73,9.73,74.79,30.44,15.65,16.15,20.73,39.86,21.44,62.34,.33,10.63-.18,21.42-3.32,31.57-2.64,8.52-7.05,16.35-11.43,24.12-5.42,9.6-11.04,19.44-19.62,26.36-9.21,7.42-21.09,10.81-32.86,11.99-13.78,1.39-30.73-2.14-35.31-15.21-3.48-9.93,1.95-20.52,6.67-29.93,7.11-14.16,12.96-28.96,17.46-44.16"/>
          <path class="cls-15" d="M252.91,375.6c13.65,8.44,38.08,11.79,54.11,12.6,22.29,1.12,44.7,1.88,66.89-.53"/>
          <path class="cls-4" d="M203.86,322.16s-7.36-4.91-9.85-11.86"/>
        </g>
        <path class="cls-4" d="M222.68,314.17l-14.32,6.08c-13.82,5.87-27.69,11.76-40.67,19.3-8.82,5.13-17.75,11.74-20.71,21.5-3.2,10.56,1.93,22.51,10.67,29.24,8.75,6.73,20.39,8.81,31.39,7.81s21.52-4.8,31.79-8.84c27.37-10.76,53.98-23.46,79.56-37.97"/>
        <g>
          <g>
            <path class="cls-2" d="M379.17,174.24l-24.02-57.07c.07-7.42-2.95-14.22-7.58-19.91-5.01-6.17-12.32-8.67-17.49-14.62-12.48-14.37-33.24-21.09-50.96-26.08-16.16-4.55-39.74-12.67-56.15-7.77-20.24,6.05-39.02,14.44-57.01,25.32-6.8,4.11-11.01,11.33-16.45,16.95-5.45,5.64-11.97,10.26-17.23,16.02-6.03,4.29-14.15,6.56-21.47,6.74-6.78,.17-14.24-1.3-20.51,2.06-5.53,2.97-8.99,8.55-13.2,12.99-4.43,4.67-10.13,8.58-12.01,15.08-6.52,22.5,26.54,26.96,40.94,21.01l.69-1.51c-1.78,4.6-3.56,9.2-5.34,13.8-4.17,10.77-8.4,21.89-8.08,33.43,.27,9.89,4.23,19.53,10.6,27.06,6.4,7.56,16.98,10.36,21.87,18.97,2.41,4.25,3.82,8.98,5.85,13.43,9.02,19.74,35.65,41.6,58.35,40.6,7.51-.33,14.22-3.57,21.54-4.54,7.21-.95,14.51,.42,21.53,1.93,13.78,2.96,29.13,8.5,42.84,2.28,8.32-3.77,14.43-11.45,22.84-15.04,7.91-3.37,16.85-2.74,25.44-2.96,17.05-.44,30.13-9.95,39.05-24.23,7.45-11.91,11.3-25.65,15.06-39.18,4.55-16.35,5.27-37.9,.85-54.77Z"/>
            <path class="cls-7" d="M380.62,173.84c-2.8-6.66-5.61-13.32-8.41-19.98-4.35-10.34-8.7-20.67-13.05-31.01l-1.85-4.39c-.22-.51-.62-1.14-.71-1.69-.17-1.01-.03-2.21-.16-3.26-.17-1.33-.4-2.64-.74-3.94-.62-2.36-1.54-4.64-2.67-6.8-2.32-4.45-5.51-8.32-9.47-11.39s-8.15-5.35-11.54-8.86-6.42-6.64-10.25-9.43c-7.69-5.63-16.52-9.55-25.45-12.74s-17.52-5.45-26.33-7.99c-9.42-2.72-18.96-5.27-28.74-6.24-4.58-.45-9.2-.5-13.76,.17-5.04,.74-9.93,2.57-14.73,4.23-10.48,3.61-20.72,7.94-30.62,12.93-4.99,2.52-9.9,5.21-14.72,8.06-4.36,2.58-7.95,5.61-11.25,9.46s-6.27,7.75-9.91,11.21c-4,3.8-8.35,7.22-12.31,11.06-.95,.92-1.81,2.03-2.84,2.85s-2.34,1.48-3.52,2.09c-2.3,1.18-4.73,2.07-7.22,2.75-5.05,1.37-10.07,1.49-15.26,1.32s-10.2-.19-14.85,2.01c-4.39,2.08-7.62,5.88-10.68,9.53s-6.41,6.72-9.69,10.07c-3.1,3.16-5.61,6.73-6.6,11.11-1.31,5.83-.03,11.74,4.32,15.98s10.22,6.24,15.96,7.22c6.04,1.02,12.36,1.02,18.35-.33,1.26-.28,2.5-.63,3.71-1.08,1.45-.54,1.78-1.17,2.4-2.52l-2.74-1.16c-3.41,8.8-7.11,17.56-9.97,26.56-2.68,8.42-4.34,17.3-3.05,26.13,1.14,7.81,4.46,15.22,9.28,21.45,4.45,5.73,10.67,8.94,16.36,13.22,2.76,2.08,5.18,4.5,6.85,7.55,2.17,3.96,3.51,8.31,5.35,12.42,2.71,6.09,6.63,11.61,11.03,16.59,9.48,10.73,22.07,19.9,36.02,23.7,7.14,1.94,14.23,1.98,21.41,.19,4.09-1.02,8.1-2.38,12.27-3.05,4.87-.78,9.88-.41,14.72,.38,16.26,2.66,33.97,10.76,50.23,3.89,7.28-3.07,12.7-8.98,19.33-13.1,7.49-4.66,15.98-4.93,24.56-5.01,7.49-.06,14.59-.78,21.52-3.8,6.3-2.74,11.88-7.01,16.47-12.09,11.18-12.36,16.43-28.61,20.87-44.34,2.19-7.78,3.88-15.54,4.6-23.6s.67-16.64-.38-24.88c-.49-3.85-1.18-7.66-2.15-11.42-.48-1.87-3.38-1.08-2.89,.8,3.98,15.4,3.84,32.21,.64,47.74-1.63,7.94-4.06,15.83-6.63,23.51s-6,15.85-10.66,22.93c-7.5,11.38-18.84,20.14-32.65,21.8-8.06,.97-16.21-.15-24.22,1.51-7.98,1.66-13.91,6.57-20.21,11.4-2.95,2.26-6.04,4.44-9.49,5.88-3.91,1.62-8.13,2.3-12.35,2.33-8.33,.05-16.45-2.2-24.49-4.1-8.47-2.01-17.36-4.05-26.11-2.93-8.14,1.04-15.72,4.78-24.04,4.56-13.76-.37-26.87-8.17-36.9-17.07-5.17-4.59-9.86-9.78-13.64-15.58-1.85-2.84-3.46-5.81-4.76-8.94-1.64-3.92-2.98-8.02-5.11-11.72-3.35-5.83-9.22-9.21-14.61-12.89-2.88-1.96-5.6-4.09-7.83-6.78-2.46-2.96-4.5-6.29-6.1-9.79-3.51-7.66-4.46-16.12-3.17-24.42,1.37-8.86,4.7-17.26,7.91-25.57,1.63-4.22,3.26-8.43,4.89-12.65,.61-1.57-2.03-2.7-2.74-1.16l-.69,1.51,.9-.69c-5.1,2.07-10.8,2.56-16.25,2.27-5.7-.3-11.65-1.55-16.55-4.59-4.5-2.79-7.33-7.2-7.06-12.59,.2-3.96,1.8-7.61,4.35-10.61,2.88-3.39,6.4-6.16,9.35-9.5s5.75-7.33,9.51-10.02c4.25-3.04,9.21-3.43,14.28-3.31s9.71,.3,14.57-.61,9.57-2.6,13.72-5.2c2.13-1.33,3.7-3.27,5.52-4.98s3.89-3.5,5.87-5.22c3.87-3.36,7.6-6.79,10.9-10.72,3.02-3.6,5.85-7.4,9.41-10.5,3.89-3.39,8.84-5.76,13.35-8.22,9.42-5.13,19.16-9.66,29.18-13.5,5.06-1.94,10.19-3.71,15.37-5.31,4.24-1.31,8.41-2.09,12.86-2.14,9.5-.1,18.93,2.05,28.06,4.49,8.5,2.27,16.99,4.71,25.39,7.31,8.85,2.74,17.62,5.96,25.7,10.55,3.91,2.22,7.65,4.75,11.02,7.72s6.24,6.67,9.92,9.46,7.94,5.19,11.21,8.66,6,8.16,7.33,12.9c.3,1.07,.55,2.17,.71,3.27,.2,1.33,.06,2.72,.27,4.03,.05,.31,.09,.44,.19,.72,.32,.93,.77,1.83,1.15,2.73,3.86,9.17,7.72,18.34,11.58,27.51l10.55,25.08c.2,.48,.4,.96,.6,1.44,.74,1.75,3.64,.98,2.89-.8Z"/>
          </g>
          <g>
            <path class="cls-2" d="M323.91,114.36c6.25,7.12,15.15,11.45,24.25,14.08,9.1,2.63,18.56,3.74,27.87,5.51,3.7,.71,7.41,1.53,10.86,3.06,8.89,3.95,15.42,12.8,16.57,22.46,.43,3.59,.16,7.22-.29,10.81-1.72,13.65-13.05,19.36-26.2,15.85-8.37-2.23-18.24-1.01-25.12-6.8-3.87-3.25-6.67-7.56-9.31-11.87"/>
            <path class="cls-7" d="M322.85,115.42c8.52,9.6,21.09,13.99,33.33,16.51,7.04,1.45,14.19,2.37,21.23,3.82,6.09,1.25,11.77,3.29,16.32,7.67,3.99,3.84,6.81,8.83,7.93,14.26,.68,3.33,.6,6.78,.28,10.15-.25,2.7-.66,5.4-1.72,7.92-1.67,3.95-4.82,7.15-8.86,8.66-4.52,1.7-9.38,1.45-13.99,.27-6.2-1.58-12.76-1.37-18.85-3.4-6.94-2.31-11.04-8.65-14.69-14.58-1.01-1.64-3.61-.14-2.59,1.51,3.42,5.56,7.31,11.69,13.35,14.68,5.45,2.7,11.6,2.86,17.5,3.77,2.9,.45,5.71,1.34,8.63,1.72,2.58,.34,5.16,.32,7.72-.1,4.54-.75,8.82-3.05,11.71-6.66,3.63-4.52,4.61-10.12,4.94-15.77,.39-6.54-.91-12.93-4.38-18.53-3.04-4.91-7.48-9.03-12.73-11.46-6.55-3.02-14-3.84-21.05-5.03-14.98-2.52-31.37-5.61-41.96-17.54-1.28-1.45-3.4,.68-2.12,2.12h0Z"/>
          </g>
          <g>
            <path class="cls-7" d="M212.45,187.25c1.01,.88,.92,2.51,.51,3.44-.55,1.25-1.86,2.22-3.21,3.03-1.05,.62-3.35,.8-4.72,.62-2.72-.35-4.49-2.41-5.1-4.19-.49-1.42-.46-2.94-.15-4.33,.05-.22,.11-.44,.31-.6,.28-.22,.74-.25,1.16-.27,1.84-.09,3.71-.17,5.56,.06,2.13,.26,4.02,.99,5.54,2.16,.03,.03,.06,.05,.09,.08Z"/>
            <path class="cls-7" d="M205.11,194.87c6.14,9.25,18.72,12.42,29.15,9.86,1.87-.46,1.08-3.35-.8-2.89-9.05,2.22-20.39-.39-25.76-8.48-1.06-1.6-3.66-.1-2.59,1.51h0Z"/>
            <path class="cls-7" d="M202.42,193.43c-.1,.29,.15-.26,0,0-.06,.11-.12,.23-.2,.33,.1-.13-.24,.28-.41,.45-.48,.47-.86,.73-1.47,1.09-1.68,1-3.57,1.58-5.48,1.93-6.27,1.15-12.78-.62-18.37-3.42-1.72-.86-3.24,1.73-1.51,2.59,6.45,3.22,13.77,5.08,20.96,3.67,3.27-.64,8.19-2.3,9.38-5.85,.62-1.83-2.28-2.62-2.89-.8h0Z"/>
          </g>
          <path class="cls-15" d="M242.28,160.8c1.89,4.77,5.72,8.74,10.42,10.8,3.34,1.47,7.02,1.97,10.66,2.3,3.95,.36,8.4,.35,11.27-2.38"/>
          <path class="cls-15" d="M189.7,154.94c-1.77,2.12-4.23,3.64-6.92,4.28-4.6,1.1-9.39-.37-13.89-1.83"/>
        </g>
        <path class="cls-3" d="M458.92,279.52c-1.12-2.01-2.92-3.93-5.21-4.07-.92-.06-1.86,.18-2.77,.03-.92-.16-1.72-.7-2.54-1.13-5.71-3.02-13.66-.48-16.57,5.28-.52,1.03-.89,2.12-1.43,3.13-.56,1.06-1.3,2.02-1.92,3.05-3.79,6.31-2.21,15.3,3.5,19.94,.08,5.98,1.69,12.88,7.1,15.42,3.54,1.66,7.71,.93,11.48-.12,1.74-.48,3.5-1.03,5.31-.99,1.22,.03,2.41,.33,3.62,.43,4.09,.36,8.3-1.63,10.61-5.01s2.64-8.03,.83-11.71c-.35-.71-.78-1.39-.94-2.17-.19-.88,0-1.8,.08-2.69,.42-4.06-1.11-8.34-3.93-11.27-1.2-1.24-2.99-1.71-4.11-2.8-1.51-1.49-2.08-3.48-3.11-5.33Z"/>
        <path class="cls-4" d="M79.16,410.87s-1.09-46.1-11.98-48.28l28.53,12.92"/>
        <path class="cls-14" d="M79.16,410.87s2.64-54.32,68.75-67.92l64.97,77.13s-90.4,32.53-76.51,49.37l-57.21-58.58Z"/>
        <path class="cls-8" d="M168.73,369.12l-9.77-11.6c-30.35,10.92-56.01,33.75-71.43,62.11l10.01,10.24c5.38-33.94,40.52-48.49,71.2-60.75Z"/>
        <circle class="cls-15" cx="175.73" cy="154.94" r="26.11"/>
        <circle class="cls-15" cx="254.95" cy="168.3" r="26.11"/>
        <path class="cls-15" d="M201.55,158.63c3.13-2.71,7.53-3.89,11.6-3.13,3.93,.74,7.37,3.15,10.19,5.99,1.92,1.94,3.64,4.15,4.56,6.72"/>
        <g>
          <path class="cls-13" d="M539.99,199.47c-3.82-7.69-2.33-19.18,3.89-24.74,8.04-7.19,23.87-6.95,34.03-7.46,4.92-.25,9.84-.34,14.76-.29,.74,0,5.63,.7,6.13,.14-8.15,9.13-15.9,18.39-23.72,27.78-4.12,4.94-9.02,9.53-15.1,11.61-6.09,2.08-13.56,1.1-17.81-3.74-.86-.98-1.59-2.09-2.19-3.29Z"/>
          <path class="cls-15" d="M579.58,175.31c-8.61,1.73-17.04,4.34-25.12,7.77-6.27,2.66-12.74,6.25-15.61,12.42"/>
        </g>
        <g>
          <path class="cls-13" d="M59.98,275.96c-4.53-7.3-15.08-12.08-23.08-9.72-10.34,3.05-18.47,16.63-24.26,25.01-2.8,4.05-5.47,8.19-8.02,12.4-.38,.63-2.37,5.15-3.11,5.29,12.05-2.12,24.01-3.83,36.1-5.54,6.37-.9,12.85-2.65,17.82-6.73,4.97-4.08,8.07-10.95,6.2-17.1-.38-1.25-.94-2.45-1.65-3.59Z"/>
          <path class="cls-15" d="M18.6,296.89c6-6.41,12.66-12.2,19.83-17.26,5.56-3.92,12.02-7.54,18.78-6.73"/>
        </g>
      </g>
      <g>
        <path class="cls-5" d="M335.62,115c-.04,.49-.05,1.02,.21,1.44,.2,.33,.54,.55,.79,.83,.66,.73,.76,1.8,1.21,2.68s1.71,1.54,2.38,.82c.08,1.13,1.66,1.63,2.63,1.04s1.36-1.8,1.49-2.92c.07-.61,.08-1.22,.24-1.81,.24-.85,.78-1.58,1.26-2.33,2.07-3.27,2.91-7.28,2.34-11.11-.07-.46-.17-.95-.5-1.29-.27-.28-.66-.41-1.05-.5-3.11-.7-4.78,.8-6.46,3.07-2.21,2.98-4.21,6.3-4.54,10.08Z"/>
        <rect class="cls-9" x="348.19" y="75.39" width="6.36" height="25" transform="translate(55.01 -120.34) rotate(21.05)"/>
        <path class="cls-6" d="M216.11,28.75l-29.06,50.9s52.34,35.93,56.89,48.2c0,0,30.29-2.42,53.24-.94,6.93-21.55,14.33-42.97,19.65-64.87L216.11,28.75Z"/>
        <path class="cls-11" d="M317.63,130.43l14.69-63.26-15.5-5.12c-5.32,21.9-12.72,43.32-19.65,64.87,8.43,.54,15.87,1.61,20.45,3.52Z"/>
        <path class="cls-11" d="M359.28,60.83c-10.08-1.13-20.22-2.91-30.63-1.9-4.43,.23-8.77,1.45-13.2,1.68-20.74,1.19-41.41,.96-61.69-1.53-7.54-.49-14-8.77-19.53-15.72-13.32-15.82-27.68-29.76-43.19-42.94l-21.68,.09,91.16,84.25,123.56-1.1-24.81-22.82Z"/>
        <path class="cls-10" d="M253.76,59.07c20.28,2.49,40.95,2.73,61.69,1.53,4.43-.23,8.77-1.45,13.2-1.68,10.41-1,20.55,.77,30.63,1.9L293.14,0l-102.1,.41c15.51,13.18,29.87,27.12,43.19,42.94,5.53,6.96,12,15.24,19.53,15.72Z"/>
        <rect class="cls-1" x="341.3" y="95.7" width="10.61" height="9.14" rx="4.57" ry="4.57" transform="translate(59.14 -117.8) rotate(21.05)"/>
      </g>
    </g>
  </g>
</svg>