<?xml version="1.0" encoding="UTF-8"?>
<svg id="_레이어_2" data-name="레이어 2" xmlns="http://www.w3.org/2000/svg" viewBox="0 0 505.15 608.79">
  <defs>
    <style>
      .cls-1, .cls-2 {
        fill: #f46b5d;
      }

      .cls-1, .cls-3, .cls-4, .cls-5, .cls-6, .cls-7, .cls-8, .cls-9, .cls-10, .cls-11, .cls-12 {
        stroke: #444;
        stroke-width: 3px;
      }

      .cls-1, .cls-3, .cls-4, .cls-5, .cls-6, .cls-8, .cls-9, .cls-10, .cls-11, .cls-12 {
        stroke-linecap: round;
        stroke-linejoin: round;
      }

      .cls-13, .cls-7, .cls-9 {
        fill: #fff;
      }

      .cls-14 {
        fill: #444;
      }

      .cls-3 {
        fill: #935b55;
      }

      .cls-4 {
        fill: #8b8baf;
      }

      .cls-5 {
        fill: #d8826a;
      }

      .cls-6 {
        fill: #db9686;
      }

      .cls-7 {
        stroke-miterlimit: 10;
      }

      .cls-8 {
        fill: #373d4c;
      }

      .cls-10 {
        fill: #ffe2cc;
      }

      .cls-11 {
        fill: #edbeb4;
      }

      .cls-12 {
        fill: none;
      }
    </style>
  </defs>
  <g id="_레이어_1-2" data-name="레이어 1">
    <g>
      <g>
        <path class="cls-5" d="M419.76,297.72c-.91,8.42-1.82,16.84-2.73,25.26-.46,4.21-.85,8.76,1.27,12.43s7.82,5.49,10.64,2.33c1.2-1.34,1.59-3.19,1.94-4.95,6.64-33.36,13.32-67.29,10.2-101.16-6.36,.25-8.65-.73-11.88,4.15-3.15,4.77-3.31,15.46-4.24,21.06-2.26,13.55-3.74,27.22-5.2,40.87Z"/>
        <path class="cls-1" d="M399.5,167.98c1.3,3.49,6.47,3.93,9.47,1.74s4.35-5.94,5.58-9.45c5.44-15.57,11.92-31.47,24.06-42.63,7.88-7.24,18.06-12.43,23.32-21.75,6.01,9.08,10.46,19.19,13.1,29.75,1.88,7.49,3.16,15.78,8.82,21.04,2.67,2.48,6.19,4.11,8.24,7.13,1.4,2.05,1.97,4.55,2.39,7,4.64,27.02-7.13,56.19-29.21,72.43-6.79,5-14.9,8.92-23.32,8.41-12.67-.78-34.13-13.56-39.64-25.41-2.43-5.23-2.66-12.34-3.46-17.96-.74-5.21-1.3-10.36-1.16-15.64,.1-3.65,2.94-11.61,1.81-14.66Z"/>
        <path class="cls-10" d="M433.9,180.08c-3.25,2.79-8.88,1.99-11.4,5.45-2.25,3.08-.53,7.39,1.34,10.71,1.49,2.66,3.5,5.58,6.53,5.86,2.56,.24,4.87-1.53,7.41-1.91,6.28-.93,12.49,6.6,18.1,3.63,3.27-1.73,4.31-6.34,7.72-7.79,1.18-.5,2.5-.55,3.76-.83,5.09-1.16,8.52-6.4,8.86-11.62s-1.86-10.29-4.74-14.64c-3.21-4.84-17.96-8.73-24.03-7.65-10.29,1.83-7.41,13.49-13.55,18.77Z"/>
      </g>
      <path class="cls-12" d="M56.06,238.48c-2.08,1.94-4.36,4.59-3.4,7.26,.78,2.19,3.39,3.18,4.52,5.22,1.16,2.09,.46,4.67,.01,7.02-.44,2.35-.37,5.25,1.63,6.55,.87,.57,1.98,.72,2.8,1.38,1.21,.98,1.39,2.72,1.48,4.27"/>
      <path class="cls-12" d="M50.62,256.3c-1.82,1.88-2.74,4.6-2.43,7.2,.31,2.6,1.84,5.02,4.06,6.42,.6,.38,1.27,.71,1.69,1.29,.31,.43,.45,.96,.54,1.48,.48,2.77-.12,5.72,.85,8.36,1.03,2.82,3.62,4.72,6.08,6.45,.66,.46,1.34,.93,2.13,1.06s1.72-.21,2-.96"/>
      <path class="cls-12" d="M365.16,423.6c1.24,1.46,2.44,2.96,3.57,4.5,1.23,1.67,2.45,3.56,2.35,5.63-.04,.78-.26,1.54-.35,2.32-.34,2.93,1.16,5.71,2.32,8.42,1.5,3.54,2.45,7.53,1.37,11.22"/>
      <path class="cls-12" d="M381,443.76c2.04,1.05,2.43,3.8,2.2,6.09s-.77,4.74,.32,6.77c.72,1.35,2.12,2.36,2.41,3.87,.56,2.91-3.32,5.42-2.5,8.26"/>
      <path class="cls-9" d="M448.81,266.36c-4.74-3.14-10.93-2.5-16.56-1.75-6.5,.87-13,1.74-19.5,2.61,.52,19.1-1.14,38.01-.6,57.11,4.69-.55,9.37-1.2,14.03-2,5.79-.98,11.76-2.26,16.47-5.76,7.93-5.9,10.43-16.52,11.93-26.29,1.31-8.58,1.47-19.11-5.77-23.91Z"/>
      <g>
        <path class="cls-3" d="M105.47,110.64c-25.49,3.86-50.95,7.96-76.36,12.29-6.35,1.08-12.88,2.24-18.38,5.6s-9.82,9.46-9.15,15.87c1.18,11.23,15.04,15.56,26.23,17.03,39.56,5.2,79.5,7.58,119.4,7.13,30.46-.35,63.13-3.17,86.75-22.41"/>
        <path class="cls-7" d="M92.71,480.07c-.87,2.5-1.03,5.8,.91,8.72,.78,1.18,1.85,2.2,2.53,3.42,.68,1.23,.9,2.52,1.24,3.78,2.34,8.75,11.89,17.21,19.89,17.62,1.42,.07,2.78-.07,4.22,.03,1.5,.11,3.06,.49,4.58,.69,9.31,1.2,16.28-5.76,15.45-15.42,5.51-3.42,10.5-9.25,7.99-17.37-1.64-5.31-6.1-10.08-10.47-14.17-2.02-1.89-4.13-3.77-5.72-6.04-1.07-1.52-1.87-3.17-2.86-4.73-3.35-5.27-9.01-9.38-14.26-10.38-5.25-.99-9.88,1.18-11.67,5.48-.34,.83-.6,1.74-1.17,2.37-.66,.72-1.67,1.01-2.59,1.39-4.16,1.74-6.78,6.01-6.97,11.14-.08,2.17,1.11,4.66,1.09,6.65-.02,2.7-1.37,4.52-2.17,6.82Z"/>
        <path class="cls-9" d="M336.45,383.14c17.84,53.06,25.75,106.4,25.04,162.38-.15,12.08,.12,26.11,9.7,33.47,1.26,.97,2.67,1.81,3.53,3.15,1.35,2.12,.93,4.93-.05,7.24-4.54,10.73-17.85,14.05-29.33,15.99-12.98,2.2-27.57,4.05-38.2-3.71-8.38-6.12-12.02-16.67-15.19-26.56-3.01-9.39-4.96-15.48-7.97-24.86"/>
        <path class="cls-9" d="M117.97,565s0,.29,0,.29c-.52,2.55-.99,5.1-1.55,7.64-.94,4.25-3.71,7.83-5.94,11.56-.96,1.6-1.93,3.24-2.26,5.08-.69,3.89,1.75,7.8,5.05,9.97s7.29,2.95,11.19,3.57c18.77,2.98,37.36,2.74,56.27,1.65l10.65-3.5,3.77-3.53,3.05-4.41,3.65-7.06,2.45-8.44c-29.42,2.74-59.04-.97-86.33-12.82Z"/>
        <path class="cls-4" d="M356.35,466.31c-78.03,9.66-157.55,4.13-236.33,1.19-2,32.45-2.7,64.98-2.08,97.49,27.1,11.52,57.18,15.93,86.45,12.68,1.11-6.79,2.5-13.53,4.16-20.21,.3-1.22,.66-2.51,1.61-3.34,1.08-.94,2.64-1.04,4.08-1.06,19.45-.37,39.17,2.47,58.2-1.56,2.87-.61,5.94-1.44,8.89-1.02,3.76,.53,3.67,2.98,4.77,6.25,2.4,7.18,4.64,14.41,6.98,21.61,23.76-.03,47.5-5.08,69.22-14.71-.02-1.02-.04-2.05-.06-3.07-.67-31.49-1.47-63.1-5.87-94.25Z"/>
        <path class="cls-8" d="M356.35,466.31c-.7-4.98-1.49-9.94-2.39-14.89-77.14,11.65-155.67,14.08-233.38,7.22-.2,2.95-.38,5.91-.56,8.86,78.78,2.94,158.3,8.47,236.33-1.19Z"/>
        <path class="cls-11" d="M280.94,435.17c-5.39-52.96-16.4-104.32-14.99-157.67l-82.49,8.54c1.64,31.38,.18,62.75,3.48,94.13,1.88,27.29-2.43,54.58,.39,81.87,30.91,.66,61.8,.08,92.53-2.12,.43-8.27,1.8-16.77,1.08-24.75Z"/>
        <path class="cls-6" d="M335.77,382.48l1.52,3.17,5.13,16.52,5.61,21.03,5.58,26.25,.26,1.73c-24.52,4.13-49.22,6.96-74.01,8.74,.43-8.27,1.8-16.77,1.08-24.75-5.39-52.96-16.4-104.32-14.99-157.67l45.83-4.75,23.98,109.73Z"/>
        <path class="cls-6" d="M186.94,380.17c-3.3-31.38-1.84-62.75-3.48-94.13l-69.26,7.17s-22.88,11.75-22.89,11.75c-9.78,4.7-19.55,9.39-29.33,14.09-13.09,6.29-28.48,11.39-32.8,27.04-1.1,3.97-1.34,8.15-.91,12.24,.76,7.3,5.51,13.64,8.9,20l26.51,36.65,17.17,14.55,16.63,6.61,13.01-.84,11.34-4.91-.55,18.71-.66,9.77c22.21,1.59,44.46,2.7,66.7,3.17-2.82-27.29,1.49-54.58-.39-81.87Zm-56.18-10.79l-1.53,9.68-1.54,10.89-3.31-5.09-15.56-18.64,24.65-9.53-2.7,12.69Z"/>
        <path class="cls-12" d="M198.89,547.51c1.76,3.16,5.75,4.21,9.34,4.7,15.52,2.14,31.93,1.75,47.56,1.26,14.03-.44,28.54-2.33,40.99-9.26"/>
        <path class="cls-6" d="M310.5,327c18.67,.51,37.34,.55,56.01,.12,15.24-.35,30.5-1.02,45.63-2.8-.54-19.1,1.12-38.01,.6-57.11-33.66,4.5-67.33,9-100.99,13.5"/>
        <path class="cls-8" d="M219.43,356.69c-33.27,22.59-19.92,12.86-53.19,35.46-7.23,4.91-19.47,1.36-27.55,4.71-3.38,1.4-6.99,2.58-9.63,5.11s-3.91,6.97-1.68,9.87c2.09,2.72,6.08,2.87,9.5,2.67,47.44-2.77,91.3-26.71,128.63-56.12,17.46-13.76,34.33-29.4,43.69-49.56,2.02-4.35,3.7-9.04,3.39-13.82s-3.02-9.68-7.52-11.32c-8.34-3.04-28.18,20.79-28.18,20.79,0,0-48.37,46.05-57.46,52.22Z"/>
        <g>
          <path class="cls-13" d="M68.5,176.3l24.02-57.07c-.07-7.42,2.95-14.22,7.58-19.91,5.01-6.17,12.32-8.67,17.49-14.62,12.48-14.37,33.24-21.09,50.96-26.08,16.16-4.55,39.74-12.67,56.15-7.77,20.24,6.05,39.02,14.44,57.01,25.32,6.8,4.11,11.01,11.33,16.45,16.95,5.45,5.64,11.97,10.26,17.23,16.02,6.03,4.29,14.15,6.56,21.47,6.74,6.78,.17,14.24-1.3,20.51,2.06,5.53,2.97,8.99,8.55,13.2,12.99,4.43,4.67,10.13,8.58,12.01,15.08,6.52,22.5-26.54,26.96-40.94,21.01l-.69-1.51c1.78,4.6,3.56,9.2,5.34,13.8,4.17,10.77,8.4,21.89,8.08,33.43-.27,9.89-4.23,19.53-10.6,27.06-6.4,7.56-16.98,10.36-21.87,18.97-2.41,4.25-3.82,8.98-5.85,13.43-9.02,19.74-35.65,41.6-58.35,40.6-7.51-.33-14.22-3.57-21.54-4.54-7.21-.95-14.51,.42-21.53,1.93-13.78,2.96-29.13,8.5-42.84,2.28-8.32-3.77-14.43-11.45-22.84-15.04-7.91-3.37-16.85-2.74-25.44-2.96-17.05-.44-30.13-9.95-39.05-24.23-7.45-11.91-11.3-25.65-15.06-39.18-4.55-16.35-5.27-37.9-.85-54.77Z"/>
          <path class="cls-14" d="M69.95,176.7c2.63-6.25,5.26-12.49,7.89-18.74,4.28-10.16,8.55-20.32,12.83-30.48,1.05-2.5,2.3-4.99,3.18-7.56,.15-.44,.16-.68,.18-1.23,.08-2.48,.41-4.88,1.13-7.26,1.42-4.71,4.09-9.26,7.54-12.78,3.27-3.33,7.37-5.63,11.05-8.44s6.45-6.44,9.91-9.46c6.95-6.09,15.38-10.38,23.94-13.74s16.81-5.61,25.33-8.09c8.91-2.59,17.84-5.26,27-6.85,4.6-.8,9.28-1.31,13.96-1.24s8.82,.94,13.18,2.3c10.28,3.2,20.34,7.07,30.1,11.62,4.88,2.27,9.68,4.71,14.4,7.3,4.49,2.46,9.39,4.84,13.22,8.27,3.45,3.09,6.23,6.83,9.2,10.37,3.31,3.93,7.08,7.35,10.95,10.72,1.98,1.72,3.96,3.43,5.86,5.23s3.5,3.7,5.75,5.06c4.2,2.54,8.98,4.19,13.8,5.03,4.78,.84,9.5,.61,14.32,.51,5.07-.11,10.01,.36,14.21,3.46,3.79,2.79,6.52,6.77,9.63,10.24,2.91,3.25,6.38,5.96,9.17,9.31,4.07,4.88,5.87,12.33,2.37,18.02-2.82,4.57-8.18,6.99-13.19,8.29-5.64,1.47-11.71,1.79-17.49,.96-2.51-.36-5-.96-7.35-1.92l.9,.69-.69-1.51c-.7-1.53-3.36-.43-2.74,1.16,3.34,8.62,6.94,17.19,9.79,25.99,2.66,8.22,4.49,16.96,3.15,25.61-1.2,7.76-4.64,15.25-9.74,21.22-4.43,5.18-10.73,8.09-15.97,12.31-2.58,2.08-4.82,4.53-6.42,7.45-2.08,3.8-3.4,7.94-5.12,11.91-2.62,6.06-6.42,11.56-10.79,16.5-9.29,10.51-21.6,19.56-35.33,23.1-3.05,.79-6.17,1.27-9.32,1.32-4.1,.06-8.05-.79-11.99-1.86s-7.86-2.24-11.93-2.74c-4.44-.54-8.92-.21-13.33,.45-8.39,1.25-16.52,3.73-24.84,5.34s-17.24,2.23-25.14-1.34c-6.88-3.11-12.11-8.77-18.45-12.72-7.07-4.4-15.08-5.27-23.24-5.39-4-.06-8.04,.08-12.01-.45-3.27-.43-6.49-1.27-9.56-2.46-6.32-2.44-11.91-6.54-16.52-11.47-11.09-11.88-16.22-27.83-20.55-43.14-2.18-7.7-3.93-15.36-4.64-23.35s-.67-16.29,.31-24.36c.46-3.76,1.16-7.48,2.11-11.14,.48-1.87-2.41-2.67-2.89-.8-4.08,15.78-3.93,32.91-.75,48.84,1.62,8.11,4.11,16.17,6.73,24s6.11,16.22,10.84,23.45c7.56,11.56,18.82,20.73,32.7,23.1,8.27,1.42,16.74,.1,25.01,1.58,4.09,.73,7.87,2.2,11.37,4.44,3.3,2.11,6.3,4.65,9.42,7.03s6.36,4.55,10.01,6.03c3.83,1.55,7.94,2.29,12.06,2.42,8.59,.27,17.03-1.96,25.31-3.94,8.75-2.09,18.03-4.42,27.06-2.97,8.17,1.31,15.75,4.84,24.18,4.42,14.14-.71,27.41-8.46,37.83-17.6,5.4-4.74,10.27-10.14,14.23-16.14,1.81-2.74,3.4-5.61,4.71-8.62,1.79-4.13,3.14-8.48,5.39-12.4,3.47-6.02,9.93-9.16,15.37-13.09,6.25-4.52,10.81-10.71,13.8-17.8,3.26-7.72,4.15-15.97,3.01-24.24-1.25-9.04-4.57-17.6-7.85-26.06-1.7-4.41-3.41-8.81-5.12-13.22l-2.74,1.16c.64,1.4,1.02,2.02,2.52,2.56,1.22,.44,2.47,.79,3.73,1.07,2.91,.64,5.91,.96,8.89,1.01,6.22,.11,12.6-.85,18.32-3.37,5.07-2.23,9.65-6.08,11.21-11.57,.85-2.98,.72-6.15,.02-9.14-1.02-4.39-3.6-7.95-6.72-11.11-3.3-3.34-6.66-6.48-9.69-10.09s-6.33-7.42-10.76-9.45c-4.66-2.14-9.85-2.06-14.87-1.89s-10.21,0-15.25-1.4c-2.57-.71-5.07-1.66-7.42-2.92-1.03-.54-2.16-1.11-3.06-1.85-1.09-.89-2.02-2.07-3.04-3.05-3.98-3.83-8.33-7.24-12.32-11.06-3.61-3.46-6.61-7.42-9.86-11.21s-6.96-6.84-11.33-9.42c-9.56-5.64-19.49-10.64-29.71-14.95-5.15-2.17-10.36-4.17-15.64-5.98-4.78-1.64-9.65-3.45-14.68-4.16-9.43-1.34-19.12,.27-28.32,2.4-9.11,2.11-18.08,4.87-27.05,7.48-9.1,2.64-18.15,5.64-26.68,9.81-4.26,2.08-8.38,4.47-12.2,7.29s-6.93,6.11-10.23,9.48-7.74,5.85-11.56,8.83-7.12,7.01-9.4,11.46c-1.15,2.24-2.08,4.62-2.68,7.07-.28,1.13-.48,2.28-.62,3.44-.13,1.05,0,2.27-.16,3.26-.1,.57-.51,1.21-.73,1.74-3.8,9.03-7.6,18.05-11.4,27.08s-7.49,17.81-11.24,26.71l-.65,1.54c-.75,1.78,2.15,2.55,2.89,.8Z"/>
        </g>
        <path class="cls-14" d="M268.53,167.51c5.79,0,5.8-9,0-9s-5.8,9,0,9h0Z"/>
        <path class="cls-14" d="M202.83,177.8c5.79,0,5.8-9,0-9s-5.8,9,0,9h0Z"/>
        <path class="cls-14" d="M243.68,191.4c-1.01,.88-.92,2.51-.51,3.44,.55,1.25,1.86,2.22,3.21,3.03,1.05,.62,3.35,.8,4.72,.62,2.72-.35,4.49-2.41,5.1-4.19,.49-1.42,.46-2.94,.15-4.33-.05-.22-.11-.44-.31-.6-.28-.22-.74-.25-1.16-.27-1.84-.09-3.71-.17-5.56,.06-2.13,.26-4.02,.99-5.54,2.16-.03,.03-.06,.05-.09,.08Z"/>
        <path class="cls-14" d="M247.14,198.79c-.82,2.45-2.17,4.91-4.4,6.33-2.54,1.62-5.83,1.71-8.5,.34-1.71-.88-3.23,1.71-1.51,2.59,3.54,1.82,7.9,1.85,11.34-.23,3.03-1.83,4.86-4.96,5.96-8.24,.62-1.83-2.28-2.62-2.89-.8h0Z"/>
        <path class="cls-14" d="M251.69,199.15c.97,2.93,3.82,5.35,6.52,6.65,4.25,2.05,8.92,1.61,12.86-.95,1.61-1.05,.11-3.65-1.51-2.59-3.07,1.99-6.68,2.53-10.02,.86-1.28-.64-2.43-1.49-3.42-2.53-.45-.48-.65-.71-.97-1.19-.15-.22-.29-.45-.41-.69-.05-.11-.11-.21-.15-.32,.09,.21,.06,.13,0-.04-.6-1.82-3.5-1.04-2.89,.8h0Z"/>
        <path class="cls-12" d="M207.6,143.11c-4.28,4.78-10.37,7.9-16.75,8.57-3.57,.38-7.18,.01-10.75-.35"/>
        <path class="cls-12" d="M256.57,139.63c4.48,2.96,10.11,4.12,15.4,3.17"/>
        <rect class="cls-8" x="93.69" y="393.5" width="65.08" height="96.46" rx="10.48" ry="10.48"/>
        <path class="cls-9" d="M121.98,381.73c-.47-.58-.96-1.15-1.44-1.72-18.6,11.6-36.01,25.07-54.74,37.25,.92,.98,1.86,1.95,2.83,2.88,9.15,8.82,20.95,15.63,33.65,15.99,12.7,.36,26.05-7.03,29.96-19.12,3.94-12.16-2.16-25.38-10.25-35.27Z"/>
        <path class="cls-6" d="M96.28,129.46c88.25-2.57,176.38-9.16,264.02-19.75,10.39-1.25,21.42-2.84,29.36-9.66,7.94-6.82,10.56-20.79,2.46-27.41-4.32-3.53-10.31-4.05-15.89-4.19-28.05-.73-56.22,4.12-82.42,14.17"/>
        <path class="cls-3" d="M292.38,69.52c-15.7,7.06-31.71,13.37-49.44,16.65-51.39,8.41-101.04,19.44-152.21,17.58-.96,5.37-1.55,10.81-1.71,16.28-.07,2.29-.03,4.74,1.24,6.66,2.43,3.67,7.78,3.48,12.13,2.87,51.89-7.26,103.69-15.19,155.38-23.79,16.64-2.77,44.28-1.52,38.44-25.45-.89-3.66-2.28-7.24-3.84-10.8Z"/>
        <path class="cls-6" d="M242.94,86.17c17.73-3.28,33.74-9.59,49.44-16.65-2.81-6.44-6.15-12.83-8.09-19.48-3.26-11.18-5.46-22.64-8.65-33.84-1.04-3.64-2.32-7.46-5.26-9.84-2.6-2.1-6.07-2.71-9.38-3.15-13.06-1.74-26.28-2-39.44-1.44-19.59,.84-39.32,3.55-57.52,10.85-37.82,15.16-66.17,51.17-73.3,91.14,51.17,1.85,100.81-9.17,152.21-17.58Z"/>
        <g>
          <path class="cls-13" d="M90.27,126.69c-9.24,2.11-27.24,20.63-36.63,21.87-3.74,.5-7.49,1.11-11.02,2.44-9.1,3.44-16.12,11.9-17.82,21.48-.63,3.56-.57,7.2-.32,10.81,.94,13.73,11.92,20.07,25.25,17.32,8.49-1.75,18.27,.03,25.47-5.36,4.04-3.03,7.09-7.17,9.98-11.32"/>
          <path class="cls-14" d="M89.87,125.24c-4.09,.97-7.81,3.64-11.2,6.01-4.45,3.11-8.73,6.47-13.19,9.58-3.44,2.4-7.24,5.2-11.41,6.13-3.43,.77-6.92,.98-10.3,2.05-3.02,.96-5.89,2.38-8.45,4.26-4.93,3.63-8.73,8.64-10.8,14.41-1.2,3.34-1.68,6.88-1.72,10.41-.04,3.31,.08,6.74,.92,9.95,1.26,4.86,4.24,9.15,8.58,11.74s9.91,3.35,15.02,2.71c3.17-.4,6.25-1.03,9.45-1.26,3.37-.24,6.75-.39,10.08-1s6.31-1.68,8.94-3.59c2.91-2.11,5.32-4.77,7.5-7.6,1.1-1.43,2.14-2.89,3.17-4.37,1.11-1.59-1.49-3.09-2.59-1.51-3.77,5.42-8.04,11.35-14.63,13.41-5.93,1.86-12.3,1.34-18.39,2.3-2.63,.42-5.15,.92-7.83,.84-2.39-.07-4.79-.51-7.01-1.41-4.13-1.67-7.33-5.05-8.84-9.23-1.01-2.79-1.25-5.68-1.35-8.62-.11-3.39,.07-6.79,.98-10.07,1.55-5.55,4.95-10.53,9.47-14.1,2.28-1.8,4.88-3.22,7.62-4.16,3.43-1.17,6.95-1.54,10.5-2.18,3.87-.69,7.47-3.08,10.68-5.22,4.73-3.16,9.21-6.69,13.83-9.99,3.54-2.52,7.44-5.58,11.75-6.6,1.88-.45,1.08-3.34-.8-2.89h0Z"/>
        </g>
      </g>
      <circle class="cls-2" cx="499.7" cy="217.24" r="5.45"/>
      <circle class="cls-2" cx="406.59" cy="139.63" r="5.45"/>
    </g>
  </g>
</svg>