<?xml version="1.0" encoding="UTF-8"?>
<svg id="_레이어_2" data-name="레이어 2" xmlns="http://www.w3.org/2000/svg" viewBox="0 0 581.28 542.75">
  <defs>
    <style>
      .cls-1, .cls-2, .cls-3, .cls-4, .cls-5, .cls-6, .cls-7, .cls-8, .cls-9, .cls-10, .cls-11 {
        stroke: #444;
      }

      .cls-1, .cls-3, .cls-11, .cls-12 {
        fill: none;
      }

      .cls-1, .cls-4, .cls-5, .cls-6, .cls-7, .cls-8, .cls-9 {
        stroke-miterlimit: 10;
      }

      .cls-1, .cls-4, .cls-5, .cls-6, .cls-7, .cls-8, .cls-9, .cls-10, .cls-11, .cls-12 {
        stroke-width: 3px;
      }

      .cls-13, .cls-7 {
        fill: #fff;
      }

      .cls-14, .cls-5 {
        fill: #444;
      }

      .cls-2, .cls-3 {
        stroke-width: 2px;
      }

      .cls-2, .cls-3, .cls-10, .cls-11, .cls-12 {
        stroke-linecap: round;
        stroke-linejoin: round;
      }

      .cls-2, .cls-10 {
        fill: #e6cd1c;
      }

      .cls-4 {
        fill: #b3b4b2;
      }

      .cls-6 {
        fill: #e3dfd6;
      }

      .cls-8 {
        fill: #f3bf44;
      }

      .cls-9 {
        fill: #f4a6a3;
      }

      .cls-12 {
        stroke: #f45f22;
      }
    </style>
  </defs>
  <g id="_레이어_1-2" data-name="레이어 1">
    <g>
      <path class="cls-7" d="M163.71,353.28c4.33,.3,8.27,3.63,9.3,7.84,.73,3.01,.08,6.16-.57,9.18-1.13,5.28-2.27,10.56-3.4,15.84-.2,.93-.41,1.88-.96,2.65-.76,1.08-2.06,1.64-3.28,2.14-2.06,.85-4.16,1.7-6.37,1.94s-4.61-.24-6.24-1.75c-.9-.84-1.6-2-2.77-2.38-.75-.25-1.57-.12-2.34,.05-4.69,1.04-9.43,3.66-14.01,2.22-3.19-1-5.54-3.87-6.6-7.04s-.96-6.61-.49-9.92c.51-3.62,1.81-7.65,5.15-9.16,.29-.13,.6-.25,.81-.48,.61-.69,.02-1.73-.48-2.51-3.11-4.86-1.4-11.96,3.25-15.38,4.65-3.42,11.45-3.2,16.26-.01,.99,.66,1.91,1.42,2.82,2.18l9.92,4.59Z"/>
      <g>
        <path class="cls-13" d="M379.5,363.67c.13,2.38,.2,4.77,.2,7.14,0,11.16,.12,27.39-6.28,37.23l-6.54,5.69c-11.12,5.47-116.9,5.25-130.84,2.59-12.48-2.38-20.04,1.46-32.54-.81-6.25-1.14-15.39-.12-21.66-1.17-3.16-.53-6.15-2.72-8.68-4.55-3.08-2.22-6.25-4.69-8.82-7.49-2.53-2.76-3.79-6.07-5.14-9.49-1.52-3.86-2.88-7.79-3.97-11.8-2.16-7.93-3.28-16.21-2.56-24.43,.23-2.67,.66-5.32,1.28-7.93l-21.08-107.89,16.22-30.73,139.67,12.38s73.71,5.12,73.71,5.12c2.31,18.26,4.62,36.52,6.93,54.79,1.83,14.44,3.65,28.88,5.48,43.32,1.59,12.57,3.93,25.34,4.63,38.04Z"/>
        <path class="cls-14" d="M378,363.67c.3,5.63,.28,11.3,.1,16.94s-.59,11.04-1.86,16.4c-.59,2.5-1.35,4.98-2.46,7.3-.68,1.43-1.21,2.48-2.34,3.47l-3.7,3.22-1.42,1.23c-.14,.12-.27,.25-.42,.36-.03,.02-.05,.05-.08,.07,.79-.52,.1-.13,.1-.14,.02-.09,.34-.12-.04,.01-.12,.04-.23,.08-.35,.12-.29,.1-.59,.18-.88,.26-.74,.2-1.48,.36-2.23,.5-2.12,.4-3.71,.6-5.75,.83-5.74,.65-11.52,1-17.29,1.3-15.25,.78-30.52,1.03-45.79,1.08-14.09,.05-28.2-.06-42.29-.63-4.31-.18-8.63-.36-12.92-.84-.22-.02-.99-.12-.85-.1,.16,.02-.57-.08-.77-.12-2.46-.41-4.9-.78-7.39-.88-5.61-.24-11.18,.64-16.79,.7-3.18,.03-6.26-.33-9.39-.81-2.67-.41-5.37-.5-8.07-.54-2.98-.04-5.96,0-8.93-.14-2.78-.14-5.35-.44-7.82-1.81-2.73-1.5-5.29-3.47-7.72-5.41s-4.88-3.96-6.6-6.5-2.83-5.58-3.94-8.48c-1.23-3.21-2.33-6.46-3.26-9.77-1.84-6.58-2.97-13.37-2.91-20.21,.03-3.42,.36-6.84,1.04-10.19,.19-.94,.54-1.87,.37-2.82-.4-2.26-.88-4.51-1.32-6.76-2.18-11.14-4.35-22.27-6.53-33.41-2.66-13.62-5.32-27.25-7.99-40.87-1.66-8.47-3.31-16.95-4.97-25.42-.08-.42-.16-.84-.25-1.26l-.15,1.16c4.74-8.97,9.47-17.94,14.21-26.92,.67-1.27,1.34-2.54,2.01-3.81l-1.3,.74c2.79,.25,5.59,.5,8.38,.74,7.15,.63,14.3,1.27,21.45,1.9,9.7,.86,19.39,1.72,29.09,2.58,10.27,.91,20.54,1.82,30.81,2.73,9.15,.81,18.3,1.62,27.45,2.43,6.04,.54,12.09,1.07,18.13,1.61,1.93,.17,3.87,.35,5.8,.49,6.98,.49,13.96,.97,20.94,1.46,10.14,.7,20.27,1.41,30.41,2.11,6.64,.46,13.27,.92,19.91,1.38,.33,.02,.66,.05,1,.07l-1.5-1.5c2.25,17.77,4.49,35.54,6.74,53.31s4.27,35.34,6.77,52.95c1.41,9.93,2.96,19.86,3.52,29.89,.11,1.92,3.11,1.93,3,0-.5-8.82-1.74-17.57-3-26.3s-2.38-17.66-3.5-26.51c-2.24-17.74-4.49-35.49-6.73-53.23-1.27-10.04-2.54-20.07-3.81-30.11-.11-.85-.6-1.44-1.5-1.5-4.78-.33-9.56-.66-14.34-1-9.9-.69-19.8-1.38-29.7-2.06-8.38-.58-16.76-1.16-25.14-1.75-2.14-.15-4.29-.29-6.43-.48-5.07-.45-10.13-.9-15.2-1.35-8.51-.75-17.02-1.51-25.53-2.26-10.23-.91-20.46-1.81-30.69-2.72-9.99-.88-19.97-1.77-29.96-2.65-7.93-.7-15.86-1.41-23.79-2.11l-12.07-1.07c-.18-.02-.36-.03-.54-.05-.5-.04-1.07,.31-1.3,.74-5.34,10.13-10.83,20.19-16.04,30.38-.4,.78-.35,1.43-.19,2.23l.73,3.74,2.94,15.03c2.94,15.06,5.88,30.11,8.82,45.17,2.45,12.54,4.9,25.09,7.35,37.63l.85,4.33c.07,.34,.16,.68,.2,1.02,0,.07,.04,.14,.04,.21,0,.21,.14-1.1-.1-.31-.32,1.04-.46,2.18-.64,3.25-2.5,15.13,1.34,30.43,7.24,44.33,1.34,3.16,3.05,5.92,5.5,8.34,2.61,2.58,5.57,4.79,8.54,6.92,2.65,1.9,5.46,3.77,8.74,4.29s6.44,.53,9.66,.55c3.2,.02,6.41-.02,9.59,.29s6.58,1.01,9.95,1.07c6.43,.13,12.82-1.04,19.25-.65,3.03,.18,6,.85,9.02,1.15,2.28,.23,4.56,.37,6.85,.5,6.69,.37,13.39,.55,20.09,.68,17.53,.34,35.07,.29,52.6-.13,8.16-.2,16.32-.47,24.47-.96,6-.36,12.03-.77,17.97-1.68,1.69-.26,3.4-.54,5.03-1.08,2.27-.75,4.01-2.81,5.77-4.35,1.02-.88,2.23-1.7,2.95-2.86,1.51-2.44,2.61-5.15,3.44-7.89,1.78-5.93,2.37-12.21,2.63-18.38s.28-12.31-.05-18.44c-.1-1.92-3.1-1.93-3,0Z"/>
      </g>
      <rect class="cls-4" x="35.34" y="348.18" width="33.93" height="193.07"/>
      <rect class="cls-4" x="468.72" y="348.18" width="33.93" height="193.07"/>
      <g>
        <rect class="cls-6" x="201.61" y="427.05" width="30.68" height="105.29" rx="13.64" ry="13.64" transform="translate(117.93 -37.38) rotate(13.49)"/>
        <rect class="cls-6" x="304.08" y="427.05" width="30.68" height="105.29" rx="13.64" ry="13.64" transform="translate(741.95 871.61) rotate(166.51)"/>
      </g>
      <rect class="cls-8" x="146.33" y="405.05" width="243.7" height="35.42" rx="17.71" ry="17.71"/>
      <g>
        <path class="cls-13" d="M340.9,348.62c11.74,20.09,20.65,42.34,32.27,62.55,2.7,4.7,5.48,9.6,6.33,15.23,.66,4.4,.1,8.91-.47,13.33-2.13,16.63-6.28,36.33-19.5,41.63-7.23,2.9-15.33,.26-21.73-4.72-6.4-4.99-11.42-12.1-16.43-19.03-14.95-20.72-30.56-40.76-46.77-60.05-5.4-6.42-11.25-13.82-11.26-22.97,0-3.87,1.08-7.62,2.43-11.12,5.78-14.89,17.05-26.5,30.13-31.04,12.74-4.42,33.05-3.07,41.75,10.83,1.11,1.77,2.18,3.56,3.24,5.36Z"/>
        <path class="cls-14" d="M339.6,349.38c7.53,12.9,13.81,26.46,20.38,39.85,3.29,6.69,6.65,13.36,10.29,19.87s7.53,12.36,7.97,19.66c.23,3.78-.27,7.57-.76,11.32-.37,2.85-.79,5.69-1.3,8.52-1.02,5.64-2.35,11.27-4.5,16.59-1.82,4.51-4.38,8.95-8.18,12.08-4.51,3.73-10.36,4.59-15.9,2.91-6.52-1.97-11.71-6.69-16.07-11.73-4.77-5.51-8.83-11.62-13.13-17.49-9.1-12.43-18.48-24.66-28.12-36.68-4.8-5.98-9.67-11.91-14.6-17.79-3.93-4.68-7.95-9.65-9.81-15.57-2.16-6.86-.28-13.68,2.62-20.02,2.58-5.63,6.03-10.88,10.3-15.37,7.47-7.86,17.23-13.04,28.12-13.75,9.91-.65,20.88,1.81,27.58,9.64,2.04,2.39,3.55,5.25,5.13,7.95,.98,1.66,3.57,.16,2.59-1.51-1.72-2.93-3.38-5.97-5.6-8.56-1.73-2.02-3.8-3.76-6.04-5.18-4.58-2.92-9.9-4.47-15.26-5.12-10.86-1.31-21.87,1.36-30.82,7.67-5.12,3.6-9.5,8.12-13.11,13.22-3.92,5.53-7.19,11.98-8.75,18.6-1.65,6.98-.23,13.74,3.35,19.87s8.6,11.41,13.1,16.87c10.24,12.4,20.18,25.04,29.82,37.9,4.8,6.4,9.45,12.9,14.18,19.35,4.23,5.77,8.71,11.5,14.47,15.82,5.38,4.03,12.2,6.6,18.97,5.45,5.37-.91,9.85-4.34,13.06-8.6,3.41-4.51,5.53-9.92,7.1-15.31,1.69-5.81,2.73-11.8,3.55-17.8,.5-3.69,1.05-7.42,1.07-11.15s-.66-7.52-2.05-11.06-3.18-6.64-5.01-9.83c-1.92-3.36-3.77-6.77-5.56-10.2-7.24-13.88-13.63-28.19-20.96-42.02-1.77-3.35-3.61-6.66-5.52-9.93-.97-1.67-3.57-.16-2.59,1.51Z"/>
      </g>
      <g>
        <path class="cls-13" d="M177.56,404.32c-.17-14.24-.15-28.92,5.03-42.09,5.18-13.17,16.86-24.59,30.49-24.67,10.73-.06,20.69,6.96,26.69,16.26,6,9.29,8.52,20.57,9.63,31.72,2.47,24.89-1.57,49.92-5.6,74.58-1.52,9.3-3.32,19.21-9.62,25.97-8.47,9.09-22.09,9.53-34.24,9.22-6.36-.16-13.22-.55-18.18-4.71-4.8-4.02-6.7-10.67-7.91-16.98-4.36-22.79-4.78-40.36,2.35-62.37l1.36-6.92Z"/>
        <path class="cls-14" d="M179.06,404.32c-.17-14.09-.26-28.76,5.11-42.04,4.14-10.23,12.6-19.98,23.69-22.6,11.72-2.77,23.18,4.24,29.74,13.61,7.91,11.28,10.09,25.63,10.8,39.08,.81,15.21-.57,30.45-2.67,45.5-1.06,7.56-2.28,15.1-3.52,22.63-.99,6-2.05,12.19-4.66,17.74s-6.61,9.69-12.1,12.21c-5.25,2.42-11.19,3.13-16.91,3.34-2.87,.11-5.75,.08-8.62,0-3.01-.08-6.06-.18-9.02-.76s-5.91-1.63-8.24-3.63-3.82-4.48-4.92-7.21c-2.43-5.99-3.26-12.74-4.17-19.1s-1.5-13.4-1.39-20.13,.88-13.28,2.3-19.78c1.08-4.94,2.78-9.69,3.75-14.65,.25-1.27,.5-2.55,.75-3.82,.37-1.89-2.52-2.69-2.89-.8l-.84,4.3c-.38,1.92-.87,3.7-1.43,5.58-2.07,6.94-3.52,14.05-4.2,21.26s-.55,13.73,.07,20.56,1.69,14.42,3.34,21.43c1.42,6.03,3.9,12.17,9.21,15.78,5.34,3.63,12.19,3.85,18.42,3.99,11.73,.27,25.23-.26,34.04-9.14,4.55-4.58,7.01-10.73,8.54-16.89,1.74-7.02,2.66-14.28,3.78-21.42,2.48-15.79,4.59-31.71,4.61-47.72,.02-14.57-1.22-30.04-7.65-43.34-5.43-11.23-15.78-21.06-28.69-22.16-12.23-1.04-23.02,6.96-29.51,16.7-7.89,11.85-9.51,26.61-9.75,40.51-.06,3.65-.03,7.31,.01,10.96,.02,1.93,3.02,1.93,3,0Z"/>
      </g>
      <g>
        <path class="cls-13" d="M342.03,225.91c32.8-12,65.61-24.01,98.41-36.01,4.43-1.62,9.09-3.27,13.75-2.55,8.43,1.3,13.88,9.9,15.65,18.25,3.93,18.52-5.1,38.06-19.18,50.73-14.08,12.66-32.48,19.43-50.88,23.9-12.59,3.06-25.42,5.18-38.32,6.33"/>
        <path class="cls-14" d="M342.43,227.35c20.15-7.37,40.3-14.75,60.45-22.12,10-3.66,19.99-7.32,29.99-10.98,4.91-1.8,9.86-4,14.98-5.12,4.29-.94,8.52-.39,12.09,2.25,6.22,4.6,8.77,12.96,9.23,20.36,.52,8.35-1.43,16.72-5.06,24.24-7.75,16.08-22.18,27.08-38.23,34.15-8.32,3.67-17.08,6.32-25.9,8.49-10.14,2.49-20.44,4.38-30.81,5.62-2.57,.31-5.15,.57-7.73,.81-1.91,.17-1.93,3.17,0,3,10.78-.97,21.51-2.58,32.09-4.86,9.51-2.05,18.96-4.56,28.04-8.06,17.07-6.58,33.07-16.93,42.6-32.94,4.45-7.48,7.38-15.94,7.97-24.65,.55-8.16-.93-17.02-5.82-23.76-2.25-3.1-5.16-5.68-8.77-7.07-4.61-1.78-9.6-.92-14.16,.57-5.23,1.71-10.37,3.75-15.54,5.64-5.23,1.92-10.47,3.83-15.7,5.75-20.93,7.66-41.86,15.32-62.79,22.98-2.58,.94-5.15,1.89-7.73,2.83-1.8,.66-1.02,3.56,.8,2.89h0Z"/>
      </g>
      <rect class="cls-6" x="1.5" y="284.35" width="534.99" height="63.83" rx="17.9" ry="17.9"/>
      <g>
        <path class="cls-13" d="M135.98,232.28c-22.46,4.31-44.2,12.33-64.08,23.64-2.58,1.47-5.19,3.04-7.01,5.39-4.85,6.24-2.37,15.62,2.51,21.83,9.32,11.88,24.95,16.45,39.53,20.36,9.37,2.51,18.75,5.03,28.12,7.54,9.58,2.57,19.42,5.16,29.28,4.08,9.7-1.07,19.17-6.02,24.58-14.15,5.41-8.13,6.17-19.45,.89-27.66-7.4-11.5-22.95-13.81-36.57-15.01"/>
        <path class="cls-14" d="M135.58,230.83c-22.29,4.3-43.87,12.2-63.65,23.34-4.33,2.44-8.53,5.14-10.31,10.03-1.58,4.35-.84,9.3,.89,13.48,3.65,8.82,11.82,15.04,20.18,19.1,9.06,4.4,18.91,6.84,28.6,9.44,5.88,1.58,11.76,3.15,17.63,4.73,5.94,1.59,11.86,3.31,17.89,4.5,10.66,2.12,21.69,2.12,31.49-3.1,8.61-4.58,14.98-12.71,16.3-22.48s-2.36-18.44-9.95-24.15c-7.09-5.34-16.25-7.16-24.87-8.24-2.18-.27-4.38-.49-6.57-.68-1.92-.17-1.91,2.83,0,3,8.22,.73,16.83,1.69,24.39,5.23s13.54,10.3,14.19,19.07c.69,9.24-3.77,17.99-11.26,23.34-8.23,5.87-18.27,7.25-28.12,5.94-5.59-.74-11.07-2.2-16.52-3.66-5.64-1.51-11.27-3.02-16.91-4.53-9.63-2.58-19.44-4.85-28.77-8.4-8.21-3.13-16.33-7.62-21.77-14.71-2.66-3.46-4.57-7.81-4.69-12.22-.13-4.76,2.18-8.4,6.1-10.97,4.3-2.82,9.01-5.15,13.62-7.42s9.64-4.53,14.58-6.51c9.91-3.96,20.13-7.17,30.53-9.58,2.58-.6,5.18-1.15,7.78-1.65,1.89-.37,1.09-3.26-.8-2.89h0Z"/>
      </g>
      <g>
        <g>
          <path class="cls-13" d="M105.5,125.11l23.38-55.56c-.07-7.23,2.88-13.85,7.37-19.39,4.87-6,11.99-8.44,17.02-14.23,12.15-13.98,32.36-20.53,49.61-25.38,15.73-4.43,38.68-12.34,54.66-7.56,19.71,5.89,37.98,14.06,55.5,24.65,6.62,4,10.72,11.03,16.01,16.5,5.31,5.49,11.65,9.99,16.78,15.6,5.87,4.17,13.77,6.39,20.9,6.56,6.6,.16,13.86-1.26,19.96,2.01,5.38,2.89,8.75,8.32,12.85,12.64,4.31,4.55,9.86,8.35,11.69,14.68,6.34,21.9-25.84,26.24-39.86,20.46l-.68-1.47c1.73,4.48,3.46,8.95,5.2,13.43,4.06,10.48,8.17,21.31,7.86,32.54-.27,9.63-4.12,19.01-10.32,26.34-6.23,7.36-16.53,10.08-21.29,18.46-2.35,4.14-3.72,8.75-5.7,13.07-8.78,19.22-34.7,40.5-56.8,39.52-7.31-.32-13.85-3.47-20.97-4.41-7.01-.93-14.12,.4-20.96,1.88-13.42,2.89-28.36,8.27-41.7,2.22-8.1-3.67-14.05-11.15-22.23-14.64-7.7-3.28-16.4-2.67-24.76-2.88-16.6-.42-29.33-9.69-38.02-23.59-7.25-11.59-11-24.97-14.66-38.14-4.43-15.92-5.13-36.89-.83-53.32Z"/>
          <path class="cls-14" d="M106.94,125.51c2.56-6.08,5.12-12.16,7.68-18.24,4.16-9.89,8.32-19.78,12.48-29.67,1.02-2.43,2.24-4.86,3.1-7.36,.15-.43,.16-.67,.18-1.2,.08-2.41,.4-4.74,1.1-7.05,1.38-4.57,3.98-9,7.33-12.42s7.17-5.48,10.75-8.21,6.28-6.27,9.65-9.22c6.76-5.92,14.96-10.1,23.28-13.37s16.36-5.46,24.66-7.87,17.36-5.12,26.28-6.67c4.48-.78,9.02-1.28,13.58-1.21s8.58,.92,12.82,2.24c10,3.12,19.8,6.88,29.29,11.31,4.75,2.21,9.43,4.58,14.02,7.1s9.13,4.7,12.86,8.05c3.36,3.01,6.07,6.65,8.96,10.09,3.22,3.83,6.89,7.16,10.66,10.43,1.92,1.67,3.85,3.34,5.71,5.09s3.42,3.61,5.61,4.93c4.09,2.47,8.75,4.08,13.45,4.9,4.66,.81,9.25,.59,13.95,.5,4.93-.1,9.73,.35,13.82,3.36,3.69,2.72,6.34,6.58,9.37,9.96,2.83,3.16,6.21,5.8,8.93,9.06,3.95,4.74,5.7,11.97,2.3,17.49-2.74,4.44-7.95,6.78-12.81,8.05-5.49,1.43-11.39,1.74-17,.93-2.44-.35-4.87-.94-7.16-1.87l.9,.69-.68-1.47c-.7-1.53-3.36-.43-2.74,1.16,3.25,8.39,6.76,16.74,9.53,25.3,2.58,7.99,4.37,16.5,3.07,24.91-1.17,7.54-4.51,14.84-9.47,20.64-4.31,5.04-10.45,7.88-15.54,11.99-2.52,2.03-4.69,4.42-6.25,7.26-2.03,3.7-3.31,7.73-4.98,11.59-2.55,5.9-6.25,11.25-10.49,16.05-9.04,10.22-21.02,19.03-34.38,22.47-2.97,.76-6,1.23-9.06,1.28-3.99,.06-7.83-.77-11.66-1.81s-7.66-2.19-11.63-2.67c-4.33-.53-8.69-.2-12.99,.44-8.17,1.22-16.08,3.63-24.18,5.2s-16.77,2.17-24.45-1.3c-6.69-3.03-11.78-8.54-17.96-12.39-6.89-4.29-14.69-5.13-22.65-5.25-3.89-.06-7.82,.08-11.69-.44-3.18-.42-6.31-1.24-9.3-2.39-6.15-2.37-11.58-6.36-16.06-11.16-10.79-11.56-15.78-27.08-20-41.98-2.12-7.49-3.82-14.95-4.52-22.72s-.65-15.86,.31-23.71c.45-3.65,1.13-7.27,2.05-10.84,.48-1.87-2.41-2.67-2.89-.8-3.97,15.37-3.83,32.05-.73,47.56,1.58,7.89,4,15.74,6.56,23.37s5.95,15.79,10.55,22.84c7.37,11.26,18.34,20.19,31.86,22.51,8.05,1.38,16.3,.09,24.34,1.53,3.98,.71,7.65,2.14,11.05,4.32,3.22,2.05,6.14,4.53,9.17,6.84s6.2,4.43,9.75,5.87c3.73,1.51,7.74,2.23,11.75,2.35,8.36,.27,16.59-1.91,24.65-3.84,8.51-2.04,17.54-4.3,26.32-2.89,7.96,1.27,15.33,4.71,23.55,4.3,13.78-.69,26.71-8.24,36.85-17.14,5.26-4.61,10-9.88,13.86-15.72,1.76-2.66,3.31-5.46,4.59-8.39,1.75-4.02,3.06-8.26,5.25-12.07,3.37-5.86,9.66-8.9,14.94-12.73,6.09-4.41,10.53-10.43,13.45-17.34,3.18-7.52,4.04-15.56,2.93-23.62-1.21-8.8-4.45-17.13-7.64-25.37-1.66-4.29-3.32-8.58-4.98-12.87l-2.74,1.16c.63,1.37,1.01,1.98,2.48,2.51,1.18,.43,2.4,.77,3.63,1.04,2.84,.63,5.76,.93,8.67,.98,6.06,.11,12.28-.83,17.86-3.28,4.94-2.17,9.41-5.93,10.93-11.29,.83-2.91,.7-6,.02-8.92-1-4.28-3.51-7.75-6.55-10.83-3.21-3.25-6.48-6.31-9.43-9.82s-6.17-7.22-10.48-9.21c-4.55-2.09-9.6-2.01-14.5-1.84s-9.94,0-14.84-1.36c-2.5-.69-4.93-1.62-7.22-2.83-1-.53-2.1-1.08-2.98-1.8-1.06-.86-1.96-2.01-2.95-2.96-3.87-3.73-8.11-7.05-11.99-10.76-3.52-3.37-6.43-7.23-9.6-10.91-3.23-3.76-6.78-6.66-11.04-9.18-9.31-5.49-18.97-10.36-28.93-14.56-5.01-2.11-10.09-4.06-15.23-5.82-4.65-1.6-9.4-3.36-14.29-4.05-9.19-1.3-18.62,.26-27.59,2.34s-17.6,4.74-26.34,7.28-17.67,5.49-25.98,9.55c-4.15,2.03-8.16,4.35-11.88,7.09s-6.75,5.95-9.97,9.23-7.53,5.7-11.25,8.6-6.93,6.83-9.16,11.17c-1.12,2.19-2.03,4.51-2.61,6.89-.27,1.11-.46,2.23-.6,3.36-.12,1.01,0,2.2-.16,3.17-.1,.56-.5,1.18-.71,1.7-3.7,8.79-7.4,17.57-11.09,26.36-3.65,8.67-7.29,17.34-10.94,26-.21,.5-.42,1-.63,1.5-.75,1.78,2.15,2.55,2.89,.8Z"/>
        </g>
        <g>
          <path class="cls-13" d="M161.11,57.2c-6.42,6.62-15.29,10.39-24.26,12.5-8.98,2.11-18.23,2.72-27.36,4-3.63,.51-7.28,1.13-10.71,2.44-8.84,3.4-15.62,11.68-17.21,21.02-.59,3.47-.51,7.02-.25,10.52,1.01,13.36,11.74,19.46,24.69,16.69,8.25-1.76,17.78-.09,24.76-5.38,3.92-2.97,6.86-7.03,9.64-11.08"/>
          <path class="cls-14" d="M160.05,56.14c-9.7,9.87-23.85,12.75-37.07,14.4-7.15,.89-14.58,1.26-21.56,3.16-5.65,1.54-10.73,4.66-14.56,9.1s-6.2,9.62-6.94,15.3-.55,12.5,2.02,17.9c1.95,4.11,5.43,7.25,9.62,8.95,4.59,1.87,9.7,1.88,14.5,.93,6.59-1.31,13.58-.65,20-2.8,7.06-2.37,11.59-8.52,15.64-14.42,1.1-1.6-1.5-3.1-2.59-1.51-3.4,4.96-7.28,10.56-13.13,12.79-5.32,2.02-11.16,1.72-16.72,2.4-2.56,.32-5.07,.99-7.65,1.14-2.27,.13-4.54-.01-6.75-.58-4.03-1.04-7.52-3.47-9.63-7.09-2.72-4.65-2.89-10.57-2.5-15.8,.41-5.55,2.62-10.87,6.26-15.09s8.32-7.06,13.68-8.45c6.76-1.75,13.89-2.12,20.8-3,13.87-1.76,28.53-4.86,38.71-15.22,1.35-1.38-.77-3.5-2.12-2.12h0Z"/>
        </g>
        <path class="cls-14" d="M300.21,116.67c5.79,0,5.8-9,0-9s-5.8,9,0,9h0Z"/>
        <path class="cls-14" d="M236.26,126.69c5.79,0,5.8-9,0-9s-5.8,9,0,9h0Z"/>
        <path class="cls-14" d="M276.02,139.81c-.98,.86-.9,2.44-.5,3.35,.54,1.22,1.81,2.16,3.13,2.95,1.02,.61,3.26,.78,4.59,.61,2.65-.34,4.37-2.34,4.96-4.08,.47-1.38,.44-2.86,.14-4.22-.05-.21-.11-.43-.3-.58-.27-.21-.72-.24-1.13-.26-1.79-.08-3.61-.17-5.42,.06-2.07,.25-3.92,.96-5.39,2.11-.03,.02-.06,.05-.09,.08Z"/>
        <path class="cls-14" d="M279.35,147c-.8,2.37-2.1,4.76-4.27,6.14-2.46,1.57-5.65,1.66-8.23,.33-1.71-.88-3.23,1.71-1.51,2.59,3.46,1.78,7.71,1.81,11.08-.22,2.96-1.78,4.75-4.85,5.82-8.04,.62-1.83-2.28-2.62-2.89-.8h0Z"/>
        <path class="cls-14" d="M283.78,147.37c1.2,3.72,4.62,6.37,8.5,6.65,.78,.06,1.53-.73,1.5-1.5-.04-.86-.66-1.44-1.5-1.5-.1,0-.2-.02-.3-.03-.31-.03,.32,.06,0,0-.17-.03-.33-.06-.5-.1-.36-.09-.71-.2-1.06-.33-.33-.12,.3,.14-.01,0-.09-.04-.18-.08-.27-.13-.15-.07-.3-.15-.45-.24-.18-.1-.35-.21-.52-.32-.07-.05-.14-.1-.21-.15-.04-.03-.08-.06-.12-.09,.16,.12,.19,.15,.1,.08-.29-.24-.56-.48-.82-.75-.13-.13-.25-.27-.37-.41-.08-.09-.3-.24-.02-.01-.06-.05-.11-.14-.15-.2-.21-.3-.41-.62-.58-.95-.04-.07-.08-.15-.11-.23-.05-.1-.11-.37-.01-.01-.05-.19-.14-.38-.21-.57-.24-.75-1.05-1.3-1.85-1.05-.75,.24-1.3,1.05-1.05,1.85h0Z"/>
      </g>
      <g>
        <rect class="cls-9" x="136.66" y="208.98" width="18.25" height="18.25" rx="4.07" ry="4.07" transform="translate(-76.19 78.29) rotate(-24.03)"/>
        <rect class="cls-6" x="139.71" y="229.01" width="23.94" height="4.6" rx="2.3" ry="2.3" transform="translate(-81.06 81.83) rotate(-24.03)"/>
        <rect class="cls-6" x="137.54" y="224.14" width="23.94" height="4.6" rx="2.3" ry="2.3" transform="translate(-79.27 80.53) rotate(-24.03)"/>
        <g>
          <rect class="cls-8" x="161.37" y="230.46" width="18.25" height="86.11" transform="translate(-96.62 93.16) rotate(-24.03)"/>
          <line class="cls-1" x1="149.79" y1="235.23" x2="184.86" y2="313.87"/>
          <line class="cls-1" x1="156.08" y1="232.42" x2="191.15" y2="311.06"/>
        </g>
        <polygon class="cls-7" points="195.59 319.47 196.47 311.12 188.79 314.54 181.12 317.96 187.92 322.89 188.45 323.28 195.53 320.12 195.59 319.47"/>
        <polygon class="cls-5" points="195.53 320.12 188.45 323.28 194.72 327.83 195.53 320.12"/>
      </g>
      <g>
        <rect class="cls-6" x="446.56" y="90.44" width="118.4" height="158.49" rx="16.33" ry="16.33" transform="translate(-26.69 136.73) rotate(-15)"/>
        <g>
          <path class="cls-14" d="M568.92,221.25c.69-.34,1.4-.44,2.14-.23,1.13,.31,2.26,.63,3.38,.97,.82,.24,1.29,.82,1.43,1.65,.14,.83-.11,1.54-.79,2.06-.33,.25-.74,.34-1.14,.45-.5,.13-1,.25-1.5,.4-.62,.19-1.15,.54-1.63,.98-.37,.33-.73,.67-1.12,.97-1.3,.98-2.64,.31-3.19-.65-.28-.49-.36-1.03-.17-1.57,.39-1.15,.78-2.29,1.19-3.43,.25-.71,.74-1.23,1.4-1.58Z"/>
          <path class="cls-14" d="M567.73,217.91c-.14-.27-.25-.57-.32-.86-.1-.41-.1-.86,.04-1.26s.45-.75,.84-.9c.36-.14,.77-.1,1.13,.05s.66,.41,.91,.7c.49,.56,.82,1.29,.83,2.03,0,.31-.04,.63-.18,.92s-.35,.54-.63,.68c-.43,.22-.97,.15-1.4-.07-.54-.28-.95-.75-1.23-1.29Z"/>
          <path class="cls-14" d="M566.86,218.33c.16,.31,.28,.65,.34,.99,.07,.38,.07,.78-.06,1.14s-.37,.7-.72,.86c-.43,.21-.96,.14-1.38-.08-.81-.42-1.32-1.24-1.54-2.1-.1-.4-.12-.84,0-1.23s.4-.76,.78-.93c.35-.16,.76-.15,1.12-.02s.68,.37,.94,.65c.2,.22,.37,.46,.51,.72Z"/>
          <path class="cls-14" d="M572.72,219.16c-.25-.48-.36-1.04-.35-1.55,0-.16,.02-.32,.05-.47,.05-.29,.15-.58,.35-.8,.25-.28,.65-.41,1.01-.35,.3,.05,.57,.23,.79,.45,.47,.47,.72,1.12,.8,1.78,.05,.41,.03,.85-.14,1.23s-.52,.7-.93,.76c-.28,.04-.58-.04-.82-.19-.33-.2-.58-.51-.76-.86Z"/>
          <path class="cls-14" d="M562.04,223.93c-.22-.42-.38-.84-.33-1.32,.07-.65,.57-1.06,1.23-1.01,.56,.04,1.01,.32,1.41,.69,.48,.46,.83,1,.93,1.67,.09,.52-.02,.99-.5,1.3-.33,.22-.69,.22-1.05,.11-.6-.18-1.06-.58-1.44-1.06-.09-.12-.17-.25-.26-.37Z"/>
        </g>
        <g>
          <path class="cls-11" d="M461.95,126.86c2.81-5.73,4.02-12.24,3.48-18.6,1.33,2.44,2.67,4.88,4,7.32,.63-2.06,1.26-4.12,1.89-6.18,.9,2.9,2.25,5.66,3.99,8.16"/>
          <path class="cls-11" d="M482.55,103.41c.52-.32,1.29-.45,1.68,.02,.19,.23,.25,.54,.29,.83,.4,2.85,.27,5.77-.4,8.57-.48-.89,.22-2.1,1.2-2.35s2.04,.31,2.62,1.13c2.53,3.61-1.1,11.47-4.97,6.23-2.1-2.84-4.16-12.16-.42-14.44Z"/>
          <path class="cls-11" d="M491.45,103.84c.44,.44,1.18,.23,1.75,0,3.55-1.4,7.09-2.81,10.64-4.21"/>
          <path class="cls-1" d="M498.34,103.01c1.44,4.08,2.2,8.39,2.25,12.72"/>
          <path class="cls-1" d="M511.31,98.85l7-1.59"/>
          <path class="cls-1" d="M514.71,100.68c.98,4.11,1.95,8.22,2.93,12.33"/>
          <path class="cls-1" d="M513.95,116.29c5.05-2.46,10.28-4.56,15.63-6.26"/>
        </g>
        <g>
          <rect class="cls-1" x="457.68" y="149.38" width="10.58" height="10.58" rx="2.59" ry="2.59" transform="translate(-24.26 125.13) rotate(-15)"/>
          <path class="cls-3" d="M474.14,154.03l1.29-2.94c.15-.35,.32-.72,.66-.94,.61-.41,1.43-.12,2.11,.11,2.67,.9,5.8,.67,8.38-.62,2.21-1.1,3.93-2.87,5.82-4.42s4.15-2.93,6.61-2.96c.98,0,1.93,.2,2.89,.34,3.01,.45,6.24,.22,9.01-1.12,3.83-1.84,6.67-5.68,10.88-6.29,2.37-.34,4.83,.43,7.12-.26,1.77-.53,3.21-1.88,5.02-2.24,2.02-.4,4.58,.32,5.82-1.24"/>
        </g>
        <g>
          <rect class="cls-1" x="463.71" y="171.92" width="10.58" height="10.58" rx="2.59" ry="2.59" transform="translate(-29.89 127.47) rotate(-15)"/>
          <path class="cls-3" d="M480.18,176.56l1.29-2.94c.15-.35,.32-.72,.66-.94,.61-.41,1.43-.12,2.11,.11,2.67,.9,5.8,.67,8.38-.62,2.21-1.1,3.93-2.87,5.82-4.42,1.89-1.54,4.15-2.93,6.61-2.96,.98,0,1.93,.2,2.89,.34,3.01,.45,6.24,.22,9.01-1.12,3.83-1.84,6.67-5.68,10.88-6.29,2.37-.34,4.83,.43,7.12-.26,1.77-.53,3.21-1.88,5.02-2.24,2.02-.4,4.58,.32,5.82-1.24"/>
        </g>
        <g>
          <rect class="cls-1" x="469.75" y="194.45" width="10.58" height="10.58" rx="2.59" ry="2.59" transform="translate(-35.51 129.8) rotate(-15)"/>
          <path class="cls-3" d="M486.22,199.09l1.29-2.94c.15-.35,.32-.72,.66-.94,.61-.41,1.43-.12,2.11,.11,2.67,.9,5.8,.67,8.38-.62,2.21-1.1,3.93-2.87,5.82-4.42s4.15-2.93,6.61-2.96c.98,0,1.93,.2,2.89,.34,3.01,.45,6.24,.22,9.01-1.12,3.83-1.84,6.67-5.68,10.88-6.29,2.37-.34,4.83,.43,7.12-.26,1.77-.53,3.21-1.88,5.02-2.24,2.02-.4,4.58,.32,5.82-1.24"/>
        </g>
        <g>
          <rect class="cls-1" x="475.79" y="216.98" width="10.58" height="10.58" rx="2.59" ry="2.59" transform="translate(-41.14 132.13) rotate(-15)"/>
          <path class="cls-3" d="M492.26,221.63l1.29-2.94c.15-.35,.32-.72,.66-.94,.61-.41,1.43-.12,2.11,.11,2.67,.9,5.8,.67,8.38-.62,2.21-1.1,3.93-2.87,5.82-4.42s4.15-2.93,6.61-2.96c.98,0,1.93,.2,2.89,.34,3.01,.45,6.24,.22,9.01-1.12,3.83-1.84,6.67-5.68,10.88-6.29,2.37-.34,4.83,.43,7.12-.26,1.77-.53,3.21-1.88,5.02-2.24,2.02-.4,4.58,.32,5.82-1.24"/>
        </g>
        <path class="cls-12" d="M458.73,148.6l4.44,6.19c.56-5.59,2.17-11.08,4.72-16.1"/>
        <path class="cls-12" d="M470.3,191.73c1.48,2.06,2.96,4.13,4.44,6.19,.56-5.59,2.17-11.08,4.72-16.1"/>
        <path class="cls-12" d="M476.63,215.37c1.48,2.06,2.96,4.13,4.44,6.19,.56-5.59,2.17-11.08,4.72-16.1"/>
      </g>
      <g>
        <path class="cls-10" d="M352.01,73.34s1.25,19.88-11.57,28.51c0,0,18.12,.73,19.04,16.65,0,0,1.82-17.48,8.5-25.16,0,0-10.38,2.97-15.97-20Z"/>
        <path class="cls-2" d="M323.46,70.17s.05,10.93-7.39,11.11c0,0,11.69,.31,11.63,9.17,0,0-.21-12.79,5.34-14.74,0,0-6.61,3.32-9.59-5.53Z"/>
      </g>
      <path class="cls-11" d="M247.3,110.96c-6.65-5.19-15.22-7.86-23.64-7.37"/>
      <path class="cls-11" d="M288.18,104.65c2.59-3.91,6.83-6.69,11.44-7.51"/>
      <ellipse class="cls-11" cx="232.96" cy="122.19" rx="17.67" ry="12.16"/>
      <ellipse class="cls-11" cx="302.54" cy="112.17" rx="13.93" ry="9.58" transform="translate(-16.5 63.92) rotate(-11.74)"/>
      <path class="cls-11" d="M288.9,114.74c-2.49-2.3-5.17-4.7-8.5-5.36-1.44-.28-2.93-.22-4.39-.06-10.1,1.06-19.1,6.88-25.13,15.04"/>
    </g>
  </g>
</svg>