<?xml version="1.0" encoding="UTF-8"?>
<svg id="_레이어_2" data-name="레이어 2" xmlns="http://www.w3.org/2000/svg" viewBox="0 0 541.64 579.62">
  <defs>
    <style>
      .cls-1, .cls-2, .cls-3 {
        fill: #fff;
      }

      .cls-4 {
        fill: #e5afb3;
      }

      .cls-5 {
        fill: #444;
      }

      .cls-2 {
        stroke-miterlimit: 10;
      }

      .cls-2, .cls-3, .cls-6 {
        stroke: #444;
        stroke-width: 3px;
      }

      .cls-3, .cls-6 {
        stroke-linecap: round;
        stroke-linejoin: round;
      }

      .cls-6 {
        fill: none;
      }
    </style>
  </defs>
  <g id="_레이어_1-2" data-name="레이어 1">
    <g>
      <path class="cls-2" d="M173.96,201.45c-1-.92-2.58-1.15-3.81-.57-1.13,4.13-1.83,9.51,1.78,11.81,2.18,1.39,5.34,.78,7.01-1.2s1.79-5.04,.47-7.26c-1.41-2.36-4.35-3.71-7.06-3.22"/>
      <path class="cls-2" d="M200.86,216.36c-2.69-.55-5.64,1.48-6.07,4.2-.6,3.01,3.34,5.69,6.04,4.22s2.8-5.93,.32-7.74"/>
      <g>
        <g>
          <path class="cls-1" d="M200.27,91.56c-.01,.44-.02,.88,0,1.33,.09,2.11,.81,4.15,1.33,6.19,.64,2.53,1.19,5.14,1.72,7.71,1.09,5.35,1.77,10.87,.89,16.3-1.06,6.55-4.55,12.61-9.45,17.05-4.93,4.46-12.21,5.38-16.23,10.67-1.98,2.61-3.34,5.63-5.08,8.41-7.75,12.33-27.39,24.5-42.4,21.82-4.96-.89-9.14-3.63-13.92-4.93-4.71-1.27-9.68-1.01-14.49-.63-9.43,.75-20.12,3.07-28.69-2.28-5.2-3.25-8.58-8.89-13.85-12.02-4.96-2.94-10.96-3.31-16.65-4.22-11.3-1.8-19.15-9.29-23.82-19.57-3.89-8.58-5.24-18.05-6.54-27.38-1.57-11.28-.15-25.66,4.29-36.49l21.03-35.82c.61-4.94,3.23-9.2,6.8-12.57,3.88-3.66,8.96-4.67,12.92-8.17,9.57-8.45,23.97-11.07,36.19-12.82,11.15-1.59,27.54-4.9,38.02-.19,12.92,5.82,24.66,13.06,35.66,21.89,4.16,3.34,6.32,8.51,9.43,12.73,3.12,4.23,7.05,7.88,10.04,12.18,2.27,3.17,4.26,6.61,5.88,10.15,1.26,2.76,2.1,5.4,2.33,8.43,.24,3.19,.17,6.47,1.27,9.51,.96,2.67,2.93,5.1,3.32,7.96,.22,1.59,.03,3.17-.01,4.76Z"/>
          <path class="cls-5" d="M198.77,91.56c-.06,2.99,.84,5.72,1.55,8.58s1.37,5.94,1.91,8.93c1.05,5.78,1.39,11.8-.39,17.47-1.54,4.89-4.53,9.41-8.41,12.76-3.44,2.97-7.98,4.23-11.75,6.68-2.04,1.33-3.71,2.95-5.09,4.96-1.65,2.4-2.88,5.05-4.43,7.5-2.31,3.67-5.35,6.85-8.65,9.64-7.04,5.97-16.12,10.85-25.44,11.68-2.14,.19-4.33,.19-6.45-.17-2.72-.46-5.27-1.52-7.8-2.6s-4.99-2.12-7.66-2.68c-2.9-.61-5.87-.73-8.82-.64-5.51,.18-10.97,1.07-16.48,1.35-5.12,.26-10.46-.03-15.06-2.51s-7.61-6.8-11.48-10.12c-4.09-3.51-8.89-5.11-14.15-5.97-4.93-.8-9.86-1.2-14.4-3.45-3.88-1.93-7.22-4.75-9.91-8.14-6.84-8.62-9.06-19.89-10.63-30.5-.78-5.28-1.36-10.51-1.21-15.86s.82-10.76,2.09-16c.62-2.54,1.37-5.06,2.31-7.5,.17-.45,.32-.79,.56-1.2l2.37-4.04c2.94-5,5.87-10,8.81-15.01,2.7-4.59,5.39-9.19,8.09-13.78,.48-.82,1.08-1.64,1.47-2.51,.37-.82,.38-1.84,.61-2.71,.33-1.27,.8-2.49,1.41-3.65,1.19-2.28,2.82-4.31,4.71-6.05s4.35-2.94,6.68-4.13,4.41-2.47,6.37-4.15c3.74-3.2,8.21-5.49,12.81-7.17,9.17-3.34,18.92-4.49,28.52-5.93,4.96-.75,9.94-1.42,14.96-1.6,4.74-.18,9.6,.01,14.13,1.53,2.55,.85,4.99,2.15,7.39,3.34,2.53,1.26,5.03,2.58,7.49,3.97,4.97,2.8,9.79,5.86,14.44,9.16s9.08,6.29,12.16,10.89c1.41,2.1,2.64,4.32,4.08,6.4,1.62,2.35,3.5,4.51,5.39,6.66,3.88,4.4,7.35,8.97,10.03,14.21,1.28,2.51,2.42,5.1,2.99,7.87s.41,5.89,.84,8.81c.4,2.72,1.49,5,2.73,7.42,.57,1.1,1.11,2.24,1.32,3.47,.27,1.56,.06,3.2,0,4.77-.07,1.93,2.93,1.93,3,0,.12-3.1,.14-5.77-1.18-8.64-.58-1.26-1.3-2.44-1.86-3.71-.62-1.39-.97-2.89-1.15-4.4-.36-2.98-.23-6-.9-8.95s-1.87-5.56-3.2-8.16c-2.69-5.25-6.16-9.9-10.05-14.31-1.96-2.22-3.94-4.43-5.59-6.88-1.49-2.21-2.78-4.54-4.31-6.73-3.26-4.68-8.01-7.91-12.61-11.18s-9.59-6.45-14.62-9.29c-2.59-1.46-5.23-2.85-7.9-4.17-2.46-1.21-4.95-2.5-7.54-3.39C126.19,.14,121.07-.12,116.16,.04s-10.18,.84-15.22,1.59-9.67,1.37-14.47,2.23c-10.02,1.79-20.34,4.64-28.38,11.17-2.07,1.68-4.12,3.06-6.49,4.28s-4.76,2.44-6.82,4.18-3.74,3.8-5.08,6.05c-.63,1.06-1.16,2.18-1.61,3.34-.51,1.32-.67,2.67-1.07,4-.19,.66-.88,1.7-1.31,2.44l-3.56,6.07c-3.22,5.49-6.45,10.98-9.67,16.47-2.08,3.54-4.29,7.03-6.25,10.64-.54,.99-.89,2.09-1.26,3.16-.88,2.5-1.58,5.06-2.14,7.64-1.17,5.38-1.78,10.91-1.85,16.42s.67,11.05,1.51,16.55c.91,5.92,2.04,11.85,4.07,17.5,3.23,9,8.9,17.46,17.68,21.8,4.62,2.29,9.46,2.87,14.49,3.65,2.76,.43,5.55,.96,8.16,2.01,2.45,.99,4.55,2.53,6.46,4.33,3.84,3.6,7.15,7.84,12.03,10.1s10.48,2.66,15.89,2.35c5.52-.32,11-1.21,16.53-1.34,3.15-.08,6.3,.11,9.34,.99,2.71,.78,5.24,2.02,7.85,3.07,4.68,1.89,9.45,2.54,14.45,1.9,4.74-.61,9.3-2.15,13.6-4.2,8.51-4.07,16.64-10.41,21.7-18.46,1.55-2.46,2.78-5.11,4.43-7.5,1.36-1.98,3.14-3.42,5.21-4.61,4.22-2.43,8.75-4.01,12.3-7.48,3.78-3.69,6.65-8.35,8.16-13.41,1.75-5.85,1.42-12.03,.4-17.97-.5-2.93-1.13-5.85-1.82-8.74s-1.73-5.68-1.66-8.68c.04-1.93-2.96-1.93-3,0Z"/>
        </g>
        <path class="cls-5" d="M117.58,106.07c-.75,.5-.84,1.59-.64,2.24,.26,.88,1.04,1.64,1.87,2.3,.64,.51,2.16,.83,3.08,.83,1.84,0,3.2-1.2,3.76-2.33,.45-.9,.56-1.92,.48-2.87-.01-.15-.03-.3-.15-.42-.16-.17-.47-.23-.75-.28-1.22-.22-2.45-.44-3.7-.46-1.44-.01-2.76,.3-3.87,.95-.02,.01-.05,.03-.07,.04Z"/>
        <path class="cls-6" d="M109.02,120.62c.42,.86,1.59,1.05,2.5,.77s1.68-.89,2.55-1.28c1.53-.68,3.37-.61,4.84,.19,1.25,.68,2.41,1.9,3.82,1.69,1.88-.28,2.84-2.96,4.73-2.89,1.36,.05,2.2,1.49,3.43,2.07,1.3,.62,2.91,.17,4.03-.73s1.86-2.18,2.58-3.43"/>
        <path class="cls-6" d="M121.92,110.58c-.6,1.54,1.45,4.04,.84,5.58-.17,.42-.5,.75-.69,1.16-.44,.98,.07,2.09,.21,3.15"/>
        <path class="cls-3" d="M42.16,62.63c-5.82-1.4-12.03-1.13-17.71,.77-2.92,.98-5.38,2.18-8.55,1.37-2.33-.6-4.42-1.92-6.3-3.43-3.62-2.88-6.75-6.67-7.77-11.18-1.14-5.05,.67-10.66,4.55-14.09s9.67-4.53,14.54-2.77c6.81,2.46,12.59,8.95,18.67,12.88"/>
        <path class="cls-3" d="M174.01,47c2.7-4.18,7.88-6.61,12.82-6,2.6,.32,5.25,1.4,7.75,.63,3.66-1.13,5.09-5.95,3.75-9.54-1.34-3.59-4.6-6.08-7.9-8.02-3.19-1.86-6.8-3.44-10.46-2.97-3.58,.45-6.69,2.84-8.81,5.76s-3.39,6.36-4.58,9.77"/>
        <g>
          <g>
            <path class="cls-4" d="M68.85,111.33c.07,.05,.25,.13,.22,.1l-.29-.17,.07,.06Z"/>
            <path class="cls-4" d="M69.44,111.53c-.13-.09-.37-.24-.65-.37,.27,.17,.16,.1,.48,.3,.03,.03-.1-.03-.21-.09,.07,.04-.07-.02,.11,.09,.23,.1,.25,.09,.08-.03,.07,.03,.14,.08,.19,.1Z"/>
            <path class="cls-4" d="M70.53,110.57h-.04s.03,0,.04,0Z"/>
            <path class="cls-4" d="M71.08,109.9s.03,.03,.06,.04c-.02-.02-.03-.03-.06-.04Z"/>
            <path class="cls-4" d="M71.47,109.93s-.02,0-.02,0c.03,.01,.05,.02,.02,0Z"/>
            <path class="cls-4" d="M70.53,110.57l.1,.03c-.09-.05-.08-.03-.1-.03Z"/>
            <path class="cls-4" d="M68.82,110.99s.04,.03,.07,.05c-.01-.01-.02-.02-.03-.03l-.05-.02Z"/>
            <path class="cls-4" d="M70.6,111.02h0s.07,.05,.12,.07l-.11-.07Z"/>
            <path class="cls-4" d="M70.51,111.3s-.23-.13-.34-.19c.1,.06,.15,.09,.16,.1,.05,.02,.1,.05,.18,.09Z"/>
            <path class="cls-4" d="M69.86,111.47l.03,.03s-.02-.02-.03-.03Z"/>
            <path class="cls-4" d="M70.75,110.87s.07,.03,.09,.04l-.09-.04Z"/>
            <path class="cls-4" d="M72.28,102.77s.03,.01,.05,.02c-.03-.01-.05-.02-.05-.02Z"/>
            <polygon class="cls-4" points="73.69 103.03 73.7 103.04 73.84 103.1 73.69 103.03"/>
            <path class="cls-4" d="M71.91,109.86h0s.02,.01,0,0Z"/>
            <path class="cls-4" d="M72.81,107.57c-.24-.08-.27-.18-.54-.26,.1,.04,.38,.22,.54,.26Z"/>
            <path class="cls-4" d="M68.86,111h0s-.01,0,0,0Z"/>
            <path class="cls-4" d="M72.27,107.31h0s-.03,0-.03,0c.01,0,.02,0,.03,0Z"/>
            <path class="cls-4" d="M72.04,109.23s-.08-.03-.11-.05c.03,.01,.06,.03,.11,.05Z"/>
            <path class="cls-4" d="M71.48,109.46h.04s-.04,0-.04,0Z"/>
            <path class="cls-4" d="M71.79,108.84s.06,.02,.03,0c-.01,0-.02,0-.03-.01,.03,.02,.05,.03,0,.02Z"/>
            <path class="cls-4" d="M71.9,108.62s-.04-.01-.05-.02h.01s.04,.02,.04,.02Z"/>
            <path class="cls-4" d="M72.11,103.5c.07,.03,.15,.06,.24,.09-.18-.08-.23-.14-.24-.09Z"/>
            <path class="cls-4" d="M68.96,111.07c-.06-.03-.09-.05-.1-.06,0,0,0,0,0,.01,.04,.02,.07,.04,.09,.05Z"/>
            <path class="cls-4" d="M69.81,107.85l.05-.02s-.05,0-.05,.02Z"/>
            <path class="cls-4" d="M71.42,105.1l-.03-.02s0,0,.03,.02Z"/>
            <path class="cls-4" d="M69.88,107.71c.09,.04,.15,.06,.18,.07-.02-.01-.03-.02-.06-.04l-.12-.03Z"/>
            <path class="cls-4" d="M72.34,103.59h0s0,0,0,0Z"/>
            <path class="cls-4" d="M71.84,103.09s.32,.16,.51,.25c.08,.08-.26-.09-.44-.15,.08,.06,.38,.22,.36,.23-.06-.02-.08-.03-.15-.06,.26,.15-.02,.08,.3,.26-.03-.01-.06-.02-.09-.03,.17,.07,.34,.15,.47,.2,0,.02,.2,.12-.02,.03,.01,0-.08-.05-.15-.08l.09,.06c-.32-.13-.1-.07-.33-.17,.09,.08,.34,.23,.24,.21-.31-.13-.08-.1-.37-.19l.13,.02c-.5-.19,.04,0-.49-.21-.11,0,.13,.12,.02,.13,.17,.08,.25,.12,.42,.2,.28,.21-.8-.29-.41-.06,.2,.11,.59,.29,.37,.23l-.35-.17c-.06,.03,.49,.25,.23,.2-.13-.07-.1-.09-.14-.1-.29-.09,.19,.11,.18,.14l-.31-.13c.03,.07,.23,.23,.26,.31-.09-.04-.18-.1-.28-.13,.12,.14-.1,.13-.32,.11l.26,.15s-.13-.04-.17-.07c-.11-.02,.17,.08,.27,.14,.01,.02-.16-.05-.24-.1,.21,.15,.43,.35,.12,.27l-.08-.05c-.13-.01,.53,.29,.26,.21l-.04-.03c-.15,.03,.05,.23-.38,.11,.38,.19-.21,0,.33,.25-.29-.08-.38-.13-.58-.15-.03,0,.32,.18,.37,.23l-.28-.13,.28,.16-.34-.14,.06,.05s.13,.04,.21,.08c.11,.09-.23-.01-.37-.08l.2,.18c-.11-.05-.14-.08-.21-.13,.27,.17-.3-.13-.05,.03,.07,.02,.17,.08,.22,.11-.18-.06-.2-.02-.14,.04l-.19-.1c-.07,.03,.04,.16,0,.22,.1,.02,.43,.18,.45,.21l-.3-.13c.18,.1,.12,.03,.33,.16-.04,0-.34-.14-.43-.2l.09,.08c-.09-.04-.13-.07-.24-.12,.18,.1-.32-.09,0,.08l-.09-.04c-.03,.06,.06,.14,.05,.19,.25,.12,.19,.11,.39,.23-.1,0-.32-.05-.32,0,.11,.09,.21,.11,.36,.2-.23-.11-.23-.05-.39-.15,.01,.07,.01,.09,.17,.25,.1,.04,.14,.05,.22,.09,.03,.03-.11-.02-.22-.07h-.02c.31,.23-.76-.16-.3,.13h-.02s.22,.17,.22,.17c-.05,0-.17-.1-.32-.15,.35,.25-.11,.08,.12,.26-.7-.28-.03,.18-.49,.02l.16,.07c.15,.09-.1-.03-.14-.03,.13,.06,.15,.05,.23,.1,.13,.22-.36,.15-.57,.21-.07,.03,.81,.43,.4,.3l-.29-.16c.31,.27-.11,.19,.15,.43-.07-.04-.15-.08-.15-.09-.22-.09-.05,.07,.13,.15-.03,0-.16-.07-.25-.11-.14-.04,.25,.19,.03,.09-.04-.02-.07-.04-.08-.05,.1,.06-.06,.05,.2,.16-.14-.02,.08,.12-.08,.08,.27,.16-.16,0,.23,.19-.4-.2-.36-.1-.18,.02-.12-.07-.14-.04-.3-.14,0,.03,.06,.09,.27,.19-.51-.19,.34,.29-.29,0,.18,.18,.29,.33,.35,.44-.4-.2,0-.09-.43-.3,.13,.15,.46,.36,.33,.37-.06-.01-.17-.1-.24-.14,.13,.15-.1,.1,.09,.27-.04-.02-.08-.05-.1-.07,0,.02-.07,0,.11,.09l-.04-.04c.27,.12,.53,.32,.67,.4-.51-.28-.16-.01-.81-.38,.03,.02,.11,.08,.24,.14-.04,0-.11-.04-.25-.12,.08,.09,.28,.17,.26,.21-.09-.05-.12-.07-.22-.13,.16,.11,.33,.21,.24,.2-.05-.03-.12-.06-.12-.07,0,.07,.41,.32,.22,.3-.38-.21-.14-.04-.47-.21l.08,.08,.17,.07s.21,.17,.09,.14l-.13-.09,.04,.08,.14,.04c.16,.11,.42,.21,.31,.2-.03-.02-.02,.03-.22-.06h0c.1,.07,.2,.14,.11,.12-.11-.05-.37-.19-.44-.23,.27,.16,.04,.1,.33,.27-.07-.04-.24-.13-.28-.15l.22,.13c-.08-.02-.11-.04-.25-.11-.06,.02,.43,.2,.22,.16-.02-.01-.05-.03-.08-.05-.12,0,.1,.16-.03,.15-.34-.16-.06-.08-.35-.21,.03,.09,.34,.33,.23,.35h.04c.47,.26-.26-.07-.05,.08-.03-.03-.26-.14-.2-.12-.1,0,.07,.14,.19,.28l-.12-.07c-.12-.03-.09,.03-.16,.03,.12,.07,.09,.07,.27,.16-.73-.28,.29,.34-.32,.11,0,0-.1-.07-.1-.07l.08,.12c.21,.1,.13,.06,.29,.13,.12,.07,.2,.14,.19,.15-.12-.1-.33-.17-.45-.22,.06,.03,.13,.07,.2,.1-.38-.16,.41,.22,.14,.13l-.11-.06s.18,.13,.14,.13c-.24-.12-.1-.07-.3-.18,0,.03,.42,.28,.18,.18-.06-.04-.05-.06-.11-.1-.29-.12-.22-.08-.27-.09h0s-.15-.02-.15-.02l.08,.03c.6,.35,.08,.12,.46,.37-.36-.24-.22-.12-.48-.27-.08-.03-.17-.06-.24-.1,.21,.13-.19-.06,.12,.14-.09-.04-.02,.02-.23-.1,.05,.06,.15,.07,.26,.13,.27,.19-.4-.1-.03,.17,.14,.14,.43,.3,.55,.42-.15-.06-.31-.18-.31-.18-.14-.04-.13-.01-.04,.06-.07-.04-.14-.07-.24-.12,.01,.03,.31,.18,.17,.14-.09-.06-.24-.15-.34-.2,.07,.06,.21,.18,.28,.23-.15-.07-.22-.13-.31-.19,.05,.06,.1,.14,.34,.27l.09,.03s-.21-.1-.25-.13c-.17-.12,.1,.01,.19,.06l.05,.04c.51,.25-.05-.11,0-.12l.36,.21-.29-.19c.1,.04,.31,.15,.35,.19,.19,.07-.12-.09,.09,0,.03,.01,.05,.02,.06,.03l-.1-.08c.07,.05,.26,.13,.2,.12,.23,.07-.24-.21,.04-.08l.02,.02c-.09-.12-.27-.15-.56-.36l.68,.33-.27-.15s.04,0,.15,.06c-.17-.12-.12-.06-.29-.16,.26,.1-.08-.14,.36,.08-.2-.12-.17-.06-.3-.16,.47,.24-.06-.08,.16,.01,.23,.13,.1,.09,.32,.18-.4-.23,.11,0,.05-.06-.32-.17-.11-.12-.2-.21,.11,.06,.21,.03,.35,.05l.05,.03c-.32-.18-.24-.18-.3-.24,.19,.1,.27,.15,.35,.21v-.02c-.09-.06-.14-.1-.17-.13l.24,.13s-.25-.21-.07-.17c-.23-.12-.65-.3-.78-.42,.12,.06,.33,.17,.38,.21-.01-.01-.1-.07-.04-.05l.2,.12c.1,.03-.17-.1-.14-.1,.18,.09,.13,.06,.27,.13,.02,.01-.08-.03-.01,.02,.04,0,.15,.03,.29,.1-.1-.05-.24-.12-.25-.15,0-.04,.22,.1,.32,.13-.12-.07,.02-.03-.24-.16,0,0,.13,.05,.2,.09-.11-.08,0-.09-.28-.22h-.02s-.01-.01-.01-.01c-.23-.19,.21-.03,.12-.14l.09,.05c-.08-.08-.02-.1-.2-.22,0,0,.17,.06,.27,.12-.05-.06-.15-.11,.01-.07,.14,.1,.14,.06,.1,.08,.09,0,.24,.07,.01-.08,.22,.13,.3,.12,.24,.07l-.17-.06s0-.04,.03-.04l.29,.16c.39,.12-.55-.43,.07-.17-.2-.12-.16-.04-.4-.18,.05,0,.5,.17,.5,.17,.18,.04-.41-.26-.28-.24-.11-.05-.39-.19-.48-.27,.05,0,.46,.19,.54,.25,0,.01-.03,0-.07-.02,.03,.03,.07,.06,.19,.11l-.1-.06c.12,.04,.12,0,.29,.09-.09-.07-.17-.1-.23-.11,.17,.04,.03-.06,.16-.04-.06-.02-.19-.08-.18-.09,.16,0-.19-.13-.21-.19,.17,.06,.38,.2,.27,.1,.12,.03,.28,.14,.36,.19-.19-.14,.17,0,.22,0l.08,.06s-.04-.05-.03-.05l-.22-.1s.05,0,.14,.04c-.13-.08-.36-.17-.53-.29,.11,.04-.09-.1,.19,.03-.12,0,.28,.14,.31,.2-.03-.02-.02-.03,.02-.03,.03,.01,.06,.03,.07,.04,.27,.08-.31-.18-.28-.22,.16,.09,.31,.14,.28,.12-.01,.02-.27-.12-.38-.2,.14,.03-.08-.08-.05-.09h-.07c-.16-.1-.13-.1-.17-.15,.12,.06,.08,.06,.13,.08-.27-.16,.31,.09,.14-.03,.11,.04,.3,.15,.38,.17-.19-.14,.24,.07,.09-.05-.22-.1-.17-.07-.36-.2l.12,.14-.29-.2s.11,.11,.07,.1c-.16-.11-.11-.08-.29-.16,.33,.14-.16-.14,.07-.06l.53,.27c.26,.07-.23-.21-.07-.2l-.1-.03c-.21-.11-.01-.05-.09-.11,.18,.09,.25,.11,.36,.16-.13-.06,.03-.04-.32-.22l.25,.09c.12,0-.48-.3-.39-.32,.19,.11,.32,.15,.44,.25,0-.01,.05-.01-.07-.07,.12,.05-.22-.16-.04-.09-.07-.04-.26-.14-.24-.15,.04,.02,.09,.04,.09,.04-.09-.04-.11-.08-.31-.17,.57,.23,.02-.15,.52,.05-.04-.06-.08-.13-.08-.16,.05,.03,.09,.04,.07,.04,.18,.04-.5-.28-.29-.23,.3,.12,.14,.1,.26,.14,.59,.28-.05-.09,.3,.04l.03,.02c.21,.07-.19-.17-.13-.19,0,0,.05,.03,.09,.04-.28-.17-.36-.27-.42-.35,.22,.12,.11,.08,.35,.18-.02-.03-.38-.18-.42-.24,.13,.05,.25,.08,.5,.2v.04c.33,.14,0-.05,.07-.04l.14,.07c-.02-.07-.37-.24-.32-.28l-.11-.05c-.34-.2,.21,.07-.04-.08l.36,.16c-.08-.06-.31-.23-.36-.3,.25,.15,.37,.25,.51,.35,.01-.02,0-.08-.17-.17,.03,.02,.11,.08,.05,.06-.27-.16-.39-.25-.37-.29,.69,.34,.22-.01,.77,.22-.22-.19,.17-.08,.17-.17-.55-.23,0-.03-.56-.29-.03-.03-.01-.04,.02-.02l.36,.1c.17,.06,.11,.08,.24,.13,.06-.02,.24,.1,.4,.14-.2-.09-.28-.15-.19-.14l-.27-.09c-.27-.2,.49,.17,.22-.02l.17,.1c-.09-.08,.05-.1-.38-.34,.07,.03,.22,.09,.25,.12,.1-.04-.4-.38-.1-.3l.13,.07s-.24-.14-.1-.09c.06,.03,.13,.07,.14,.07-.04-.03-.22-.15-.13-.13l.15,.09c.21,.02-.32-.28-.39-.38,.4,.19,.55,.2,.63,.2l.06,.03c.09-.05-.27-.29-.39-.43,.45,.16,.25-.07,.53-.02-.08-.02-.31-.15-.34-.18,.09,.02-.26-.18,.11,0h0c.36,.16,.29,.08,.31,.06l-.48-.23c.73,.25-.17-.3,.47-.05-.11-.07-.1-.09-.21-.17l.26,.12c.09-.02,.13-.03,.1-.11l.18,.1s-.72-.38-.72-.42l.39,.17c.02-.06,.38,.04,.06-.18,.06,.03,.17,.08,.18,.1,.02-.02,.31,.01-.22-.22,.34,.16,.06-.04-.08-.14l.25,.12c-.31-.17-.4-.21-.47-.29,.04,0,.21,.08,.14,.07,.15,.03-.23-.13-.08-.1l.16,.09s-.05-.06-.24-.16c-.09-.06,.09-.03,.32,.07-.14-.07-.32-.17-.24-.16,.09,.04,.14,.07,.16,.08,.2,.03-.26-.21,0-.13,.09,.03,.13,.05,.15,.06-.02,.04-.05,.06-.07,.05,.23,.11,.29,.09,.6,.26-.16-.11-.53-.32-.4-.3,.02,0,.05,.02,.08,.03l.02,.02s0-.01-.03-.04c.04,0,.07,.01,.08,0,.2,.08,.12,.01,.14,0-.26-.11-.21-.12-.43-.19,.02,0,.03,.02,.04,.03,0,0,0,.01,.02,.02h-.02s0,.02,0,.04c-.12-.07-.23-.13-.08-.09-.16-.08-.33-.17-.4-.21,.37,.14,.58,.18,.8,.28-.12-.11-.04-.16-.51-.4-.06-.04,.15,.05,.22,.07,.04,.03,.03,.04,.1,.07-.11-.08-.01-.1-.35-.26,.17,.03,.3,.16,.27,.09l.1,.05c.58,.15-.79-.54-.05-.33-.05-.01-.07-.02-.12-.04,.36,.02-.18-.37,.36-.28,.11,0-.1-.09-.26-.18l.28,.11-.3-.17c-.21-.15,.72,.21,.3-.04l-.19-.07s-.08-.12,.13-.02c-.03-.02-.19-.09-.09-.06l.15,.06-.22-.16c.12,0,.57,.26,.63,.21-.05-.05-.39-.25-.49-.28-.01,0-.1-.02-.25-.08l-.07-.05c-.43-.19-.86-.39-1.18-.47l.25,.15-.21-.08v-.04c-.2-.07-.03,.02,.08,.08-.11-.04-.19-.07-.23-.08l.39,.21c-.17-.07-.32-.16-.43-.18,.18,.1,.38,.15,.49,.23-.2-.07-.36-.14-.2-.05-.11-.05-.18-.08-.22-.11,.12,.08,.04,.07,.26,.18-.25-.09,.04,.09-.37-.09,.09,.05,.3,.17,.31,.19-.47-.24-.06,.05-.57-.19,.42,.21,.16,.16,.38,.31-.03-.02-.1-.05-.08-.05-.05,0-.18-.04-.27-.07,.36,.16,.42,.23,.64,.35-.36-.13-.41-.2-.75-.34,.29,.13,.27,.17,.52,.27-.22-.07-.11-.03-.41-.15,.45,.2,.07,.05,.34,.19-.23-.07-.42-.18-.3-.08-.14-.04-.29-.14-.29-.14Zm.43,1.13h0s0-.02,0-.03c0,0,0,.01,.01,.03Zm-.03,.07s.02-.01,.02-.02c.09,.04,.18,.08,.17,.09-.06-.03-.12-.04-.19-.06Zm1.84,.66s-.02,0-.07-.01c0,0,0-.02-.02-.03l-.03-.02s.09,.05,.13,.06Z"/>
            <path class="cls-4" d="M73.75,104.78s-.02-.01-.02-.01c-.02,0-.04-.01-.06-.02l.08,.04h0Z"/>
            <path class="cls-4" d="M70.49,110.55h0s-.02,0-.04-.01c.01,0,.02,0,.03,.01Z"/>
            <polygon class="cls-4" points="71.33 104.97 71.4 105 71.34 104.97 71.33 104.97"/>
            <path class="cls-4" d="M69.45,110.46s-.05-.02-.07-.03c.02,0,.04,.02,.07,.03Z"/>
            <path class="cls-4" d="M69.31,110.59l-.1-.03c.06,.02,.08,.02,.1,.03Z"/>
            <path class="cls-4" d="M69.12,110.64s.08,.04,.11,.06h0s-.11-.06-.11-.06Z"/>
            <path class="cls-4" d="M69.79,108.62s0,0,0-.01c-.04-.04-.03-.02,0,.01Z"/>
            <path class="cls-4" d="M70.1,109.48s-.08-.06-.11-.08c-.02,0-.03,0,.11,.08Z"/>
            <polygon class="cls-4" points="69.8 107.85 69.81 107.85 69.81 107.85 69.8 107.85"/>
            <path class="cls-4" d="M70,109.38c-.06-.02-.05,0-.02,.02,.02,0,.05,0,.02-.02Z"/>
            <path class="cls-4" d="M68.74,111.08h-.01s.03,.02,.04,.02l-.03-.02Z"/>
            <path class="cls-4" d="M68.77,111.1l.03,.02s0,0-.03-.02Z"/>
            <path class="cls-4" d="M68.85,111.17l-.06-.05s-.01,0,.06,.05Z"/>
            <path class="cls-4" d="M68.94,110.99l-.09-.05s.05,.03,.09,.05Z"/>
            <path class="cls-4" d="M68.94,110.93s-.21-.07-.16-.03l.07,.04c-.13-.08,.23,.08,.09-.01Z"/>
            <path class="cls-4" d="M70.16,111.32h-.09c.1,.05,.23,.1,.25,.14,.31,.1-.22-.1-.15-.14Z"/>
            <path class="cls-4" d="M70.36,111.27s.14,.07,.19,.1c-.08-.06-.1-.07-.19-.1Z"/>
            <path class="cls-4" d="M70.83,110.38l.23,.12s-.09-.05-.23-.12Z"/>
            <polygon class="cls-4" points="69.74 109.6 69.59 109.55 69.8 109.66 69.74 109.6"/>
            <polygon class="cls-4" points="71.41 110.33 71.44 110.36 71.38 110.29 71.41 110.33"/>
            <path class="cls-4" d="M72.1,108.77l-.28-.13s.36,.2,.28,.13Z"/>
            <path class="cls-4" d="M72.14,107.97c.15,.06,.25,.09,.11,0-.03,0-.14-.03-.11,0Z"/>
            <polygon class="cls-4" points="73.54 106.2 73.63 106.26 73.57 106.2 73.54 106.2"/>
          </g>
          <g>
            <path class="cls-4" d="M79.35,112.55c.08,.02,.28,.05,.24,.03l-.32-.07,.08,.03Z"/>
            <path class="cls-4" d="M79.97,112.58c-.16-.04-.43-.11-.73-.15,.31,.07,.18,.05,.55,.13,.04,.02-.11,0-.23-.02,.08,.02-.07,0,.13,.05,.25,.03,.27,.01,.06-.04,.07,0,.16,.03,.22,.04Z"/>
            <path class="cls-4" d="M80.68,111.55h-.04s.03,0,.04,0Z"/>
            <path class="cls-4" d="M80.99,110.89s.04,.01,.07,.02c-.02,0-.04-.02-.07-.02Z"/>
            <path class="cls-4" d="M81.37,110.84s-.02,0-.02,0c.03,0,.05,0,.02,0Z"/>
            <path class="cls-4" d="M80.68,111.55h.11c-.11-.02-.08,0-.11,0Z"/>
            <path class="cls-4" d="M79.21,112.29s.04,.02,.08,.03c-.01,0-.02-.01-.03-.02-.02,0-.03,0-.05-.01Z"/>
            <path class="cls-4" d="M80.89,111.91h0s.08,.02,.13,.03l-.13-.03Z"/>
            <path class="cls-4" d="M80.9,112.15s-.26-.06-.38-.08c.11,.02,.17,.04,.19,.05,.05,0,.12,.02,.2,.03Z"/>
            <path class="cls-4" d="M80.34,112.44h.04s-.02,0-.04,0Z"/>
            <path class="cls-4" d="M80.98,111.75s.08,.01,.1,.02c-.03,0-.07-.01-.1-.02Z"/>
            <path class="cls-4" d="M80.1,104.79s.03,0,.05,0c-.03,0-.05-.01-.05,0Z"/>
            <path class="cls-4" d="M81.52,104.76h.01c.05,.02,.1,.03,.15,.04l-.17-.04Z"/>
            <path class="cls-4" d="M81.76,110.68h0s.03,0,0,0Z"/>
            <path class="cls-4" d="M81.92,108.65c-.25-.02-.31-.09-.59-.11,.11,.02,.43,.11,.59,.11Z"/>
            <path class="cls-4" d="M79.25,112.29s0,0,0-.01c0,0,0,0,0,.01Z"/>
            <path class="cls-4" d="M81.33,108.54s0,0,0,0h-.03s.02,0,.03,0Z"/>
            <path class="cls-4" d="M81.69,110.15s-.09-.01-.12-.02c.03,0,.06,.01,.12,.02Z"/>
            <path class="cls-4" d="M81.22,110.45h.04s-.04,0-.04,0Z"/>
            <path class="cls-4" d="M81.33,109.89s.06,0,.02,0c-.01,0-.02,0-.03,0,.04,0,.05,.02,0,.01Z"/>
            <path class="cls-4" d="M81.37,109.69s-.04,0-.06,0c0,0,0,0,.01,0h.04Z"/>
            <path class="cls-4" d="M80.12,105.42c.08,0,.16,.02,.25,.04-.2-.03-.26-.08-.25-.04Z"/>
            <path class="cls-4" d="M79.37,112.31c-.07-.01-.1-.02-.12-.03,0,0,0,0,.01,0,.04,0,.08,.02,.1,.02Z"/>
            <path class="cls-4" d="M79.15,109.48l.05-.02s-.04,.01-.05,.02Z"/>
            <path class="cls-4" d="M79.9,106.88h-.03s0,0,.03,0Z"/>
            <path class="cls-4" d="M79.17,109.35c.1,.01,.16,.02,.19,.02-.02,0-.04-.01-.07-.02h-.12Z"/>
            <path class="cls-4" d="M80.38,105.46s0,0,0,0c0,0,0,0,0,0Z"/>
            <path class="cls-4" d="M79.76,105.13s.35,.08,.56,.12c.1,.06-.27-.03-.46-.05,.09,.04,.42,.12,.41,.13-.06,0-.08-.01-.16-.03,.28,.08,0,.07,.36,.17-.03,0-.06,0-.09-.01,.18,.03,.37,.06,.5,.09,0,.01,.22,.07-.01,.03,0,0-.09-.03-.16-.04l.1,.03c-.34-.05-.11-.04-.37-.09,.11,.05,.38,.13,.28,.14-.33-.06-.1-.07-.41-.1h.13c-.53-.08,.04-.02-.53-.1-.1,.03,.16,.08,.06,.11,.18,.04,.28,.05,.46,.09,.32,.12-.85-.1-.41,.02,.22,.05,.64,.13,.41,.13l-.38-.08s.54,.12,.28,.12c-.15-.03-.12-.06-.17-.06-.3-.03,.21,.06,.21,.08l-.34-.06c.04,.05,.28,.15,.33,.21-.1-.02-.2-.05-.31-.06,.16,.09-.07,.13-.27,.15l.28,.08s-.13-.01-.19-.03c-.11,0,.18,.03,.29,.07,.02,.02-.17-.01-.25-.04,.24,.09,.51,.21,.19,.2l-.08-.02c-.12,.01,.58,.15,.31,.13l-.05-.02c-.14,.05,.11,.18-.34,.16,.41,.09-.2,.04,.38,.15-.3-.01-.4-.04-.6-.02-.03,.01,.36,.09,.41,.12l-.3-.05,.31,.08-.37-.05,.07,.03s.14,0,.23,.03c.13,.05-.22,.03-.38,0l.24,.11c-.12-.02-.16-.04-.24-.07,.3,.09-.32-.05-.04,.03,.07,0,.18,.04,.24,.05-.19-.02-.19,.02-.12,.06l-.21-.04c-.06,.04,.08,.13,.07,.18,.1,0,.46,.07,.49,.09l-.32-.05c.2,.05,.12,0,.36,.07-.04,.01-.37-.05-.47-.08l.11,.05c-.1-.02-.15-.03-.27-.06,.2,.05-.33-.01,.01,.06l-.1-.02c-.01,.06,.09,.1,.1,.15,.28,.05,.21,.06,.43,.11-.09,.02-.32,.02-.3,.06,.13,.05,.23,.05,.39,.09-.25-.04-.24,0-.41-.05,.03,.06,.04,.07,.23,.17,.1,.01,.15,.01,.24,.03,.04,.02-.11,0-.23-.02h-.03c.37,.13-.76,.02-.25,.17h-.03s.26,.1,.26,.1c-.05,.02-.19-.05-.35-.06,.41,.14-.08,.09,.19,.19-.75-.1,.03,.15-.46,.12l.18,.03c.17,.04-.1,0-.15,0,.14,.02,.16,.01,.25,.04,.19,.16-.3,.2-.48,.29-.05,.04,.9,.19,.47,.17l-.32-.07c.37,.16-.05,.18,.27,.33-.07-.02-.17-.04-.17-.04-.24-.02-.02,.07,.17,.1-.02,0-.17-.03-.27-.04-.14,0,.29,.1,.06,.07-.04,0-.08-.02-.09-.03,.11,.03-.04,.05,.24,.09-.14,0,.11,.08-.06,.08,.3,.07-.16,.03,.27,.11-.44-.08-.37,0-.16,.05-.13-.03-.14,0-.33-.05,0,.02,.08,.06,.31,.1-.54-.05,.41,.17-.27,.07,.23,.11,.38,.21,.47,.29-.44-.08-.03-.08-.5-.16,.17,.09,.55,.2,.43,.24-.06,0-.19-.04-.27-.06,.17,.09-.06,.11,.17,.2-.04,0-.09-.02-.12-.03,.01,.01-.07,.01,.13,.05l-.05-.02c.3,.04,.6,.15,.76,.18-.57-.12-.15,.03-.88-.14,.04,.01,.13,.04,.27,.06-.04,0-.12,0-.27-.05,.1,.06,.32,.08,.31,.12-.1-.02-.13-.03-.25-.06,.19,.05,.37,.1,.29,.12-.06-.01-.14-.02-.13-.03,.02,.05,.49,.18,.3,.2-.42-.09-.14,0-.51-.07l.1,.05,.18,.02s.25,.1,.13,.1l-.15-.05,.06,.06h.14c.18,.06,.47,.08,.36,.1-.04-.01,0,.02-.23,0h0c.11,.03,.24,.07,.14,.07-.12-.02-.41-.08-.48-.09,.3,.07,.07,.08,.4,.15-.08-.02-.27-.05-.31-.06l.25,.06c-.08,0-.12,0-.27-.04-.05,.03,.47,.07,.26,.08-.02,0-.06-.01-.09-.03-.11,.02,.14,.11,.01,.13-.37-.06-.08-.05-.4-.09,.06,.07,.42,.2,.32,.23h.04c.52,.1-.27,0-.02,.06-.04-.01-.29-.06-.23-.05-.09,.02,.11,.1,.27,.19l-.13-.03c-.12,0-.08,.04-.14,.06,.13,.03,.11,.04,.3,.07-.78-.07,.38,.21-.26,.16,0,0-.11-.04-.11-.03l.11,.08c.23,.04,.14,.02,.32,.04,.13,.03,.24,.07,.23,.08-.15-.05-.37-.07-.49-.08,.07,.01,.15,.03,.22,.04-.41-.04,.46,.09,.18,.08l-.12-.02c.06,.03,.21,.07,.18,.08-.26-.04-.12-.04-.34-.08,.01,.02,.49,.13,.22,.11-.07-.02-.07-.04-.14-.06-.31-.03-.23-.02-.29-.01h0s-.15,.01-.15,.01h.09c.68,.16,.11,.09,.56,.2-.42-.11-.24-.05-.54-.11-.08,0-.18,0-.26-.03,.24,.06-.19,0,.15,.08-.1-.02-.01,.02-.25-.03,.07,.04,.17,.03,.29,.05,.32,.1-.41,.01,.03,.14,.18,.08,.5,.15,.65,.22-.16-.01-.35-.07-.35-.07-.15,0-.12,.02-.02,.06-.08-.02-.15-.03-.26-.04,.02,.02,.35,.07,.2,.07-.11-.02-.28-.06-.38-.09,.08,.04,.26,.09,.34,.12-.17-.02-.25-.06-.36-.09,.07,.04,.14,.09,.4,.14h.1s-.23-.03-.28-.05c-.2-.06,.1-.01,.19,0l.06,.03c.57,.09-.08-.08-.04-.1l.41,.09-.33-.09c.11,.01,.34,.05,.4,.08,.21,.02-.14-.05,.09-.02,.04,0,.05,0,.07,.01l-.12-.04c.09,.02,.29,.05,.23,.05,.24,0-.3-.12,.02-.07h.02c-.13-.07-.3-.05-.65-.16l.75,.11-.3-.06s.04,0,.16,.01c-.2-.06-.13-.02-.32-.07,.28,.02-.12-.09,.36-.01-.23-.05-.18,0-.33-.06,.52,.09-.08-.05,.16-.03,.26,.06,.12,.05,.36,.07-.45-.1,.11-.03,.02-.06-.36-.07-.14-.07-.25-.12,.12,.02,.21-.03,.34-.03h.06c-.36-.06-.29-.08-.36-.12,.22,.04,.3,.06,.4,.09v-.02c-.11-.03-.17-.04-.21-.07l.27,.05s-.31-.12-.12-.12c-.25-.05-.71-.1-.87-.17,.14,.02,.37,.06,.42,.08-.02,0-.11-.03-.05-.03l.23,.06c.1,0-.19-.04-.17-.05,.19,.04,.14,.02,.29,.05,.02,0-.08,0,0,.02,.04,0,.16,0,.3,.01-.11-.02-.26-.05-.28-.06,0-.03,.24,.03,.34,.03-.13-.03,0-.02-.28-.08,0,0,.14,.02,.22,.03-.13-.04-.02-.08-.34-.12h-.02s0,0-.01,0h0c-.28-.1,.18-.07,.07-.14l.1,.02c-.11-.05-.05-.08-.26-.14,0,0,.18,.01,.3,.04-.07-.04-.18-.06-.01-.06,.17,.05,.15,.02,.12,.05,.09-.01,.25,0-.01-.07,.25,.06,.32,.04,.25,0h-.18s0-.04,.01-.05l.33,.07c.41,.01-.66-.23,.02-.15-.23-.06-.17,0-.43-.06,.05-.02,.52,.04,.53,.03,.19,0-.47-.12-.34-.14-.12-.02-.43-.07-.53-.12,.05-.02,.5,.06,.59,.09,0,0-.03,0-.07,0,.04,.02,.09,.04,.22,.05l-.12-.02c.12,0,.12-.03,.31,.01-.11-.04-.19-.04-.25-.04,.18,0,.02-.05,.14-.07-.07,0-.2-.03-.2-.03,.15-.03-.22-.06-.26-.11,.18,.01,.42,.08,.28,.02,.12,0,.31,.05,.4,.08-.22-.07,.16-.03,.2-.04l.09,.03c-.05-.02-.05-.03-.05-.04l-.24-.03s.04-.01,.14,0c-.15-.04-.39-.06-.6-.12,.12,0-.12-.06,.19-.01-.11,.02,.31,.05,.36,.1-.04-.01-.03-.02,.01-.02,.03,0,.06,.01,.08,.02,.28,.01-.35-.08-.33-.12,.17,.04,.33,.05,.3,.04,0,.02-.29-.05-.42-.08,.14,0-.1-.05-.08-.06h-.07c-.17-.03-.15-.04-.2-.07,.14,.02,.09,.03,.15,.04-.3-.08,.33,.01,.12-.06,.12,0,.33,.06,.41,.06-.22-.07,.25,0,.06-.06-.24-.03-.18-.02-.4-.09l.16,.09-.33-.1s.14,.06,.1,.07c-.19-.05-.13-.04-.33-.07,.36,.04-.2-.08,.05-.07l.58,.11c.27,0-.28-.13-.13-.15h-.1c-.23-.05-.03-.04-.12-.07,.19,.04,.27,.04,.39,.05-.14-.03,.02-.04-.37-.11l.26,.02c.11-.02-.54-.15-.47-.18,.21,.05,.35,.06,.5,.11,0-.01,.04-.02-.09-.04,.12,.01-.25-.09-.07-.06-.08-.02-.29-.06-.27-.07,.04,0,.1,.02,.1,.02-.1-.02-.13-.05-.34-.07,.61,.07-.02-.12,.5-.07-.06-.04-.12-.09-.12-.12,.06,.01,.1,.02,.08,.02,.19,0-.55-.12-.34-.13,.32,.04,.17,.05,.29,.06,.64,.11-.08-.07,.3-.03h.04c.22,.03-.23-.08-.18-.11,0,0,.06,.01,.1,.02-.32-.08-.42-.15-.51-.2,.25,.06,.13,.04,.38,.08-.03-.02-.41-.07-.47-.11,.14,.02,.26,.01,.53,.06v.03c.36,.05,0-.04,.07-.04l.15,.03c-.04-.05-.43-.12-.39-.17l-.12-.02c-.38-.1,.22,.02-.06-.06l.39,.06c-.09-.03-.36-.13-.43-.17,.28,.07,.43,.13,.59,.19,0-.02-.02-.06-.21-.11,.04,.01,.13,.04,.07,.04-.3-.08-.45-.13-.43-.16,.75,.14,.21-.05,.79,.03-.27-.11,.14-.1,.11-.17-.59-.08-.01-.02-.62-.13-.04-.02-.02-.03,.01-.02l.37,.02c.18,.02,.13,.04,.27,.06,.05-.03,.26,.03,.42,.04-.22-.03-.31-.07-.22-.07l-.28-.02c-.31-.11,.51,.05,.2-.06l.19,.05c-.11-.05,.02-.09-.46-.21,.07,0,.24,.03,.28,.05,.08-.05-.49-.23-.18-.22l.15,.03s-.27-.07-.12-.06c.06,.01,.15,.03,.16,.03-.05-.02-.25-.08-.16-.08l.16,.04c.2-.02-.39-.17-.48-.23,.43,.08,.58,.06,.66,.05h.06c.07-.05-.34-.17-.5-.27,.48,.05,.22-.1,.5-.12-.08,0-.34-.06-.38-.08,.09,0-.29-.1,.1-.02h0c.39,.06,.29,.01,.31,0l-.52-.1c.77,.07-.25-.22,.44-.13-.13-.04-.12-.06-.25-.1l.28,.05c.08-.03,.12-.04,.06-.11l.2,.05s-.8-.18-.81-.21l.42,.07c0-.05,.38-.04,0-.16,.06,.01,.18,.04,.2,.05,.02-.02,.3-.04-.27-.14,.37,.07,.05-.05-.11-.1l.27,.05c-.35-.09-.44-.11-.53-.16,.04,0,.22,.03,.15,.03,.15,0-.26-.07-.1-.07l.17,.04s-.07-.04-.27-.09c-.11-.04,.08-.04,.33,0-.15-.03-.35-.08-.28-.09,.09,.01,.15,.03,.18,.04,.19-.01-.31-.12-.03-.11,.09,.02,.14,.02,.16,.02-.01,.03-.03,.06-.05,.05,.25,.05,.3,.03,.65,.11-.19-.06-.59-.17-.47-.18,.02,0,.05,0,.09,.01h.03s0,0-.04-.02c.04,0,.07,0,.08,0,.21,.03,.12-.01,.13-.02-.28-.05-.23-.06-.46-.08,.02,0,.03,0,.04,.02,0,0,.01,0,.03,.01,0,0-.02,0-.02,0,0,.01,.01,.02,.01,.04-.14-.04-.25-.07-.1-.06-.18-.04-.36-.08-.44-.1,.39,.05,.6,.05,.84,.09-.15-.07-.08-.12-.6-.24-.06-.02,.15,.01,.23,.02,.05,.02,.04,.02,.12,.04-.13-.05-.04-.08-.4-.15,.17,0,.33,.08,.28,.02l.11,.03c.6,.02-.9-.31-.14-.26-.05,0-.07,0-.13-.01,.35-.05-.27-.28,.27-.29,.11-.01-.12-.06-.29-.11l.3,.05-.34-.09c-.24-.09,.74,.06,.28-.09l-.2-.03s-.11-.09,.12-.04c-.04,0-.21-.04-.1-.03l.16,.03-.26-.1c.12-.02,.62,.12,.66,.07-.06-.03-.44-.14-.55-.15,0,0-.1,0-.26-.02l-.08-.03c-.46-.09-.92-.19-1.25-.2l.27,.08-.22-.03v-.03c-.22-.02-.04,.02,.09,.05-.12-.02-.2-.03-.25-.03l.43,.11c-.18-.03-.35-.08-.46-.08,.2,.05,.4,.06,.53,.11-.21-.02-.38-.06-.21,0-.12-.02-.19-.04-.24-.05,.14,.04,.05,.05,.29,.11-.26-.03,.06,.07-.38-.01,.1,.02,.34,.09,.35,.11-.51-.12-.04,.05-.6-.06,.46,.11,.19,.11,.45,.19-.04,0-.11-.03-.09-.03-.04,.01-.18,0-.27-.01,.39,.07,.47,.12,.7,.18-.38-.04-.45-.1-.81-.16,.31,.06,.3,.1,.57,.14-.23-.02-.11,0-.44-.05,.48,.09,.08,.03,.37,.1-.24-.02-.45-.08-.31-.02-.15-.01-.32-.07-.32-.07Zm.7,.87s0,0,0,0c0,0,0-.01-.01-.02,0,0,0,0,.02,.02Zm0,.06s.02-.01,.02-.02c.1,.02,.19,.04,.19,.04-.06-.01-.12-.01-.2-.02Zm1.94,.22s-.02,0-.07,0c0,0-.01-.01-.03-.02-.01,0-.02,0-.03,0,.05,.01,.1,.02,.14,.03Z"/>
            <path class="cls-4" d="M82.03,106.2s-.02,0-.02,0c-.02,0-.05,0-.06,0,.03,0,.06,.01,.09,.02,0,0,0,0,0,0Z"/>
            <path class="cls-4" d="M80.63,111.55h0s-.02,0-.04,0c.01,0,.02,0,.03,0Z"/>
            <polygon class="cls-4" points="79.77 106.79 79.84 106.8 79.78 106.78 79.77 106.79"/>
            <path class="cls-4" d="M79.62,111.71s-.05,0-.07,0c.02,0,.04,0,.07,0Z"/>
            <path class="cls-4" d="M79.54,111.84h-.1c.06,0,.09,0,.1,0Z"/>
            <path class="cls-4" d="M79.38,111.93s.08,.02,.12,.02c0,0,0,0,0,0l-.12-.02Z"/>
            <path class="cls-4" d="M79.37,110.12s0,0-.01,0c-.05-.02-.03,0,.01,0Z"/>
            <path class="cls-4" d="M79.92,110.76s-.1-.03-.13-.04c-.02,0-.03,.01,.13,.04Z"/>
            <polygon class="cls-4" points="79.15 109.48 79.15 109.48 79.15 109.48 79.15 109.48"/>
            <path class="cls-4" d="M79.81,110.7c-.06,0-.05,0,0,.02,.02,0,.05,0,0-.02Z"/>
            <path class="cls-4" d="M79.17,112.38h-.01s.03,0,.04,.01h-.03Z"/>
            <path class="cls-4" d="M79.2,112.39h.03s0,0-.03,0Z"/>
            <path class="cls-4" d="M79.3,112.43l-.07-.03s-.01,0,.07,.03Z"/>
            <path class="cls-4" d="M79.32,112.26l-.1-.02s.05,.01,.1,.02Z"/>
            <path class="cls-4" d="M79.3,112.21s-.22-.01-.16,.01l.08,.02c-.15-.03,.25,.01,.08-.03Z"/>
            <path class="cls-4" d="M80.57,112.25l-.09,.02c.11,.01,.25,.03,.28,.05,.33,.01-.24-.03-.19-.07Z"/>
            <path class="cls-4" d="M80.75,112.16s.16,.03,.22,.04c-.09-.03-.12-.04-.22-.04Z"/>
            <path class="cls-4" d="M80.9,111.34l.25,.05s-.1-.02-.25-.05Z"/>
            <polygon class="cls-4" points="79.63 110.94 79.47 110.93 79.7 110.98 79.63 110.94"/>
            <polygon class="cls-4" points="81.44 111.17 81.47 111.19 81.39 111.14 81.44 111.17"/>
            <path class="cls-4" d="M81.6,109.77l-.31-.05c.05,.02,.4,.09,.31,.05Z"/>
            <path class="cls-4" d="M81.4,109.11c.16,.02,.26,.02,.11-.02-.02,0-.15,0-.11,.02Z"/>
            <polygon class="cls-4" points="82.23 107.4 82.33 107.43 82.25 107.39 82.23 107.4"/>
          </g>
          <g>
            <path class="cls-4" d="M88.11,113.04c.09,.01,.28,.03,.24,.01l-.33-.03,.09,.02Z"/>
            <path class="cls-4" d="M88.72,113.03c-.16-.03-.44-.06-.74-.08,.32,.04,.18,.02,.56,.07,.04,.01-.11,0-.23,0,.08,.01-.07,0,.13,.03,.26,0,.27,0,.06-.04,.07,0,.16,.01,.22,.02Z"/>
            <path class="cls-4" d="M89.31,112.06h-.04s.03,0,.04,0Z"/>
            <path class="cls-4" d="M89.52,111.44s.04,0,.07,0c-.02,0-.04,0-.07,0Z"/>
            <path class="cls-4" d="M89.89,111.34s-.02,0-.02,0c.03,0,.05,0,.02,0Z"/>
            <path class="cls-4" d="M89.31,112.06h.1c-.11-.02-.08,0-.1,0Z"/>
            <path class="cls-4" d="M87.94,112.83s.05,0,.09,.02c-.01,0-.03,0-.03-.01h-.05Z"/>
            <path class="cls-4" d="M89.56,112.35h0s.08,.01,.13,.02l-.13-.02Z"/>
            <path class="cls-4" d="M89.6,112.57s-.27-.02-.39-.03c.12,.01,.17,.02,.19,.02,.05,0,.12,0,.2,.01Z"/>
            <path class="cls-4" d="M89.08,112.87h.04s-.02,0-.04,0Z"/>
            <path class="cls-4" d="M89.63,112.2s.08,0,.1,0c-.04,0-.07,0-.1,0Z"/>
            <path class="cls-4" d="M87.41,106.43s.03,0,.05,0c-.03,0-.05,0-.05,0Z"/>
            <polygon class="cls-4" points="88.77 106.05 88.78 106.05 88.94 106.04 88.77 106.05"/>
            <path class="cls-4" d="M90.25,111.16h0s.03,0,0,0Z"/>
            <path class="cls-4" d="M90.06,109.32c-.25,.02-.32-.03-.6,0,.11,0,.44,.02,.6,0Z"/>
            <path class="cls-4" d="M87.98,112.82h0s0,0,0,0Z"/>
            <path class="cls-4" d="M89.46,109.33h-.03s.02,0,.03,0Z"/>
            <path class="cls-4" d="M90.1,110.69s-.09,0-.12,0c.03,0,.06,0,.12,0Z"/>
            <path class="cls-4" d="M89.69,111.02h.04s-.04,0-.04,0Z"/>
            <path class="cls-4" d="M89.7,110.51s.06,0,.02-.01c-.01,0-.02,0-.03,0,.04,0,.06,0,.01,.01Z"/>
            <path class="cls-4" d="M89.7,110.32s-.04,0-.06,0h.02s.04,0,.04,0Z"/>
            <path class="cls-4" d="M87.59,106.94c.08,0,.17-.02,.25-.03-.2,.02-.27,0-.25,.03Z"/>
            <path class="cls-4" d="M88.1,112.84c-.07,0-.1-.01-.12-.01,0,0,0,0,.01,0,.04,0,.08,0,.11,0Z"/>
            <path class="cls-4" d="M87.49,110.47l.04-.03s-.04,.02-.04,.03Z"/>
            <path class="cls-4" d="M87.71,108.19h-.03s0,0,.03,0Z"/>
            <path class="cls-4" d="M87.49,110.36c.1,0,.16-.01,.19-.01-.02,0-.04,0-.07,0l-.12,.02Z"/>
            <path class="cls-4" d="M87.84,106.91h0s0,0,0,0Z"/>
            <path class="cls-4" d="M87.16,106.79s.36-.02,.57-.03c.11,.02-.27,.04-.46,.07,.1,.01,.44,0,.43,.01-.06,0-.08,0-.16,.01,.29,0,.02,.06,.39,.05-.03,0-.06,0-.09,.01,.18-.02,.37-.03,.5-.05,0,.01,.23,0,0,.03,0,0-.09,0-.17,0h.11c-.34,.04-.12,0-.38,.02,.11,.01,.4,.02,.31,.05-.34,.03-.12-.03-.42,.02l.13-.04c-.53,.07,.04-.02-.53,.05-.09,.05,.18,.03,.08,.07,.19-.01,.28-.02,.47-.03,.34,.03-.85,.11-.39,.11,.23,0,.66-.04,.43,0l-.38,.02s.55-.02,.3,.04c-.15,0-.13-.02-.17-.01-.3,.05,.22,0,.22,.02l-.34,.03c.06,.03,.3,.06,.37,.1-.1,0-.21,0-.31,.02,.17,.04-.03,.12-.23,.18h.29s-.13,.02-.19,.02c-.11,.03,.19-.01,.3,0,.02,.01-.17,.03-.26,.02,.25,.02,.54,.07,.23,.13h-.09c-.12,.03,.6,0,.33,.04h-.05c-.12,.07,.15,.13-.29,.2,.42-.01-.18,.07,.4,.05-.29,.05-.4,.05-.59,.11-.03,.02,.37,0,.43,.02l-.31,.02h.32s-.37,.04-.37,.04h.08s.14,0,.23-.01c.14,.02-.21,.07-.37,.08l.26,.05c-.12,0-.17,0-.25,0,.32,.02-.32,.02-.03,.04,.07,0,.18,0,.25,0-.19,.02-.19,.06-.11,.08h-.21c-.05,.05,.11,.09,.1,.14,.1-.02,.47-.03,.5-.02l-.32,.02c.2,0,.12-.02,.37-.01-.04,.02-.37,.03-.48,.02l.11,.02c-.1,0-.15,0-.27,0,.2,0-.33,.05,.03,.05h-.1c0,.05,.11,.07,.13,.11,.28,0,.22,0,.45,.01-.09,.03-.31,.07-.28,.11,.14,.02,.24,0,.41,0-.26,.01-.23,.04-.42,.03,.04,.04,.05,.05,.26,.1,.1,0,.15-.02,.24-.02,.04,0-.11,.03-.23,.03h-.03c.39,.05-.74,.16-.21,.19h-.03s.28,.04,.28,.04c-.04,.02-.19,0-.35,.01,.43,.04-.06,.09,.22,.12-.75,.05,.06,.12-.43,.17h.18c.17,0-.1,.01-.14,.02,.14,0,.16-.01,.26,0,.22,.1-.26,.21-.42,.31-.05,.04,.92,.02,.5,.07h-.33c.4,.06-.01,.14,.32,.22-.08,0-.18,0-.17-.01-.24,.01-.01,.06,.18,.06-.02,.01-.18,0-.28,0-.14,.01,.31,.04,.07,.05-.04,0-.08,0-.1,0,.12,.01-.03,.05,.25,.04-.13,.03,.12,.05-.04,.08,.31,.02-.15,.05,.29,.06-.45,0-.37,.04-.15,.07-.14,0-.14,.01-.33,0,0,.02,.09,.04,.32,.04-.54,.03,.43,.08-.26,.09,.24,.06,.41,.12,.51,.18-.45-.01-.04-.06-.52-.07,.18,.05,.57,.09,.46,.14-.06,.01-.2-.01-.27-.02,.18,.06-.04,.1,.2,.15-.04,0-.09,0-.12-.01,.01,0-.07,.02,.14,.02h-.06c.3-.02,.62,.04,.78,.05-.59-.03-.15,.04-.89,0,.04,0,.14,.02,.27,.02-.04,0-.12,0-.28,0,.11,.04,.33,.03,.32,.06-.1,0-.14,0-.25-.02,.19,.02,.39,.04,.3,.06-.06,0-.14,0-.14-.01,.03,.04,.51,.09,.32,.13-.43-.03-.14,.01-.52,0l.11,.03h.18s.26,.05,.14,.06l-.15-.02,.07,.04,.14-.02c.19,.03,.47,.02,.37,.04-.04,0,0,.02-.23,.03h0c.12,.02,.24,.03,.15,.04-.12,0-.41-.02-.49-.02,.31,.02,.08,.06,.42,.08-.08,0-.27-.01-.31-.02l.25,.02c-.08,0-.12,0-.28,0-.05,.03,.47,.01,.27,.04-.02,0-.06,0-.1-.01-.11,.03,.16,.08,.03,.11-.38,0-.09-.03-.41-.04,.07,.05,.45,.12,.35,.17h.04c.53,.03-.26,.02-.02,.05-.04,0-.18-.01-.23-.02-.09,.03,.13,.07,.29,.13h-.14c-.12,0-.07,.03-.14,.05,.14,.01,.11,.02,.31,.03-.78,.02,.41,.15-.24,.16,0,0-.12-.02-.12-.02l.12,.06c.23,.01,.14,0,.32,0,.14,.01,.24,.04,.24,.05-.15-.03-.37-.02-.5-.02,.07,0,.15,.01,.22,.01-.41,0,.46,.03,.18,.05h-.12c.06,0,.22,.03,.18,.04-.27-.01-.12-.02-.34-.04,.01,.02,.5,.07,.24,.07-.07-.02-.08-.02-.15-.04-.31,0-.23,0-.29,.02h0s-.14,.02-.14,.02h.09c.69,.07,.12,.06,.58,.12-.43-.06-.25-.02-.55-.05-.08,0-.18,0-.26,0,.24,.03-.19,.01,.16,.06-.1,0-.01,.02-.25,0,.08,.03,.17,0,.29,.02,.33,.06-.41,.04,.04,.12,.18,.05,.51,.08,.67,.13-.16,0-.35-.04-.35-.04-.14,0-.12,.03,0,.05-.08-.01-.16-.01-.27-.02,.02,.02,.35,.04,.21,.05-.11-.01-.28-.03-.39-.05,.09,.02,.27,.06,.35,.08-.17,0-.26-.03-.37-.05,.07,.03,.15,.06,.42,.09h.1s-.23-.02-.28-.03c-.21-.03,.09-.02,.19-.01l.06,.02c.57,.03-.09-.06-.05-.08l.41,.04-.34-.05c.11,0,.34,.02,.4,.03,.21,0-.15-.03,.08-.03,.04,0,.06,0,.07,0l-.12-.03c.09,.01,.29,.02,.23,.03,.24-.01-.31-.08,0-.07h.03c-.14-.05-.3-.02-.66-.08l.75,.03-.3-.03s.03-.01,.16,0c-.21-.03-.13,0-.33-.03,.28,0-.13-.07,.36-.04-.23-.02-.18,0-.34-.03,.52,.03-.09-.03,.15-.04,.27,.03,.12,.04,.37,.03-.45-.04,.1-.03,.02-.06-.36-.03-.15-.05-.27-.09,.12,.01,.2-.04,.34-.06h.06c-.37-.02-.3-.05-.37-.07,.22,.01,.31,.02,.4,.04v-.02c-.12-.01-.18-.02-.22-.04l.27,.02s-.32-.07-.13-.09c-.26-.02-.71-.02-.88-.06,.14,0,.37,.02,.43,.03-.02,0-.11-.02-.05-.02l.23,.03c.1,0-.19-.02-.17-.03,.2,0,.14,0,.3,.01,.02,0-.08,0,0,.01,.04-.01,.15-.02,.3-.02-.11,0-.27-.02-.29-.03-.01-.03,.24,0,.34,0-.14-.01,0-.02-.29-.04,0,0,.14,0,.22,0-.13-.02-.03-.07-.35-.07h-.02s0,0-.01,0c-.29-.06,.17-.08,.05-.13h.1c-.11-.03-.06-.06-.27-.09,0,0,.18,0,.3,0-.07-.02-.18-.03-.02-.05,.17,.03,.15,0,.12,.03,.09-.02,.24-.02-.02-.06,.25,.02,.32,0,.24-.02h-.18s-.01-.02,0-.03l.33,.02c.41-.04-.68-.13,0-.14-.23-.02-.16,.02-.44,0,.05-.02,.53-.04,.53-.04,.19-.03-.48-.05-.36-.08-.12,0-.44,0-.55-.04,.04-.02,.5-.01,.59,0,0,0-.03,0-.07,0,.04,0,.09,.02,.22,.02h-.12c.12-.02,.11-.05,.3-.03-.11-.02-.19-.02-.26,0,.17-.03,0-.05,.12-.08-.07,0-.2,0-.2,0,.15-.04-.22-.03-.28-.06,.18-.01,.43,.02,.28-.02,.12-.02,.31,0,.41,.02-.23-.04,.15-.05,.19-.07l.1,.02c-.06-.01-.05-.02-.05-.03h-.24s.04-.01,.14-.01c-.16-.01-.39,0-.61-.03,.12,0-.13-.04,.19-.04-.11,.04,.32,0,.37,.04-.04,0-.04-.02,0-.02,.04,0,.07,0,.08,0,.28-.03-.36-.03-.35-.07,.18,.01,.34,0,.3,0,0,.02-.3,0-.43-.02,.14-.02-.1-.03-.09-.04h-.07c-.18,0-.15,0-.21-.03,.14,0,.09,.02,.16,.01-.31-.03,.32-.03,.11-.07,.12,0,.33,0,.42,0-.23-.04,.24-.03,.05-.06-.24,0-.18,0-.41-.02l.17,.06-.35-.04s.15,.04,.11,.04c-.19-.02-.14-.02-.33-.01,.36-.01-.21-.05,.03-.06h.59c.26-.02-.3-.06-.15-.1h-.1c-.23,0-.03-.02-.13-.03,.2,0,.27,0,.39,0-.15,0,.01-.03-.38-.05l.26-.02c.11-.04-.56-.05-.49-.09,.21,.01,.35,0,.51,.03,0-.01,.04-.02-.1-.03,.12,0-.27-.04-.08-.05-.09,0-.29-.01-.28-.02,.04,0,.1,0,.1,0-.1,0-.13-.02-.35-.01,.62-.03-.04-.11,.49-.13-.07-.03-.13-.06-.14-.08,.06,0,.1,0,.08,0,.18-.03-.57-.02-.36-.06,.32-.02,.17,.02,.29,.01,.65,0-.09-.05,.29-.07h.04c.22-.01-.25-.04-.2-.07,0,0,.06,0,.1,0-.33-.02-.44-.06-.53-.09,.25,0,.13,.01,.39,0-.04-.01-.41,0-.49-.02,.14,0,.26-.03,.54-.03l.02,.03c.36-.01-.01-.03,.05-.05h.16c-.05-.04-.44-.04-.42-.08h-.12c-.39-.02,.22-.02-.07-.04h.39c-.1-.02-.38-.06-.46-.09,.29,.01,.44,.04,.62,.06,0-.02-.03-.05-.22-.06,.04,0,.13,.01,.07,.02-.31-.02-.46-.04-.46-.07,.77,0,.19-.08,.79-.11-.28-.05,.12-.11,.07-.17-.6,.03-.02-.02-.63,0-.04-.01-.03-.02,.01-.02l.36-.05c.18-.01,.14,.01,.27,0,.05-.03,.26-.02,.42-.04-.22,0-.31,0-.23-.03l-.28,.03c-.33-.04,.51-.05,.19-.09h.19c-.11-.01,0-.08-.49-.09,.07,0,.24-.02,.28,0,.07-.06-.53-.11-.22-.16h.15s-.28-.01-.13-.03c.06,0,.15,0,.16,0-.05,0-.26-.02-.18-.04h.17c.19-.05-.41-.06-.52-.11,.44-.01,.58-.06,.65-.09h.06c.05-.07-.37-.1-.54-.15,.48-.06,.19-.13,.46-.2-.08,.01-.34,.01-.39,0,.09-.02-.31-.02,.1-.04h0c.4-.02,.29-.05,.3-.07l-.53,.02c.76-.09-.29-.14,.4-.2-.13,0-.13-.02-.26-.03h.28c.07-.06,.1-.08,.03-.12h.2s-.82,0-.83-.01l.42-.03s.36-.12-.03-.14c.06,0,.18,0,.2,0,0-.02,.28-.1-.3-.06,.38-.02,.03-.05-.13-.07h.28c-.36-.01-.45,0-.55-.03,.04,0,.22-.02,.15,0,.14-.03-.26,0-.12-.04h.18s-.08-.02-.28-.02c-.11,0,.07-.05,.32-.07-.15,0-.36,0-.29-.01,.09,0,.15,0,.18,0,.19-.05-.33-.04-.06-.08,.09,0,.14-.01,.17-.02,0,.03-.02,.06-.04,.06,.26-.02,.3-.05,.65-.05-.19,0-.62-.01-.5-.05,.02,0,.05,0,.09-.01h.03s0-.01-.04-.01c.04-.01,.07-.02,.08-.03,.21-.02,.11-.04,.12-.05-.28,.02-.24,0-.47,.03,.02,0,.03,0,.05,0,0,0,.01,0,.03,0h-.02s.02,.02,.02,.03c-.14,0-.26,0-.11-.03-.18,0-.37,.01-.45,.02,.39-.06,.6-.09,.84-.12-.16-.03-.11-.09-.64-.07-.07,0,.15-.02,.23-.04,.05,0,.05,.01,.12,0-.14-.01-.06-.06-.43-.04,.16-.04,.34-.01,.28-.05h.11c.58-.13-.95-.05-.2-.2-.05,.01-.07,.01-.13,.02,.32-.13-.33-.17,.19-.31,.1-.04-.13-.02-.31-.02l.3-.03h-.35c-.26,0,.73-.14,.25-.14l-.2,.03s-.12-.04,.11-.07c-.04,0-.21,.02-.11,0l.16-.02-.27-.02c.11-.05,.62-.06,.65-.11-.06-.01-.46,0-.57,.01,0,0-.1,.03-.25,.05h-.08c-.46,.04-.94,.08-1.26,.15h.29s-.22,.03-.22,.03l-.02-.02c-.21,.04-.02,.02,.11,.02-.12,.01-.2,.03-.25,.04l.44-.02c-.18,.02-.36,.02-.46,.05,.21,0,.41-.05,.54-.05-.21,.03-.38,.05-.2,.05-.12,.01-.2,.02-.25,.02,.14,0,.06,.03,.31,.01-.26,.04,.07,.04-.37,.08,.11,0,.35,0,.37,0-.53,.03-.03,.05-.59,.1,.47-.03,.22,.04,.48,.05-.04,0-.11,0-.09,0-.04,.02-.18,.04-.27,.06,.39-.03,.48-.02,.72-.02-.37,.06-.46,.03-.82,.07,.32-.03,.32,0,.58-.02-.23,.04-.11,.02-.43,.06,.49-.04,.08,0,.39,0-.24,.05-.46,.05-.31,.06-.15,.03-.32,.02-.32,.02Zm.89,.54h0s-.02-.01-.02-.01h.02Zm0,.06s.01-.02,0-.02c.1,0,.2-.01,.19,0-.07,0-.12,.02-.2,.03Zm1.93-.25s-.01,.01-.07,.02c0,0-.02,0-.03-.01h-.03c.05,0,.1,0,.14,0Z"/>
            <path class="cls-4" d="M89.63,107.14s-.02,0-.02,0c-.02,0-.05,0-.06,0h.09s0,0,0,0Z"/>
            <path class="cls-4" d="M89.26,112.06h0s-.02,0-.04,0c.01,0,.02,0,.03,0Z"/>
            <polygon class="cls-4" points="87.57 108.13 87.64 108.13 87.58 108.13 87.57 108.13"/>
            <path class="cls-4" d="M88.28,112.3s-.05,0-.07,0c.02,0,.04,0,.07,0Z"/>
            <path class="cls-4" d="M88.21,112.42h-.1c.06,0,.08,0,.1,0Z"/>
            <path class="cls-4" d="M88.06,112.51s.09,0,.12,.01h-.12Z"/>
            <path class="cls-4" d="M87.81,110.98s0,0-.01,0c-.05-.01-.03,0,.01,0Z"/>
            <path class="cls-4" d="M88.45,111.45c-.05,0-.1-.02-.13-.02-.02,0-.03,.01,.13,.02Z"/>
            <polygon class="cls-4" points="87.48 110.47 87.49 110.47 87.49 110.47 87.48 110.47"/>
            <path class="cls-4" d="M88.32,111.41c-.06,0-.04,.01,0,.02,.02,0,.05-.01,0-.02Z"/>
            <path class="cls-4" d="M87.91,112.91h-.01s.03,0,.04,0h-.03Z"/>
            <path class="cls-4" d="M87.94,112.92h.03s0,0-.03,0Z"/>
            <path class="cls-4" d="M88.04,112.94l-.07-.02s-.01,0,.07,.02Z"/>
            <path class="cls-4" d="M88.05,112.79h-.1s.05,0,.1,0Z"/>
            <path class="cls-4" d="M88.02,112.75s-.22,0-.16,.02h.08c-.15-.01,.25,0,.08-.02Z"/>
            <path class="cls-4" d="M89.29,112.68l-.08,.03c.11,0,.25,0,.28,.02,.33-.02-.24,0-.2-.05Z"/>
            <path class="cls-4" d="M89.45,112.59s.16,.01,.22,.02c-.1-.02-.12-.02-.22-.02Z"/>
            <path class="cls-4" d="M89.5,111.84h.26s-.1,0-.26,0Z"/>
            <polygon class="cls-4" points="88.18 111.64 88.02 111.64 88.26 111.66 88.18 111.64"/>
            <polygon class="cls-4" points="90.01 111.64 90.04 111.64 89.95 111.62 90.01 111.64"/>
            <path class="cls-4" d="M89.95,110.36h-.32c.06,.01,.41,.02,.32,0Z"/>
            <path class="cls-4" d="M89.63,109.81c.16,0,.26-.02,.1-.03-.02,.01-.14,.03-.1,.03Z"/>
            <polygon class="cls-4" points="90.1 108.15 90.21 108.16 90.12 108.14 90.1 108.15"/>
          </g>
        </g>
        <g>
          <g>
            <path class="cls-4" d="M148.59,109.8c.08-.02,.27-.07,.23-.07l-.32,.07h.09Z"/>
            <path class="cls-4" d="M149.17,109.58c-.16,.03-.44,.08-.73,.16,.31-.06,.18-.04,.55-.11,.04,0-.1,.04-.22,.07,.08-.02-.07,.03,.14-.01,.25-.08,.25-.1,.04-.06,.07-.02,.15-.04,.21-.05Z"/>
            <path class="cls-4" d="M149.37,108.37l-.04,.02s.03-.01,.04-.02Z"/>
            <path class="cls-4" d="M149.34,107.65s.04,0,.07-.01c-.02,0-.04,0-.07,.01Z"/>
            <path class="cls-4" d="M149.65,107.43s-.01,0-.02,.01c.03-.01,.04-.02,.02-.01Z"/>
            <path class="cls-4" d="M149.37,108.37l.09-.05c-.1,.03-.07,.03-.09,.05Z"/>
            <path class="cls-4" d="M148.36,109.63s.05,0,.09-.01h-.09Z"/>
            <path class="cls-4" d="M149.72,108.59h0s.08-.01,.13-.03l-.13,.03Z"/>
            <path class="cls-4" d="M149.83,108.81s-.26,.06-.38,.1c.11-.03,.17-.04,.19-.04,.05-.01,.11-.03,.19-.06Z"/>
            <path class="cls-4" d="M149.45,109.29h.04s-.02,0-.04,0Z"/>
            <path class="cls-4" d="M149.73,108.41s.07-.02,.1-.03l-.1,.03Z"/>
            <path class="cls-4" d="M145.23,103.49s.03-.02,.04-.03c-.02,.01-.04,.03-.04,.03Z"/>
            <polygon class="cls-4" points="146.27 102.52 146.28 102.52 146.42 102.43 146.27 102.52"/>
            <path class="cls-4" d="M149.92,107.1h0s.03,0,0,0Z"/>
            <path class="cls-4" d="M148.97,105.26c-.22,.12-.31,.1-.55,.24,.1-.05,.41-.15,.55-.24Z"/>
            <path class="cls-4" d="M148.39,109.61h0s0,0,0,0Z"/>
            <path class="cls-4" d="M148.42,105.51h0s-.02,.01-.02,.01c0,0,.02,0,.02-.01Z"/>
            <path class="cls-4" d="M149.58,106.67s-.08,.03-.11,.05c.03-.01,.06-.02,.11-.05Z"/>
            <path class="cls-4" d="M149.34,107.16l.03-.02s-.03,.02-.03,.02Z"/>
            <path class="cls-4" d="M149.14,106.62s.05-.03,.02-.02c-.01,0-.02,.01-.03,.01,.04-.01,.05-.01,.02,0Z"/>
            <path class="cls-4" d="M149.07,106.44s-.03,.02-.05,.02h.02s.03-.02,.03-.02Z"/>
            <path class="cls-4" d="M145.64,103.9c.07-.04,.14-.09,.21-.14-.17,.1-.25,.12-.21,.14Z"/>
            <path class="cls-4" d="M148.51,109.59c-.07,.02-.1,.02-.12,.02,0,0,0,0,.02,0,.04-.01,.08-.02,.1-.03Z"/>
            <path class="cls-4" d="M147.07,107.4l.03-.04s-.03,.03-.03,.04Z"/>
            <path class="cls-4" d="M146.32,105.06h-.03s0,.01,.03,0Z"/>
            <path class="cls-4" d="M147.02,107.29c.09-.04,.14-.07,.18-.09-.02,0-.04,.01-.07,.02l-.11,.06Z"/>
            <path class="cls-4" d="M145.85,103.76h0s0,0,0,0Z"/>
            <path class="cls-4" d="M145.18,103.94s.32-.17,.5-.28c.11-.02-.23,.15-.38,.26,.09-.03,.39-.19,.39-.17-.05,.03-.07,.04-.14,.08,.26-.13,.05,.05,.38-.12-.03,.02-.05,.03-.08,.05,.16-.1,.32-.19,.43-.26,.01,0,.21-.1,0,.03,0-.01-.08,.04-.15,.07l.1-.04c-.29,.19-.11,.04-.33,.18,.11-.03,.37-.15,.3-.09-.29,.17-.12,.02-.37,.19l.1-.09c-.45,.29,.02-.03-.46,.27-.06,.08,.17-.05,.11,.04,.16-.09,.24-.14,.41-.23,.32-.12-.72,.47-.3,.28,.2-.1,.58-.31,.39-.17l-.34,.18c-.01,.05,.49-.25,.29-.09-.13,.07-.13,.04-.16,.06-.25,.17,.2-.09,.21-.07l-.29,.17c.07,0,.3-.07,.38-.06-.09,.05-.19,.09-.27,.15,.18-.03,.03,.13-.13,.28l.27-.12s-.11,.07-.16,.09c-.09,.07,.16-.09,.27-.13,.02,0-.14,.1-.22,.13,.24-.09,.52-.16,.27,.03l-.08,.03c-.09,.08,.55-.25,.32-.1l-.05,.02c-.08,.12,.2,.06-.17,.32,.38-.19-.14,.15,.39-.12-.24,.17-.34,.21-.49,.35-.02,.03,.34-.15,.4-.16l-.27,.14,.3-.13-.32,.18,.08-.02s.12-.08,.2-.12c.14-.04-.16,.16-.3,.23l.26-.06c-.11,.05-.15,.06-.23,.09,.3-.11-.29,.15-.02,.05,.06-.03,.17-.08,.22-.11-.16,.1-.15,.13-.06,.12l-.19,.09c-.03,.07,.13,.04,.15,.09,.08-.06,.41-.22,.45-.22l-.29,.15c.18-.08,.1-.07,.33-.16-.02,.03-.33,.17-.43,.21l.11-.03c-.09,.04-.13,.06-.25,.11,.19-.08-.28,.18,.05,.04l-.09,.04s.13,.02,.17,.05c.25-.12,.21-.08,.42-.17-.07,.07-.25,.19-.21,.22,.14-.04,.22-.09,.37-.15-.23,.11-.19,.14-.37,.2,.06,.02,.07,.03,.28,0,.09-.05,.13-.08,.21-.11,.04,0-.09,.07-.2,.12h-.03c.38-.09-.62,.46-.11,.28h-.03s.28-.06,.28-.06c-.03,.04-.18,.07-.32,.15,.41-.12-.02,.11,.26,.04-.68,.34,.1,.1-.32,.34l.16-.07c.17-.06-.09,.05-.12,.08,.13-.06,.14-.08,.23-.11,.24,.02-.15,.31-.26,.47-.03,.05,.86-.33,.49-.12l-.31,.11c.4-.07,.05,.16,.39,.11-.07,.02-.16,.06-.17,.05-.22,.1,.01,.06,.19,0-.02,.02-.16,.07-.25,.11-.13,.07,.3-.07,.08,.02-.04,.02-.07,.02-.09,.03,.11-.03,0,.06,.25-.05-.11,.08,.14,0,0,.09,.29-.1-.12,.1,.29-.05-.42,.16-.32,.18-.12,.12-.13,.04-.13,.07-.31,.13,.01,.02,.1,0,.31-.08-.49,.23,.44-.08-.21,.19,.25-.02,.43-.02,.55,0-.42,.15-.06-.05-.51,.12,.19-.01,.57-.11,.49-.02-.05,.03-.19,.06-.26,.08,.19-.01,0,.11,.24,.08-.04,.01-.08,.02-.12,.03,.02,0-.05,.04,.14-.03h-.06c.28-.1,.6-.16,.75-.21-.56,.18-.12,.1-.83,.32,.04,0,.13-.03,.26-.08-.03,.02-.11,.05-.26,.09,.12,0,.32-.09,.32-.06-.1,.03-.13,.04-.24,.07,.19-.05,.38-.1,.31-.04-.06,.02-.13,.05-.13,.04,.04,.03,.51-.09,.35,.02-.41,.12-.13,.06-.48,.18h.11s.17-.08,.17-.08c0,.02,.27-.04,.16,.02l-.15,.03,.08,.02,.13-.07c.19-.04,.45-.15,.36-.09-.04,0,0,.03-.2,.11h0c.12-.03,.24-.05,.16,0-.11,.04-.39,.13-.47,.15,.3-.09,.1,.03,.42-.06-.07,.02-.26,.08-.3,.09l.24-.07c-.07,.04-.11,.05-.26,.1-.03,.05,.45-.16,.27-.05-.02,0-.06,.01-.09,.02-.09,.07,.18,.03,.07,.1-.35,.12-.1,0-.4,.1,.08,.03,.46-.03,.39,.05l.04-.02c.51-.15-.24,.11,0,.07-.04,0-.28,.08-.23,.06-.07,.06,.15,.03,.32,.03l-.13,.03c-.11,.05-.05,.07-.1,.11,.13-.03,.11-.01,.3-.08-.72,.29,.44,.01-.17,.25,0,0-.12,.02-.12,.02l.13,.02c.22-.07,.13-.05,.3-.11,.13-.03,.24-.05,.24-.03-.15,.02-.36,.1-.48,.15,.07-.02,.14-.04,.21-.06-.39,.14,.45-.12,.19-.01l-.12,.03c.06,0,.22-.03,.19,0-.26,.08-.12,.02-.34,.08,.02,.02,.5-.1,.25,0-.07,.01-.08,0-.15,.01-.3,.1-.22,.09-.26,.11h0s-.13,.07-.13,.07l.08-.03c.68-.16,.14,.02,.59-.07-.43,.08-.24,.06-.54,.14-.08,.03-.17,.07-.25,.09,.24-.05-.18,.08,.17,0-.09,.03,0,.02-.24,.08,.08,0,.16-.05,.28-.08,.33-.05-.37,.18,.08,.11,.19,0,.51-.08,.68-.09-.15,.05-.35,.08-.35,.08-.13,.06-.1,.07,0,.06-.08,.02-.15,.04-.26,.07,.03,0,.35-.08,.21-.02-.11,.02-.28,.06-.38,.08,.09,0,.27-.03,.36-.03-.16,.05-.25,.05-.36,.07,.08,0,.16,.02,.43-.04l.09-.04s-.22,.06-.27,.07c-.21,.03,.08-.05,.18-.07h.06c.55-.16-.1-.03-.08-.07l.41-.09-.34,.06c.1-.03,.33-.1,.39-.1,.19-.07-.15,.02,.07-.06,.03-.01,.05-.01,.07-.02h-.12c.09,0,.28-.07,.23-.04,.22-.1-.32,.02-.02-.07h.03c-.15-.02-.3,.07-.65,.12l.72-.22-.3,.07s.03-.02,.15-.05c-.21,.03-.13,.04-.32,.08,.26-.1-.14-.03,.32-.16-.23,.05-.17,.07-.33,.09,.5-.14-.09,0,.13-.09,.26-.06,.13,0,.36-.09-.44,.11,.08-.07,0-.07-.35,.1-.16,0-.28,0,.12-.03,.18-.11,.29-.18l.06-.02c-.35,.09-.3,.05-.38,.04,.21-.06,.3-.08,.39-.09v-.02c-.12,.03-.18,.04-.23,.04l.27-.07s-.33,.03-.16-.05c-.25,.07-.68,.23-.85,.24,.13-.04,.36-.11,.42-.11-.02,0-.11,.02-.06,0l.23-.05c.09-.04-.19,.05-.17,.03,.19-.06,.13-.04,.28-.09,.02,0-.07,.03,0,.02,.03-.02,.14-.07,.28-.12-.11,.03-.26,.07-.28,.07-.02-.02,.22-.08,.32-.12-.13,.03,0-.03-.29,.06,0,0,.13-.05,.21-.08-.13,.02-.06-.06-.35,.05h-.02s0,.01-.01,.01c-.29,.04,.13-.14,0-.15l.09-.03c-.12,0-.08-.04-.29,0,0,0,.17-.07,.28-.1-.08,0-.18,.03-.04-.05,.17-.03,.14-.05,.13-.02,.07-.05,.22-.11-.05-.06,.24-.07,.3-.12,.22-.11l-.17,.07s-.02-.02,0-.04l.32-.09c.37-.18-.69,.11-.06-.14-.23,.06-.15,.08-.41,.15,.03-.04,.48-.22,.48-.22,.16-.09-.47,.12-.37,.04-.11,.04-.41,.15-.53,.15,.03-.04,.46-.19,.56-.2,.01,0-.02,.02-.06,.03,.04,0,.1-.01,.21-.06l-.11,.03c.11-.05,.09-.08,.27-.14-.11,.02-.19,.05-.24,.09,.15-.09-.01-.05,.09-.12-.06,.03-.19,.08-.19,.07,.12-.1-.22,.05-.28,.03,.16-.08,.41-.13,.26-.12,.11-.06,.3-.11,.39-.13-.23,.04,.12-.11,.16-.14h.1c-.06,0-.06-.01-.06-.02l-.22,.09s.03-.03,.13-.06c-.15,.04-.37,.14-.58,.19,.11-.05-.14,0,.16-.1-.09,.08,.3-.11,.36-.09-.04,0-.04,0,0-.03,.03-.01,.06-.02,.08-.02,.25-.13-.34,.1-.35,.06,.17-.05,.31-.12,.28-.11,0,.02-.28,.11-.41,.14,.12-.07-.11,0-.1-.01l-.06,.04c-.17,.05-.15,.03-.21,.03,.13-.05,.1-.02,.15-.04-.3,.08,.29-.15,.08-.11,.11-.05,.31-.11,.39-.15-.23,.05,.22-.12,.03-.08-.22,.09-.17,.07-.39,.13h.18s-.34,.08-.34,.08c0,.02,.15-.02,.12,0-.19,.05-.13,.03-.32,.11,.33-.14-.21,.03,0-.08l.56-.2c.23-.13-.31,.04-.19-.07l-.09,.05c-.22,.07-.04-.02-.14,0,.19-.07,.25-.1,.36-.15-.14,.05,0-.04-.37,.09l.24-.11c.08-.08-.54,.15-.49,.09,.21-.06,.33-.13,.48-.16,0-.01,.03-.04-.1,.01,.11-.05-.26,.06-.09-.02-.08,.03-.28,.1-.27,.08,.04-.01,.09-.03,.09-.03-.09,.03-.13,.02-.33,.12,.56-.26-.08-.09,.4-.32-.07,0-.14-.01-.17-.03,.06-.02,.09-.04,.07-.02,.16-.1-.54,.19-.36,.07,.29-.14,.17-.04,.28-.1,.6-.24-.1-.01,.24-.18h.04c.2-.11-.25,.03-.22-.02,0,0,.05-.02,.09-.04-.32,.1-.44,.1-.53,.1,.24-.09,.13-.04,.37-.14-.04,0-.38,.16-.46,.16,.13-.06,.23-.13,.48-.24l.02,.02c.32-.15-.03-.03,.03-.07l.14-.06c-.06-.02-.43,.13-.42,.07l-.11,.05c-.37,.13,.19-.1-.08-.02l.36-.16c-.09,.02-.38,.09-.45,.09,.28-.1,.43-.12,.6-.17,0-.02-.05-.04-.23,.03,.04,0,.13-.04,.08,0-.29,.1-.44,.14-.45,.1,.71-.29,.14-.16,.68-.41-.28,.06,.06-.16,0-.21-.54,.26-.02-.01-.58,.24-.04,0-.04,0,0-.03l.31-.19c.16-.08,.13-.04,.25-.1,.03-.05,.23-.12,.37-.21-.2,.09-.29,.12-.22,.06l-.25,.14c-.32,.09,.45-.25,.14-.17l.18-.06c-.11,.02-.04-.09-.49,.09,.06-.03,.21-.11,.26-.12,.04-.09-.53,.09-.28-.08l.14-.06s-.26,.1-.13,.02c.06-.03,.14-.06,.14-.07-.05,.02-.25,.08-.18,.03l.16-.06c.15-.14-.41,.09-.52,.09,.4-.19,.51-.29,.56-.35l.06-.03c.02-.09-.38,.05-.57,.07,.41-.25,.12-.21,.33-.39-.07,.04-.31,.15-.35,.16,.07-.05-.29,.1,.07-.08h0c.35-.18,.24-.16,.24-.19l-.47,.23c.66-.4-.33-.02,.27-.37-.12,.05-.13,.03-.26,.08l.25-.13c.04-.07,.07-.11-.02-.12l.18-.08s-.74,.34-.77,.33l.37-.2s.27-.26-.09-.13c.06-.03,.16-.08,.18-.09,0-.03,.21-.22-.3,.06,.33-.18,0-.07-.15-.01l.25-.13c-.32,.15-.41,.19-.51,.21,.03-.02,.19-.11,.14-.07,.12-.09-.24,.11-.13,0l.16-.08s-.08,.01-.27,.1c-.11,.04,.04-.08,.26-.2-.14,.07-.32,.16-.27,.11,.08-.05,.14-.07,.16-.08,.14-.13-.32,.1-.09-.06,.08-.05,.12-.07,.14-.09,.01,.03,.01,.07,0,.07,.22-.12,.25-.17,.57-.32-.18,.07-.57,.24-.48,.16,.02-.01,.04-.03,.08-.05h.03s0-.02-.05,0c.03-.03,.06-.05,.06-.06,.18-.11,.08-.09,.09-.1-.24,.14-.21,.1-.41,.23,.02-.01,.03-.01,.05-.01,0,0,.01,0,.03,0h-.02s.02,.02,.03,.03c-.13,.06-.24,.11-.11,.02-.16,.08-.33,.17-.4,.21,.33-.22,.5-.34,.7-.47-.16,.04-.14-.04-.61,.2-.06,.02,.12-.09,.19-.13,.05-.02,.05,0,.11-.04-.13,.05-.08-.04-.4,.14,.13-.11,.3-.16,.23-.16l.1-.05c.46-.37-.88,.36-.28-.11-.04,.03-.05,.04-.11,.08,.23-.26-.38-.03,.02-.39,.08-.08-.13,.04-.29,.12l.25-.16-.31,.16c-.24,.1,.59-.46,.15-.25l-.17,.11s-.14,.01,.06-.11c-.03,.02-.18,.11-.1,.04l.13-.08-.26,.1c.08-.09,.53-.33,.53-.4-.06,.01-.42,.2-.5,.26,0,.01-.07,.07-.2,.16l-.08,.03c-.39,.25-.8,.49-1.05,.7l.26-.13-.19,.13h-.03c-.17,.11,0,.02,.11-.04-.1,.07-.17,.11-.2,.14l.39-.21c-.15,.1-.31,.18-.39,.25,.18-.1,.34-.23,.47-.28-.17,.12-.32,.21-.16,.13-.1,.07-.17,.1-.22,.13,.13-.06,.07,0,.29-.12-.21,.15,.08,0-.29,.24,.09-.05,.31-.16,.33-.16-.46,.26,0,.06-.48,.35,.41-.23,.21-.05,.46-.16-.03,.02-.1,.05-.08,.04-.02,.04-.14,.12-.21,.17,.34-.2,.43-.22,.64-.33-.31,.22-.4,.23-.71,.42,.27-.17,.29-.13,.51-.27-.19,.14-.09,.07-.36,.25,.42-.25,.08-.03,.34-.17-.19,.15-.39,.24-.25,.19-.12,.09-.28,.16-.28,.16Zm1.07,.15h0s-.02,0-.02,0c0,0,.01,0,.03,0Zm.03,.05s0-.02,0-.03c.08-.05,.17-.1,.17-.09-.06,.03-.1,.07-.17,.12Zm1.64-1.06s0,.02-.06,.05c0,0-.02,0-.04,0l-.03,.02s.09-.05,.12-.07Z"/>
            <path class="cls-4" d="M147.58,103.23s-.02,0-.02,0c-.02,.01-.04,.03-.05,.04l.08-.04h0Z"/>
            <path class="cls-4" d="M149.33,108.39h0s-.02,0-.04,.01c.01,0,.02,0,.03-.01Z"/>
            <polygon class="cls-4" points="146.17 105.07 146.23 105.03 146.17 105.06 146.17 105.07"/>
            <path class="cls-4" d="M148.5,108.97s-.05,.02-.07,.02c.02,0,.04-.01,.07-.02Z"/>
            <path class="cls-4" d="M148.47,109.12l-.09,.05c.05-.02,.08-.04,.09-.05Z"/>
            <path class="cls-4" d="M148.37,109.26s.08-.02,.12-.03h0s-.12,.03-.12,.03Z"/>
            <path class="cls-4" d="M147.56,107.8s0,0-.01,0c-.05,0-.03,0,.01,0Z"/>
            <path class="cls-4" d="M148.34,108.05c-.05,.01-.1,.02-.13,.03-.02,.02-.02,.02,.13-.03Z"/>
            <polygon class="cls-4" points="147.06 107.41 147.07 107.41 147.07 107.4 147.06 107.41"/>
            <path class="cls-4" d="M148.21,108.05c-.05,.03-.04,.03,0,.02,.02-.01,.04-.03,0-.02Z"/>
            <path class="cls-4" d="M148.36,109.72h0s.03,0,.04,0h-.03Z"/>
            <path class="cls-4" d="M148.39,109.72h.03s0,0-.03,0Z"/>
            <path class="cls-4" d="M148.5,109.71h-.07s0,.02,.07,0Z"/>
            <path class="cls-4" d="M148.45,109.56l-.1,.02s.05-.01,.1-.02Z"/>
            <path class="cls-4" d="M148.41,109.53s-.2,.08-.14,.08l.08-.02c-.15,.03,.23-.09,.06-.06Z"/>
            <path class="cls-4" d="M149.58,109.03l-.07,.06c.1-.03,.24-.08,.27-.07,.3-.13-.23,.07-.2,.01Z"/>
            <path class="cls-4" d="M149.71,108.88c.05,0,.15-.04,.21-.06-.1,.01-.12,.02-.21,.06Z"/>
            <path class="cls-4" d="M149.47,108.08l.24-.07s-.09,.03-.24,.07Z"/>
            <polygon class="cls-4" points="148.17 108.33 148.02 108.39 148.24 108.33 148.17 108.33"/>
            <polygon class="cls-4" points="149.87 107.69 149.91 107.68 149.81 107.69 149.87 107.69"/>
            <path class="cls-4" d="M149.31,106.38l-.29,.12c.06-.01,.39-.14,.29-.12Z"/>
            <path class="cls-4" d="M148.79,105.93c.14-.07,.23-.12,.08-.07-.01,.02-.12,.08-.08,.07Z"/>
            <polygon class="cls-4" points="148.49 104.06 148.59 104.02 148.5 104.04 148.49 104.06"/>
          </g>
          <g>
            <path class="cls-4" d="M156.58,107.83c.08-.03,.26-.1,.22-.09l-.31,.11,.09-.02Z"/>
            <path class="cls-4" d="M157.13,107.55c-.15,.05-.42,.14-.7,.26,.3-.1,.18-.06,.53-.18,.04,0-.09,.05-.21,.09,.08-.03-.06,.04,.13-.03,.23-.1,.24-.12,.04-.06,.07-.03,.15-.06,.21-.08Z"/>
            <path class="cls-4" d="M157.24,106.51l-.03,.02s.03-.02,.03-.02Z"/>
            <path class="cls-4" d="M157.14,105.91s.04-.01,.07-.03c-.02,0-.04,.01-.07,.03Z"/>
            <path class="cls-4" d="M157.42,105.65s-.01,.01-.02,.02c.03-.02,.04-.03,.02-.02Z"/>
            <path class="cls-4" d="M157.24,106.51l.09-.06c-.1,.05-.07,.04-.09,.06Z"/>
            <path class="cls-4" d="M156.34,107.73s.05-.01,.08-.03c-.01,0-.03,0-.04,0l-.05,.02Z"/>
            <path class="cls-4" d="M157.59,106.63h0s.08-.03,.12-.05l-.13,.05Z"/>
            <path class="cls-4" d="M157.72,106.79s-.25,.1-.36,.15c.11-.04,.16-.06,.18-.07,.05-.02,.11-.05,.18-.08Z"/>
            <path class="cls-4" d="M157.38,107.27h.04s-.02,0-.04,0Z"/>
            <path class="cls-4" d="M157.59,106.47s.07-.03,.09-.04l-.09,.04Z"/>
            <path class="cls-4" d="M152.86,103.62s.02-.02,.03-.04c-.02,.02-.03,.04-.03,.04Z"/>
            <polygon class="cls-4" points="153.61 102.42 153.62 102.41 153.73 102.29 153.61 102.42"/>
            <path class="cls-4" d="M157.64,105.31h0s.02,0,0,0Z"/>
            <path class="cls-4" d="M156.52,103.94c-.19,.16-.28,.17-.49,.36,.09-.07,.37-.24,.49-.36Z"/>
            <path class="cls-4" d="M156.37,107.71h0s0,0,0,0Z"/>
            <polygon class="cls-4" points="156.03 104.3 156.03 104.3 156.01 104.31 156.03 104.3"/>
            <path class="cls-4" d="M157.27,105.01s-.07,.05-.1,.07c.02-.02,.05-.03,.1-.07Z"/>
            <path class="cls-4" d="M157.09,105.49l.03-.03s-.03,.03-.03,.03Z"/>
            <path class="cls-4" d="M156.85,105.07s.05-.04,.01-.02c-.01,0-.02,.01-.03,.02,.03-.02,.05-.03,.02,0Z"/>
            <path class="cls-4" d="M156.75,104.93s-.03,.02-.05,.03h.02s.03-.03,.03-.03Z"/>
            <path class="cls-4" d="M153.28,103.81c.05-.06,.11-.12,.17-.19-.14,.15-.2,.18-.17,.19Z"/>
            <path class="cls-4" d="M156.49,107.67c-.07,.02-.1,.04-.11,.04,0,0,0,0,.02,0,.04-.02,.08-.03,.1-.04Z"/>
            <path class="cls-4" d="M154.96,106.23l.02-.04s-.03,.03-.02,.04Z"/>
            <path class="cls-4" d="M154.04,104.54l-.03,.02s0,0,.03-.02Z"/>
            <path class="cls-4" d="M154.91,106.15c.08-.06,.13-.09,.16-.11-.02,.01-.03,.02-.06,.04l-.09,.08Z"/>
            <path class="cls-4" d="M153.45,103.62h0s0,0,0,0Z"/>
            <path class="cls-4" d="M152.89,104.01s.25-.26,.4-.41c.09-.06-.18,.21-.3,.35,.08-.06,.32-.3,.32-.28-.04,.04-.06,.06-.11,.12,.21-.2,.05,.02,.32-.23-.02,.02-.04,.05-.06,.07,.13-.14,.25-.27,.35-.37,.01,0,.17-.16,.01,.02,0,0-.07,.06-.12,.11l.08-.07c-.23,.26-.09,.08-.27,.26,.09-.07,.31-.26,.25-.18-.23,.25-.11,.06-.3,.29l.07-.11c-.35,.4,.01-.04-.37,.39-.05,.09,.15-.1,.1,0,.13-.14,.2-.2,.33-.33,.27-.21-.57,.64-.23,.34,.16-.16,.47-.46,.32-.28l-.27,.27s.4-.38,.24-.17c-.11,.1-.11,.07-.14,.11-.2,.23,.16-.15,.17-.13l-.24,.24c.06-.02,.26-.16,.33-.18-.07,.07-.15,.14-.22,.22,.15-.09,.04,.1-.08,.27l.22-.19s-.09,.1-.13,.13c-.07,.09,.13-.13,.22-.2,.02,0-.11,.13-.18,.18,.2-.15,.45-.31,.24-.07l-.07,.06c-.07,.1,.46-.39,.27-.19l-.04,.03c-.06,.13,.19-.01-.11,.32,.32-.28-.1,.17,.34-.23-.2,.22-.28,.28-.4,.45-.01,.03,.29-.23,.34-.26l-.23,.2,.26-.2-.27,.25,.07-.04s.1-.1,.16-.16c.12-.08-.13,.18-.25,.28l.23-.13c-.09,.08-.13,.1-.2,.15,.26-.19-.24,.22,0,.05,.05-.05,.14-.12,.19-.16-.13,.13-.12,.15-.04,.12l-.16,.14c-.02,.06,.13,0,.15,.03,.07-.07,.35-.31,.39-.32l-.25,.21c.16-.12,.09-.09,.29-.23-.02,.04-.28,.25-.36,.31l.1-.06c-.08,.06-.12,.09-.21,.17,.16-.12-.23,.23,.05,.02l-.07,.06s.12-.02,.16,0c.22-.18,.18-.13,.36-.26-.05,.08-.21,.24-.17,.25,.12-.07,.19-.14,.33-.24-.2,.16-.16,.17-.32,.27,.05,0,.07,0,.26-.09,.08-.07,.11-.1,.18-.15,.04-.02-.07,.08-.17,.16h-.02c.34-.18-.52,.56-.07,.27h-.02s.25-.12,.25-.12c-.02,.04-.16,.11-.28,.21,.37-.22,0,.09,.24-.05-.59,.47,.1,.05-.26,.37l.14-.11c.15-.09-.08,.07-.1,.1,.11-.08,.12-.1,.21-.15,.23-.06-.11,.29-.2,.45-.02,.05,.77-.5,.44-.23l-.28,.18c.37-.17,.06,.11,.38-.02-.07,.04-.15,.09-.15,.09-.19,.14,.02,.05,.18-.06-.01,.02-.15,.1-.23,.16-.11,.09,.28-.14,.08,0-.03,.02-.07,.04-.08,.05,.1-.06,0,.05,.23-.11-.1,.09,.13-.03,0,.08,.27-.15-.1,.11,.27-.12-.38,.24-.29,.23-.1,.13-.12,.07-.11,.09-.28,.18,.01,.01,.09-.02,.29-.14-.45,.31,.41-.17-.18,.2,.23-.08,.4-.13,.52-.14-.39,.23-.07-.02-.47,.22,.18-.06,.53-.23,.46-.14-.05,.04-.17,.09-.24,.13,.18-.06,0,.09,.24,0-.04,.02-.08,.04-.11,.05,.02,0-.05,.05,.13-.05l-.05,.02c.25-.16,.56-.28,.69-.35-.52,.28-.11,.11-.77,.45,.04-.01,.12-.06,.24-.12-.03,.03-.1,.07-.24,.14,.11-.03,.3-.15,.3-.12-.09,.05-.12,.06-.23,.12,.18-.08,.35-.17,.29-.11-.05,.03-.12,.07-.12,.06,.04,.02,.48-.19,.34-.07-.39,.19-.12,.08-.45,.26l.11-.03,.16-.09s.25-.09,.15-.02l-.14,.06h.08s.12-.09,.12-.09c.18-.07,.42-.22,.34-.15-.04,.01,0,.02-.18,.13h0c.11-.05,.23-.09,.15-.04-.11,.05-.37,.19-.44,.23,.28-.14,.1,0,.4-.14-.07,.04-.24,.12-.28,.14l.23-.11c-.07,.05-.1,.06-.24,.13-.03,.05,.42-.22,.25-.1-.02,0-.05,.02-.09,.04-.08,.08,.17-.02,.07,.07-.33,.18-.09,.02-.37,.17,.08,0,.44-.12,.38-.05l.03-.03c.48-.23-.22,.14,.01,.05-.03,.02-.16,.07-.21,.1-.06,.06,.14,0,.31-.04l-.13,.05c-.1,.07-.04,.07-.09,.11,.13-.05,.11-.03,.29-.12-.68,.38,.43-.08-.14,.24,0,0-.11,.04-.11,.04h.13c.21-.11,.13-.08,.29-.16,.13-.05,.23-.08,.23-.07-.15,.04-.34,.15-.45,.21,.06-.03,.14-.06,.2-.09-.37,.19,.43-.19,.19-.04l-.11,.05c.06-.01,.21-.07,.19-.04-.24,.11-.12,.04-.32,.13,.02,0,.48-.17,.24-.05-.07,.02-.08,.02-.15,.04-.28,.14-.21,.11-.25,.14h0s-.12,.08-.12,.08l.08-.04c.65-.26,.13-.01,.57-.16-.41,.14-.23,.09-.51,.21-.07,.04-.16,.09-.24,.12,.23-.08-.17,.09,.17-.03-.09,.04,0,.02-.23,.11,.08-.01,.15-.07,.27-.12,.32-.1-.35,.21,.09,.07,.19-.04,.49-.16,.66-.19-.14,.07-.33,.12-.33,.12-.13,.07-.1,.07,.01,.05-.08,.03-.15,.06-.25,.1,.03,0,.33-.12,.21-.05-.1,.04-.27,.1-.37,.13,.09-.02,.26-.07,.35-.09-.16,.07-.24,.09-.35,.12,.08-.01,.16-.01,.41-.11l.09-.05s-.21,.09-.26,.1c-.2,.06,.08-.05,.17-.09h.06c.53-.23-.1-.02-.08-.05l.39-.15-.33,.11c.1-.04,.31-.13,.38-.15,.18-.09-.14,.04,.06-.06,.03-.01,.05-.02,.07-.03l-.12,.03c.08-.03,.27-.11,.22-.08,.21-.12-.31,.07-.02-.06h.02c-.15,0-.28,.1-.63,.21l.69-.31-.28,.11s.03-.02,.14-.07c-.2,.07-.12,.05-.31,.12,.25-.13-.14,0,.3-.19-.22,.08-.16,.09-.31,.13,.48-.21-.09,.01,.12-.1,.25-.1,.13-.03,.34-.14-.42,.17,.08-.07-.01-.05-.33,.14-.15,.03-.28,.05,.11-.05,.16-.13,.27-.2l.06-.02c-.34,.14-.28,.09-.36,.11,.2-.09,.28-.12,.38-.15v-.02c-.12,.04-.18,.06-.22,.07l.25-.11s-.31,.09-.16-.02c-.23,.11-.64,.32-.81,.36,.13-.06,.34-.16,.4-.17-.02,0-.11,.04-.06,0l.22-.09c.09-.06-.18,.07-.16,.06,.18-.09,.13-.06,.27-.13,.02,0-.07,.04,0,.01,.03-.03,.13-.09,.26-.16-.1,.05-.24,.11-.27,.11-.02-.02,.21-.11,.3-.16-.13,.05,0-.02-.27,.1,0,0,.12-.07,.19-.1-.12,.04-.06-.04-.34,.11h-.02s0,.01-.01,.02h0s0,0,0,0c-.28,.09,.11-.15-.02-.13l.09-.04c-.11,.03-.08-.02-.28,.06,0,0,.15-.09,.26-.14-.07,.02-.17,.06-.04-.03,.16-.06,.13-.07,.12-.04,.07-.06,.2-.14-.05-.04,.23-.11,.28-.16,.2-.14l-.15,.1s-.02-.02-.01-.04l.3-.14c.34-.23-.65,.23-.07-.11-.21,.1-.13,.1-.38,.21,.03-.04,.44-.29,.44-.29,.15-.11-.44,.2-.35,.11-.1,.06-.38,.21-.49,.24,.03-.04,.43-.26,.52-.29,.01,0-.02,.02-.06,.04,.04-.01,.09-.03,.2-.1l-.11,.05c.1-.07,.08-.09,.25-.17-.11,.04-.18,.08-.22,.12,.14-.11-.02-.04,.07-.13-.06,.04-.18,.1-.18,.1,.11-.11-.21,.09-.27,.09,.15-.1,.38-.2,.23-.15,.1-.07,.27-.15,.36-.19-.21,.08,.11-.12,.13-.15l.09-.03c-.05,.02-.06,.01-.06,0l-.2,.12s.03-.03,.12-.08c-.14,.07-.34,.2-.54,.28,.1-.07-.13,.03,.14-.12-.08,.08,.27-.16,.33-.15-.04,.01-.04,0,0-.02,.03-.02,.06-.03,.07-.04,.23-.17-.32,.16-.33,.12,.16-.08,.29-.17,.25-.16,0,.01-.25,.15-.38,.21,.11-.09-.1,.03-.09,.01l-.05,.04c-.16,.08-.14,.06-.2,.08,.12-.07,.09-.03,.14-.07-.28,.14,.26-.19,.07-.11,.1-.06,.28-.17,.35-.22-.21,.09,.19-.15,.01-.08-.2,.13-.15,.1-.36,.2l.17-.04-.32,.15s.15-.05,.11-.02c-.18,.08-.12,.06-.29,.16,.3-.2-.2,.07,0-.07l.51-.3c.21-.16-.29,.1-.19-.01l-.08,.06c-.2,.11-.04,0-.13,.03,.17-.1,.23-.14,.33-.21-.13,.08,0-.04-.35,.16l.21-.15c.07-.09-.5,.26-.46,.19,.19-.1,.3-.19,.44-.25,0-.01,.02-.04-.1,.03,.1-.07-.24,.11-.09,0-.08,.04-.25,.15-.25,.13,.03-.02,.08-.05,.08-.05-.08,.05-.12,.05-.3,.18,.5-.35-.09-.06,.34-.36-.07,.01-.14,.02-.16,.01,.05-.03,.08-.05,.07-.04,.14-.13-.49,.29-.33,.15,.26-.19,.16-.08,.25-.15,.54-.36-.1,.01,.21-.22l.04-.02c.17-.14-.23,.1-.21,.05,0,0,.05-.03,.08-.05-.29,.17-.4,.19-.49,.22,.22-.13,.12-.06,.33-.21-.04,0-.34,.23-.42,.25,.11-.08,.2-.17,.43-.32h.03c.29-.2-.03,0,.02-.05l.13-.09c-.06,0-.39,.22-.39,.17l-.1,.07c-.33,.2,.17-.14-.08,0l.32-.23c-.09,.04-.34,.18-.42,.2,.25-.16,.39-.22,.54-.3,0-.01-.05-.02-.22,.08,.03-.02,.12-.07,.07-.03-.26,.16-.4,.23-.41,.21,.63-.44,.12-.17,.59-.53-.26,.12,.04-.15-.04-.18-.47,.37-.02,0-.51,.36-.04,.01-.03,0,0-.02l.27-.25c.14-.11,.12-.07,.23-.15,.02-.05,.2-.16,.32-.28-.17,.13-.26,.18-.2,.11l-.21,.19c-.29,.16,.39-.34,.1-.18l.16-.1c-.1,.05-.05-.07-.45,.21,.05-.05,.18-.15,.22-.17,.02-.09-.49,.23-.27,0l.12-.09s-.23,.16-.12,.06c.05-.04,.12-.09,.12-.1-.04,.03-.22,.14-.16,.08l.14-.1c.12-.16-.37,.19-.48,.22,.34-.28,.43-.4,.47-.46l.05-.04c0-.08-.35,.15-.52,.22,.34-.33,.08-.22,.25-.44-.06,.06-.26,.22-.3,.24,.06-.07-.25,.17,.05-.09h0c.29-.26,.2-.21,.19-.23l-.4,.34c.54-.55-.31,.08,.19-.4-.11,.08-.12,.06-.22,.14l.21-.19c.03-.08,.04-.11-.04-.1l.16-.13s-.63,.52-.65,.52l.31-.29s.21-.31-.11-.09c.05-.04,.14-.12,.15-.13,0-.02,.15-.26-.27,.15,.27-.26,0-.06-.14,.04l.2-.19c-.27,.23-.34,.3-.43,.35,.02-.03,.16-.16,.11-.1,.09-.12-.2,.17-.11,.05l.13-.12s-.07,.04-.23,.17c-.09,.07,.02-.08,.2-.26-.11,.1-.27,.24-.22,.18,.07-.07,.11-.11,.13-.12,.11-.16-.27,.19-.09-.02,.06-.07,.1-.1,.11-.12,.02,.03,.02,.05,0,.07,.18-.18,.2-.23,.46-.46-.15,.12-.48,.39-.41,.29,.02-.02,.03-.04,.06-.06l.02-.02s0,0-.04,.02c.02-.04,.04-.06,.04-.07,.15-.15,.06-.1,.06-.12-.2,.2-.18,.16-.33,.33,.01-.02,.03-.02,.04-.02,0,0,.01,0,.02-.02l-.02,.02s.02,0,.03,0c-.11,.09-.2,.17-.1,.05-.13,.12-.27,.25-.33,.31,.26-.3,.4-.46,.56-.64-.14,.09-.14,.01-.52,.37-.05,.04,.1-.12,.15-.18,.04-.03,.04-.02,.1-.08-.11,.08-.08,0-.34,.26,.1-.14,.25-.24,.18-.22l.08-.08c.35-.48-.73,.61-.27,0-.03,.04-.04,.06-.08,.1,.16-.31-.34,.11-.06-.34,.05-.1-.11,.08-.24,.2l.2-.23-.25,.24c-.19,.17,.44-.6,.09-.27l-.13,.16s-.12,.06,.04-.12c-.03,.03-.14,.16-.08,.07l.1-.12-.21,.18c.05-.11,.41-.47,.39-.53-.05,.03-.33,.32-.4,.4,0,.01-.05,.09-.15,.21l-.06,.05c-.3,.35-.62,.71-.8,.98l.2-.2-.14,.18h-.02c-.13,.17,0,.03,.09-.06-.07,.09-.13,.16-.15,.2l.31-.32c-.12,.14-.24,.27-.3,.35,.14-.15,.26-.32,.36-.41-.13,.17-.24,.3-.12,.17-.08,.09-.13,.15-.17,.18,.1-.1,.06-.03,.23-.21-.16,.21,.08-.02-.21,.31,.07-.08,.24-.25,.26-.25-.36,.38,.01,.05-.37,.47,.32-.35,.18-.12,.37-.3-.03,.03-.08,.08-.06,.06-.02,.04-.11,.15-.16,.22,.26-.29,.34-.34,.51-.51-.24,.29-.32,.33-.56,.61,.21-.24,.24-.21,.41-.41-.15,.18-.07,.09-.28,.34,.33-.36,.07-.05,.28-.27-.15,.19-.31,.34-.19,.25-.09,.12-.23,.23-.23,.23Zm.96-.25h0s-.02,0-.02,0c0,0,.01,0,.02,0Zm.04,.03s0-.02,0-.02c.07-.07,.14-.14,.14-.13-.05,.04-.08,.09-.13,.15Zm1.31-1.45s0,.02-.04,.06c0,0-.02,0-.03,.01l-.02,.02s.08-.07,.1-.1Z"/>
            <path class="cls-4" d="M154.92,102.59s-.02,.01-.02,.01c-.02,.02-.03,.04-.04,.05l.06-.06h0Z"/>
            <path class="cls-4" d="M157.2,106.53h0s-.02,0-.04,.02c.01,0,.02-.01,.03-.02Z"/>
            <polygon class="cls-4" points="153.9 104.6 153.96 104.55 153.91 104.59 153.9 104.6"/>
            <path class="cls-4" d="M156.44,107.18s-.05,.02-.06,.03c.02,0,.04-.02,.06-.03Z"/>
            <path class="cls-4" d="M156.42,107.3l-.09,.05s.07-.05,.09-.05Z"/>
            <path class="cls-4" d="M156.33,107.43s.08-.03,.11-.05h0s-.11,.05-.11,.05Z"/>
            <path class="cls-4" d="M155.46,106.42s0,0-.01,0c-.05,.02-.03,.01,.01,0Z"/>
            <path class="cls-4" d="M156.22,106.45s-.09,.04-.12,.05c-.02,.02-.02,.02,.12-.05Z"/>
            <polygon class="cls-4" points="154.95 106.23 154.96 106.23 154.96 106.23 154.95 106.23"/>
            <path class="cls-4" d="M156.09,106.48s-.03,.03,0,.02c.01-.01,.04-.03,0-.02Z"/>
            <path class="cls-4" d="M156.34,107.81h0s.03,0,.04,0h-.03Z"/>
            <path class="cls-4" d="M156.38,107.8h.03s0-.01-.03,0Z"/>
            <path class="cls-4" d="M156.48,107.78l-.07,.02s0,.01,.07-.02Z"/>
            <path class="cls-4" d="M156.42,107.66l-.1,.04s.05-.02,.1-.04Z"/>
            <path class="cls-4" d="M156.38,107.64s-.19,.1-.13,.09l.08-.03c-.14,.05,.22-.11,.06-.06Z"/>
            <path class="cls-4" d="M157.49,107.03l-.06,.06c.1-.05,.23-.11,.26-.11,.28-.16-.22,.1-.2,.05Z"/>
            <path class="cls-4" d="M157.6,106.88c.05,0,.14-.06,.2-.09-.1,.03-.12,.04-.2,.09Z"/>
            <path class="cls-4" d="M157.31,106.24l.23-.11s-.09,.04-.23,.11Z"/>
            <polygon class="cls-4" points="156.07 106.72 155.93 106.8 156.15 106.7 156.07 106.72"/>
            <polygon class="cls-4" points="157.66 105.82 157.69 105.81 157.6 105.84 157.66 105.82"/>
            <path class="cls-4" d="M156.98,104.82l-.26,.17c.05-.02,.35-.21,.26-.17Z"/>
            <path class="cls-4" d="M156.43,104.57c.13-.09,.2-.16,.07-.08-.01,.02-.11,.1-.07,.08Z"/>
            <polygon class="cls-4" points="155.89 103.02 155.97 102.96 155.89 103 155.89 103.02"/>
          </g>
          <g>
            <path class="cls-4" d="M161.85,105.89c.07-.05,.22-.17,.19-.15l-.27,.2,.08-.04Z"/>
            <path class="cls-4" d="M162.3,105.48c-.13,.09-.36,.25-.6,.44,.26-.19,.15-.1,.46-.33,.04-.02-.08,.07-.17,.15,.07-.05-.05,.05,.12-.07,.2-.16,.2-.18,.02-.06,.06-.05,.13-.1,.18-.13Z"/>
            <path class="cls-4" d="M162.27,104.59l-.03,.03s.03-.02,.03-.03Z"/>
            <path class="cls-4" d="M162.13,104.12s.04-.02,.06-.04c-.02,.01-.04,.02-.06,.04Z"/>
            <path class="cls-4" d="M162.38,103.83s-.01,.01-.02,.02c.02-.02,.04-.03,.02-.02Z"/>
            <path class="cls-4" d="M162.27,104.59l.08-.07c-.09,.06-.06,.05-.08,.07Z"/>
            <path class="cls-4" d="M161.61,105.89s.04-.02,.07-.05c-.01,0-.02,.01-.03,.02-.01,.01-.03,.02-.04,.03Z"/>
            <path class="cls-4" d="M162.6,104.58h0s.07-.05,.11-.08l-.11,.08Z"/>
            <path class="cls-4" d="M162.73,104.67s-.22,.16-.31,.23c.09-.07,.14-.1,.16-.11,.04-.03,.09-.07,.16-.12Z"/>
            <path class="cls-4" d="M162.49,105.17l.03-.02s-.02,.01-.03,.02Z"/>
            <path class="cls-4" d="M162.58,104.46s.06-.05,.08-.06c-.03,.02-.05,.04-.08,.06Z"/>
            <path class="cls-4" d="M158.29,102.33s.03-.02,.04-.03c-.02,.02-.04,.03-.04,.03Z"/>
            <path class="cls-4" d="M159.29,101.34h.01s.08-.07,.13-.1l-.14,.1Z"/>
            <path class="cls-4" d="M162.58,103.5s0,0,0,0c.03-.02,.02-.01,0,0Z"/>
            <path class="cls-4" d="M161.62,102.59c-.19,.16-.27,.18-.48,.36,.09-.07,.36-.25,.48-.36Z"/>
            <path class="cls-4" d="M161.63,105.86s0,0,0,0c0,0,0,0,0,0Z"/>
            <path class="cls-4" d="M161.14,102.96s0,0,0,0l-.02,.02s.01-.01,.02-.02Z"/>
            <path class="cls-4" d="M162.24,103.34s-.07,.05-.1,.08c.02-.02,.05-.04,.1-.08Z"/>
            <path class="cls-4" d="M162.07,103.78l.03-.03s-.02,.02-.03,.03Z"/>
            <path class="cls-4" d="M161.85,103.48s.05-.04,.01-.02c-.01,0-.02,.02-.03,.02,.03-.02,.05-.03,.01,0Z"/>
            <path class="cls-4" d="M161.77,103.38s-.03,.02-.04,.04c0,0,0,0,.01,0l.03-.03Z"/>
            <path class="cls-4" d="M158.64,102.56c.06-.05,.13-.1,.2-.16-.16,.12-.23,.15-.2,.16Z"/>
            <path class="cls-4" d="M161.73,105.79c-.06,.04-.09,.06-.1,.07,0,0,0,0,.01,0,.03-.03,.06-.05,.08-.06Z"/>
            <path class="cls-4" d="M160.09,104.83l.02-.04s-.02,.04-.02,.04Z"/>
            <path class="cls-4" d="M159.25,103.29l-.03,.02s0,0,.03-.02Z"/>
            <path class="cls-4" d="M160.04,104.76c.08-.06,.12-.1,.15-.13-.02,.01-.03,.02-.06,.04l-.09,.09Z"/>
            <path class="cls-4" d="M158.84,102.4s0,0,0,0c0,0,0,0,0,0Z"/>
            <path class="cls-4" d="M158.23,102.7s.29-.21,.46-.34c.1-.04-.21,.17-.35,.3,.09-.05,.36-.24,.36-.23-.05,.04-.06,.05-.13,.1,.24-.17,.04,.03,.34-.18-.03,.02-.05,.04-.07,.06,.15-.11,.29-.23,.4-.31,.01,0,.2-.13,0,.02,0,0-.08,.05-.14,.09l.09-.06c-.27,.22-.1,.06-.31,.22,.1-.05,.34-.21,.27-.14-.27,.21-.11,.04-.34,.24l.09-.1c-.42,.34,.02-.03-.42,.33-.06,.08,.16-.08,.1,0,.15-.11,.22-.17,.37-.28,.29-.17-.66,.54-.28,.29,.18-.13,.53-.39,.36-.24l-.31,.23s.45-.32,.26-.14c-.12,.09-.11,.06-.15,.09-.23,.2,.18-.12,.19-.11l-.27,.21c.06,0,.28-.13,.34-.14-.08,.06-.17,.12-.25,.19,.16-.07,.02,.09-.12,.25l.24-.17s-.1,.09-.15,.12c-.08,.08,.15-.11,.24-.18,.02,0-.13,.11-.2,.16,.21-.13,.47-.26,.24-.05l-.07,.05c-.08,.09,.49-.35,.29-.16l-.04,.03c-.07,.12,.17,0-.16,.29,.34-.25-.12,.15,.35-.2-.22,.2-.3,.26-.44,.41-.02,.02,.3-.21,.36-.24l-.24,.19,.27-.18-.29,.23,.07-.04s.1-.09,.17-.15c.12-.07-.14,.17-.27,.26l.23-.12c-.1,.07-.14,.09-.2,.14,.26-.17-.26,.2-.01,.04,.05-.04,.15-.11,.2-.15-.14,.12-.13,.14-.05,.11l-.17,.13c-.02,.06,.12,0,.14,.03,.07-.07,.36-.29,.4-.3l-.26,.2c.16-.12,.09-.08,.29-.22-.02,.03-.29,.23-.38,.29l.1-.06c-.08,.06-.12,.09-.22,.16,.16-.12-.24,.22,.04,.02l-.08,.06s.12-.02,.15,0c.22-.17,.18-.12,.37-.25-.06,.07-.22,.23-.18,.23,.12-.07,.19-.14,.33-.24-.2,.16-.17,.16-.32,.26,.05,0,.07,0,.26-.09,.08-.07,.11-.1,.18-.15,.04-.02-.08,.08-.17,.15h-.02c.33-.18-.53,.55-.08,.26h-.02s.24-.12,.24-.12c-.02,.04-.16,.11-.28,.22,.36-.23-.01,.09,.24-.06-.58,.48,.1,.04-.26,.36l.14-.11c.14-.1-.07,.07-.1,.1,.11-.08,.12-.1,.2-.16,.22-.07-.11,.28-.19,.44-.02,.05,.74-.55,.43-.26l-.27,.19c.35-.2,.06,.1,.36-.06-.06,.04-.14,.1-.14,.1-.18,.16,.02,.04,.17-.08-.01,.02-.14,.11-.22,.17-.11,.1,.26-.16,.08-.01-.03,.02-.06,.04-.08,.05,.1-.06,0,.05,.21-.13-.09,.1,.12-.04,0,.07,.25-.18-.1,.12,.25-.14-.36,.27-.27,.25-.09,.13-.11,.08-.11,.1-.26,.21,.01,0,.09-.03,.27-.17-.41,.35,.38-.22-.16,.21,.22-.11,.38-.18,.49-.21-.36,.27-.06,0-.44,.28,.17-.08,.49-.3,.43-.2-.04,.05-.16,.11-.22,.16,.17-.08,.01,.08,.23-.04-.03,.03-.07,.05-.1,.07,.02,0-.04,.05,.12-.07l-.05,.03c.23-.19,.51-.36,.64-.45-.47,.35-.1,.12-.7,.55,.03-.02,.11-.07,.22-.16-.03,.03-.09,.08-.22,.17,.1-.05,.27-.19,.28-.17-.08,.06-.11,.08-.21,.15,.16-.11,.32-.22,.27-.15-.05,.04-.11,.08-.11,.08,.04,0,.44-.27,.32-.13-.35,.25-.11,.1-.4,.32l.1-.05,.14-.12s.23-.14,.14-.05l-.13,.08,.08-.02,.1-.1c.16-.1,.37-.29,.3-.21-.03,.02,0,.02-.16,.16h0c.1-.07,.2-.13,.14-.07-.09,.07-.33,.25-.39,.3,.25-.18,.09-.02,.36-.22-.06,.04-.22,.16-.25,.19l.21-.15c-.06,.06-.09,.08-.22,.17-.02,.05,.37-.29,.23-.15-.02,.01-.05,.03-.08,.05-.07,.09,.16-.06,.08,.04-.29,.23-.09,.04-.33,.24,.08-.01,.4-.21,.35-.13l.03-.03c.42-.32-.19,.18,.02,.04-.03,.02-.24,.17-.19,.14-.05,.07,.13-.04,.29-.11l-.11,.08c-.09,.09-.03,.07-.07,.12,.11-.08,.1-.06,.25-.18-.59,.51,.39-.18-.1,.25,0,0-.1,.06-.1,.07l.12-.05c.18-.14,.11-.09,.25-.2,.11-.08,.2-.14,.21-.13-.13,.08-.29,.23-.39,.31,.06-.04,.12-.09,.18-.13-.32,.26,.37-.28,.17-.09l-.1,.07c.06-.03,.19-.12,.17-.09-.21,.17-.11,.07-.28,.2,.02,0,.42-.28,.22-.11-.06,.04-.07,.03-.13,.07-.24,.2-.18,.16-.21,.19h0s-.1,.1-.1,.1l.06-.06c.56-.41,.12-.05,.5-.31-.36,.24-.2,.15-.44,.33-.06,.06-.13,.12-.2,.17,.2-.14-.14,.13,.15-.07-.08,.06,0,.02-.2,.16,.07-.03,.13-.11,.23-.18,.28-.18-.29,.29,.1,.04,.17-.09,.43-.29,.58-.37-.12,.1-.29,.21-.29,.21-.11,.1-.08,.09,.02,.03-.07,.05-.12,.1-.21,.17,.03,0,.29-.21,.18-.11-.09,.06-.23,.17-.32,.23,.08-.04,.23-.14,.31-.19-.13,.11-.21,.15-.3,.21,.07-.03,.15-.06,.36-.22l.07-.07s-.18,.14-.22,.17c-.18,.12,.06-.07,.14-.13l.06-.03c.45-.36-.1,.03-.08-.01l.34-.25-.29,.19c.08-.07,.27-.21,.32-.24,.15-.14-.12,.08,.05-.07,.03-.02,.04-.03,.06-.04l-.11,.06c.07-.05,.23-.18,.19-.14,.18-.17-.27,.16-.03-.04h.02c-.13,.04-.24,.17-.54,.37l.59-.47-.24,.18s.02-.03,.12-.1c-.17,.12-.1,.08-.27,.2,.21-.18-.13,.04,.25-.26-.19,.14-.13,.12-.27,.21,.41-.32-.08,.04,.1-.12,.22-.16,.11-.06,.29-.22-.37,.27,.06-.08-.02-.04-.29,.22-.14,.07-.25,.13,.1-.07,.13-.15,.23-.25l.05-.04c-.29,.22-.25,.16-.32,.2,.18-.13,.25-.18,.33-.24h0c-.1,.06-.15,.09-.19,.11l.22-.16s-.28,.17-.15,.04c-.2,.15-.55,.45-.71,.53,.11-.08,.3-.23,.35-.26-.02,0-.1,.06-.05,.02l.19-.13c.07-.07-.16,.11-.15,.09,.16-.12,.11-.09,.23-.19,.02,0-.06,.06,0,.01,.02-.03,.11-.11,.22-.2-.09,.07-.21,.16-.24,.17-.02,0,.18-.15,.26-.22-.11,.08,0-.02-.24,.16,0,0,.11-.09,.17-.14-.11,.07-.06-.01-.3,.19h-.02s0,.02-.01,.02h0s0,0,0,0c-.25,.15,.09-.15-.03-.1l.08-.06c-.1,.05-.08,0-.26,.13,0,0,.14-.12,.23-.19-.07,.03-.16,.1-.04-.02,.15-.09,.12-.1,.11-.06,.06-.07,.18-.17-.05-.02,.2-.15,.24-.2,.18-.17l-.14,.12s-.02,0-.01-.03l.27-.2c.3-.28-.59,.36-.07-.07-.19,.13-.12,.12-.34,.27,.03-.04,.39-.35,.39-.35,.13-.13-.4,.28-.32,.18-.09,.07-.34,.27-.44,.32,.02-.04,.38-.32,.46-.37,.01,0-.02,.02-.05,.05,.04-.02,.08-.05,.18-.13l-.1,.07c.09-.08,.07-.09,.22-.21-.1,.06-.16,.11-.2,.16,.12-.12-.02-.03,.06-.12-.05,.04-.16,.13-.16,.13,.1-.12-.19,.12-.24,.14,.14-.12,.35-.26,.21-.19,.09-.09,.25-.19,.33-.25-.19,.12,.1-.12,.12-.16l.08-.05s-.05,.02-.05,.02l-.18,.15s.03-.04,.1-.1c-.13,.09-.31,.24-.49,.36,.09-.08-.12,.06,.13-.14-.07,.09,.25-.19,.3-.21-.03,.02-.03,.01,0-.02,.03-.02,.05-.04,.07-.05,.21-.19-.29,.21-.3,.18,.14-.11,.26-.21,.23-.19,0,.01-.23,.18-.35,.26,.1-.1-.09,.05-.09,.03l-.05,.05c-.14,.1-.13,.08-.18,.11,.11-.08,.08-.05,.13-.09-.26,.18,.24-.22,.06-.11,.09-.08,.26-.2,.32-.26-.2,.12,.18-.17,.01-.07-.19,.15-.14,.12-.33,.24l.16-.07-.29,.19s.13-.07,.11-.04c-.16,.11-.11,.07-.27,.2,.28-.23-.18,.1,0-.06l.47-.36c.19-.18-.27,.15-.17,.03l-.08,.07c-.19,.14-.04,0-.12,.05,.16-.12,.21-.17,.31-.25-.12,.09,0-.03-.32,.21l.2-.17c.07-.09-.47,.32-.43,.25,.18-.12,.28-.22,.41-.3,0,0,.02-.04-.09,.05,.1-.08-.23,.14-.08,.02-.07,.05-.24,.17-.23,.16,.03-.03,.08-.06,.08-.06-.08,.06-.11,.07-.28,.21,.47-.4-.08-.03,.32-.37-.06,.02-.13,.04-.15,.04,.05-.03,.08-.06,.06-.04,.13-.13-.46,.33-.31,.19,.24-.21,.15-.09,.24-.17,.51-.4-.09,.03,.2-.22l.03-.02c.17-.15-.22,.12-.19,.08,0,0,.05-.03,.08-.06-.27,.19-.38,.23-.46,.27,.21-.15,.11-.07,.32-.23-.04,.01-.33,.25-.4,.28,.11-.09,.19-.18,.41-.34h.02c.28-.22-.02,0,.02-.05l.12-.09c-.06,0-.37,.25-.37,.2l-.09,.07c-.32,.22,.17-.14-.07,.02l.31-.24c-.08,.05-.33,.2-.4,.23,.24-.17,.37-.24,.52-.34,0-.01-.05-.01-.2,.1,.03-.02,.11-.07,.07-.03-.25,.18-.39,.26-.39,.23,.61-.46,.12-.16,.58-.54-.25,.14,.05-.14-.01-.14-.46,.37-.02,0-.51,.37-.04,.02-.03,0,0-.02l.27-.25c.14-.11,.11-.07,.22-.16,.02-.05,.2-.17,.32-.28-.17,.14-.25,.18-.2,.12l-.21,.19c-.28,.17,.39-.33,.11-.16l.16-.11c-.1,.06-.03-.05-.43,.23,.05-.05,.18-.15,.22-.17,.03-.08-.47,.25-.25,.04l.12-.09s-.23,.16-.12,.06c.05-.04,.12-.09,.13-.1-.04,.03-.22,.14-.16,.08l.14-.1c.13-.15-.36,.2-.46,.24,.35-.27,.44-.38,.49-.43l.05-.04c.02-.07-.34,.16-.5,.23,.36-.31,.1-.19,.29-.39-.06,.05-.27,.21-.31,.23,.06-.06-.26,.16,.06-.08h0c.31-.24,.21-.19,.21-.21l-.42,.32c.58-.5-.29,.09,.24-.35-.11,.07-.12,.06-.23,.13l.23-.17c.04-.07,.06-.1-.01-.08l.17-.12s-.66,.48-.69,.47l.33-.26s.25-.28-.08-.07c.05-.04,.15-.11,.16-.12,0-.02,.19-.22-.27,.13,.3-.23,0-.05-.14,.04l.22-.17c-.29,.2-.37,.26-.46,.31,.03-.03,.17-.14,.12-.09,.11-.1-.22,.15-.11,.04l.15-.1s-.07,.03-.24,.15c-.1,.06,.04-.07,.23-.22-.12,.09-.29,.21-.24,.16,.07-.06,.12-.09,.15-.11,.13-.14-.28,.16-.08-.02,.07-.06,.11-.09,.13-.1,0,.02,0,.05,0,.06,.2-.16,.23-.2,.52-.4-.16,.11-.51,.34-.43,.25,.02-.02,.04-.03,.07-.06l.02-.02s0,0-.04,.02c.03-.03,.05-.05,.05-.06,.17-.13,.08-.09,.08-.1-.22,.17-.19,.13-.37,.28,.02-.01,.03-.02,.04-.02,0,0,.01,0,.03-.01,0,0-.01,0-.02,.01,.01,0,.02,0,.03,0-.12,.08-.22,.15-.1,.04-.15,.11-.3,.21-.37,.27,.3-.25,.46-.4,.65-.55-.14,.07-.12,.01-.55,.32-.06,.03,.11-.1,.18-.15,.04-.03,.04-.02,.1-.06-.12,.07-.07,0-.37,.22,.12-.12,.28-.2,.21-.18l.09-.07c.43-.4-.8,.5-.24,0-.03,.03-.05,.05-.1,.08,.22-.26-.34,.08,.04-.3,.07-.08-.12,.06-.27,.16l.24-.19-.29,.2c-.22,.13,.56-.49,.15-.23l-.16,.13s-.12,.04,.07-.1c-.03,.02-.17,.13-.09,.06l.13-.1-.23,.14c.08-.09,.5-.38,.5-.43-.06,.03-.39,.25-.47,.32,0,0-.07,.07-.2,.17l-.07,.04c-.37,.28-.76,.56-1,.79l.24-.16-.18,.14h-.02c-.16,.13,0,.02,.1-.05-.09,.07-.16,.13-.19,.16l.37-.25c-.14,.11-.29,.21-.36,.28,.17-.12,.32-.26,.44-.33-.16,.14-.3,.24-.15,.14-.09,.07-.16,.12-.2,.15,.12-.08,.07-.01,.27-.16-.2,.17,.08-.01-.27,.25,.09-.06,.29-.2,.31-.2-.43,.31,0,.05-.45,.39,.38-.28,.2-.09,.42-.23-.03,.02-.09,.07-.07,.05-.02,.03-.13,.12-.2,.19,.31-.24,.4-.27,.59-.41-.29,.24-.37,.27-.66,.5,.25-.19,.27-.17,.48-.34-.18,.15-.08,.08-.34,.28,.39-.3,.07-.04,.32-.22-.18,.16-.36,.28-.23,.21-.11,.1-.26,.19-.26,.19Zm.96-.15s0,0,0,0c0,0-.01,0-.02,0,0,0,.01,0,.02,0Zm.03,.03s0-.02,0-.02c.08-.06,.16-.12,.15-.11-.05,.04-.09,.08-.15,.13Zm1.5-1.25s0,.02-.05,.05c0,0-.02,0-.03,.01,0,0-.02,.01-.03,.02,.04-.03,.08-.06,.11-.08Z"/>
            <path class="cls-4" d="M160.41,101.55s-.02,.01-.02,.01c-.02,.02-.04,.03-.05,.04,.02-.02,.05-.03,.07-.05,0,0,0,0,0,0Z"/>
            <path class="cls-4" d="M162.23,104.62h0s-.02,.01-.03,.02c.01,0,.02-.01,.03-.02Z"/>
            <polygon class="cls-4" points="159.11 103.34 159.17 103.3 159.12 103.33 159.11 103.34"/>
            <path class="cls-4" d="M161.6,105.38s-.04,.03-.06,.05c.01-.01,.03-.03,.06-.05Z"/>
            <path class="cls-4" d="M161.6,105.49l-.07,.07s.06-.06,.07-.07Z"/>
            <path class="cls-4" d="M161.54,105.63s.07-.05,.1-.07t0,0l-.1,.07Z"/>
            <path class="cls-4" d="M160.58,104.93s0,0-.01,0c-.05,.03-.03,.02,.01,0Z"/>
            <path class="cls-4" d="M161.31,104.8s-.08,.06-.11,.07c-.01,.02-.02,.03,.11-.07Z"/>
            <polygon class="cls-4" points="160.08 104.83 160.09 104.83 160.09 104.83 160.08 104.83"/>
            <path class="cls-4" d="M161.19,104.85s-.03,.04,0,.02c.01-.02,.03-.04,0-.02Z"/>
            <path class="cls-4" d="M161.62,105.95h0s.03-.01,.04-.02l-.03,.02Z"/>
            <path class="cls-4" d="M161.65,105.94l.03-.02s0,0-.03,.02Z"/>
            <path class="cls-4" d="M161.74,105.88l-.06,.04s0,.01,.06-.04Z"/>
            <path class="cls-4" d="M161.67,105.8l-.08,.06s.04-.03,.08-.06Z"/>
            <path class="cls-4" d="M161.63,105.79s-.16,.15-.11,.11l.06-.05c-.12,.09,.18-.17,.04-.07Z"/>
            <path class="cls-4" d="M162.56,104.93l-.05,.07c.08-.07,.2-.16,.22-.17,.24-.22-.19,.15-.17,.1Z"/>
            <path class="cls-4" d="M162.64,104.78s.13-.1,.17-.13c-.08,.05-.1,.07-.17,.13Z"/>
            <path class="cls-4" d="M162.31,104.35l.2-.15s-.08,.06-.2,.15Z"/>
            <polygon class="cls-4" points="161.2 105.07 161.08 105.17 161.26 105.03 161.2 105.07"/>
            <polygon class="cls-4" points="162.61 103.91 162.64 103.89 162.55 103.94 162.61 103.91"/>
            <path class="cls-4" d="M161.98,103.25l-.25,.19s.33-.24,.25-.19Z"/>
            <path class="cls-4" d="M161.49,103.13c.12-.1,.2-.17,.07-.08-.01,.02-.1,.1-.07,.08Z"/>
            <polygon class="cls-4" points="161.18 101.89 161.27 101.83 161.19 101.87 161.18 101.89"/>
          </g>
        </g>
        <g>
          <path class="cls-5" d="M140.34,94.87c5.79,0,5.8-9,0-9s-5.8,9,0,9h0Z"/>
          <path class="cls-5" d="M95.75,95.89c5.79,0,5.8-9,0-9s-5.8,9,0,9h0Z"/>
          <path class="cls-6" d="M82.45,74.53c3.43-2.6,7.84-3.87,12.13-3.49,2.4,.21,4.73,.92,7.03,1.62"/>
          <path class="cls-6" d="M144.63,76.59c-3.08-1.87-6.88-2.5-10.4-1.74"/>
        </g>
      </g>
      <circle class="cls-2" cx="147.72" cy="184.26" r="16.3"/>
      <g>
        <path class="cls-2" d="M241.57,474.57c-.51,3.26-.2,6.97,2.16,9.01,.95,.82,2.16,1.3,3.01,2.23,.86,.93,1.26,2.22,1.78,3.4,3.58,8.19,14.32,11.72,22.38,7.37,1.43-.77,2.77-1.75,4.21-2.49,1.51-.78,3.12-1.29,4.67-1.99,9.47-4.27,15.43-16.07,13.23-26.15,5.01-7.04,9.16-16.42,5.5-23.81-2.4-4.84-7.52-7.38-12.48-9.24-2.29-.86-4.66-1.66-6.57-3.19-1.29-1.03-2.32-2.35-3.53-3.46-4.1-3.76-10.34-4.88-15.72-2.81-5.38,2.06-9.7,7.22-10.88,13-.23,1.11-.35,2.26-.83,3.3-.55,1.18-1.52,2.1-2.39,3.08-3.91,4.4-5.92,10.65-5.37,16.38,.23,2.43,1.77,4.44,2.04,6.63,.36,2.98-.72,5.77-1.19,8.77Z"/>
        <g>
          <polygon class="cls-1" points="277.35 250.02 243.6 279.13 228.76 311.14 236.01 344.11 252.66 345.09 269.21 339.07 269.04 361.54 268.54 426.66 271.98 486.25 275.67 520.67 279.59 545.76 282.56 557.7 292.56 569.03 301.59 573.42 312.4 575.14 330.09 574.47 337.85 571.93 343.46 565.34 347.94 548.89 349.39 521.46 350 498.8 361.99 499.4 377.83 498.15 403.81 495.79 404.87 503.7 408.03 527.26 410.26 543.83 412.2 558.1 413.94 564.86 417.84 570.46 427.94 575.73 436.63 578.12 447.53 578.12 462.1 576.24 468.33 573.94 472.93 568.9 475.06 561.74 478.25 537.83 480.92 511.67 483.61 471.05 484.76 431.84 484.59 375.16 482.95 298.06 466.06 250.02 460.88 246.65 411.84 247.93 277.35 250.02"/>
          <path class="cls-6" d="M270.84,330.45c-4.97,66.79-2.9,134.23,6.17,200.49,1.07,7.83,2.26,15.73,5.09,23,2.83,7.27,7.48,13.94,13.91,17.37,4.06,2.17,8.61,2.94,13.1,3.38,6.26,.61,12.57,.62,18.84,.04,3.42-.32,6.94-.85,9.9-2.78,5.61-3.66,7.88-11.29,9.36-18.33,2.33-11.08,2.14-42.17,2.79-53.53"/>
          <path class="cls-6" d="M340.03,496.46c13.13,4.55,27.49,2.94,41.29,1.28,8.43-1.02,16.87-2.03,25.3-3.05"/>
          <path class="cls-6" d="M483.08,304.42c2.34,86.18,4.6,169.33-7.58,254.48-.68,4.74-1.56,9.82-4.71,13.11-2.34,2.44-5.56,3.48-8.7,4.23-10.43,2.48-21.32,2.51-31.77,.11-6.01-1.39-12.36-3.98-15.58-9.79-1.87-3.38-2.44-7.42-2.96-11.34-2.1-15.63-5.87-43.79-7.97-59.42"/>
          <line class="cls-6" x1="252.66" y1="345.09" x2="270.27" y2="338.68"/>
          <path class="cls-3" d="M252.53,269.63c-20.82,21.73-40.25,44.8-58.12,69.02-1.96,2.65-3.94,5.41-4.66,8.63-.91,4.07,.34,8.3,1.91,12.17,9.26,22.85,29.29,39.41,49.52,53.5,1.64,1.14,3.33,2.3,5.26,2.8,3.48,.91,7.12-.41,10.48-1.71,5.9-2.28,11.91-4.63,16.86-8.56,4.96-3.94,8.8-9.78,8.77-16.11-.04-7.09-4.72-13.19-9.18-18.7-10.09-12.45-20.17-24.9-30.26-37.35"/>
          <path class="cls-3" d="M454.91,242.74c26.4,14.46,51.87,30.6,76.2,48.31,2.66,1.94,5.39,3.98,7.04,6.82,2.09,3.61,2.18,8.02,1.84,12.18-1.95,24.58-16.07,46.4-31.12,65.93-1.22,1.58-2.48,3.19-4.18,4.26-3.05,1.92-6.91,1.75-10.5,1.52-6.32-.4-12.75-.83-18.66-3.09-5.91-2.26-11.34-6.68-13.21-12.72-2.1-6.77,.53-14,3.13-20.6,5.87-14.91,11.74-29.82,17.61-44.72"/>
          <g>
            <g>
              <path class="cls-1" d="M219.86,152.38l27.01-55.72c.32-7.42,3.71-14.05,8.62-19.48,5.33-5.89,12.76-8,18.24-13.67,13.23-13.68,34.32-19.29,52.27-23.34,16.38-3.69,40.35-10.55,56.48-4.78,19.89,7.12,38.2,16.49,55.58,28.31,6.57,4.47,10.39,11.89,15.52,17.8,5.14,5.92,11.4,10.88,16.36,16.92,5.79,4.6,13.78,7.3,21.08,7.87,6.76,.53,14.29-.54,20.37,3.15,5.36,3.26,8.52,9.01,12.49,13.67,4.18,4.9,9.66,9.11,11.19,15.7,5.31,22.81-27.94,25.51-42,18.81l-.61-1.55c1.53,4.69,3.07,9.37,4.6,14.06,3.59,10.97,7.22,22.31,6.29,33.81-.8,9.86-5.26,19.28-12.02,26.46-6.79,7.21-17.51,9.44-22.85,17.78-2.64,4.12-4.29,8.77-6.56,13.1-10.05,19.24-37.8,39.65-60.42,37.44-7.48-.73-14.01-4.32-21.27-5.67-7.14-1.33-14.51-.35-21.6,.78-13.92,2.23-29.54,6.94-42.9,0-8.11-4.21-13.8-12.2-22.01-16.23-7.72-3.79-16.68-3.63-25.25-4.3-17-1.34-29.55-11.54-37.71-26.27-6.8-12.28-9.92-26.21-12.96-39.92-3.67-16.57-3.25-38.12,2.05-54.74Z"/>
              <path class="cls-5" d="M221.16,153.14c2.96-6.11,5.93-12.22,8.89-18.34,4.81-9.92,9.62-19.85,14.43-29.77,1.19-2.45,2.42-4.89,3.57-7.36,.19-.41,.3-.79,.34-1.27,.21-2.42,.61-4.74,1.4-7.04,1.54-4.5,4.3-8.73,7.67-12.07s7.88-5.59,11.89-8.29,6.81-6.07,10.42-8.94c7.24-5.74,15.86-9.59,24.57-12.52,8.57-2.88,17.37-4.81,26.16-6.87,9.23-2.16,18.48-4.43,27.92-5.46,4.59-.5,9.24-.73,13.85-.37s8.77,1.58,13.05,3.18c10.08,3.76,19.9,8.21,29.39,13.28,4.66,2.5,9.25,5.14,13.74,7.93s8.98,5.29,12.59,8.91,6.08,7.55,9.03,11.38,6.67,7.54,10.3,11.05c1.88,1.82,3.76,3.64,5.56,5.55,.83,.88,1.64,1.78,2.42,2.7s1.84,1.67,2.89,2.37c4.01,2.67,8.63,4.51,13.31,5.59s9.46,1.09,14.28,1.25c5.09,.17,10.07,.92,14.07,4.33,3.5,2.99,6,6.91,8.84,10.48s6.26,6.45,8.89,10.09c3.71,5.15,5.05,12.54,1.24,18.02-3.03,4.36-8.49,6.46-13.49,7.5-5.71,1.19-11.8,1.17-17.52,.04-2.4-.48-4.8-1.14-7.03-2.18l.69,.9-.61-1.55c-.69-1.75-3.51-1.08-2.89,.8,2.83,8.67,5.92,17.3,8.29,26.11s3.68,17.42,1.84,26.1c-1.64,7.77-5.54,15.1-11.04,20.82-4.76,4.94-11.32,7.42-16.74,11.49-2.73,2.05-5.03,4.44-6.78,7.39-2.17,3.64-3.68,7.61-5.58,11.39-3.01,5.96-7.18,11.26-11.88,15.98-9.95,10-22.88,18.34-36.91,20.95-3.12,.58-6.3,.81-9.47,.62-4.17-.25-8.16-1.51-12.09-2.82s-7.75-2.62-11.82-3.18c-4.53-.63-9.11-.45-13.65,.08-8.3,.96-16.42,2.98-24.7,4.01-8.07,1-16.62,.98-24.01-2.86-6.69-3.48-11.62-9.41-17.75-13.68-6.83-4.77-14.79-6.02-22.94-6.57-7.41-.5-14.57-.94-21.43-4.1-6.03-2.78-11.24-6.96-15.53-12-10.62-12.45-14.93-28.85-18.47-44.47-1.77-7.8-3.09-15.54-3.39-23.55s.17-16.37,1.62-24.4c.67-3.72,1.56-7.4,2.7-11,.58-1.85-2.31-2.63-2.89-.8-4.9,15.53-5.63,32.61-3.3,48.67,1.23,8.47,3.35,16.95,5.68,25.18,2.31,8.18,5.28,16.26,9.61,23.61,7.03,11.91,17.92,21.49,31.68,24.45,8.05,1.73,16.41,.92,24.44,2.8,4.05,.95,7.72,2.63,11.11,5.05s6.21,5.17,9.3,7.77,6.03,4.77,9.54,6.35c3.69,1.66,7.61,2.59,11.63,2.95,8.27,.74,16.56-.92,24.65-2.41,8.98-1.66,18.53-3.62,27.64-1.78,8.02,1.62,15.33,5.56,23.65,5.77,14.29,.36,28.2-6.78,39.19-15.37,5.63-4.4,10.73-9.47,15.03-15.17,2.03-2.69,3.85-5.54,5.37-8.55,1.99-3.94,3.54-8.11,5.87-11.87,3.76-6.07,10.48-8.92,16.26-12.64,6.35-4.09,11.23-9.91,14.57-16.67,3.78-7.63,5.22-16,4.48-24.46-.8-9.11-3.65-17.85-6.48-26.5-1.47-4.49-2.94-8.98-4.41-13.47l-2.89,.8c.54,1.36,.8,2.24,2.21,2.85,1.22,.53,2.48,.97,3.75,1.34,2.81,.8,5.72,1.26,8.63,1.5,6.14,.5,12.63-.04,18.44-2.19,5.23-1.94,10-5.33,12.07-10.69,2.76-7.15-.17-14.85-4.9-20.38-3.11-3.63-6.47-6.95-9.36-10.78s-5.67-7.53-9.71-9.97c-4.4-2.66-9.62-3.02-14.63-3.13s-10.2-.38-15.2-1.92c-2.47-.76-4.86-1.75-7.13-3-1.05-.58-2.08-1.21-3.06-1.9-1.17-.82-1.99-1.88-2.94-2.94-3.69-4.1-7.85-7.75-11.69-11.71-3.55-3.67-6.45-7.77-9.53-11.82s-6.36-7.44-10.57-10.26c-9.19-6.16-18.78-11.72-28.72-16.6-4.96-2.43-10-4.69-15.11-6.79-4.71-1.93-9.54-4.08-14.52-5.21-9.39-2.15-19.31-1.08-28.7,.51-9.32,1.59-18.52,3.91-27.73,6.05-9.3,2.16-18.56,4.65-27.37,8.37-4.45,1.88-8.77,4.05-12.81,6.69s-7.27,5.69-10.71,8.89c-3.68,3.43-8.3,5.57-12.37,8.48s-7.34,6.62-9.82,10.91c-1.19,2.06-2.18,4.26-2.89,6.54-.35,1.12-.63,2.27-.84,3.42-.18,.99-.27,2.78-.33,3.32,.03-.25-.04,.12-.12,.3-.18,.41-.39,.81-.59,1.21-4.26,8.79-8.52,17.58-12.78,26.37s-8.48,17.49-12.72,26.24c-.24,.49-.48,.99-.72,1.48-.84,1.73,1.75,3.25,2.59,1.51Z"/>
            </g>
            <g>
              <path class="cls-1" d="M280.62,85.75c-6.95,6.44-16.25,9.82-25.57,11.5-9.33,1.68-18.85,1.8-28.29,2.61-3.76,.32-7.53,.76-11.12,1.92-9.25,3.01-16.66,11.14-18.8,20.63-.8,3.52-.91,7.17-.83,10.78,.3,13.76,10.98,20.6,24.42,18.47,8.56-1.35,18.24,.87,25.69-4.17,4.18-2.83,7.42-6.83,10.49-10.84"/>
              <path class="cls-5" d="M279.55,84.69c-10.49,9.6-25.22,11.73-38.85,12.7-7.39,.53-15.01,.52-22.28,2.09-5.88,1.27-11.25,4.24-15.41,8.59-4.03,4.21-6.88,9.57-7.89,15.32s-1.24,12.67,1.09,18.28c1.77,4.27,5.05,7.76,9.26,9.71,4.59,2.13,9.71,2.52,14.67,1.83,6.94-.97,14.19,.06,21-1.83,7.35-2.04,12.31-8.17,16.77-13.97,1.17-1.53-1.43-3.03-2.59-1.51-3.77,4.92-8.09,10.42-14.23,12.37-5.77,1.83-11.95,1.09-17.9,1.58-2.62,.22-5.18,.74-7.82,.7-2.24-.03-4.46-.35-6.59-1.05-4.01-1.31-7.35-4.05-9.29-7.81-2.54-4.93-2.39-11.22-1.63-16.56s3.23-10.61,7.02-14.66c3.99-4.27,9.09-7.01,14.8-8.18,6.95-1.41,14.21-1.39,21.27-1.9,14.41-1.04,29.67-3.44,40.73-13.57,1.43-1.31-.7-3.42-2.12-2.12h0Z"/>
            </g>
            <path class="cls-5" d="M420.32,154.23c5.79,0,5.8-9,0-9s-5.8,9,0,9h0Z"/>
            <path class="cls-5" d="M354.17,161.02c5.79,0,5.8-9,0-9s-5.8,9,0,9h0Z"/>
            <path class="cls-5" d="M393.99,176.76c-1.05,.83-1.05,2.46-.69,3.41,.49,1.28,1.74,2.32,3.05,3.19,1.01,.68,3.31,.98,4.68,.87,2.73-.2,4.61-2.16,5.32-3.91,.56-1.39,.61-2.91,.38-4.32-.04-.22-.09-.45-.28-.61-.26-.23-.72-.29-1.14-.33-1.84-.18-3.69-.37-5.56-.24-2.14,.15-4.07,.77-5.64,1.87-.03,.02-.07,.05-.1,.07Z"/>
            <path class="cls-5" d="M397.03,184.41c-.95,2.4-2.46,4.73-4.74,6.03-2.64,1.51-5.94,1.34-8.54-.17-1.67-.97-3.18,1.62-1.51,2.59,3.46,2.02,7.83,2.19,11.38,.27,3.1-1.67,5.05-4.74,6.31-7.93,.3-.75-.33-1.65-1.05-1.85-.85-.23-1.55,.29-1.85,1.05h0Z"/>
            <path class="cls-5" d="M401.6,185.01c.81,2.97,3.6,5.52,6.2,6.95,4.14,2.28,8.85,2,12.9-.34,1.67-.96,.16-3.56-1.51-2.59-3.19,1.84-6.8,2.09-10.04,.25-1.23-.7-2.29-1.59-3.22-2.66-.35-.4-.59-.72-.93-1.28-.14-.24-.27-.48-.38-.73-.06-.12,.08,.27-.02-.05-.03-.11-.07-.22-.1-.33-.51-1.86-3.4-1.07-2.89,.8h0Z"/>
          </g>
          <path class="cls-6" d="M408.7,139.21c2.49-4.34,5.51-9.1,10.39-10.2"/>
          <polyline class="cls-6" points="372.32 140.87 366.87 147.02 333.36 118.9"/>
        </g>
      </g>
    </g>
  </g>
</svg>