<?xml version="1.0" encoding="UTF-8"?>
<svg id="_레이어_2" data-name="레이어 2" xmlns="http://www.w3.org/2000/svg" viewBox="0 0 365.48 560.65">
  <defs>
    <style>
      .cls-1 {
        stroke: #495959;
      }

      .cls-1, .cls-2, .cls-3, .cls-4, .cls-5, .cls-6, .cls-7 {
        stroke-width: 3px;
      }

      .cls-1, .cls-2, .cls-3, .cls-4, .cls-6, .cls-7 {
        stroke-linecap: round;
        stroke-linejoin: round;
      }

      .cls-1, .cls-7 {
        fill: none;
      }

      .cls-8, .cls-5, .cls-6 {
        fill: #fff;
      }

      .cls-9 {
        fill: #444;
      }

      .cls-10 {
        fill: #607882;
      }

      .cls-11 {
        fill: #495959;
      }

      .cls-2 {
        fill: #7c7b7a;
      }

      .cls-2, .cls-3, .cls-4, .cls-5, .cls-6, .cls-7 {
        stroke: #444;
      }

      .cls-3 {
        fill: #afafaf;
      }

      .cls-4 {
        fill: #e33b25;
      }

      .cls-5 {
        stroke-miterlimit: 10;
      }
    </style>
  </defs>
  <g id="_레이어_1-2" data-name="레이어 1">
    <g>
      <path class="cls-5" d="M66.14,431.94c-.87,2.5-1.03,5.8,.91,8.72,.78,1.18,1.85,2.2,2.53,3.42,.68,1.23,.9,2.52,1.24,3.78,2.34,8.75,11.89,17.21,19.89,17.62,1.42,.07,2.78-.07,4.22,.03,1.5,.11,3.06,.49,4.58,.69,9.31,1.2,16.28-5.76,15.45-15.42,5.51-3.42,10.5-9.25,7.99-17.37-1.64-5.31-6.1-10.08-10.47-14.17-2.02-1.89-4.13-3.77-5.72-6.04-1.07-1.52-1.87-3.17-2.86-4.73-3.35-5.27-9.01-9.38-14.26-10.38-5.25-.99-9.88,1.18-11.67,5.48-.34,.83-.6,1.74-1.17,2.37-.66,.72-1.67,1.01-2.59,1.39-4.16,1.74-6.78,6.01-6.97,11.14-.08,2.17,1.11,4.66,1.09,6.65-.02,2.7-1.37,4.52-2.17,6.82Z"/>
      <g>
        <path class="cls-1" d="M45.01,103.93c-5.32,1.94-10.78,4.03-14.92,7.9-4.14,3.87-6.7,9.99-4.79,15.32s9.35,8.37,13.7,4.73c1.37-1.15,2.32-3.08,1.63-4.73-.94-2.24-4.1-2.46-6.4-1.67-5.03,1.72-8.6,6.22-11.12,10.89-3.36,6.22-5.41,13.67-3.13,20.36s10.16,11.67,16.66,8.89c.17-2.19,.35-4.37,.52-6.56-9.88-5.08-21.7,4.34-25.3,14.85-2.3,6.7-2.58,14.47,1,20.58s11.72,9.75,18.16,6.8c2.02-.92,3.86-2.58,4.28-4.76s-1.14-4.74-3.36-4.77c-.87-.01-1.71,.34-2.49,.74-8.97,4.61-12.94,16.96-8.35,25.94,4.6,8.98,16.94,12.97,25.93,8.38,2.45-1.25,4.72-3.17,5.57-5.78s-.16-5.93-2.7-6.99c-3.33-1.38-6.85,1.56-8.8,4.59-2.76,4.3-4.4,9.6-3.16,14.55s5.97,9.18,11.06,8.67,8.97-6.86,6.25-11.18c-4.95,3.85-7.24,10.81-5.54,16.84s7.28,10.77,13.51,11.47"/>
        <path class="cls-6" d="M309.88,335c17.84,53.06,25.75,106.4,25.04,162.38-.15,12.08,.12,26.11,9.7,33.47,1.26,.97,2.67,1.81,3.53,3.15,1.35,2.12,.93,4.93-.05,7.24-4.54,10.73-17.85,14.05-29.33,15.99-12.98,2.2-27.57,4.05-38.2-3.71-8.38-6.12-12.02-16.67-15.19-26.56-3.01-9.39-4.96-15.48-7.97-24.86"/>
        <path class="cls-6" d="M91.4,516.87s0,.29,0,.29c-.52,2.55-.99,5.1-1.55,7.64-.94,4.25-3.71,7.83-5.94,11.56-.96,1.6-1.93,3.24-2.26,5.08-.69,3.89,1.75,7.8,5.05,9.97s7.29,2.95,11.19,3.57c18.77,2.98,37.36,2.74,56.27,1.65l10.65-3.5,3.77-3.53,3.05-4.41,3.65-7.06,2.45-8.44c-29.42,2.74-59.04-.97-86.33-12.82Z"/>
        <path class="cls-2" d="M335.65,512.42c-.78-36.53-1.72-73.2-8.26-109.14-77.14,11.65-155.67,14.08-233.38,7.22-2.44,35.39-3.32,70.89-2.64,106.35,27.1,11.52,57.18,15.93,86.45,12.68,1.11-6.79,2.5-13.53,4.16-20.21,.3-1.22,.66-2.51,1.61-3.34,1.08-.94,2.64-1.04,4.08-1.06,19.45-.37,39.17,2.47,58.2-1.56,2.87-.61,5.94-1.44,8.89-1.02,3.76,.53,3.67,2.98,4.76,6.25,2.4,7.18,4.64,14.41,6.98,21.61,23.76-.03,47.5-5.08,69.22-14.71-.02-1.02-.04-2.05-.06-3.07Z"/>
        <path class="cls-2" d="M321.46,375.06l-5.61-21.03-5.13-16.52-1.52-3.17s6.73,.65,6.74,.65c15.24,.57,31.16-9.44,39.45-21.78,6.18-9.2,9.14-20.5,8.4-31.55-.13-1.97-.38-3.94-.75-5.88-.52-2.75-1.29-5.48-2.69-7.91-1.13-1.96-2.64-3.68-4.18-5.34-18.61-19.96-43.87-34.16-70.95-37.93l-197.58,20.46s-22.88,11.75-22.89,11.75c-9.78,4.7-19.55,9.39-29.33,14.09-13.09,6.29-28.48,11.39-32.8,27.04-1.1,3.97-1.34,8.15-.91,12.24,.76,7.3,5.51,13.64,8.9,20l26.51,36.65,17.17,14.55,16.63,6.61,13.01-.84,11.34-4.91-.55,18.71-.66,9.77c78,5.59,156.48,5.23,233.25-7.69l-.26-1.73-5.58-26.25Zm-217.27-53.82l-1.53,9.68-1.54,10.89-3.31-5.09-15.56-18.64,24.65-9.53-2.7,12.69Z"/>
        <path class="cls-7" d="M279.67,274.17c3.25,5.3,8.63,12.58,12.75,17.24"/>
        <path class="cls-7" d="M172.32,499.38c1.76,3.16,5.75,4.21,9.34,4.7,15.52,2.14,31.93,1.75,47.56,1.26,14.03-.44,28.54-2.33,40.99-9.26"/>
        <path class="cls-6" d="M95.4,333.59c-.47-.58-.96-1.15-1.44-1.72-18.6,11.6-36.01,25.07-54.74,37.25,.92,.98,1.86,1.95,2.83,2.88,9.15,8.82,20.95,15.63,33.65,15.99,12.7,.36,26.05-7.03,29.96-19.12,3.94-12.16-2.16-25.38-10.25-35.27Z"/>
        <path class="cls-6" d="M287.27,305.14c-.8,6.22-.33,12.89,3.04,18.17,3.32,5.19,9.06,8.43,14.98,10.13,11.73,3.36,24.71,1.14,35.14-5.21-14.99-13.3-32.64-23.66-51.1-32.12-.96,2.94-1.67,5.97-2.06,9.03Z"/>
        <path class="cls-2" d="M290.23,225.74c25.77,3.69,47.69,15.91,64.6,35.71,2.95,3.45,5.72,7.16,7.32,11.41,1.49,3.98,1.9,8.29,1.82,12.54-.29,14.59-6.61,29.15-17.71,38.62-1.82,1.55-3.78,2.94-5.82,4.19-14.99-13.3-32.64-23.66-51.1-32.12l11.61-17.59"/>
        <path class="cls-3" d="M177.73,264.64l19.55,65.54-35.83-14.63,14.19-8.88-38.7-46.69s7.08,8.11,16.89,7.51l23.91-2.85Z"/>
        <path class="cls-3" d="M219.08,262.8l-21.8,67.37,29.56-15.22-7.75-10.47,33.19-44.51s-13.81,5-17.81,5l-15.38-2.18Z"/>
        <path class="cls-6" d="M197.28,330.18l-19.55-65.54,19.55-4.05s15.41-1.33,21.8,2.21l-21.8,67.37Z"/>
        <g>
          <path class="cls-4" d="M204.46,279.46c-3.5-.13-6.51,.14-6.51,.14l-5.3,1.14c-1.63,5.23-3.03,10.54-4.25,15.99l9.55,33.27,11.88-38.16c-1.63-4.19-3.44-8.31-5.37-12.38Z"/>
          <polygon class="cls-4" points="206.68 281.58 190.45 281.58 184.45 260.35 212.68 260.35 206.68 281.58"/>
        </g>
        <g>
          <g>
            <path class="cls-8" d="M41.31,128.48l24.02-57.07c-.07-7.42,2.95-14.22,7.58-19.91,5.01-6.17,12.32-8.67,17.49-14.62,12.48-14.37,33.24-21.09,50.96-26.08,16.16-4.55,39.74-12.67,56.15-7.77,20.24,6.05,39.02,14.44,57.01,25.32,6.8,4.11,11.01,11.33,16.45,16.95,5.45,5.64,11.97,10.26,17.23,16.02,6.03,4.29,14.15,6.56,21.47,6.74,6.78,.17,14.24-1.3,20.51,2.06,5.53,2.97,8.99,8.55,13.2,12.99,4.43,4.67,10.13,8.58,12.01,15.08,6.52,22.5-26.54,26.96-40.94,21.01l-.69-1.51c1.78,4.6,3.56,9.2,5.34,13.8,4.17,10.77,8.4,21.89,8.08,33.43-.27,9.89-4.23,19.53-10.6,27.06-6.4,7.56-16.98,10.36-21.87,18.97-2.41,4.25-3.82,8.98-5.85,13.43-9.02,19.74-35.65,41.6-58.35,40.6-7.51-.33-14.22-3.57-21.54-4.54-7.21-.95-14.51,.42-21.53,1.93-13.78,2.96-29.13,8.5-42.84,2.28-8.32-3.77-14.43-11.45-22.84-15.04-7.91-3.37-16.85-2.74-25.44-2.96-17.05-.44-30.13-9.95-39.05-24.23-7.45-11.91-11.3-25.65-15.06-39.18-4.55-16.35-5.27-37.9-.85-54.77Z"/>
            <path class="cls-9" d="M42.75,128.88c2.63-6.25,5.26-12.49,7.89-18.74,4.28-10.16,8.55-20.32,12.83-30.48,1.05-2.5,2.3-4.99,3.18-7.56,.15-.44,.16-.68,.18-1.23,.08-2.48,.41-4.88,1.13-7.26,1.42-4.71,4.09-9.26,7.54-12.78,3.27-3.33,7.37-5.63,11.05-8.44s6.45-6.44,9.91-9.46c6.95-6.09,15.38-10.38,23.94-13.74s16.81-5.61,25.33-8.09c8.91-2.59,17.84-5.26,27-6.85,4.6-.8,9.28-1.31,13.96-1.24s8.82,.94,13.18,2.3c10.28,3.2,20.34,7.07,30.1,11.62,4.88,2.27,9.68,4.71,14.4,7.3,4.49,2.46,9.39,4.84,13.22,8.27,3.45,3.09,6.23,6.83,9.2,10.37,3.31,3.93,7.08,7.35,10.95,10.72,1.98,1.72,3.96,3.43,5.86,5.23s3.5,3.7,5.75,5.06c4.2,2.54,8.98,4.19,13.8,5.03s9.5,.61,14.32,.51c5.07-.11,10.01,.36,14.21,3.46,3.79,2.79,6.52,6.77,9.63,10.24,2.91,3.25,6.38,5.96,9.17,9.31,4.07,4.88,5.87,12.33,2.37,18.02-2.82,4.57-8.18,6.99-13.19,8.29-5.64,1.47-11.71,1.79-17.49,.96-2.51-.36-5-.96-7.35-1.92l.9,.69-.69-1.51c-.7-1.53-3.36-.43-2.74,1.16,3.34,8.62,6.94,17.19,9.79,25.99,2.66,8.22,4.49,16.96,3.15,25.61-1.2,7.76-4.64,15.25-9.74,21.22-4.43,5.18-10.73,8.09-15.97,12.31-2.58,2.08-4.82,4.53-6.42,7.45-2.08,3.8-3.4,7.94-5.12,11.91-2.62,6.06-6.42,11.56-10.79,16.5-9.29,10.51-21.6,19.56-35.33,23.1-3.05,.79-6.17,1.27-9.32,1.32-4.1,.06-8.05-.79-11.99-1.86s-7.86-2.24-11.93-2.74c-4.44-.54-8.92-.21-13.33,.45-8.39,1.25-16.52,3.73-24.84,5.34s-17.24,2.23-25.14-1.34c-6.88-3.11-12.11-8.77-18.45-12.72-7.07-4.4-15.08-5.27-23.24-5.39-4-.06-8.04,.08-12.01-.45-3.27-.43-6.49-1.27-9.56-2.46-6.32-2.44-11.91-6.54-16.52-11.47-11.09-11.88-16.22-27.83-20.55-43.14-2.18-7.7-3.93-15.36-4.64-23.35s-.67-16.29,.31-24.36c.46-3.76,1.16-7.48,2.11-11.14,.48-1.87-2.41-2.67-2.89-.8-4.08,15.78-3.93,32.91-.75,48.84,1.62,8.11,4.11,16.17,6.73,24s6.11,16.22,10.84,23.45c7.56,11.56,18.82,20.73,32.7,23.1,8.27,1.42,16.74,.1,25.01,1.58,4.09,.73,7.87,2.2,11.37,4.44,3.3,2.11,6.3,4.65,9.42,7.03s6.36,4.55,10.01,6.03c3.83,1.55,7.94,2.29,12.06,2.42,8.59,.27,17.03-1.96,25.31-3.94,8.75-2.09,18.03-4.42,27.06-2.97,8.17,1.31,15.75,4.84,24.18,4.42,14.14-.71,27.41-8.46,37.83-17.6,5.4-4.74,10.27-10.14,14.23-16.14,1.81-2.74,3.4-5.61,4.71-8.62,1.79-4.13,3.14-8.48,5.39-12.4,3.47-6.02,9.93-9.16,15.37-13.09,6.25-4.52,10.81-10.71,13.8-17.8,3.26-7.72,4.15-15.97,3.01-24.24-1.25-9.04-4.57-17.6-7.85-26.06-1.7-4.41-3.41-8.81-5.12-13.22l-2.74,1.16c.64,1.4,1.02,2.02,2.52,2.56,1.22,.44,2.47,.79,3.73,1.07,2.91,.64,5.91,.96,8.89,1.01,6.22,.11,12.6-.85,18.32-3.37,5.07-2.23,9.65-6.08,11.21-11.57,.85-2.98,.72-6.15,.02-9.14-1.02-4.39-3.6-7.95-6.72-11.11-3.3-3.34-6.66-6.48-9.69-10.09s-6.33-7.42-10.76-9.45c-4.66-2.14-9.85-2.06-14.87-1.89s-10.21,0-15.25-1.4c-2.57-.71-5.07-1.66-7.42-2.92-1.03-.54-2.16-1.11-3.06-1.85-1.09-.89-2.02-2.07-3.04-3.05-3.98-3.83-8.33-7.24-12.32-11.06-3.61-3.46-6.61-7.42-9.86-11.21-3.32-3.86-6.96-6.84-11.33-9.42-9.56-5.64-19.49-10.64-29.71-14.95-5.15-2.17-10.36-4.17-15.64-5.98-4.78-1.64-9.65-3.45-14.68-4.16-9.43-1.34-19.12,.27-28.32,2.4-9.11,2.11-18.08,4.87-27.05,7.48-9.1,2.64-18.15,5.64-26.68,9.81-4.26,2.08-8.38,4.47-12.2,7.29s-6.93,6.11-10.23,9.48-7.74,5.85-11.56,8.83-7.12,7.01-9.4,11.46c-1.15,2.24-2.08,4.62-2.68,7.07-.28,1.13-.48,2.28-.62,3.44-.13,1.05,0,2.27-.16,3.26-.1,.57-.51,1.21-.73,1.74-3.8,9.03-7.6,18.05-11.4,27.08s-7.49,17.81-11.24,26.71l-.65,1.54c-.75,1.78,2.15,2.55,2.89,.8Z"/>
          </g>
          <g>
            <path class="cls-8" d="M112.4,82.05c-9.44,.86-18.86-2.14-27.27-6.5-8.41-4.36-16.03-10.08-24-15.2-3.17-2.04-6.43-4-9.98-5.26-9.17-3.26-19.99-1.35-27.48,4.86-2.78,2.31-5.09,5.13-7.24,8.04-8.16,11.08-3.88,23.02,8.07,29.54,7.61,4.15,13.92,11.83,22.89,12.38,5.04,.31,10.05-.89,14.93-2.19"/>
            <path class="cls-9" d="M112.4,80.55c-14.27,1.2-27.19-6.01-38.68-13.61-5.69-3.77-11.23-7.94-17.28-11.13-5.55-2.92-11.66-4.32-17.93-3.6-5.9,.68-11.51,2.98-16.07,6.82-2.48,2.09-4.57,4.58-6.53,7.16-1.78,2.35-3.3,4.83-4.22,7.64-1.6,4.87-1.11,10.14,1.28,14.66,2.63,4.96,7,8.09,11.72,10.87,5.45,3.21,10.03,7.84,15.89,10.36,7.15,3.07,14.9,1.36,22.13-.56,1.86-.49,1.07-3.39-.8-2.89-6.09,1.62-12.82,3.36-18.99,1.17-5.03-1.78-9.15-5.51-13.45-8.53s-9.29-5.18-12.52-9.68c-2.7-3.77-3.89-8.39-2.84-12.96,1.26-5.47,5.28-10.37,9.3-14.11s9.48-6.28,15.08-6.94c5.92-.7,11.6,.59,16.81,3.4,5.76,3.1,11.06,7.05,16.5,10.66,12.02,7.97,25.64,15.54,40.58,14.28,1.91-.16,1.93-3.16,0-3h0Z"/>
          </g>
          <path class="cls-9" d="M241.34,119.7c5.79,0,5.8-9,0-9s-5.8,9,0,9h0Z"/>
          <path class="cls-9" d="M175.64,129.98c5.79,0,5.8-9,0-9s-5.8,9,0,9h0Z"/>
          <g>
            <path class="cls-9" d="M183.21,105.62c-8.65-3.37-17.66-5.14-26.89-5.91-1.92-.16-1.91,2.84,0,3,8.96,.75,17.69,2.53,26.09,5.8,1.8,.7,2.58-2.2,.8-2.89h0Z"/>
            <path class="cls-9" d="M234.06,104.03c4.62-4.74,10.25-8.43,16.47-10.71,.76-.28,1.28-1.02,1.05-1.85-.2-.73-1.08-1.33-1.85-1.05-6.71,2.46-12.8,6.36-17.79,11.48-1.35,1.38,.77,3.51,2.12,2.12h0Z"/>
          </g>
          <g>
            <path class="cls-9" d="M210.49,145.02c-1.01,.88-.92,2.51-.51,3.44,.55,1.25,1.86,2.22,3.21,3.03,1.05,.62,3.35,.8,4.72,.62,2.72-.35,4.49-2.41,5.1-4.19,.49-1.42,.46-2.94,.15-4.33-.05-.22-.11-.44-.31-.6-.28-.22-.74-.25-1.16-.27-1.84-.09-3.71-.17-5.56,.06-2.13,.26-4.02,.99-5.54,2.16-.03,.03-.06,.05-.09,.08Z"/>
            <path class="cls-9" d="M215.24,151.12c-5.37,8.09-16.71,10.7-25.76,8.48-1.87-.46-2.67,2.43-.8,2.89,10.43,2.56,23.01-.61,29.15-9.86,1.07-1.61-1.53-3.12-2.59-1.51h0Z"/>
            <path class="cls-9" d="M217.63,151.99c1.2,3.55,6.11,5.21,9.38,5.85,7.19,1.42,14.51-.45,20.96-3.67,1.73-.86,.21-3.45-1.51-2.59-5.59,2.79-12.1,4.57-18.37,3.42-1.91-.35-3.8-.93-5.48-1.93-.61-.36-.98-.61-1.47-1.09-.09-.09-.55-.65-.38-.4-.07-.11-.15-.22-.21-.34-.17-.35,.06,.22-.03-.05-.61-1.82-3.51-1.04-2.89,.8h0Z"/>
          </g>
        </g>
        <line class="cls-7" x1="198.4" y1="414.08" x2="197.95" y2="329.99"/>
        <g>
          <circle class="cls-3" cx="198.28" cy="341.06" r="5.49"/>
          <circle class="cls-3" cx="198.28" cy="366.73" r="5.49"/>
          <circle class="cls-3" cx="198.28" cy="392.39" r="5.49"/>
        </g>
        <g>
          <g>
            <path class="cls-10" d="M179.48,117.19c1.19-2.38,1.89-4.6,2.19-6.92h-35.43c-2.32,0,1.09,19.87,2.33,22.24,.94,1.8,2.13,3.21,3.49,4.33,11.24-1.6,20.76-9.9,27.41-19.65Z"/>
            <path class="cls-11" d="M187.65,110.27h-5.98c-.3,2.32-1,4.54-2.19,6.92-6.65,9.75-16.17,18.05-27.41,19.65,3.95,3.22,9.41,3.9,15.02,3.85,4.87-.04,9.87-1.4,13.56-4.57,2.53-2.17,11.12-25.84,7-25.84Z"/>
          </g>
          <path class="cls-11" d="M225.56,124.05h-40.1c-1.38,0-2.5-1.12-2.5-2.5s1.12-2.5,2.5-2.5h40.1c1.38,0,2.5,1.12,2.5,2.5s-1.12,2.5-2.5,2.5Z"/>
          <g>
            <path class="cls-10" d="M256.05,115.19c1.19-2.38,1.89-4.6,2.19-6.92h-35.43c-2.32,0,1.09,19.87,2.33,22.24,.94,1.8,2.13,3.21,3.49,4.33,11.24-1.6,20.76-9.9,27.41-19.65Z"/>
            <path class="cls-11" d="M264.22,108.27h-5.98c-.3,2.32-1,4.54-2.19,6.92-6.65,9.75-16.17,18.05-27.41,19.65,3.95,3.22,9.41,3.9,15.02,3.85,4.87-.04,9.87-1.4,13.56-4.57,2.53-2.17,11.12-25.84,7-25.84Z"/>
          </g>
        </g>
      </g>
    </g>
  </g>
</svg>