<?xml version="1.0" encoding="UTF-8"?>
<svg id="_레이어_2" data-name="레이어 2" xmlns="http://www.w3.org/2000/svg" xmlns:xlink="http://www.w3.org/1999/xlink" viewBox="0 0 28.61 26.28">
  <defs>
    <style>
      .cls-1 {
        fill: #fae100;
      }

      .cls-2 {
        fill: #381e1f;
      }

      .cls-3 {
        clip-path: url(#clippath-1);
      }

      .cls-4 {
        clip-path: url(#clippath-4);
      }

      .cls-5 {
        clip-path: url(#clippath-7);
      }

      .cls-6 {
        clip-path: url(#clippath-10);
      }
    </style>
    <clipPath id="clippath-1">
      <path class="cls-1" d="M4.32,9.23h1.47s0,4.04,0,4.99c0,.69,1.53,.7,1.53,.01v-4.94s.5,0,1.47,0c.92,0,.92-1.44,0-1.44-1.03,0-4.48-.03-4.48-.03-.86,0-.86,1.41,0,1.41"/>
    </clipPath>
    <clipPath id="clippath-4">
      <path class="cls-1" d="M11.37,9.49l.82,2.57h-1.71l.89-2.57Zm-.92-1.2c-.36,.8-1.67,4.57-2.11,5.56-.31,.72,1.04,1.31,1.35,.59l.29-1.03h2.69s-.09,.04,.27,.99c.29,.76,1.69,.23,1.4-.53-.41-1.09-1.84-5.02-2.11-5.58-.12-.26-.55-.44-.97-.44-.35,0-.68,.13-.83,.44"/>
    </clipPath>
    <clipPath id="clippath-7">
      <path class="cls-1" d="M14.87,8.52c0,1.28,0,5.41,0,5.41,0,0-.12,.82,.58,.82s2.26,0,2.96,0,.69-1.47,0-1.47-1.95,0-1.95,0c0,0,0-3.82,0-4.74,0-.45-.4-.67-.8-.67s-.8,.23-.8,.68"/>
    </clipPath>
    <clipPath id="clippath-10">
      <path class="cls-1" d="M19.29,8.32c.02,.56-.02,5.64-.02,6.02,0,.59,1.51,.59,1.51,0,0-.69,0-2,0-2l.44-.36,1.94,2.65c.39,.52,1.63-.42,1.24-.94l-2.06-2.71s1.4-1.51,1.95-2.06c.32-.32-.67-1.32-1-1-.31,.31-2.5,2.5-2.5,2.5,0,0,.02-1.38,0-2.14,0-.29-.36-.43-.73-.43-.39,0-.79,.16-.78,.47"/>
    </clipPath>
  </defs>
  <g id="_레이어_1-2" data-name="레이어 1">
    <g>
      <path class="cls-2" d="M14.3,0C6.4,0,0,5.06,0,11.31c0,4.06,2.71,7.63,6.79,9.62-.3,1.12-1.08,4.05-1.24,4.67-.19,.78,.28,.77,.6,.56,.25-.16,3.92-2.66,5.5-3.74,.86,.13,1.75,.2,2.66,.2,7.9,0,14.3-5.06,14.3-11.31S22.2,0,14.3,0"/>
      <g>
        <g>
          <path class="cls-1" d="M4.32,9.23h1.47s0,4.04,0,4.99c0,.69,1.53,.7,1.53,.01v-4.94s.5,0,1.47,0c.92,0,.92-1.44,0-1.44-1.03,0-4.48-.03-4.48-.03-.86,0-.86,1.41,0,1.41"/>
          <g class="cls-3">
            <rect class="cls-1" x="3.46" y="7.81" width="6.26" height="7.09"/>
          </g>
        </g>
        <g>
          <path class="cls-1" d="M11.37,9.49l.82,2.57h-1.71l.89-2.57Zm-.92-1.2c-.36,.8-1.67,4.57-2.11,5.56-.31,.72,1.04,1.31,1.35,.59l.29-1.03h2.69s-.09,.04,.27,.99c.29,.76,1.69,.23,1.4-.53-.41-1.09-1.84-5.02-2.11-5.58-.12-.26-.55-.44-.97-.44-.35,0-.68,.13-.83,.44"/>
          <g class="cls-4">
            <rect class="cls-1" x="8.03" y="7.84" width="6.61" height="7.32"/>
          </g>
        </g>
        <g>
          <path class="cls-1" d="M14.87,8.52c0,1.28,0,5.41,0,5.41,0,0-.12,.82,.58,.82s2.26,0,2.96,0,.69-1.47,0-1.47-1.95,0-1.95,0c0,0,0-3.82,0-4.74,0-.45-.4-.67-.8-.67s-.8,.23-.8,.68"/>
          <g class="cls-5">
            <rect class="cls-1" x="14.76" y="7.84" width="4.35" height="6.9"/>
          </g>
        </g>
        <g>
          <path class="cls-1" d="M19.29,8.32c.02,.56-.02,5.64-.02,6.02,0,.59,1.51,.59,1.51,0,0-.69,0-2,0-2l.44-.36,1.94,2.65c.39,.52,1.63-.42,1.24-.94l-2.06-2.71s1.4-1.51,1.95-2.06c.32-.32-.67-1.32-1-1-.31,.31-2.5,2.5-2.5,2.5,0,0,.02-1.38,0-2.14,0-.29-.36-.43-.73-.43-.39,0-.79,.16-.78,.47"/>
          <g class="cls-6">
            <rect class="cls-1" x="19.28" y="7.59" width="5.52" height="7.55"/>
          </g>
        </g>
      </g>
    </g>
  </g>
</svg>