<?xml version="1.0" encoding="UTF-8"?>
<svg id="_레이어_2" data-name="레이어 2" xmlns="http://www.w3.org/2000/svg" viewBox="0 0 751.14 158.6">
  <defs>
    <style>
      .cls-1 {
        fill: #333;
      }

      .cls-2 {
        font-size: 30px;
      }

      .cls-2, .cls-3 {
        fill: #444;
        font-family: AppleSDGothicNeo-SemiBold-KSCpc-EUC-H, 'Apple SD Gothic Neo';
      }

      .cls-3 {
        font-size: 16px;
      }
    </style>
  </defs>
  <g id="_레이어_1-2" data-name="레이어 1">
    <g>
      <g>
        <text class="cls-3" transform="translate(33.55 77.65)"><tspan x="0" y="0">반려인께서 반려견을 잘 관찰하지 않고 응답하실 경우 검사 결과가 부적절할 수 있습니다.</tspan></text>
        <g>
          <path class="cls-1" d="M10.41,71.13c1.06-.22,2.06-.09,2.99,.46,1.42,.83,2.83,1.68,4.23,2.54,1.02,.63,1.45,1.58,1.34,2.75-.11,1.18-.71,2.04-1.82,2.5-.54,.22-1.13,.2-1.71,.19-.72,0-1.45-.03-2.17,0-.91,.04-1.75,.32-2.56,.73-.62,.31-1.23,.65-1.87,.91-2.12,.85-3.69-.54-4.08-2.03-.2-.77-.11-1.52,.34-2.19,.94-1.41,1.88-2.82,2.85-4.21,.6-.87,1.45-1.39,2.47-1.63Z"/>
          <path class="cls-1" d="M10.01,66.18c-.09-.42-.13-.86-.12-1.28,.02-.6,.17-1.2,.51-1.69s.88-.86,1.47-.92c.54-.05,1.08,.15,1.51,.48s.74,.79,.98,1.28c.46,.94,.64,2.04,.39,3.06-.11,.43-.29,.84-.57,1.18s-.67,.6-1.1,.69c-.67,.14-1.37-.14-1.87-.61-.62-.57-1.02-1.36-1.2-2.19Z"/>
          <path class="cls-1" d="M8.68,66.42c.11,.48,.14,.98,.1,1.47-.05,.54-.19,1.07-.49,1.52s-.76,.81-1.29,.91c-.66,.13-1.35-.15-1.84-.6-.94-.86-1.34-2.17-1.32-3.41,0-.58,.14-1.18,.45-1.67s.82-.88,1.39-.98c.53-.09,1.09,.07,1.53,.38s.78,.74,1.04,1.22c.19,.37,.34,.76,.43,1.17Z"/>
          <path class="cls-1" d="M16.31,69.68c-.16-.74-.11-1.54,.09-2.22,.06-.21,.14-.42,.24-.62,.18-.37,.42-.73,.77-.96,.44-.29,1.02-.33,1.5-.1,.39,.18,.69,.52,.9,.9,.46,.81,.57,1.78,.43,2.7-.08,.58-.27,1.16-.64,1.61s-.95,.76-1.53,.69c-.4-.05-.77-.26-1.04-.56-.37-.4-.6-.9-.72-1.44Z"/>
          <path class="cls-1" d="M.13,72.25c-.14-.64-.21-1.28,.04-1.9,.34-.85,1.16-1.23,2.03-.92,.74,.26,1.26,.79,1.65,1.44,.49,.79,.75,1.65,.66,2.59-.07,.74-.39,1.33-1.15,1.59-.52,.17-1.01,.04-1.46-.23-.75-.47-1.22-1.16-1.56-1.96-.08-.2-.14-.4-.21-.6Z"/>
        </g>
      </g>
      <g>
        <text class="cls-3" transform="translate(34 113.81)"><tspan x="0" y="0">점수의 높고 낮음은 더 좋고 더 나쁜 것이 아니라, 그저 반려견 성격 특성에 관련된 점수입니다.</tspan></text>
        <g>
          <path class="cls-1" d="M10.41,107.29c1.06-.22,2.06-.09,2.99,.46,1.42,.83,2.83,1.68,4.23,2.54,1.02,.63,1.45,1.58,1.34,2.75-.11,1.18-.71,2.04-1.82,2.5-.54,.22-1.13,.2-1.71,.19-.72,0-1.45-.03-2.17,0-.91,.04-1.75,.32-2.56,.73-.62,.31-1.23,.65-1.87,.91-2.12,.85-3.69-.54-4.08-2.03-.2-.77-.11-1.52,.34-2.19,.94-1.41,1.88-2.82,2.85-4.21,.6-.87,1.45-1.39,2.47-1.63Z"/>
          <path class="cls-1" d="M10.01,102.34c-.09-.42-.13-.86-.12-1.28,.02-.6,.17-1.2,.51-1.69s.88-.86,1.47-.92c.54-.05,1.08,.15,1.51,.48s.74,.79,.98,1.28c.46,.94,.64,2.04,.39,3.06-.11,.43-.29,.84-.57,1.18s-.67,.6-1.1,.69c-.67,.14-1.37-.14-1.87-.61-.62-.57-1.02-1.36-1.2-2.19Z"/>
          <path class="cls-1" d="M8.68,102.58c.11,.48,.14,.98,.1,1.47-.05,.54-.19,1.07-.49,1.52s-.76,.81-1.29,.91c-.66,.13-1.35-.15-1.84-.6-.94-.86-1.34-2.17-1.32-3.41,0-.58,.14-1.18,.45-1.67s.82-.88,1.39-.98c.53-.09,1.09,.07,1.53,.38s.78,.74,1.04,1.22c.19,.37,.34,.76,.43,1.17Z"/>
          <path class="cls-1" d="M16.31,105.84c-.16-.74-.11-1.54,.09-2.22,.06-.21,.14-.42,.24-.62,.18-.37,.42-.73,.77-.96,.44-.29,1.02-.33,1.5-.1,.39,.18,.69,.52,.9,.9,.46,.81,.57,1.78,.43,2.7-.08,.58-.27,1.16-.64,1.61s-.95,.76-1.53,.69c-.4-.05-.77-.26-1.04-.56-.37-.4-.6-.9-.72-1.44Z"/>
          <path class="cls-1" d="M.13,108.41c-.14-.64-.21-1.28,.04-1.9,.34-.85,1.16-1.23,2.03-.92,.74,.26,1.26,.79,1.65,1.44,.49,.79,.75,1.65,.66,2.59-.07,.74-.39,1.33-1.15,1.59-.52,.17-1.01,.04-1.46-.23-.75-.47-1.22-1.16-1.56-1.96-.08-.2-.14-.4-.21-.6Z"/>
        </g>
      </g>
      <g>
        <text class="cls-3" transform="translate(33.55 153.8)"><tspan x="0" y="0">반려견의 상황과 연령에 따른 현재의 모습을 반영하는 검사이므로 이후 재검사 시에 다른 유형으로 나올 수 있습니다.</tspan></text>
        <g>
          <path class="cls-1" d="M10.41,147.29c1.06-.22,2.06-.09,2.99,.46,1.42,.83,2.83,1.68,4.23,2.54,1.02,.63,1.45,1.58,1.34,2.75-.11,1.18-.71,2.04-1.82,2.5-.54,.22-1.13,.2-1.71,.19-.72,0-1.45-.03-2.17,0-.91,.04-1.75,.32-2.56,.73-.62,.31-1.23,.65-1.87,.91-2.12,.85-3.69-.54-4.08-2.03-.2-.77-.11-1.52,.34-2.19,.94-1.41,1.88-2.82,2.85-4.21,.6-.87,1.45-1.39,2.47-1.63Z"/>
          <path class="cls-1" d="M10.01,142.34c-.09-.42-.13-.86-.12-1.28,.02-.6,.17-1.2,.51-1.69s.88-.86,1.47-.92c.54-.05,1.08,.15,1.51,.48s.74,.79,.98,1.28c.46,.94,.64,2.04,.39,3.06-.11,.43-.29,.84-.57,1.18s-.67,.6-1.1,.69c-.67,.14-1.37-.14-1.87-.61-.62-.57-1.02-1.36-1.2-2.19Z"/>
          <path class="cls-1" d="M8.68,142.58c.11,.48,.14,.98,.1,1.47-.05,.54-.19,1.07-.49,1.52s-.76,.81-1.29,.91c-.66,.13-1.35-.15-1.84-.6-.94-.86-1.34-2.17-1.32-3.41,0-.58,.14-1.18,.45-1.67s.82-.88,1.39-.98c.53-.09,1.09,.07,1.53,.38s.78,.74,1.04,1.22c.19,.37,.34,.76,.43,1.17Z"/>
          <path class="cls-1" d="M16.31,145.84c-.16-.74-.11-1.54,.09-2.22,.06-.21,.14-.42,.24-.62,.18-.37,.42-.73,.77-.96,.44-.29,1.02-.33,1.5-.1,.39,.18,.69,.52,.9,.9,.46,.81,.57,1.78,.43,2.7-.08,.58-.27,1.16-.64,1.61s-.95,.76-1.53,.69c-.4-.05-.77-.26-1.04-.56-.37-.4-.6-.9-.72-1.44Z"/>
          <path class="cls-1" d="M.13,148.41c-.14-.64-.21-1.28,.04-1.9,.34-.85,1.16-1.23,2.03-.92,.74,.26,1.26,.79,1.65,1.44,.49,.79,.75,1.65,.66,2.59-.07,.74-.39,1.33-1.15,1.59-.52,.17-1.01,.04-1.46-.23-.75-.47-1.22-1.16-1.56-1.96-.08-.2-.14-.4-.21-.6Z"/>
        </g>
      </g>
    </g>
    <text class="cls-2" transform="translate(246.63 24.36)"><tspan x="0" y="0">결과 해석 시 주의사항</tspan></text>
  </g>
</svg>