<?xml version="1.0" encoding="UTF-8"?>
<svg id="_레이어_2" data-name="레이어 2" xmlns="http://www.w3.org/2000/svg" viewBox="0 0 171.83 172.01">
  <defs>
    <style>
      .cls-1 {
        fill: #cbcbcb;
      }
    </style>
  </defs>
  <g id="_레이어_1-2" data-name="레이어 1">
    <path class="cls-1" d="M171.81,33.8c-.03-.25-.05-.57-.09-.94-.1-1.14-.23-2.69-.53-4.27C167.91,11.75,153.8,0,136.88,0c-8.41,0-16.29,3-22.81,8.68-5.41,4.71-10.46,9.92-15.35,14.95-2.1,2.16-4.2,4.32-6.32,6.45l-1.13,1.12c-25.72,25.68-52.31,52.24-78.41,78.41-1.34,1.35-2.4,3.32-2.83,5.28-1.78,8.06-3.51,16.12-5.25,24.19-1.5,6.96-3,13.93-4.52,20.89-.68,3.08,.02,6.19,1.89,8.53,1.79,2.23,4.49,3.51,7.39,3.51,.72,0,1.46-.08,2.19-.24,14.14-3.04,30.16-6.48,45.66-9.9,1.74-.38,3.57-1.41,4.91-2.74,14.04-14,28.05-28.03,42.07-42.06l18.18-18.2c4.75-4.75,9.51-9.49,14.27-14.24,8.26-8.24,16.53-16.47,24.75-24.75,6.74-6.8,10.1-15.2,10.27-25.69v-.2s-.02-.2-.02-.2Zm-19.35-2.16c1.13,5.24-.3,10.52-3.82,14.11-3.14,3.2-6.41,6.37-9.58,9.42-.69,.67-1.38,1.33-2.06,1.99l-22.28-22.3c.59-.61,1.19-1.22,1.78-1.83,2.95-3.04,6-6.18,9.09-9.19,3.27-3.19,6.93-4.81,10.88-4.81,2.12,0,4.38,.46,6.71,1.37,4.68,1.82,8.14,6.02,9.27,11.24ZM49.75,144.07c-8.53,1.91-17.22,3.76-25.63,5.56l-2.26,.48,.26-1.22c.97-4.54,1.93-9.05,2.9-13.55l.41-1.92c.83-3.88,1.66-7.76,2.55-11.62,.08-.34,.25-.64,.33-.71,24.09-24.14,48.21-48.27,72.34-72.39l22.62,22.62-23.93,23.92c-15.93,15.92-31.85,31.83-47.8,47.73-.53,.53-1.27,.98-1.79,1.1Z"/>
  </g>
</svg>