<?xml version="1.0" encoding="UTF-8"?>
<svg id="_레이어_2" data-name="레이어 2" xmlns="http://www.w3.org/2000/svg" viewBox="0 0 930 336.23">
  <defs>
    <style>
      .cls-1 {
        font-size: 22.94px;
      }

      .cls-1, .cls-2, .cls-3 {
        fill: #444;
      }

      .cls-1, .cls-3 {
        font-family: AppleSDGothicNeo-SemiBold-KSCpc-EUC-H, 'Apple SD Gothic Neo';
      }

      .cls-4, .cls-5 {
        fill: #fff;
      }

      .cls-6 {
        fill: #ace5e0;
      }

      .cls-3 {
        font-size: 40px;
      }

      .cls-5 {
        stroke: #444;
        stroke-miterlimit: 10;
        stroke-width: 3px;
      }
    </style>
  </defs>
  <g id="_레이어_1-2" data-name="레이어 1">
    <g>
      <g>
        <g>
          <rect class="cls-6" x="0" y="36.23" width="930" height="300" rx="25.94" ry="25.94"/>
          <g>
            <g>
              <circle class="cls-2" cx="29.1" cy="64.35" r="5"/>
              <circle class="cls-2" cx="29.1" cy="304.1" r="5"/>
            </g>
            <g>
              <circle class="cls-2" cx="900.9" cy="64.35" r="5"/>
              <circle class="cls-2" cx="900.9" cy="304.1" r="5"/>
            </g>
          </g>
        </g>
        <g>
          <text class="cls-1" transform="translate(118.34 245.58)"><tspan x="0" y="0">반려견의 상황과 연령에 따른 현재의 모습을 반영하는 검사이므로 이후 재검사 시에</tspan><tspan x="0" y="29.82">다른 유형으로 나올 수 있습니다.</tspan></text>
          <text class="cls-1" transform="translate(118.34 137.59)"><tspan x="0" y="0">반려인께서 반려견을 잘 관찰하지 않고 응답하실 경우 결과가 부적절할 수 있습니다.</tspan></text>
          <text class="cls-1" transform="translate(118.97 188.85)"><tspan x="0" y="0">점수의 높고 낮음은 더 좋고 더 나쁜 것이 아닌, 그저 성격 특성에 관련된 점수입니다.</tspan></text>
          <g>
            <path class="cls-4" d="M81.06,129.24c1.5-.31,2.92-.12,4.23,.65,2.01,1.18,4.01,2.38,6,3.6,1.45,.89,2.05,2.24,1.9,3.9-.16,1.67-1,2.9-2.58,3.54-.77,.32-1.6,.28-2.42,.27-1.03,0-2.05-.04-3.08,0-1.29,.05-2.49,.45-3.63,1.03-.88,.45-1.75,.92-2.66,1.28-3,1.21-5.23-.77-5.78-2.88-.29-1.09-.16-2.16,.48-3.11,1.33-2,2.67-4,4.04-5.97,.85-1.23,2.06-1.98,3.5-2.32Z"/>
            <path class="cls-4" d="M80.49,122.21c-.13-.6-.19-1.22-.17-1.82,.03-.84,.25-1.7,.73-2.39s1.24-1.21,2.08-1.3c.76-.08,1.54,.21,2.14,.68s1.05,1.12,1.39,1.81c.65,1.34,.91,2.89,.55,4.34-.15,.61-.41,1.19-.81,1.67s-.95,.85-1.56,.98c-.94,.2-1.94-.2-2.65-.86-.89-.82-1.45-1.93-1.71-3.11Z"/>
            <path class="cls-4" d="M78.6,122.55c.15,.68,.2,1.39,.14,2.08-.07,.76-.27,1.52-.7,2.16s-1.07,1.14-1.82,1.29c-.93,.18-1.91-.22-2.61-.86-1.33-1.22-1.9-3.07-1.87-4.83,.01-.83,.2-1.67,.64-2.37s1.16-1.25,1.97-1.39c.75-.13,1.54,.1,2.17,.53s1.11,1.05,1.47,1.73c.28,.52,.48,1.08,.61,1.65Z"/>
            <path class="cls-4" d="M89.43,127.18c-.23-1.05-.15-2.19,.13-3.15,.09-.3,.2-.6,.34-.89,.25-.53,.6-1.04,1.09-1.36,.62-.41,1.45-.46,2.12-.15,.55,.26,.98,.74,1.28,1.27,.65,1.14,.8,2.53,.61,3.83-.12,.82-.38,1.65-.9,2.29s-1.35,1.08-2.18,.98c-.57-.07-1.09-.37-1.48-.79-.52-.56-.85-1.28-1.02-2.05Z"/>
            <path class="cls-4" d="M66.48,130.83c-.2-.91-.3-1.81,.05-2.7,.48-1.2,1.65-1.74,2.87-1.31,1.05,.37,1.78,1.13,2.35,2.05,.69,1.12,1.07,2.35,.94,3.68-.11,1.05-.56,1.89-1.63,2.25-.74,.24-1.43,.06-2.07-.33-1.07-.66-1.73-1.65-2.21-2.78-.12-.28-.2-.57-.3-.85Z"/>
          </g>
          <g>
            <path class="cls-4" d="M81.06,180.54c1.5-.31,2.92-.12,4.23,.65,2.01,1.18,4.01,2.38,6,3.6,1.45,.89,2.05,2.24,1.9,3.9-.16,1.67-1,2.9-2.58,3.54-.77,.32-1.6,.28-2.42,.27-1.03,0-2.05-.04-3.08,0-1.29,.05-2.49,.45-3.63,1.03-.88,.45-1.75,.92-2.66,1.28-3,1.21-5.23-.77-5.78-2.88-.29-1.09-.16-2.16,.48-3.11,1.33-2,2.67-4,4.04-5.97,.85-1.23,2.06-1.98,3.5-2.32Z"/>
            <path class="cls-4" d="M80.49,173.51c-.13-.6-.19-1.22-.17-1.82,.03-.84,.25-1.7,.73-2.39s1.24-1.21,2.08-1.3c.76-.08,1.54,.21,2.14,.68s1.05,1.12,1.39,1.81c.65,1.34,.91,2.89,.55,4.34-.15,.61-.41,1.19-.81,1.67s-.95,.85-1.56,.98c-.94,.2-1.94-.2-2.65-.86-.89-.82-1.45-1.93-1.71-3.11Z"/>
            <path class="cls-4" d="M78.6,173.85c.15,.68,.2,1.39,.14,2.08-.07,.76-.27,1.52-.7,2.16s-1.07,1.14-1.82,1.29c-.93,.18-1.91-.22-2.61-.86-1.33-1.22-1.9-3.07-1.87-4.83,.01-.83,.2-1.67,.64-2.37s1.16-1.25,1.97-1.39c.75-.13,1.54,.1,2.17,.53s1.11,1.05,1.47,1.73c.28,.52,.48,1.08,.61,1.65Z"/>
            <path class="cls-4" d="M89.43,178.48c-.23-1.05-.15-2.19,.13-3.15,.09-.3,.2-.6,.34-.89,.25-.53,.6-1.04,1.09-1.36,.62-.41,1.45-.46,2.12-.15,.55,.26,.98,.74,1.28,1.27,.65,1.14,.8,2.53,.61,3.83-.12,.82-.38,1.65-.9,2.29s-1.35,1.08-2.18,.98c-.57-.07-1.09-.37-1.48-.79-.52-.56-.85-1.28-1.02-2.05Z"/>
            <path class="cls-4" d="M66.48,182.13c-.2-.91-.3-1.81,.05-2.7,.48-1.2,1.65-1.74,2.87-1.31,1.05,.37,1.78,1.13,2.35,2.05,.69,1.12,1.07,2.35,.94,3.68-.11,1.05-.56,1.89-1.63,2.25-.74,.24-1.43,.06-2.07-.33-1.07-.66-1.73-1.65-2.21-2.78-.12-.28-.2-.57-.3-.85Z"/>
          </g>
          <g>
            <path class="cls-4" d="M81.06,237.23c1.5-.31,2.92-.12,4.23,.65,2.01,1.18,4.01,2.38,6,3.6,1.45,.89,2.05,2.24,1.9,3.9-.16,1.67-1,2.9-2.58,3.54-.77,.32-1.6,.28-2.42,.27-1.03,0-2.05-.04-3.08,0-1.29,.05-2.49,.45-3.63,1.03-.88,.45-1.75,.92-2.66,1.28-3,1.21-5.23-.77-5.78-2.88-.29-1.09-.16-2.16,.48-3.11,1.33-2,2.67-4,4.04-5.97,.85-1.23,2.06-1.98,3.5-2.32Z"/>
            <path class="cls-4" d="M80.49,230.2c-.13-.6-.19-1.22-.17-1.82,.03-.84,.25-1.7,.73-2.39s1.24-1.21,2.08-1.3c.76-.08,1.54,.21,2.14,.68s1.05,1.12,1.39,1.81c.65,1.34,.91,2.89,.55,4.34-.15,.61-.41,1.19-.81,1.67s-.95,.85-1.56,.98c-.94,.2-1.94-.2-2.65-.86-.89-.82-1.45-1.93-1.71-3.11Z"/>
            <path class="cls-4" d="M78.6,230.54c.15,.68,.2,1.39,.14,2.08-.07,.76-.27,1.52-.7,2.16s-1.07,1.14-1.82,1.29c-.93,.18-1.91-.22-2.61-.86-1.33-1.22-1.9-3.07-1.87-4.83,.01-.83,.2-1.67,.64-2.37s1.16-1.25,1.97-1.39c.75-.13,1.54,.1,2.17,.53s1.11,1.05,1.47,1.73c.28,.52,.48,1.08,.61,1.65Z"/>
            <path class="cls-4" d="M89.43,235.17c-.23-1.05-.15-2.19,.13-3.15,.09-.3,.2-.6,.34-.89,.25-.53,.6-1.04,1.09-1.36,.62-.41,1.45-.46,2.12-.15,.55,.26,.98,.74,1.28,1.27,.65,1.14,.8,2.53,.61,3.83-.12,.82-.38,1.65-.9,2.29s-1.35,1.08-2.18,.98c-.57-.07-1.09-.37-1.48-.79-.52-.56-.85-1.28-1.02-2.05Z"/>
            <path class="cls-4" d="M66.48,238.82c-.2-.91-.3-1.81,.05-2.7,.48-1.2,1.65-1.74,2.87-1.31,1.05,.37,1.78,1.13,2.35,2.05,.69,1.12,1.07,2.35,.94,3.68-.11,1.05-.56,1.89-1.63,2.25-.74,.24-1.43,.06-2.07-.33-1.07-.66-1.73-1.65-2.21-2.78-.12-.28-.2-.57-.3-.85Z"/>
          </g>
        </g>
      </g>
      <g>
        <rect class="cls-5" x="240" y="1.5" width="450" height="70" rx="35" ry="35"/>
        <text class="cls-3" transform="translate(293.07 51.1)"><tspan x="0" y="0">결과 해석 시 주의사항</tspan></text>
      </g>
    </g>
  </g>
</svg>