<?xml version="1.0" encoding="UTF-8"?>
<svg id="_레이어_2" data-name="레이어 2" xmlns="http://www.w3.org/2000/svg" viewBox="0 0 305.12 312">
  <defs>
    <style>
      .cls-1 {
        fill: #ff9191;
      }
    </style>
  </defs>
  <g id="_레이어_1-2" data-name="레이어 1">
    <g>
      <path class="cls-1" d="M48.34,312c-5.97-2.44-7.94-7.03-7.84-13.27,.22-14.01,.06-28.02,.07-42.03,0-8.75,3.69-12.46,12.36-12.48,2.53,0,5.05,0,8.1,0,0-1.37,0-2.54,0-3.7,0-28.73-.04-57.47,0-86.2,.08-44.49,27.76-80.51,71.04-90.75,29.86-7.06,57,.09,80.39,20.01,15.99,13.61,25.98,31.02,29.85,51.68,1.21,6.44,1.65,13.1,1.69,19.67,.18,28.43,.08,56.86,.08,85.29v4.01c3.3,0,6.31-.04,9.32,0,6.96,.1,11.06,4,11.11,10.95,.11,15.23,.01,30.46,.05,45.69,.01,5.57-2.88,9.03-7.77,11.14H48.34Zm175.35-67.95c.07-.77,.14-1.17,.14-1.57,0-30.05,.17-60.1-.06-90.15-.15-18.96-6.98-35.39-20.07-49.21-20.33-21.46-54.38-28.1-80.74-15.16-27.25,13.37-41.17,35.64-41.58,65.89-.39,29.03-.09,58.07-.08,87.11,0,.98,.09,1.97,.15,3.1H223.68Zm-162.51,47.42H243.85v-26.79H61.17v26.79Z"/>
      <path class="cls-1" d="M142.35,20.27c0-3.15-.08-6.29,.01-9.44C142.56,4.37,146.85-.07,152.69,0c5.72,.07,9.93,4.46,10.06,10.79,.13,6.39,.14,12.79,0,19.18-.15,6.29-4.46,10.69-10.16,10.71-5.69,.02-9.98-4.39-10.22-10.67-.12-3.24-.02-6.49-.02-9.74Z"/>
      <path class="cls-1" d="M65.9,76.94c-2.13-1.04-4.64-1.65-6.31-3.19-5.23-4.8-10.27-9.82-15.13-14.99-3.93-4.18-3.69-10.11,.15-14,3.78-3.83,9.91-4.17,14.02-.32,5.26,4.92,10.33,10.04,15.25,15.31,2.97,3.18,3.35,7.1,1.38,11.03-1.84,3.68-4.95,5.51-9.35,6.17Z"/>
      <path class="cls-1" d="M238.99,76.9c-4.23-.67-7.23-2.49-9.06-6.03-1.9-3.67-1.82-7.55,.91-10.55,5.19-5.69,10.63-11.18,16.32-16.37,3.79-3.46,9.71-2.83,13.29,.73,3.73,3.71,4.28,9.54,.65,13.5-5.06,5.53-10.43,10.8-15.94,15.89-1.58,1.46-4.09,1.91-6.17,2.82Z"/>
      <path class="cls-1" d="M20.33,162.72c-3.45,0-6.9,.09-10.35-.02C4.2,162.53,0,158.21,0,152.59c0-5.62,4.19-9.95,10.01-10.05,6.9-.13,13.8-.14,20.7,.01,5.78,.12,9.89,4.55,9.81,10.22-.07,5.5-4.21,9.74-9.84,9.93-3.45,.12-6.9,.02-10.35,.02Z"/>
      <path class="cls-1" d="M284.99,142.51c3.45,0,6.9-.11,10.35,.02,5.64,.21,9.74,4.47,9.78,9.97,.04,5.63-4.14,10.06-9.9,10.17-6.9,.13-13.8,.13-20.7,0-5.78-.11-9.95-4.5-9.92-10.15,.03-5.52,4.1-9.79,9.74-10,3.55-.13,7.1-.02,10.65-.03Z"/>
      <path class="cls-1" d="M203.31,150.59c1.21,9.52-7.47,13.8-13.41,11.56-4.13-1.56-6.63-4.94-6.83-9.83-.4-9.92-4.41-18-12.29-24.06-5.5-4.23-11.87-5.93-18.71-6.32-4.75-.27-8.2-3.18-9.28-7.43-1.69-6.65,3.09-12.92,10.08-12.71,20.15,.63,35.16,9.88,44.85,27.56,3.56,6.5,5.34,13.55,5.6,21.23Z"/>
    </g>
  </g>
</svg>