<?xml version="1.0" encoding="UTF-8"?>
<svg id="_레이어_2" data-name="레이어 2" xmlns="http://www.w3.org/2000/svg" viewBox="0 0 79.84 62.73">
  <defs>
    <style>
      .cls-1 {
        fill: #fff;
      }

      .cls-2 {
        fill: #444;
      }
    </style>
  </defs>
  <g id="_레이어_1-2" data-name="레이어 1">
    <g>
      <g>
        <g>
          <path class="cls-1" d="M6.46,29.98l5.55-13.18c-.02-1.71,.68-3.28,1.75-4.6,1.16-1.42,2.84-2,4.04-3.37,2.88-3.32,7.68-4.87,11.77-6.02,3.73-1.05,9.18-2.93,12.97-1.79,4.67,1.4,9.01,3.34,13.16,5.85,1.57,.95,2.54,2.62,3.8,3.91,1.26,1.3,2.76,2.37,3.98,3.7,1.39,.99,3.27,1.52,4.96,1.56,1.56,.04,3.29-.3,4.74,.48,1.28,.69,2.08,1.97,3.05,3,1.02,1.08,2.34,1.98,2.77,3.48,1.5,5.19-6.13,6.22-9.45,4.85l-.16-.35c.41,1.06,.82,2.12,1.23,3.19,.96,2.49,1.94,5.06,1.87,7.72-.06,2.28-.98,4.51-2.45,6.25-1.48,1.75-3.92,2.39-5.05,4.38-.56,.98-.88,2.07-1.35,3.1-2.08,4.56-8.23,9.61-13.47,9.37-1.73-.08-3.28-.82-4.97-1.05-1.66-.22-3.35,.1-4.97,.44-3.18,.68-6.73,1.96-9.89,.53-1.92-.87-3.33-2.64-5.27-3.47-1.83-.78-3.89-.63-5.87-.68-3.94-.1-6.96-2.3-9.02-5.6-1.72-2.75-2.61-5.92-3.48-9.05-1.05-3.78-1.22-8.75-.2-12.65Z"/>
          <path class="cls-2" d="M7.09,30.15c1.58-3.76,3.16-7.51,4.74-11.27,.25-.6,.56-1.2,.77-1.82,.18-.53,.09-1.14,.23-1.69,.28-1.09,.85-2.14,1.62-2.97,.71-.77,1.63-1.3,2.47-1.92s1.49-1.42,2.26-2.13c1.55-1.42,3.46-2.43,5.4-3.21s3.9-1.33,5.89-1.9,4.08-1.21,6.17-1.59,4.1-.49,6.1,.12c2.37,.73,4.7,1.61,6.95,2.65,1.1,.51,2.19,1.05,3.26,1.63s2.2,1.11,3.1,1.88c.79,.67,1.42,1.5,2.07,2.29,.75,.91,1.58,1.71,2.47,2.48,.44,.38,.88,.76,1.31,1.16,.46,.42,.87,.94,1.38,1.29,.89,.61,1.95,1.02,3,1.27,1.14,.27,2.27,.3,3.43,.26s2.33-.08,3.34,.54c.91,.56,1.55,1.46,2.23,2.26s1.48,1.44,2.17,2.21c.92,1.03,1.46,2.63,.72,3.91-.59,1.01-1.76,1.54-2.85,1.83-1.27,.34-2.64,.41-3.93,.23-.58-.08-1.15-.22-1.69-.44l.39,.3-.16-.35c-.31-.67-1.47-.19-1.2,.51,.76,1.96,1.57,3.9,2.22,5.9,.61,1.87,1.06,3.85,.77,5.82-.26,1.77-1.05,3.51-2.22,4.85-1,1.15-2.42,1.81-3.6,2.75-1.45,1.16-2,2.75-2.69,4.41-.59,1.41-1.45,2.69-2.45,3.83-2.1,2.4-4.89,4.48-8.01,5.3-1.69,.45-3.27,.32-4.95-.14-.94-.26-1.88-.52-2.85-.63s-2-.02-2.99,.13c-1.95,.29-3.83,.86-5.76,1.24s-3.82,.5-5.57-.28c-1.62-.72-2.84-2.08-4.34-2.99-1.61-.98-3.44-1.2-5.3-1.23-1.72-.03-3.35-.02-4.99-.64-1.4-.53-2.63-1.43-3.65-2.51-2.58-2.71-3.75-6.39-4.75-9.91-1-3.53-1.43-7.12-1.01-10.78,.1-.89,.27-1.77,.49-2.64,.21-.82-1.06-1.17-1.27-.35-.95,3.69-.92,7.67-.18,11.4,.38,1.9,.96,3.78,1.57,5.62,.63,1.87,1.4,3.73,2.48,5.39,1.77,2.73,4.41,4.93,7.67,5.53,1.87,.34,3.78,.07,5.65,.35s3.35,1.42,4.88,2.59c1.55,1.18,3.19,1.95,5.17,2.05s4-.41,5.93-.88,4.19-1.06,6.28-.72c1.91,.31,3.68,1.13,5.66,1.02,3.36-.18,6.49-2.01,8.96-4.18,1.25-1.1,2.37-2.36,3.29-3.74,.43-.65,.8-1.33,1.11-2.04,.41-.94,.72-1.94,1.23-2.83,.8-1.38,2.32-2.08,3.56-3,1.45-1.08,2.51-2.54,3.21-4.21,.76-1.8,.97-3.73,.71-5.67-.28-2.11-1.05-4.1-1.81-6.08-.4-1.03-.8-2.06-1.19-3.09l-1.2,.51c.16,.34,.25,.54,.63,.68,.28,.11,.58,.2,.87,.27,.69,.16,1.41,.25,2.12,.27,1.44,.04,2.92-.16,4.26-.7s2.45-1.41,2.93-2.76c.58-1.64-.03-3.45-1.12-4.72-.71-.83-1.57-1.5-2.28-2.33-.75-.87-1.45-1.79-2.43-2.42-2.09-1.35-4.68-.44-6.98-.93-1.21-.26-2.4-.71-3.28-1.59s-1.88-1.68-2.81-2.54c-1.69-1.56-2.86-3.65-4.87-4.86-2.23-1.34-4.55-2.53-6.94-3.55-1.17-.5-2.36-.97-3.56-1.39s-2.34-.86-3.54-1.07c-2.18-.38-4.43-.06-6.58,.41s-4.32,1.15-6.47,1.76-4.2,1.29-6.18,2.23-3.82,2.25-5.37,3.91c-.76,.81-1.73,1.36-2.6,2.02s-1.66,1.54-2.24,2.54-1.01,2.21-1.02,3.38c0,.22-.03,.31-.13,.54l-5.25,12.47-.15,.37c-.14,.33,.15,.72,.46,.81,.38,.11,.67-.13,.81-.46Z"/>
        </g>
        <g>
          <path class="cls-1" d="M19.65,13.87c-1.52,1.57-3.63,2.46-5.76,2.96s-4.32,.65-6.49,.95c-.86,.12-1.73,.27-2.54,.58-2.1,.81-3.7,2.77-4.08,4.99-.14,.82-.12,1.66-.06,2.5,.24,3.17,2.78,4.62,5.86,3.96,1.96-.42,4.22-.02,5.87-1.28,.93-.7,1.63-1.67,2.29-2.63"/>
          <path class="cls-2" d="M19.18,13.4c-2.35,2.37-5.76,2.99-8.94,3.37-1.71,.21-3.52,.29-5.18,.82-1.36,.44-2.57,1.27-3.45,2.39-.89,1.13-1.42,2.45-1.56,3.88-.14,1.41-.04,3,.64,4.27,1.19,2.23,3.76,2.75,6.06,2.3,1.57-.31,3.24-.13,4.77-.69,1.7-.62,2.79-2.08,3.78-3.52,.48-.7-.66-1.36-1.14-.66-.79,1.15-1.7,2.46-3.08,2.95-1.23,.43-2.57,.36-3.85,.52-1.11,.14-2.16,.42-3.28,.12-.9-.24-1.65-.8-2.11-1.62-.61-1.1-.62-2.56-.48-3.77s.72-2.42,1.58-3.33c2.12-2.25,5.55-2.09,8.4-2.48,3.17-.43,6.43-1.27,8.75-3.61,.6-.6-.33-1.53-.93-.93h0Z"/>
        </g>
        <path class="cls-2" d="M46.91,33.46c-.23,.2-.21,.58-.12,.79,.13,.29,.43,.51,.74,.7,.24,.14,.77,.18,1.09,.14,.63-.08,1.04-.56,1.18-.97,.11-.33,.11-.68,.03-1-.01-.05-.03-.1-.07-.14-.06-.05-.17-.06-.27-.06-.43-.02-.86-.04-1.28,.01-.49,.06-.93,.23-1.28,.5,0,0-.01,.01-.02,.02Z"/>
        <path class="cls-2" d="M47.4,35.09c-.03,.08-.06,.16-.09,.24-.04,.12,.03-.07,0,0-.02,.04-.03,.08-.05,.11-.07,.14-.15,.28-.23,.41-.02,.03-.05,.07-.07,.1-.06,.08,.02,0,.01-.02,0,.03-.13,.16-.16,.18-.06,.06-.12,.11-.18,.17-.09,.08,.06-.04,0,0-.03,.02-.07,.05-.1,.07-.06,.04-.13,.08-.2,.11s-.09,.04,0,0c-.04,.02-.08,.03-.13,.05-.09,.03-.19,.06-.28,.07-.03,0-.16,.02-.03,0-.04,0-.08,0-.12,0-.1,0-.19,0-.29,0-.02,0-.18-.02-.09,0s-.08-.02-.08-.02c-.09-.02-.17-.04-.25-.07-.05-.02-.09-.03-.14-.05,.11,.04-.02-.01-.05-.03-.31-.16-.73-.09-.9,.24-.16,.3-.09,.73,.24,.9,.92,.47,2.04,.49,2.93-.05,.77-.47,1.24-1.25,1.52-2.09,.11-.33-.13-.73-.46-.81-.36-.08-.69,.11-.81,.46h0Z"/>
        <path class="cls-2" d="M48.46,35.34c.15,.47,.43,.9,.82,1.21,.12,.09,.23,.18,.36,.26s.26,.13,.39,.18c.23,.09,.48,.14,.73,.15,.16,.01,.35-.08,.47-.19s.2-.3,.19-.47-.06-.35-.19-.47-.28-.18-.47-.19c-.04,0-.08,0-.12-.01l.17,.02c-.16-.02-.31-.07-.46-.13l.16,.07c-.16-.07-.3-.15-.43-.25l.13,.1c-.13-.1-.25-.22-.36-.35l.1,.13c-.1-.13-.18-.26-.24-.41l.07,.16c-.02-.05-.04-.1-.06-.16-.05-.16-.15-.31-.3-.39-.14-.08-.35-.12-.51-.07-.33,.11-.57,.46-.46,.81h0Z"/>
      </g>
      <circle class="cls-2" cx="54.1" cy="26.91" r="2.1"/>
      <circle class="cls-2" cx="39.77" cy="27.41" r="2.1"/>
    </g>
  </g>
</svg>