<?xml version="1.0" encoding="UTF-8"?>
<svg id="_레이어_2" data-name="레이어 2" xmlns="http://www.w3.org/2000/svg" viewBox="0 0 481.46 118.4">
  <defs>
    <style>
      .cls-1 {
        fill: #040000;
      }

      .cls-2 {
        fill: #f2dccd;
      }

      .cls-3 {
        fill: #e2e2e1;
      }

      .cls-4 {
        fill: #cd718d;
      }

      .cls-5 {
        fill: #231815;
      }
    </style>
  </defs>
  <g id="_레이어_3" data-name="레이어 3">
    <g>
      <path class="cls-1" d="M183.22,63.64c-14.04,10.43-37.99,2.27-37.99-15.79,0-5.47,1.75-9.91,4.65-13.32h-1.86c-3.41,0-6.09-2.48-6.09-5.47s2.68-5.57,6.09-5.57h13.63v-3.3c0-2.68,2.68-4.85,5.99-4.85s5.99,2.17,5.99,4.85v3.3h14.35c3.41,0,6.09,2.48,6.09,5.57s-2.68,5.47-6.09,5.47h-1.24c2.89,3.41,4.75,7.85,4.75,13.32,0,6.4-2.99,11.87-8.26,15.79Zm-32.52,37.47c-1.34-1.03-1.75-3.61-1.75-5.16-.1-2.48-.41-4.96-.41-7.33,0-3.51-.1-7.02,.52-10.43,.41-2.17,1.24-3.41,3.3-4.23,1.86-.72,3.82-1.14,5.78-1.14h48.62c2.58,.1,5.47,.21,7.95,1.34,2.68,1.14,3.41,4.03,3.61,6.71,.21,4.75,.41,12.7-.93,17.65-.41,1.55-.72,2.79-2.38,3.3-1.44,.52-3.2,.62-4.64,.62l-53.78-.21c-1.75-.1-4.03,.1-5.57-.93-.1,0-.21-.1-.31-.21Zm27.87-53.37c0-12.28-20.44-12.8-20.44,.1,0,7.43,6.61,9.6,12.28,8.46,4.33-.83,8.15-3.3,8.15-8.57Zm-17.34,43.15c.52,.52,2.89,.21,2.89,.21h32.31s4.85,.41,7.43,.1c1.34-.1,1.45-.72,1.55-1.96,.1-1.14,.31-2.79-.52-3.82-.93-1.14-2.99-.93-4.33-.83h-28.7c-2.99-.21-5.88-.1-8.88,0-1.14,0-1.65-.21-1.96,1.03-.21,.93-.21,1.86-.21,2.68,.1,.21,0,.52,0,.93,0,.62,0,1.34,.41,1.65Zm54.92-40.05v10.32c-.1,1.44-.31,3.1-1.14,4.65-.41,.83-1.03,1.55-1.75,2.06-1.03,.72-2.27,1.03-3.41,1.03-1.03,0-2.06-.21-2.89-.72-2.79-1.65-3.2-5.47-3.2-5.57V27.61c-.1-.52,.1-3.72,.93-5.37,.62-1.34,2.17-2.27,4.13-2.48,2.37-.31,4.54,.31,5.68,1.55,.83,1.03,1.03,2.06,1.34,3.2,.41,1.34,.41,2.99,.31,4.44v7.12s-.1,1.34,0,3.3c1.14,.1,6.71,.21,7.95,.52,2.68,.52,3.61,1.65,3.92,3.1,.41,1.45,.52,3.82-.31,5.16-1.65,2.68-5.16,2.58-9.19,2.68h-2.37Z"/>
      <path class="cls-1" d="M255.58,36.08v40.05c0,.41,.31,8.57,0,12.9-.21,2.68-.72,5.88-3.92,7.33-1.24,.41-2.37,.72-3.2,.72-1.65,0-2.89-.83-3.61-2.27-.93-2.06-1.34-4.44-1.44-7.02v-4.44c0-1.65-.1-3.2-.1-4.85V45.37c0-2.17,.1-4.44-.21-6.5-.1-.72-.21-2.27-.83-2.58s-1.45-.1-2.27-.21c-.83-.1-2.37,.1-3.3,0-1.45,0-3.1-.1-4.34-.93-1.65-1.34-2.17-1.75-2.17-4.03,0-1.24,.1-2.37,.72-3.61,.21-.52,.62-1.14,1.24-1.65,.62-.62,1.96-1.14,2.89-1.45,2.68-.52,1.55-.52,4.85-.52,.72,0,6.09,0,7.12,.1h.52c1.03-.1,2.06-.1,2.79-.1h12.9c.62,0,1.34,0,1.96,.1,1.65,.1,2.68,.31,4.23,.93,.93,.41,2.06,1.14,2.58,2.06,1.14,1.86,1.03,3.72,1.24,5.88,.41,3.61,.21,8.36,.21,12.08v8.15h7.02V30.29c0-1.75-.1-3.72,.31-5.47,.21-.62,.41-1.24,.72-1.86,.83-1.34,1.45-2.06,2.99-2.58,.62-.21,1.55-.31,2.17-.31,2.27,0,3.61,1.14,4.75,3.1,1.03,1.75,.93,6.71,.93,7.23,.1,50.17,0,58.94,0,58.94,0,3.41-.1,4.85-1.14,8.05-.72,2.06-1.86,3.61-4.85,3.61-.83,0-2.27-.21-2.99-.72-2.79-1.75-2.79-8.16-2.79-10.22l-.1-23.43-7.02-.21v9.7c.1,.41,.21,8.57,0,12.9-.21,4.03-2.37,8.05-7.12,8.05-1.55,0-2.48-.83-3.3-2.27-.93-2.06-1.34-4.44-1.34-7.02,0-1.55,0-3.1-.1-4.44V45.37c0-2.17,0-4.44-.31-6.5,0-.72-.52-2.89-3.3-2.68-.83-.1-1.55,0-2.37-.1Zm50.99,64.31c-1.45,.93-2.68,1.14-4.44,.72-4.13-.93-4.65-5.47-4.65-8.98V31.43c-.1-3.1,0-8.26,1.86-10.12,1.55-1.34,2.17-1.55,4.03-1.55,2.37,0,4.44,1.44,5.26,3.61,1.24,2.89,1.14,5.99,1.24,9.08v.52c.31,10.43,0,20.85,0,30.55v24.77c0,3.61,0,6.92-1.34,9.81-.41,.93-1.03,1.65-1.96,2.27Z"/>
      <path class="cls-1" d="M365.3,31.64c.93,1.75,.62,4.96-.72,6.71-2.68,3.41-13.01,2.27-14.87,2.37-1.03,.1-2.06,.1-3.3,.1h-3.3c-1.03-.1-2.06-.1-3.2-.1l-12.18-.21c-7.02,0-9.7-1.75-10.22-5.57-.31-2.06,.31-3.72,1.55-4.85,1.86-1.65,2.89-1.86,4.96-1.86,.52,0,1.14,.1,1.65,.1h2.58c1.96,0,4.85-.1,6.81-.21,.1-1.03,.21-4.54,.31-5.47,.1-1.14,.52-2.27,1.13-3.2,1.34-1.86,3.3-2.89,5.37-2.79,1.96,.21,4.03,.31,5.26,1.96,1.55,2.17,.93,6.61,1.24,9.6h2.99c1.13,0,3.72,.1,4.75,.1h1.86c2.68,0,5.88,.62,7.33,3.3Zm-6.92,59.66c-6.09,10.74-23.54,11.35-31.79,2.48-3.51-3.82-4.75-7.95-5.47-13.01-1.44-10.12-2.17-18.99,3.3-28.18,2.99-5.16,11.56-8.05,19.1-7.74,22.19,.83,23.23,31.59,14.86,46.45Zm-6.81-17.03c-.1-4.75-.31-12.28-4.54-15.17-3.72-2.48-11.46-1.34-13.42,2.99-2.58,5.57-2.38,11.25-1.14,17.14,.62,2.99,1.75,6.71,4.33,8.46,1.14,.72,5.16,1.03,6.3,.83,6.19-.93,8.57-8.67,8.46-14.25Zm40.26-21.88c.62,0,1.24,.21,1.96,.21,.72,.1,1.55,.21,2.38,.31,1.55,.31,3.2,.93,3.92,2.48,.52,.83,.72,1.75,.72,2.68,0,1.03,0,1.96-.31,2.99-.21,1.03-.52,2.48-1.45,3.2-.83,.62-1.75,1.14-2.79,1.34-2.17,.31-5.88,0-8.05,.1-.21,0-.31,.1-.31,.1,0,0-.1,0-.1,.41-.1,3.41,0,8.57,0,12.08,.1,3.51,.1,7.12,0,10.53v1.44c0,3.61,0,8.88-2.48,11.35-.83,.93-1.96,1.45-3.3,1.45,0,0-.1-.1-.21-.1-6.71-.21-7.43-8.26-7.43-12.59V29.06c0-.21-.1-5.37,2.17-7.64,.93-.93,3.1-1.44,4.65-1.44s2.89,.62,3.82,1.55c1.86,1.96,1.96,4.13,2.17,6.4,.1,.41,.1,.83,.1,1.24,.31,2.27,.31,4.85,.41,7.33,0,1.55,.1,2.89,.1,4.44-.1,.83,0,1.55,0,2.27v6.71c0,.72,0,1.55,.21,2.27,0,.1,2.06,.1,2.17,.1,.52,.1,.93,.21,1.45,.1h.21Z"/>
      <path class="cls-1" d="M427.44,46.91c0-2.27,.1-4.44-.21-6.71-.41-2.48-.93-2.89-3.41-2.89-5.99-.1-10.22,0-15.59,0-4.85,0-7.12-2.68-7.12-6.71s1.96-5.99,5.47-6.71c2.79-.72,5.06-.72,8.05-.72h14.76c.72,0,1.45,.1,2.17,.1,1.75,.1,3.92,.41,5.57,1.03,1.03,.41,2.27,1.14,2.89,2.06,1.34,1.96,1.24,3.41,1.45,5.68,.31,3.72,.21,7.64,.21,11.46v33.03c0,.31,.21,8.77,0,13.21-.41,4.96-3.2,8.26-7.95,8.26-5.06,0-6.19-5.68-6.19-9.6,0-6.19-.1-8.05-.1-41.5Zm53.99,43.15c.1,3.72,.1,8.05-2.99,10.12-1.03,.62-2.06,1.03-3.1,1.03-4.75,0-5.37-7.43-5.37-11.25v-25.19h-6.71v25.81c.21,3.1-.21,6.92-1.55,8.88-.83,1.14-2.07,1.75-3.61,1.75s-2.79-.83-3.92-1.86c-2.37-2.27-2.37-5.99-2.37-9.08V29.16c-.1-3.82,.41-8.36,4.96-9.5,1.45-.31,2.79,0,3.82,1.14,3.1,3.1,2.68,10.32,2.68,16.41v15.07h6.71V30.09c0-3.92-.72-9.81,5.06-10.43,1.45-.1,2.68,.31,3.61,1.34,3.2,3.3,2.79,10.63,2.79,15.17v53.88Z"/>
    </g>
  </g>
  <g id="_레이어_2-2" data-name="레이어 2">
    <g>
      <path class="cls-3" d="M99.64,10.59s8.95,10.79,3.27,22.67c0,0-.17,3.62-15.33,18.94-15.15,15.33-35.12,38.81-35.12,38.81,0,0-4.88,14.3-12.7,20.43l5.62,2.76h10.17l8.36-9.03,13.33-17.83,21.35-27.34,18.77-20.03-1.03-14.12-9.13-13.6-7.58-1.66Z"/>
      <polygon class="cls-2" points="84.91 54.8 80.2 60 70.31 66.78 68.21 71.34 66.95 74.51 58.83 76.91 58.04 84.6 64.24 93.7 71.99 100.59 77.97 100.42 83.1 93.7 89.56 90.53 93.3 82.88 98.85 79.58 104.02 76.59 101.44 66.78 88.26 53.73 84.91 54.8"/>
      <polygon class="cls-2" points="69.84 29.06 53.13 12.36 34.58 2.2 12.15 9.08 2.85 29.06 5.95 46.28 18.92 59.2 25.37 54.8 48.25 34.06 55.57 40.94 62.6 45.94 72.42 40.77 71.35 31.99 69.84 29.06"/>
      <g>
        <g>
          <ellipse class="cls-4" cx="34.36" cy="99.91" rx="3.75" ry="2.22"/>
          <g>
            <ellipse class="cls-4" cx="22.67" cy="73.56" rx="3.75" ry="2.22"/>
            <ellipse class="cls-4" cx="49.64" cy="100.42" rx="3.75" ry="2.22" transform="translate(-54.97 140.48) rotate(-84.65)"/>
            <ellipse class="cls-4" cx="24.02" cy="89.56" rx="3.75" ry="2.22"/>
            <path class="cls-4" d="M53.12,66.78l-9.28-6.77-5.85,2.56-2.83,8.63-.57,8.89v4.7l3.41,2.61s7.64,2.03,8.02,1.55,9.56-.99,9.56-.99c0,0,.03-5.97,0-6.6s3.27-4.06,3.27-4.44,1.07-3.94,1.07-3.94l-6.78-6.2Z"/>
          </g>
        </g>
        <g>
          <g>
            <path class="cls-5" d="M29.61,90.67l.06-.13c.03-.07,.06-.15,.09-.22,.66-1.62,.55-3.37-.32-4.81-.57-.95-1.42-1.69-2.46-2.14-.51-.22-1.05-.37-1.62-.44-3.66-.44-7.61,2.42-8.29,6-.31,1.63,.05,3.2,1.02,4.41,.96,1.21,2.41,1.92,4.08,2,.11,0,.22,0,.33,0,.91,0,1.84-.18,2.73-.53,1.97-.78,3.57-2.29,4.37-4.14Zm-7.61-1.68c.13-.43,.43-.84,.84-1.14,.84-.61,1.88-.6,2.33,.02,.21,.29,.26,.67,.14,1.07-.13,.44-.43,.84-.84,1.14-.42,.3-.9,.46-1.35,.45-.42-.01-.77-.18-.98-.46-.21-.29-.26-.67-.14-1.07Z"/>
            <path class="cls-5" d="M39.76,98.43c-.07-1.75-.9-3.3-2.28-4.25-.91-.63-1.98-.96-3.12-.93-.55,0-1.11,.1-1.65,.27-3.51,1.11-5.92,5.35-5.06,8.89,.39,1.61,1.37,2.89,2.75,3.59,.73,.37,1.54,.56,2.36,.56,.72,0,1.46-.14,2.18-.43,.94-.37,1.82-.97,2.57-1.74,1.47-1.52,2.3-3.56,2.27-5.58v-.15c0-.08,0-.16,0-.23Zm-4.92,1.98c-.51,.9-1.46,1.32-2.12,.95-.66-.38-.79-1.41-.28-2.31,.25-.45,.62-.79,1.04-.96,.19-.08,.38-.12,.55-.12,.19,0,.37,.04,.53,.14,.66,.38,.79,1.41,.28,2.31Z"/>
            <path class="cls-5" d="M54.93,97.18l-.07-.15c-.03-.07-.06-.13-.09-.2-.74-1.58-2.11-2.68-3.76-3.02-1.08-.22-2.2-.1-3.24,.36-.51,.22-.98,.53-1.41,.9-2.8,2.39-3.37,7.24-1.19,10.16,.99,1.33,2.39,2.13,3.93,2.23,.12,0,.24,.01,.36,.01,1.41,0,2.78-.58,3.87-1.66,.72-.71,1.3-1.61,1.68-2.6,.76-1.98,.73-4.17-.09-6.02Zm-3.91,3.39c-.12,1.03-.83,1.79-1.59,1.7-.35-.04-.67-.26-.88-.62-.23-.39-.33-.88-.27-1.39h0c.11-.97,.76-1.71,1.47-1.71,.04,0,.08,0,.12,0,.76,.09,1.27,.99,1.16,2.02Z"/>
          </g>
          <path class="cls-5" d="M18.96,78.95h0c.92,.42,1.97,.64,3.03,.64,2.12,0,4.16-.82,5.59-2.25l.1-.1c.06-.06,.11-.11,.17-.17,1.21-1.26,1.75-2.94,1.47-4.59-.18-1.09-.7-2.09-1.5-2.89-.39-.39-.84-.73-1.34-1-3.24-1.75-7.96-.55-9.91,2.53-.89,1.4-1.13,2.99-.67,4.47,.45,1.48,1.54,2.67,3.06,3.36Zm5.52-5.85c.19,.74-.47,1.55-1.47,1.8-1,.26-1.97-.13-2.16-.87-.19-.74,.47-1.55,1.47-1.8,1-.26,1.97,.13,2.16,.87Z"/>
        </g>
        <path d="M110.91,9.43c-12.26-12.5-32.4-12.57-44.75-.22l-6.23,6.33-6.2-6.33C41.46-3.07,21.48-3.07,9.21,9.21c-12.28,12.28-12.28,32.25,0,44.53l6.51,6.67c-3.4,1.27-6.08,3.32-8,6.11-3.16,4.6-3.53,9.5-1.09,14.18,.56,1.07,2.08,2.91,2.08,2.91,0,0-.95,1.53-1.19,1.96-.63,1.13-1.07,2.32-1.33,3.59-.44,2.08-.37,4.24,.18,6.3,.95,3.56,3.2,6.63,6.47,8.4,1.6,.87,3.4,1.41,5.2,1.63,.03,.24,.06,.49,.1,.73,.95,6.61,7.23,11.56,13.83,11.36,2.71-.08,5.33-1.07,7.63-2.46,.12-.07,.24-.15,.35-.22,.02-.01,1.75,1.32,1.95,1.45,.75,.46,1.54,.85,2.36,1.16,1.66,.63,3.45,.94,5.23,.88,3.65-.12,7.14-1.81,9.67-4.42,2.24-2.31,3.76-5.11,4.78-8.81,.37-1.35,.82-2.68,1.32-3.98l1.05,1.05c2.22,2.22,5.14,3.33,8.06,3.33s5.84-1.11,8.06-3.33c2.08-2.08,3.26-4.83,3.33-7.76,2.82-.07,5.61-1.18,7.75-3.33,2.14-2.14,3.25-4.94,3.33-7.75,2.93-.08,5.68-1.25,7.76-3.33,2.15-2.15,3.34-5.01,3.34-8.06s-1.19-5.91-3.34-8.06l-2.06-2.06,7.88-7.88c12.26-12.26,12.64-32.22,.5-44.59ZM14.71,48.23c-4.48-4.48-6.94-10.43-6.94-16.76s2.47-12.28,6.94-16.76c4.48-4.48,10.43-6.94,16.76-6.94s12.28,2.47,16.76,6.94l1.04,1.07,10.48,10.84,7.4,7.4c1.41,1.41,1.41,3.7,0,5.11-1.41,1.41-3.7,1.41-5.11,0l-7.4-7.4-.03,.03-5.44-5.29-27.89,28.34-6.57-6.57Zm62.2,48.51c-.68,.68-1.59,1.06-2.56,1.06s-1.87-.38-2.56-1.06l-10.48-10.48c-.68-.68-1.06-1.59-1.06-2.56s.38-1.87,1.06-2.56,1.63-1.06,2.56-1.06,1.85,.35,2.56,1.06l10.48,10.48c.68,.68,1.06,1.59,1.06,2.56s-.38,1.87-1.06,2.56Zm11.08-11.08c-1.41,1.41-3.7,1.41-5.11,0l-10.48-10.48c-1.41-1.41-1.41-3.7,0-5.11,.7-.7,1.63-1.06,2.56-1.06s1.85,.35,2.56,1.06l10.48,10.48c1.41,1.41,1.41,3.7,0,5.11Zm11.08-11.08h0c-.68,.68-1.59,1.06-2.56,1.06s-1.87-.38-2.56-1.06l-10.48-10.48c-.68-.68-1.06-1.59-1.06-2.56s.38-1.87,1.06-2.56,1.59-1.06,2.56-1.06,1.87,.38,2.56,1.06l10.48,10.48c.68,.68,1.06,1.59,1.06,2.56s-.38,1.87-1.06,2.56Zm-2.06-18.17l-2.92-2.92c-2.15-2.15-5.01-3.34-8.06-3.34s-5.91,1.19-8.06,3.34c-2.08,2.08-3.26,4.83-3.33,7.76-2.82,.08-5.61,1.18-7.75,3.33-2.15,2.15-3.25,4.94-3.33,7.76-.34,0-.67,.03-1,.07-1.87-1.7-6.3-6.72-7.91-8.35-.63-.63-1.24-1.31-1.84-1.96-.95-1.05-1.94-2.13-3.03-3.12-3.93-3.58-9.79-3.4-13.62,.42-2.6,2.58-3.42,5.82-3.82,8.04-.57,3.17-1.07,6.41-1.49,9.19-.16,1.03-.2,2.05-.21,2.91-.07,3.55,1.16,6.6,3.68,9.06l.11,.1c.15,.13,.3,.26,.45,.38,.37,.32,.75,.65,1.18,.97,2.03,1.49,4.4,2.24,7.09,2.24,.7,0,1.41-.05,2.15-.15,3.37-.46,6.63-1.01,9.5-1.51,.31,.4,.64,.79,1,1.15l4.69,4.69c-1.08,2.4-1.99,4.93-2.69,7.52-.51,1.88-1.26,3.45-2.31,4.8-1.73,2.23-4.27,3.52-6.78,3.45-2.3-.06-4.35-1.22-5.77-3.27-.71-1.02-1.57-1.33-2.17-1.41-.61-.08-1.55-.01-2.55,.8-.15,.12-.3,.25-.45,.37-.49,.41-.95,.8-1.41,1.08-3.06,1.89-5.72,2.11-8.36,.71-2.6-1.38-3.87-3.63-3.89-6.89,0-1.16-.02-2.36-.9-3.28-.87-.91-2.05-.97-3.12-.97-.09,0-.17,0-.26,0-4.1,0-7.25-2.67-7.67-6.5-.28-2.53,.58-4.9,2.64-7.24,.45-.51,1.29-1.47,1.14-2.79-.13-1.16-.96-1.9-1.51-2.39-.71-.63-1.59-1.48-2.15-2.4-2.62-4.36,.03-8.55,3.7-11.27,1.58-1.18,3.37-2.04,5.25-2.63l2.71-.86,25.38-25.89,7.07,7.07c2.14,2.14,5,3.44,8.02,3.49,3.12,.05,6.05-1.14,8.25-3.34,4.44-4.44,4.44-11.67,0-16.12l-7.28-7.43,6.28-6.38c4.62-4.62,10.69-6.93,16.76-6.93s12.33,2.38,16.98,7.15c9.09,9.33,8.77,24.31-.44,33.52l-7.94,7.94Zm-44.5,28.34c-.46,.07-.92,.15-1.39,.22-1.98,.32-4.03,.66-6.05,.94-1.65,.23-3.38,.32-4.83-.55-2.31-1.39-3.4-3.16-3.41-5.58v-.15c0-.29,0-.57,.03-.76,.15-.98,.3-1.96,.45-2.94,.43-2.85,.88-5.79,1.41-8.68,.31-1.68,1.04-2.95,2.17-3.78,1.7-1.25,3.31-1.19,4.91,.18,.28,.24,.56,.53,.86,.84,.16,.17,.32,.34,.49,.5l.68,.68,.38,.44c.84,1.02,1.71,2.07,2.69,3.06,.95,.96,4.09,4.51,5.5,5.93-.2,.18-.4,.36-.59,.55-2.15,2.15-3.34,5.01-3.34,8.06,0,.35,.02,.69,.05,1.04Z"/>
      </g>
    </g>
  </g>
</svg>