<?xml version="1.0" encoding="UTF-8"?>
<svg id="_레이어_2" data-name="레이어 2" xmlns="http://www.w3.org/2000/svg" viewBox="0 0 101.93 70.37">
  <defs>
    <style>
      .cls-1 {
        fill: #1a1a1a;
      }
    </style>
  </defs>
  <g id="_레이어_1-2" data-name="레이어 1">
    <g>
      <g>
        <path class="cls-1" d="M94.75,53.26h0c-.45-1.74-1.96-2.78-4.04-2.79-.5,0-1.01,0-1.52,0,.52-.3,1.1-.74,1.5-1.43,1.19-1.99,.38-3.8-.45-5.14-.21-.35-.5-.65-.88-.9-1.31-.92-2.72-1.04-4.19-.38-1.42,.64-2.83,1.28-4.25,1.92l-1.25,.56c-.05,.02-.1,.05-.15,.08-.04,.02-.11,.06-.1,.06l-.26-.13c-.54-.27-1.01-.5-1.39-.94-2.52-2.96-5.39-4.31-9.17-3.8-3.79,.51-3.84,4.26-9.61,6.33-.21,.07-.09,.2-.32,.18-8.33-.84-16-.87-23.47-.09-.06,0-.1,0-.12,0-.02,0-.03,0-.03,0,0,0-.03-.04-.07-.12-.46-1.03-2.1-.43-2.89-1.28-2.32-2.51-5.47-5.02-8.78-4.85-3.35,.17-5.55,1.49-7.62,4.25-.31,.42-.69,.54-1.15,.36-.5-.19-1-.37-1.5-.56-1.18-.43-2.4-.88-3.58-1.38-1.6-.67-2.95-.68-4.23-.03l-1.07,1.03-.35,.77c-.18,.44-.35,.89-.51,1.34-.66,1.92,.04,3.72,1.75,4.65-.34,0-.68,0-1.01,0-.89,.01-1.61,.19-2.24,.62-1.73,1.16-2.35,4.17-1.27,6.2,.67,1.27,1.79,1.97,3.23,2,.43,.01,.86,.02,1.29,.02,.26,0,.52,0,.78,0-.07,.03-.14,.07-.2,.11-1.63,.87-2.37,2.77-1.75,4.51,.11,.31,.25,.61,.39,.91l.13,.28c1.06,2.35,3.09,3.13,5.44,2.08,1.09-.49,2.17-.98,3.25-1.48l1.37-.63c.81-.37,1.54-.19,2.16,.53,2.4,2.82,5.26,4.24,8.52,4.24,.81,0,1.64-.09,2.49-.26,4.4-.9,7.31-3.61,8.64-8.08,.08-.26,.09-.27,.35-.29,6.93-.57,14.1-.5,21.9,.19,.4,.04,.46,.08,.56,.43,.87,2.94,2.86,5.34,5.58,6.75,2.74,1.42,5.86,1.65,8.79,.66,2.17-.74,4-2.06,5.41-3.92,.56-.74,1.15-.91,2.02-.58l1.8,.68c1.08,.41,2.15,.82,3.23,1.22,2.54,.95,4.65-.04,5.62-2.64,.85-2.26,.22-4.16-1.66-5.24,.33,0,.66,.01,.98,.02,.88,0,1.67-.23,2.37-.71,1.58-1.09,2.12-2.98,1.51-5.33Zm-3.77,1.82c.01,.16-.01,.22,0,.22,0,0-.05,.03-.19,.03h0c-1.35,0-2.7,0-4.06,0h-1.09s-.04-.93-.04-.93h1.18c1.37,0,2.74,.01,4.11,.03,.05,0,.08,0,.1,0,0,.07,0,.19,0,.27,0,.13,0,.25,0,.36Zm-3.68-8.12s-.07,.08-.25,.16c-.76,.32-1.52,.67-2.27,1.02-.41,.19-.81,.37-1.22,.56l-.08,.04c-.23-.27-.46-.55-.56-.71,.16-.1,.48-.24,.79-.38l.86-.38c.7-.31,1.4-.62,2.09-.96,.21-.1,.28-.08,.28-.08,0,0,.09,.04,.23,.35,.14,.32,.12,.4,.12,.4Zm-2.01,14.76l.65,.25c.61,.23,1.22,.46,1.83,.68,.11,.04,.15,.08,.16,.08,0,.02,0,.11-.12,.43-.05,.13-.14,.35-.17,.39,0,0-.04,0-.15-.04l-4.05-1.53c.52-.76,.68-.7,1.85-.26Zm-3.65-6.26c-.03,2.4-1.22,4.6-3.19,5.88h0c-.18,.12-.28,.13-.49,.08-2.24-.56-3.86-2.33-4.23-4.62,0-.05,0-.08-.01-.09,.02-.01,.06-.04,.16-.09,2.16-1.08,3.67-2.47,4.6-4.23,.39-.75,.64-1.56,.75-2.47,1.56,1.4,2.45,3.41,2.42,5.54Zm-7.56-3.76c-.76,.78-1.72,1.27-2.56,1.65-.09,.04-.16,.06-.36-.03-1.53-.66-3.05-.99-4.56-.99s-2.99,.33-4.46,.98l-.03-.11c-.76-2.87,.4-6,2.89-7.78,2.31-1.66,5.55-1.73,8.07-.18,1.47,.91,2.19,2.16,2.21,3.83,0,.99-.38,1.85-1.21,2.63Zm-11.42,6.04c.03-.18,.09-.27,.23-.35,1.22-.72,2.45-1.09,3.7-1.09,.97,0,1.96,.22,2.98,.66,.17,.08,.21,.12,.24,.32,.54,3.28,2.22,5.68,5,7.15-2.86,2.66-7.21,2.59-10.11-.15-1.75-1.82-2.43-4.02-2.02-6.54Zm-25.36-7.17c1.19-.08,2.4-.17,3.57-.27,.02,.01,.06,.06,.14,.13l6.96,6.96h-.03c-1.31,0-2.56,0-3.82,.02-.08,0-.15-.02-.22-.09-1.57-1.58-3.14-3.15-4.71-4.72l-2.02-2.02h.13Zm20.09,7.28c-1.21-.08-2.41-.17-3.62-.25-.02-.02-.04-.04-.06-.06l-.07-.07c-2.38-2.37-4.75-4.75-7.12-7.12,1.03-.04,2.07-.07,3.11-.11,.1,0,.17,.01,.27,.11,1.79,1.8,3.59,3.6,5.38,5.4l2.1,2.1Zm-18.85-.23c-.68,.05-1.32,.09-1.96,.15-.11-1-.34-1.94-.7-2.81l2.66,2.66Zm19.48-4.81l-2.23-2.23,2.14,.19c-.04,.64-.01,1.3,.08,2.04Zm-26.16,.31c-.05,.19-.1,.23-.2,.27-.36,.17-.74,.26-1.16,.27-.71,.03-1.42-.16-2.1-.34-.75-.2-1.1-.44-1.22-1.37-.44-3.43-2.47-5.73-6.04-6.84,2.32-1.38,5.32-1.34,7.62,.18,2.57,1.69,3.87,4.98,3.1,7.82Zm-9.08-2.14c.12,.21,.23,.45,.32,.72q.32,.92-.53,1.38c-2.57,1.4-4.29,3.64-5.28,6.82-.16,.52-.29,1.05-.42,1.58l-.04,.16c-1.57-.75-2.81-2.16-3.44-3.95-.74-2.09-.55-4.33,.53-6.15,.52-.88,1.23-1.65,2.15-2.33,.6-.45,1.23-.67,1.92-.67,.25,0,.51,.03,.79,.09,1.81,.38,3.18,.93,4,2.36Zm-2.28,12.91c.28-2.08,.79-4.45,2.47-6.2l.26-.24c.15-.14,.29-.27,.43-.38,.52-.4,.98-.65,1.51-.65,.29,0,.61,.08,.96,.25,2.19,1.06,4.31,1.28,6.35,.66,.57,2.48,.05,4.66-1.54,6.48-2.61,2.99-6.7,3.43-9.97,1.08-.42-.3-.54-.55-.47-1Zm-11.52-8.95c-.04,.29-.04,.59-.05,.9h-1.24c-1.16,0-2.33-.01-3.49,.01-.01,0-.03,0-.04,0-.05,0-.08,0-.1,0,0-.03,0-.09,0-.17v-.47c0-.09,.01-.19,.01-.28,.08,0,.15,0,.23,0,.13,0,.29,0,.47,0,.57,0,1.14,0,1.71,0,.83,0,1.67,0,2.5,0h.01Zm2.04-6.22l-.18,.25c-1.26-.48-2.51-.95-3.78-1.42,.06-.23,.18-.74,.22-.81,.15-.02,.61,.16,.79,.23l1.14,.44c.72,.28,1.45,.55,2.18,.82-.14,.17-.27,.35-.38,.5Zm-2.68,14.29l.68-.31c.67-.3,1.34-.6,2-.92,.04-.02,.07-.03,.09-.04,0,.01,.02,.03,.04,.06,.14,.24,.32,.45,.49,.65l.03,.04-1.43,.65c-.69,.31-1.39,.62-2.07,.96-.05,.02-.08,.04-.1,.05-.02-.03-.05-.09-.09-.19-.11-.25-.23-.5-.26-.63,.11-.08,.38-.19,.64-.31Z"/>
        <g>
          <path class="cls-1" d="M58.65,49.65c8.16,.01,13.35-5.23,14.82-11.93,.27-1.25,.38-2.61-.19-3.75-.41-.86-1.32-1.52-2.24-1.58h0c-.3-.03-.61,.03-.91,.14-1.32,.57-1.61,2.26-1.96,3.66-1.13,4.53-5.32,8.42-9.98,8.23-3.48-.14-6.48-2.88-7.1-6.28-.81-4.35,2.66-6.32,4.88-9.46,1.47-2.09,1.77-5.58-.53-6.72-.78-.38-1.69-.39-2.56-.39h-12.33c-.87,0-1.77,.01-2.56,.39-2.28,1.14-1.99,4.63-.52,6.72,2.22,3.14,5.68,5.11,4.88,9.46-.62,3.4-3.62,6.14-7.11,6.28-4.66,.19-8.84-3.7-9.97-8.23-.35-1.4-.64-3.09-1.97-3.66-.28-.12-.6-.17-.9-.14-.92,.06-1.83,.73-2.26,1.58-.56,1.14-.45,2.5-.18,3.75,1.47,6.7,5.68,11.64,14.82,11.93s11.94-6.11,11.94-6.11c0,0,3.78,6.1,11.94,6.11Z"/>
          <path class="cls-1" d="M72.27,1.41c-.06,.08-.11,.16-.15,.25-.47,.91-.15,1.99,.36,2.89,5.25,9.29,6.14,17.05,6.6,27.29,.08,1.72,.19,3.61,1.57,4.83,.94,.83,2.29,1.17,3.6,1.39,4.82,.81,12.88,2.46,16.39-1.66,2.28-2.69,1.11-5.95-.16-8.76-4.25-9.41-9.68-18.27-18.37-25.19C80.54,1.2,78.71,.06,76.52,0c-1.46-.04-3.42,.22-4.25,1.41Z"/>
        </g>
      </g>
      <path class="cls-1" d="M39.67,10.47c-.22-1.66-1.69-2.61-2.86-3.38l-.17-.11c-.9-.59-1.88-1.13-2.89-1.59-.47-.22-1.12-.44-1.88-.23-.62,.17-1.23,.64-1.5,1.17-.34,.64-.4,1.46-.16,2.15,.2,.58,.59,1.03,1.12,1.27,.6,.28,1.21,.6,1.83,.96-.59,.3-1.19,.6-1.8,.88-.58,.27-1.04,.97-1.19,1.52-.18,.64-.07,1.42,.26,1.95,.39,.6,.92,1,1.5,1.14,.21,.05,.4,.07,.6,.07,.41,0,.81-.1,1.26-.31,1.02-.47,2.01-.97,2.95-1.49l.2-.11c.4-.22,.81-.44,1.19-.69,1.16-.75,1.72-1.91,1.55-3.18Z"/>
      <path class="cls-1" d="M53.76,10.84c.22,1.66,1.69,2.61,2.86,3.38l.17,.11c.9,.59,1.88,1.13,2.89,1.59,.47,.22,1.12,.44,1.88,.23,.62-.17,1.23-.64,1.5-1.17,.34-.64,.4-1.46,.16-2.15-.2-.58-.59-1.03-1.12-1.27-.6-.28-1.21-.6-1.83-.96,.59-.3,1.19-.6,1.8-.88,.58-.27,1.04-.97,1.19-1.52,.18-.64,.07-1.42-.26-1.95-.39-.6-.92-1-1.5-1.14-.21-.05-.4-.07-.6-.07-.41,0-.81,.1-1.26,.31-1.02,.47-2.01,.97-2.95,1.49l-.2,.11c-.4,.22-.81,.44-1.19,.69-1.16,.75-1.72,1.91-1.55,3.18Z"/>
    </g>
  </g>
</svg>