<?xml version="1.0" encoding="UTF-8"?>
<svg id="_레이어_2" data-name="레이어 2" xmlns="http://www.w3.org/2000/svg" viewBox="0 0 113.19 51.98">
  <defs>
    <style>
      .cls-1 {
        fill: #1a1a1a;
      }
    </style>
  </defs>
  <g id="_레이어_1-2" data-name="레이어 1">
    <g>
      <g>
        <path class="cls-1" d="M43.31,16.84c-.34,2.31-2.5,3.9-4.8,3.56s-3.9-2.5-3.56-4.8,2.3-2.59,4.61-2.25,4.1,1.19,3.75,3.5"/>
        <path class="cls-1" d="M61.52,16.84c.34,2.31,2.5,3.9,4.8,3.56s3.9-2.5,3.56-4.8-2.3-2.59-4.61-2.25-4.1,1.19-3.75,3.5"/>
        <path class="cls-1" d="M83.53,1.41c-.06,.08-.11,.16-.15,.25-.47,.91-.15,1.99,.36,2.89,5.25,9.29,6.14,19.42,6.6,29.65,.08,1.72,.19,3.61,1.57,4.83,.94,.83,2.29,1.17,3.6,1.39,4.82,.81,12.88,2.46,16.39-1.66,2.28-2.69,1.11-5.95-.16-8.76-4.25-9.41-9.68-20.63-18.37-27.56C91.8,1.2,89.98,.06,87.79,0c-1.46-.04-3.42,.22-4.25,1.41Z"/>
      </g>
      <path class="cls-1" d="M84.47,6.7c-1.22,.07-2.44,0-3.66,.02-.36,0-.63-.09-.9-.33-5.93-5.23-14.78-4.69-20.07,1.23-.33,.36-.49,.4-.9,.11-3.94-2.79-9.21-2.8-13.14-.01-.39,.27-.56,.31-.9-.08-5.32-5.96-14.1-6.48-20.11-1.21-.24,.21-.47,.3-.78,.3-1.43-.01-2.85-.01-4.28,0-1.21,0-2.1,.86-2.12,2.01-.01,1.13,.88,2.02,2.07,2.06,.56,.02,1.12,0,1.66,0,.08,.19-.03,.3-.08,.42-1.14,2.54-1.46,5.19-1.09,7.95,1.06,7.97,9.19,13.61,17.05,11.81,8.55-1.96,13.31-10.58,10.37-18.84-.14-.4-.08-.59,.23-.84,2.59-2.07,6.43-2.09,9.06-.03,.33,.26,.41,.48,.25,.9-.92,2.45-1.14,4.98-.63,7.54,1.57,7.8,8.69,12.67,16.55,11.35,7.66-1.29,12.98-9.09,11.4-16.7-.25-1.21-.66-2.36-1.16-3.56,0,.02,.27,.01,.3,.01,.1,0,.21,.01,.31,.01,.2,0,.41,.01,.61,.01,.38,0,.77-.03,1.14-.15,.41-.12,.78-.37,1.06-.69s.4-.73,.42-1.15c0-.08,0-.17,0-.25-.02-.22-.06-.43-.15-.63-.26-.53-.8-.95-1.36-1.12-.37-.11-.76-.14-1.15-.11ZM34.23,27.21c-5.6,0-10.15-4.58-10.14-10.2,.01-5.59,4.54-10.13,10.12-10.14,5.61-.01,10.17,4.54,10.17,10.16,0,5.62-4.55,10.19-10.16,10.18Zm36.25,0c-5.6,0-10.16-4.57-10.15-10.19,0-5.62,4.57-10.17,10.18-10.16,5.6,.01,10.14,4.6,10.12,10.22-.03,5.59-4.57,10.12-10.14,10.12Z"/>
      <path class="cls-1" d="M64.31,51.97c8.16,.01,13.35-5.23,14.82-11.93,.27-1.25,.38-2.61-.19-3.75-.41-.86-1.32-1.52-2.24-1.58h0c-.3-.03-.61,.03-.91,.14-1.32,.57-1.61,2.26-1.96,3.66-1.13,4.53-5.32,8.42-9.98,8.23-3.48-.14-6.48-2.88-7.1-6.28-.81-4.35,2.66-6.32,4.88-9.46,1.47-2.09,1.77-5.58-.53-6.72-.78-.38-1.69-.39-2.56-.39h-12.33c-.87,0-1.77,.01-2.56,.39-2.28,1.14-1.99,4.63-.52,6.72,2.22,3.14,5.68,5.11,4.88,9.46-.62,3.4-3.62,6.14-7.11,6.28-4.66,.19-8.84-3.7-9.97-8.23-.35-1.4-.64-3.09-1.97-3.66-.28-.12-.6-.17-.9-.14-.92,.06-1.83,.73-2.26,1.58-.56,1.14-.45,2.5-.18,3.75,1.47,6.7,5.68,11.64,14.82,11.93s11.94-6.11,11.94-6.11c0,0,3.78,6.1,11.94,6.11Z"/>
      <path class="cls-1" d="M15.27,12.92c-.03,.34-.27,.49-.55,.61-.79,.34-1.55,.73-2.35,1.05-.51,.2-.77,.52-.93,1.03-.29,.91-.64,1.8-.95,2.7-.1,.29-.21,.59-.57,.58-.35,0-.46-.3-.56-.59-.33-.95-.69-1.89-1.01-2.84-.13-.41-.36-.66-.76-.82-.84-.35-1.65-.75-2.48-1.12-.29-.13-.52-.28-.53-.63,0-.35,.22-.51,.51-.64,.83-.36,1.65-.76,2.48-1.11,.4-.16,.63-.41,.77-.82,.32-.98,.69-1.94,1.03-2.91,.09-.26,.2-.53,.52-.55,.36-.02,.48,.28,.58,.57,.34,.97,.7,1.94,1.03,2.91,.13,.38,.35,.62,.71,.77,.84,.35,1.66,.73,2.49,1.11,.3,.13,.57,.3,.57,.69Z"/>
      <path class="cls-1" d="M3.62,19.44c.19-.01,.3,.06,.36,.19,.05,.1,.1,.21,.12,.32,.3,1.64,1.15,2.77,2.84,3.16,.22,.05,.42,.18,.42,.47,0,.29-.21,.4-.44,.46-1.64,.41-2.5,1.5-2.8,3.11-.04,.22-.09,.54-.41,.57-.38,.03-.37-.34-.48-.57-.01-.02-.01-.04-.02-.07-.29-1.56-1.13-2.63-2.72-3.02-.24-.06-.49-.17-.49-.49,0-.32,.26-.44,.49-.49,1.62-.37,2.41-1.47,2.73-3.02,.05-.25,.09-.56,.4-.63Z"/>
    </g>
  </g>
</svg>