<?xml version="1.0" encoding="UTF-8"?>
<svg id="_레이어_2" data-name="레이어 2" xmlns="http://www.w3.org/2000/svg" viewBox="-10 0 120 84.02">
  <defs>
    <style>
      .cls-1 {
        fill: #1a1a1a;
      }
    </style>
  </defs>
  <g id="_레이어_1-2" data-name="레이어 1">
    <g>
      <g>
        <path class="cls-1" d="M41.04,9.13c-.19,.67-.89,1.07-1.56,.89-6.43-1.78-13.08,1.98-14.86,8.41-.19,.67-.89,1.07-1.56,.89s-1.07-.89-.89-1.56c2.15-7.78,10.21-12.34,17.98-10.19,.67,.19,1.07,.89,.89,1.56h0ZM0,51.47c0-1.33,.51-2.6,1.46-3.49l10.1-10.1c.89-.95,2.16-1.46,3.49-1.46,.95,0,1.84,.25,2.61,.7l2.22-2.22c-3.3-3.75-5.27-8.58-5.27-13.92C14.62,9.4,24.02,0,35.58,0c11.56,0,20.97,9.4,20.97,20.97,0,11.56-9.4,20.97-20.97,20.97-5.34,0-10.23-1.97-13.92-5.27l-2.22,2.22c.45,.76,.7,1.65,.7,2.61,0,1.33-.51,2.54-1.46,3.49l-10.1,10.1c-.89,.95-2.16,1.46-3.49,1.46s-2.54-.51-3.49-1.46l-.13-.13C.51,54.08,0,52.8,0,51.47H0ZM18.43,20.97c0,9.47,7.69,17.16,17.16,17.16,9.47,0,17.16-7.69,17.16-17.16,0-9.47-7.69-17.16-17.16-17.16-9.47,0-17.16,7.69-17.16,17.16h0ZM3.81,51.47c0,.32,.13,.57,.32,.83l.13,.13c.44,.45,1.21,.45,1.65,0l10.1-10.1c.45-.44,.45-1.21,0-1.65l-.13-.13c-.25-.19-.51-.32-.83-.32s-.64,.13-.83,.32l-10.1,10.1c-.19,.25-.32,.51-.32,.83h0Z"/>
        <g>
          <path class="cls-1" d="M47.4,24.05c0,2.33-1.89,4.23-4.23,4.23s-4.23-1.89-4.23-4.23,1.89-4.23,4.23-4.23,4.23,1.89,4.23,4.23"/>
          <path class="cls-1" d="M69.04,24.05c0,2.33-1.89,4.23-4.23,4.23s-4.23-1.89-4.23-4.23,1.89-4.23,4.23-4.23,4.23,1.89,4.23,4.23"/>
          <path class="cls-1" d="M78.32,42.77c-.3-.03-.61,.03-.91,.14-1.32,.57-1.61,2.26-1.96,3.66-1.13,4.53-5.32,8.42-9.98,8.23-3.48-.14-6.48-2.88-7.1-6.28-.81-4.35,2.66-6.32,4.88-9.46,1.47-2.09,1.77-5.58-.53-6.72-.78-.38-1.69-.39-2.56-.39h-12.34c-.87,0-1.77,.01-2.56,.39-2.28,1.14-1.99,4.63-.52,6.72,2.22,3.14,5.68,5.11,4.88,9.46-.62,3.4-3.62,6.14-7.11,6.28-4.66,.19-8.84-3.7-9.97-8.23-.35-1.4-.64-3.09-1.97-3.66-.29-.12-.6-.17-.9-.14-.92,.06-1.83,.73-2.26,1.58-.56,1.14-.45,2.5-.18,3.75,1.47,6.7,7.97,11.93,14.82,11.93,.45,5.94-1.25,12.33,1.47,17.64,1.93,3.79,6.09,6.35,10.34,6.35,.04,0,.08,0,.12,0,.04,0,.08,0,.12,0,4.26,0,8.42-2.56,10.36-6.35,2.71-5.31,1.01-11.69,1.47-17.64,6.85,0,13.35-5.23,14.82-11.93,.27-1.25,.38-2.61-.19-3.75-.41-.86-1.32-1.52-2.24-1.58h0Zm-17.73,29.35c0,3.54-2.86,6.41-6.38,6.47v-.03c-.08,0-.14,.02-.21,.02-.07,0-.14-.02-.21-.02v.03c-3.54-.05-6.39-2.93-6.39-6.47v-13.24c1.39-.57,2.66-1.34,3.8-2.28v8.64c0,1.49,1.19,2.69,2.69,2.69,.04,0,.08,0,.11,0,.04,0,.07,0,.11,0,1.48,0,2.69-1.19,2.69-2.69v-8.64c1.14,.95,2.41,1.71,3.79,2.28v13.24h0Z"/>
        </g>
      </g>
      <path class="cls-1" d="M79.55,11.79c-.06,.08-.11,.16-.15,.25-.47,.91-.15,1.99,.36,2.89,5.25,9.29,6.14,19.42,6.6,29.65,.08,1.72,.19,3.61,1.57,4.83,.94,.83,2.29,1.17,3.6,1.39,4.82,.81,12.88,2.46,16.39-1.66,2.28-2.69,1.11-5.95-.16-8.76-4.25-9.41-9.68-20.63-18.37-27.56-1.57-1.25-3.39-2.39-5.58-2.45-1.46-.04-3.42,.22-4.25,1.41Z"/>
    </g>
  </g>
</svg>