<?xml version="1.0" encoding="UTF-8"?>
<svg id="_레이어_2" data-name="레이어 2" xmlns="http://www.w3.org/2000/svg" viewBox="-14 0 125 73">
  <defs>
    <style>
      .cls-1 {
        fill: #1a1a1a;
      }
    </style>
  </defs>
  <g id="_레이어_1-2" data-name="레이어 1">
    <g>
      <g>
        <path class="cls-1" d="M7.3,59.52l4.72-2.25c1.25-.54,2.12-1.7,2.28-3.05,.16-1.35-.41-2.69-1.5-3.5-1.09-.81-2.53-.99-3.78-.45l-4.72,2.25c-1.25,.54-2.12,1.7-2.28,3.05-.16,1.35,.41,2.69,1.5,3.5,1.09,.82,2.53,.99,3.78,.45Z"/>
        <path class="cls-1" d="M7.56,44.76c1.26,.51,2.7,.3,3.77-.54,1.07-.84,1.61-2.19,1.42-3.54-.19-1.35-1.09-2.49-2.36-2.99l-5.16-1.95c-1.26-.51-2.7-.3-3.77,.54-1.07,.84-1.61,2.19-1.42,3.54,.19,1.35,1.09,2.49,2.36,2.99l5.16,1.95Z"/>
        <path class="cls-1" d="M17.09,60.91c-.93,.4-1.66,1.15-2.04,2.08l-2.03,4.62c-.51,1.26-.3,2.7,.54,3.77,.84,1.07,2.19,1.61,3.54,1.42,1.35-.19,2.49-1.09,2.99-2.36l2.03-4.62c.38-.94,.36-1.99-.03-2.92s-1.15-1.66-2.09-2.04c-.94-.38-1.99-.36-2.92,.04h0Z"/>
      </g>
      <g>
        <path class="cls-1" d="M79.85,1.41c-.06,.08-.11,.16-.15,.25-.47,.91-.15,1.99,.36,2.89,5.25,9.29,6.14,19.42,6.6,29.65,.08,1.72,.19,3.61,1.57,4.83,.94,.83,2.29,1.17,3.6,1.39,4.82,.81,12.88,2.46,16.39-1.66,2.28-2.69,1.11-5.95-.16-8.76-4.25-9.41-9.68-20.63-18.37-27.56C88.11,1.2,86.29,.06,84.1,0c-1.46-.04-3.42,.22-4.25,1.41Z"/>
        <path class="cls-1" d="M60.62,51.97c8.16,.01,13.35-5.23,14.82-11.93,.27-1.25,.38-2.61-.19-3.75-.41-.86-1.32-1.52-2.24-1.58h0c-.3-.03-.61,.03-.91,.14-1.32,.57-1.61,2.26-1.96,3.66-1.13,4.53-5.32,8.42-9.98,8.23-3.48-.14-6.48-2.88-7.1-6.28-.81-4.35,2.66-6.32,4.88-9.46,1.47-2.09,1.77-5.58-.53-6.72-.78-.38-1.69-.39-2.56-.39h-12.33c-.87,0-1.77,.01-2.56,.39-2.28,1.14-1.99,4.63-.52,6.72,2.22,3.14,5.68,5.11,4.88,9.46-.62,3.4-3.62,6.14-7.11,6.28-4.66,.19-8.84-3.7-9.97-8.23-.35-1.4-.64-3.09-1.97-3.66-.28-.12-.6-.17-.9-.14-.92,.06-1.83,.73-2.26,1.58-.56,1.14-.45,2.5-.18,3.75,1.47,6.7,5.68,11.64,14.82,11.93s11.94-6.11,11.94-6.11c0,0,3.78,6.1,11.94,6.11Z"/>
      </g>
      <path class="cls-1" d="M32.48,49.05c.15,4.14,.83,8.18,4.25,10.91,3.01,2.41,6.85,3.36,10.64,3.54,4.28,.21,8.75-.67,12.17-3.36,3.01-2.37,5.04-6.1,4.78-9.99-.09-1.35-1.08-2.5-2.5-2.5-1.28,0-2.59,1.15-2.5,2.5,.17,2.51-1.08,4.82-3.11,6.28-2.54,1.83-5.79,2.22-8.84,2.07-2.51-.12-5.3-.68-7.33-2.26-2.28-1.78-2.46-4.5-2.56-7.19-.12-3.21-5.12-3.22-5,0h0Z"/>
      <path class="cls-1" d="M40.5,59.81c1.8-2.24,4.92-3.01,7.73-3.14,3.15-.14,6.06,.56,8.66,2.42,1.1,.79,2.78,.19,3.42-.9,.74-1.26,.2-2.63-.9-3.42-3.28-2.35-7.49-3.34-11.49-3.09s-8.39,1.4-10.95,4.59c-.85,1.05-1.03,2.51,0,3.54,.88,.88,2.68,1.06,3.54,0h0Z"/>
      <g>
        <path class="cls-1" d="M27.61,14.46c3.78-.55,7.41,.16,9.83,3.27s6.59-1.23,4.24-4.24c-3.78-4.86-9.94-5.64-15.67-4.81-3.81,.55-2.19,6.33,1.6,5.79h0Z"/>
        <path class="cls-1" d="M71.37,8.67c-5.73-.83-11.88-.05-15.67,4.81-2.35,3.01,1.87,7.29,4.24,4.24s6.06-3.81,9.83-3.27,5.41-5.23,1.6-5.79h0Z"/>
      </g>
    </g>
  </g>
</svg>